<svg width="199" height="100" viewBox="0 0 199 100" fill="none" xmlns="http://www.w3.org/2000/svg">
<path d="M69.3617 60.2154C68.7828 60.2142 68.2786 60.5167 67.7053 60.493C67.7812 59.812 69.3844 59.829 69.475 59.7225C69.705 57.546 67.5217 58.227 66.3491 57.9528C66.1531 57.9063 66.1882 57.4509 66.0341 57.4418C64.2632 57.3342 62.4516 59.3928 61.2211 60.4952C61.2359 59.6104 61.7537 58.193 60.2252 59.2546C58.6458 60.3525 57.6805 60.0296 55.8745 60.7411C55.0146 61.0787 54.4209 61.4163 53.7264 62.0214C53.6108 61.5217 53.9824 61.4186 54.2566 61.1558C57.574 57.98 63.2402 57.8565 66.0556 54.1368C66.3989 53.1613 63.1892 53.7981 62.6238 54.0167C61.884 54.3034 60.4564 55.4772 59.8185 56.0414C58.6187 57.1019 57.8426 58.9136 55.759 58.8444C58.1145 57.4724 59.7075 54.3691 61.7321 52.8702C62.7473 52.1178 63.9777 51.8765 64.9918 51.301C67.0028 50.16 68.6955 48.4594 69.7322 46.386C67.4923 45.1828 64.772 47.34 63.1314 48.8027C63.2957 48.0289 63.6174 46.3577 64.0367 45.7708C64.3584 45.321 65.5413 44.7432 66.059 44.2333C67.8299 42.4851 70.1446 39.9166 70.2455 37.3651C68.998 37.279 67.9681 38.1627 67.064 38.8822L64.9113 41.4292C65.2557 40.2678 64.9238 38.267 65.215 37.288C65.2807 37.0671 66.9303 35.1739 67.3031 34.5473C68.4338 32.6518 69.1986 30.4323 69.2292 28.2127C67.5637 28.7045 65.7849 31.418 65.2807 33.0325C65.0609 33.7361 65.4336 34.7445 64.6575 35.0753C65.0144 33.3294 63.7772 30.9251 63.8701 29.3525C63.9857 27.3947 66.1214 26.2946 65.6444 22.2656C65.5764 21.6992 64.8603 18.3885 63.9052 19.0661C63.1914 20.8041 62.6748 22.9081 62.6113 24.7922C62.5898 25.412 63.2458 26.6107 62.6238 26.9393C62.506 25.71 61.118 24.518 60.8994 23.4508C60.7056 22.5081 60.9322 21.4601 60.8144 20.4857C60.6275 18.9448 59.4514 15.3872 57.5378 15.5028C57.7179 16.7491 57.9117 17.9897 58.2912 19.1964C58.843 20.9514 59.8989 22.4605 60.5844 24.1442C58.9427 22.6883 58.2436 20.8505 56.185 19.7776C55.3273 19.3301 53.3264 18.3817 52.9627 19.6915C56.6937 23.3409 60.777 23.2514 62.4992 28.9707C62.5762 29.2234 62.8527 29.7853 62.37 29.7355C60.8325 27.8989 60.5855 24.9123 58.0442 24.0207C57.7077 23.9028 55.3862 23.402 55.7624 24.2643C56.0094 24.8285 57.9774 26.8294 58.5507 27.3256C59.5942 28.2275 62.481 29.672 62.9308 30.5716C63.2923 31.2945 64.3493 38.1151 63.7647 38.1287C62.9648 37.1804 63.4735 36.1868 63.3183 35.013C63.0883 33.2818 61.697 30.217 59.7029 30.2351C59.2871 30.2397 59.2747 30.1683 59.3268 30.6113C59.4809 31.9278 60.3691 34.0896 61.0523 35.2453C62.6544 37.9577 64.1737 37.4523 63.8588 41.2705L63.1314 44.2254C63.3648 42.0965 63 38.838 60.7725 37.8115C59.0605 37.0229 60.3181 40.9941 60.5787 41.82C60.9084 42.8681 62.5026 45.4286 62.549 45.9136C62.6147 46.6013 61.6086 49.5731 61.2869 50.3912C61.1532 50.7299 60.973 51.5389 60.5901 51.5978C60.9028 49.7227 61.2325 47.5417 60.087 45.8716L59.4469 46.0099C57.7542 50.0309 59.9817 54.9571 56.0139 57.9539C56.2609 57.0249 56.9056 56.6124 57.0336 55.5452C57.1254 54.7838 56.9634 53.9046 57.0257 53.1239C56.3402 53.7256 53.9722 56.4629 53.834 57.1755C53.766 57.529 54.3948 58.0887 54.4243 58.6337C54.4764 59.6115 50.818 64.8799 49.6589 65.5801C49.5298 65.0612 49.8107 64.8947 50.0305 64.5559C50.6945 63.5283 51.4932 62.6264 52.0767 61.5183C52.6013 60.5224 54.4549 56.8209 51.7164 59.1243C51.2225 59.539 50.6152 60.8748 49.6578 60.6244C61.9429 49.9855 60.5436 28.1527 48.1339 18.1676C45.7931 16.2846 43.3289 16.0194 40.6119 15.0065L40.9167 13.9619L42.0305 13.9789C41.7302 14.5012 42.112 14.9159 42.6661 15.0031L43.6812 13.9778C45.8974 14.9318 48.7729 19.7107 51.3448 17.191C53.3355 15.2399 50.0521 15.1142 49.9252 14.9793C49.7983 14.8423 50.1586 13.7093 49.3983 13.3286L47.2864 13.9336L42.717 11.3843L40.5054 11.1781L41.2714 9.6554L43.3005 10.1618L43.0479 8.89402C45.8373 8.56545 44.6001 10.0746 44.8539 11.0139C45.17 12.1876 48.7695 12.6227 49.1343 10.274C49.7496 6.30739 44.4664 4.68834 41.5399 6.74926C40.8363 7.24438 40.6391 7.91511 40.1293 8.38984C39.7985 8.69688 39.2036 8.73201 38.7096 9.25772C37.7862 10.2366 37.9165 11.5532 37.9857 12.8108L38.8558 14.9895C36.5173 14.3993 36.6147 10.9606 37.3229 9.14215C38.1001 7.14694 42.5256 6.00262 42.0452 3.97455C41.9443 3.54968 40.3151 3.29929 40.2505 4.05953L41.0119 4.56598L38.2202 6.35045C37.8667 5.9471 39.3328 4.98519 39.5719 4.78238C39.7962 4.59204 40.3967 4.28386 39.6206 4.32012C39.1696 4.64189 38.6122 4.80617 38.2055 5.19366C37.6922 5.68198 37.6854 6.30173 37.2028 6.6031L38.2179 3.04663L37.4883 3.02623C37.4486 1.9159 37.2164 0.743246 36.31 0C35.0931 0.804428 35.6664 3.1452 34.1493 3.04889C33.9692 3.72529 34.4711 3.40579 34.7374 3.86692C35.0818 4.46174 35.3775 5.3976 35.4183 6.09665C34.3839 5.25257 30.7866 1.96575 30.3697 4.75519C30.2314 5.68651 31.3406 5.71937 31.9445 6.14084C32.6447 6.62916 35.1656 8.42723 35.3662 9.07417C35.8012 10.4723 35.9145 14.048 34.274 14.7369C33.422 15.0938 34.5017 13.2379 34.5527 12.9694C34.7317 12.0234 34.1811 9.2985 33.3766 8.77619C33.107 8.60058 32.6255 8.66063 32.3898 8.49181C30.449 7.10729 29.623 5.71823 26.7123 6.15784C21.6444 6.92374 22.0478 14.0967 27.255 11.6563C26.769 9.93411 27.3208 8.32639 29.3205 8.89629C29.1302 9.35742 29.0599 10.6626 29.7012 10.6672C30.0875 10.6694 30.2326 9.4288 30.7152 9.65653L31.6058 11.1804C29.989 10.5958 28.7223 12.2284 27.5156 12.8074C26.5016 13.2946 25.0706 13.1643 24.4905 14.482C25.2723 14.4298 25.8898 13.2107 26.7758 13.5937C25.9408 15.0043 24.4226 16.263 22.7333 16.2449C22.2053 15.385 23.0516 14.9068 22.9791 13.9914L23.9818 13.9744C23.4402 12.8742 22.1951 13.971 22.4477 14.9839C18.9422 14.6938 20.525 18.0577 22.9633 18.1699C19.8101 22.899 16.3703 27.6598 14.9552 33.2942C12.6858 42.3288 14.7366 52.4736 21.3136 59.224C23.464 61.4299 26.8766 63.0932 27.7921 66.3426C26.7848 65.1178 26.0722 63.8829 24.878 62.7771C24.0067 61.9704 22.9406 61.4367 22.075 60.7513C21.2139 60.0692 20.5522 58.6836 19.4079 58.7175C18.7927 59.343 21.1437 63.3005 21.692 63.9293C21.871 64.1355 22.2279 64.574 22.4557 64.1831C21.4099 62.8065 20.2089 61.2373 19.9166 59.4801L22.6573 61.9466L22.7083 65.0714C22.2721 65.5507 18.4528 60.4692 18.2545 59.7406C17.9033 58.4513 18.7134 57.7409 18.5242 57.2061C18.3837 56.8084 15.7461 53.5001 15.4628 53.3811C14.8827 53.1364 15.1762 53.6904 15.1954 53.9012C15.3223 55.2982 15.3869 56.3303 16.1041 57.5698C15.9817 57.9052 15.5727 57.2752 15.4889 57.1687C12.764 53.7244 14.6946 49.5448 12.8037 45.8716C12.0774 45.3969 11.6106 47.2176 11.5494 47.6799C11.3115 49.4598 11.8202 50.2858 12.1749 51.8414C12.2338 52.1008 12.5148 52.6696 12.0378 52.6141C11.571 50.8172 9.93379 47.9541 9.98818 46.1424C10.0346 44.6038 11.7704 42.6834 12.2134 40.9748C13.3147 36.734 11.6446 36.7963 9.6902 39.9755L8.98661 43.9716L8.46543 40.2724C8.70562 37.5033 8.4439 33.7848 9.47266 31.1178C10.1298 29.4137 13.0597 28.283 14.4567 26.9483C15.3801 26.0646 15.9545 24.9101 16.8632 24.0161C12.3629 22.9772 11.9619 27.4061 9.87261 29.9904C10.2034 26.6787 12.065 24.6257 14.749 22.9194C16.308 21.9269 18.5446 21.5337 19.3751 19.6575C19.4997 18.3115 16.7748 19.5181 16.2208 19.8161C14.3581 20.8154 13.488 22.4775 12.0366 23.8904C13.3113 21.0126 14.9416 18.5426 15.0821 15.2479C13.1685 15.9005 12.0514 18.0475 11.8021 19.9725C11.6673 21.0069 11.9483 22.2192 11.7273 23.2015C11.4951 24.228 9.85335 25.9105 9.74345 27.1931C9.28912 27.252 9.49532 26.6209 9.52251 26.3376C9.76724 23.7589 9.89074 21.3139 8.3442 19.0615C7.06618 18.7624 6.62771 23.6298 6.72401 24.4999C6.91549 26.2345 8.54247 28.6172 8.61385 29.3423C8.77814 31.0226 7.61681 34.1938 7.70972 36.0905L6.93588 32.4207C6.7784 31.8678 6.51667 31.3308 6.23569 30.8334C6.04308 30.4912 3.78615 27.4922 3.393 27.959C3.19699 31.6775 4.88742 34.9439 7.41854 37.5498L7.45593 41.4292L4.64496 38.0166C3.98669 37.4886 3.17207 37.3979 2.37897 37.2257C1.68784 37.0762 2.48321 38.8085 2.58404 39.0601C3.32389 40.9148 4.87043 42.8545 6.30934 44.2322C8.39065 46.2285 8.43937 45.449 9.48852 48.6803C9.53045 48.8084 9.55764 49.095 9.36616 49.0554C7.80716 47.1111 5.39727 45.9475 2.88315 46.0076C2.14557 46.7372 5.3055 49.9244 5.95584 50.4331C7.4242 51.5819 9.75931 52.2175 10.898 53.1171C11.8021 53.8309 13.1662 55.8692 14.0613 56.8164C15.0164 57.8281 16.0814 58.687 17.117 59.6081L14.0908 58.0581C12.1817 56.0958 10.3099 53.8015 7.32337 53.6293C6.80446 53.5998 6.29574 53.5126 5.93885 54.0133C8.7838 58.0536 14.5247 57.9924 17.8602 60.8974C18.1503 61.149 18.4902 61.2883 18.3871 61.7664C17.2156 60.6652 15.6316 60.8102 14.263 60.4272C13.2614 60.1474 12.3561 59.386 11.2719 59.4812L11.3999 60.4941C9.79217 59.335 8.80873 57.7885 6.59825 57.6854L6.29801 58.2168C5.06417 57.631 2.56818 57.9618 2.98739 59.7486L4.91575 60.7479C2.01981 59.4835 -1.21716 62.4904 0.459674 65.3343L1.86459 65.5778L1.10775 64.9479C1.7275 63.5317 2.63956 62.7805 4.13965 62.3873C7.11603 61.609 8.93109 62.095 11.7783 63.0411L8.3374 64.2964L7.95445 64.9558L8.19804 65.7319C9.18375 66.5182 10.3961 66.048 11.2685 65.3263C10.5399 66.8105 9.6732 69.4901 12.1658 69.6612C14.1247 69.796 14.9031 67.692 13.0518 67.2343C15.2985 66.1239 18.0925 67.4405 20.4231 67.871C20.2373 68.4489 19.5167 68.3231 19.1371 68.7434C18.6579 69.2737 18.4675 71.1114 18.6828 71.7697C19.9619 73.2267 20.3143 70.7069 21.5799 70.6741C24.9494 70.7806 28.9477 72.8902 32.119 71.3017C34.2524 70.2333 35.1339 67.6569 33.8955 65.5824C36.046 64.9819 35.6064 67.9798 34.8745 69.2284C34.3204 70.1721 31.0245 72.4823 31.1197 73.0432C32.068 74.4198 33.2577 74.3733 34.658 73.7173C33.9352 75.01 34.8699 76.688 36.0686 77.2874C37.1404 77.3848 38.7108 74.7585 38.2191 73.715C39.2342 74.6973 42.2503 73.6618 41.0153 72.3135C40.7864 72.0642 39.7463 71.7266 39.2286 71.3051C37.7092 70.0702 36.4233 67.5289 37.2277 65.6084L38.4706 65.5812C36.8345 69.6408 39.6908 71.9498 43.679 71.6756C45.4283 71.5555 50.5064 69.8379 51.6813 70.5438C52.2354 70.8769 52.1538 71.6212 52.4404 71.8184C54.4356 72.8098 54.1512 69.7824 53.5938 68.8873C53.4193 68.6063 52.7429 68.3967 52.4053 68.297C51.8467 68.1339 50.8996 68.2936 50.6741 67.871C53.6777 68.0852 56.3062 65.4804 59.3143 67.1085C59.3676 67.5866 58.6526 67.2547 58.4079 67.5934C58.2493 67.811 58.204 68.8885 58.3365 69.1026C58.5178 69.3983 60.2842 69.4674 60.7079 69.3847C62.3723 69.0641 61.5418 66.116 60.5878 65.3286C61.8783 65.8373 63.2299 66.8037 64.2666 65.3354L64.0978 64.4936L60.334 62.7861C61.7401 63.0139 63.571 61.8446 64.798 61.7846C65.6296 61.7438 69.3209 62.4587 69.9826 62.9221C70.7655 63.4705 71.6764 64.8221 70.7553 65.5778C74.2721 65.2719 71.7648 60.2188 69.3617 60.2154ZM65.1628 54.1436C64.9261 54.7611 62.327 56.0086 62.1139 55.0274C61.9179 54.1278 64.6575 54.0417 65.1628 54.1436ZM65.4189 48.0436L67.4492 47.1485L66.689 46.7712L68.9742 46.5163C68.3341 48.584 65.8755 49.7737 63.8916 50.0705L66.178 48.5455L65.4189 48.0436ZM69.6144 37.8749C69.8546 38.2035 69.3357 39.5778 69.151 39.8271C69.1068 39.8849 68.0055 40.7267 67.9613 40.6678L68.2129 39.4C67.5705 38.9252 66.2664 40.9737 65.6738 41.1765C66.3287 39.588 68.0758 38.5038 69.6144 37.8749ZM67.1909 41.3011C66.6856 41.9855 66.0987 43.0754 65.1628 43.208L67.1909 41.3011ZM68.0678 30.2272C68.2661 29.9066 68.2231 28.8302 68.7239 29.1033C68.6887 29.5882 68.6468 30.268 68.384 30.6747C68.2831 30.83 67.89 30.9036 67.7359 31.1551C67.3847 31.7307 67.5444 32.7357 66.945 33.0404C66.7898 31.4973 67.4538 31.222 68.0678 30.2272ZM58.0476 16.0115C58.4023 16.0013 58.5563 16.8023 58.63 17.0777C58.7886 17.6713 58.7659 18.2786 58.9234 18.8179C59.1625 19.6416 59.6746 20.2795 59.8219 21.0941C58.5858 19.9011 58.23 17.66 58.0476 16.0115ZM53.4703 19.6949L55.2469 19.8263L54.4878 20.2036L57.0279 21.8544C55.6174 21.7456 54.4016 20.6681 53.4703 19.6949ZM61.092 39.145C60.6003 39.1008 60.8971 39.6492 60.9662 39.9064C61.1826 40.7142 61.7004 41.5742 61.7741 42.45C61.8171 42.9519 61.4466 42.8012 61.3526 42.7015C61.1724 42.5134 60.1573 38.3667 60.3351 38.1265C62.3315 38.9128 62.3032 41.1402 62.6181 42.9553C61.7639 41.9968 61.7616 40.3132 61.092 39.145ZM62.1219 49.4474C62.7133 47.6357 63.0204 45.7141 63.7194 43.9274L64.6541 36.3465C64.5499 37.867 64.798 39.5506 64.6541 41.0496C64.4683 42.9825 62.8425 49.1154 62.0562 50.9067C61.8443 51.3893 61.6574 51.7779 61.2211 52.1065C60.9458 51.2624 61.833 50.3368 62.1219 49.4474ZM59.3755 47.9088C59.3925 47.8295 60.2354 47.4386 59.8276 46.5163C60.2751 46.6421 60.3385 47.8034 60.3499 48.1716C60.3861 49.2298 59.9624 50.2733 60.0768 51.3429C59.6191 51.2522 59.8038 50.0501 59.8094 49.6762C59.814 49.2434 59.9023 48.933 60.0791 48.5512C58.9348 48.3257 60.0712 50.3685 59.3188 50.5804C59.3834 49.7861 59.2248 48.652 59.3755 47.9088ZM50.4192 16.7706L50.0362 15.5039L51.1771 16.1373C50.8916 16.2993 50.7885 16.8046 50.5948 16.9462C50.1506 17.2703 48.6381 17.5025 48.3866 16.7751L50.4192 16.7706ZM48.1305 14.7369L47.8756 13.9789L48.7287 13.7727L49.1706 14.0933L49.6567 16.518C47.47 16.9802 46.3653 15.2093 45.5915 13.4679L48.1305 14.7369ZM34.2785 6.34818C33.6689 5.69217 32.8928 5.29109 32.3705 4.57391C33.8819 4.91721 35.3073 6.31192 35.4183 7.87433C34.9141 7.55369 34.7317 6.8365 34.2785 6.34818ZM14.5723 24.4002L16.1007 24.1476C15.2339 25.0891 14.2675 26.4838 13.0507 26.9381C13.4416 26.0079 15.2022 25.4811 14.5723 24.4002ZM18.0109 20.079L17.628 19.5714H18.8981C18.0075 20.8211 16.5652 21.7671 15.0844 22.1082L18.0109 20.079ZM8.2207 20.7134V24.9078L7.69612 22.2385L7.96918 19.5691C8.88917 19.8762 8.2207 20.4823 8.2207 20.7134ZM5.29417 42.4511C3.95723 40.9918 3.34202 39.8078 2.88315 37.8738C4.78319 38.2534 6.39998 39.6447 6.43963 41.6852L5.29644 40.4151C4.88742 40.8853 5.88106 41.3544 6.15525 41.8438C6.5382 42.5259 6.45209 43.3598 7.2044 43.9705C6.91889 44.2469 5.52757 42.706 5.29417 42.4511ZM3.39187 46.5163C4.0592 46.4608 6.2153 46.9389 6.63337 47.3411C7.02766 47.7207 7.33357 49.3205 8.21957 49.6932C7.02652 51.071 2.85483 46.9774 3.39187 46.5163ZM10.0324 41.5912C10.1853 40.1523 10.5853 38.7315 12.0321 38.1265C12.1658 39.409 11.9437 40.4922 11.5223 41.6841C10.2544 40.9714 11.7341 39.8237 11.7772 38.889C10.5286 39.6107 10.5841 41.4428 10.2522 42.7004C9.7797 42.74 10.0029 41.8722 10.0324 41.5912ZM10.3122 50.6517C9.03306 47.3898 7.43327 40.9397 7.74484 37.5226C7.7709 37.2405 7.86041 36.1177 8.2207 36.0927C8.35553 37.9327 8.03829 40.0016 8.2207 41.8121C8.5606 45.1612 10.5796 49.5641 11.7817 52.741C11.103 52.5201 10.5637 51.2953 10.3122 50.6517ZM13.0484 50.5804L12.67 48.0379L12.2904 50.5804C12.4808 49.1449 11.7058 47.8838 12.2916 46.5152C13.5764 47.3502 12.8909 49.2797 13.0484 50.5804ZM9.80576 55.2257L6.69569 54.1436C8.49262 54.0553 10.4187 54.7453 11.5257 56.1717L9.80576 55.2257ZM2.27473 62.0497C1.88952 62.2366 1.51223 62.4519 1.21765 62.7714C0.804105 63.2189 0.790509 63.8557 0.342975 64.054C0.073322 63.0229 1.61533 61.2997 2.44015 60.9416C3.76009 60.3683 4.80472 61.533 6.18584 61.2611L2.27473 62.0497ZM6.63337 61.1931C5.44259 60.6856 4.8557 59.2716 3.39074 59.4767C4.00142 58.4082 5.86407 59.0722 5.68166 60.2414L6.19037 60.2392C6.07934 59.999 5.68165 59.599 6.3082 59.7384C7.50011 60.0024 8.22297 60.6742 9.06478 61.1728C9.43527 61.3926 10.1185 61.1603 10.2544 61.7642C9.11464 61.788 7.69159 61.6441 6.63337 61.1931ZM9.39902 60.7162L4.66309 58.4649C6.7648 58.4422 8.98434 59.7078 10.5094 61.0017L9.39902 60.7162ZM38.8513 71.9623C39.3996 72.5662 40.4329 72.0337 40.7592 72.9491C39.9152 72.8585 38.9952 73.3026 38.2191 72.8268L38.8513 71.9623ZM59.3166 60.2448C58.8113 60.7513 58.2108 61.311 57.6579 61.7608C57.3905 61.9783 55.9505 63.211 55.7578 63.0354C56.8546 61.9874 57.6137 60.1587 59.3166 60.2448ZM50.1484 61.3699L52.7056 59.2263L51.3074 61.7664L51.0559 61.26L47.3691 63.5441L50.1484 61.3699ZM49.3995 63.2926C49.097 64.7666 48.8228 66.5534 47.6252 67.6138C47.8575 66.2576 48.4659 64.2998 49.3995 63.2926ZM45.3377 67.8676C45.3037 67.2513 47.8223 63.2609 48.3854 63.8036L45.3377 67.8676ZM40.7604 13.213C40.3128 11.6155 42.9946 12.2386 43.0422 12.8323C43.0762 13.2515 41.0776 12.9479 40.7604 13.213ZM45.5892 9.65766C46.4004 9.50584 47.0224 9.27811 47.6173 10.0361C47.2524 10.5176 46.763 10.8586 46.1432 10.6218L45.5892 9.65766ZM41.5081 7.22739C43.9158 5.11321 49.5683 6.91921 48.4704 10.3749C48.1418 11.4081 47.368 11.765 46.354 11.4308C46.4605 10.8824 47.2581 11.424 47.7566 10.9334C49.4538 9.26338 46.6044 6.87616 44.6987 6.83877C42.4259 6.79345 41.7869 8.47708 40.1225 9.39934C39.9287 9.03791 41.1343 7.55595 41.5081 7.22739ZM43.0468 12.1944C40.749 11.3979 39.5458 12.3712 40.2483 14.7392C37.6242 13.0306 41.0799 10.0531 43.0468 12.1944ZM35.9327 9.78456C35.9961 8.01255 36.1661 7.17527 35.8658 5.2707C35.7786 4.71327 35.2835 4.07312 35.271 3.68224C35.254 3.11121 35.927 1.95895 35.9327 1.26782C36.3745 1.20777 36.1717 1.84565 36.1831 2.15383C36.2714 4.48213 36.4629 6.04227 36.6929 8.25388C36.9172 10.4066 35.7537 12.4822 37.2005 14.482H35.1668C36.3394 13.1949 35.8738 11.39 35.9327 9.78456ZM25.713 7.44605C24.1518 8.059 23.3893 10.3726 24.9211 11.4013L26.0144 11.1759C26.2478 10.9346 26.224 10.6887 25.7051 10.7499C24.8214 10.853 24.9958 10.4689 24.9992 9.65653L26.1073 9.69279C26.607 9.79362 26.5877 11.373 26.2875 11.5747C24.4429 12.0596 23.5479 11.1 23.7167 9.27358C24.0702 5.43725 32.1632 6.03321 32.1133 9.90919C30.5011 7.87999 28.4311 6.3799 25.713 7.44605ZM33.1319 14.738C32.2924 14.9386 32.7274 13.8486 32.511 13.1994C32.3819 12.8131 32.0318 12.4709 31.7519 12.1808L29.8303 11.6914C31.9604 11.0071 33.5262 12.5389 33.1319 14.738ZM31.1027 12.2998C32.1326 12.6114 31.9434 13.5416 31.3656 13.3388C31.0653 13.2345 30.8591 12.7632 30.2348 12.9751L29.8224 13.7229L28.5591 13.3422C29.1959 12.8708 30.3187 12.0619 31.1027 12.2998ZM28.4356 14.3007C28.686 14.3233 29.18 15.3091 30.1906 15.0122L30.5713 14.0899L32.1156 13.9778C32.2765 14.1217 31.8312 14.9533 31.5956 15.1085C30.9565 15.5277 28.2306 16.0138 27.0216 16.6347C25.5318 17.4006 24.3285 18.6265 22.9678 19.5691L25.3697 16.5089C26.0756 16.1339 27.7536 14.2361 28.4356 14.3007ZM21.1867 16.1327L21.8178 15.5028L22.4568 16.2619L21.9492 16.5157L24.2345 16.6449C23.1649 17.7903 22.0342 17.1989 21.1867 16.1327ZM23.2216 62.2752C25.3686 63.611 27.2233 65.7795 27.5383 68.3752L25.6179 65.0872C21.4858 60.8963 25.96 66.7256 24.4871 67.8676C23.5547 67.4869 22.9383 62.6649 23.2216 62.2752ZM27.2868 68.8828C26.9344 68.5803 26.0665 68.6766 26.0303 68.6211C25.951 68.4998 25.9963 67.7747 25.8445 67.4042C25.4944 66.5443 24.7976 65.8056 24.7466 64.8176C25.7153 65.9665 26.5628 67.496 27.2868 68.8828ZM22.6268 65.6617C22.7151 65.7433 23.2748 66.5035 22.5882 66.3392C21.8642 65.5767 20.0605 65.7478 19.9155 64.5649C20.3086 64.2273 22.2381 65.3059 22.6268 65.6617ZM16.8643 61.5149C17.0898 61.3608 18.812 62.3613 19.0669 62.6151C19.2119 62.7601 19.9823 64.003 19.9144 64.0528C19.4782 64.0789 19.0669 64.1004 18.6488 63.9214C18.2794 63.7639 16.7907 62.0588 16.8643 61.5149ZM14.0137 60.6776C14.7456 60.894 16.8564 60.9586 16.6105 62.1426C16.3069 63.6053 14.1633 60.8827 13.6036 61.3268L13.4336 61.7664C13.1084 61.3325 12.4298 60.9178 12.1567 60.4998C11.4429 59.4041 13.7611 60.6017 14.0137 60.6776ZM8.47563 65.3229C9.43527 63.3504 12.8852 63.2756 14.8295 63.5486C14.8215 63.9067 13.6614 63.9475 13.3894 63.9599C12.585 63.9973 11.6956 63.6416 10.7643 64.0574C10.958 64.7553 12.142 63.6438 12.2882 64.5604C10.8005 64.6873 10.1536 66.184 8.47563 65.3229ZM11.0192 67.3578L11.4973 67.5742L11.7772 67.1063L12.0366 68.6301L13.0484 68.3763C12.5646 70.0849 10.5365 68.8783 11.0192 67.3578ZM16.4927 65.3173C14.6901 65.1779 12.5555 65.2923 11.3976 66.8502C10.8776 65.3025 13.3781 64.7066 14.5745 64.8153L13.3067 64.3111C13.7656 64.3463 14.2618 64.2466 14.7162 64.2953C16.274 64.463 20.5058 65.8736 21.8563 66.6938C22.0217 66.7935 22.237 67.4439 22.8352 67.3589C23.2431 67.7124 22.5871 67.6331 22.3832 67.5629C20.388 66.8763 18.7304 65.4906 16.4927 65.3173ZM19.656 71.4264C18.4913 70.895 19.7659 69.9206 19.4045 69.1456C21.9968 68.4987 23.3881 68.0002 25.7595 69.651C25.4604 70.3104 24.2775 69.3519 23.7813 69.208C22.0535 68.7083 21.2615 69.3689 19.7841 70.154L20.1682 70.5358L19.656 71.4264ZM26.9457 70.878C25.7731 70.7534 24.4758 70.2277 23.3247 70.1563C22.339 70.0951 21.3918 70.6027 20.4242 70.5381C22.3095 68.4466 23.6272 69.881 25.4944 70.299C25.8649 70.3817 26.2705 70.145 26.5877 70.2186C27.4103 70.4078 28.217 70.801 29.0644 70.9211L26.9457 70.878ZM29.0678 69.0086L30.8478 68.7593L31.3542 67.7294L30.5917 67.1074L30.8274 68.3559C27.9836 69.2725 28.8005 64.9422 27.033 63.6721L29.8281 64.6907C30.4852 65.136 29.2027 65.4872 29.1177 65.63C28.848 66.0854 29.2593 66.8683 29.3228 67.3589C29.9946 67.3532 30.2858 66.6451 30.9894 66.5998C33.8672 66.4117 31.8278 72.2104 29.0678 69.0086ZM31.8595 73.2052L31.8629 72.4427C32.7999 72.8505 32.7376 72.3226 33.2611 71.6813L33.5137 72.1889L34.5323 70.665C35.0138 71.5102 34.1153 72.1141 33.8933 72.8222L34.9322 71.8275L35.6721 69.14C35.595 71.909 35.1033 73.9847 31.8595 73.2052ZM36.7949 73.2131C36.7926 73.3083 36.7892 73.4046 36.7836 73.4998C36.7802 73.5485 36.7768 73.5983 36.7734 73.6482C36.7677 73.7309 36.7609 73.8125 36.7518 73.8952C36.745 73.9609 36.7371 74.0266 36.7292 74.0923C36.7212 74.1558 36.7122 74.2203 36.702 74.2849C36.6918 74.3495 36.6804 74.4141 36.6691 74.4787C36.6691 74.4809 36.6691 74.4832 36.668 74.4855C36.6589 74.5364 36.6487 74.5874 36.6374 74.6384C36.6295 74.6792 36.6204 74.7189 36.6113 74.7597C36.6091 74.7699 36.6068 74.78 36.6045 74.7902V74.7925C36.5955 74.8322 36.5853 74.8707 36.5751 74.9092C36.5671 74.9443 36.5581 74.9794 36.5479 75.0146C36.5173 75.1279 36.4833 75.2412 36.4448 75.3533C36.4414 75.3635 36.4391 75.3726 36.4357 75.3805L36.4346 75.3828C36.4199 75.427 36.404 75.4723 36.387 75.5176C36.3621 75.5867 36.3349 75.6558 36.3066 75.725C36.2907 75.7646 36.2737 75.8043 36.2567 75.8439C36.1967 75.981 36.1298 76.1181 36.0573 76.2552L35.4183 74.2249L35.1679 75.112C34.828 75.5244 34.8733 74.7936 34.905 74.601C35.0908 73.4839 35.8296 72.5673 35.9327 71.4286L36.4357 73.2052C36.3405 72.4846 36.5875 71.5034 36.4323 70.8395C36.3836 70.6333 35.9712 70.7704 35.9089 70.3002C35.7344 68.9587 36.0766 67.2286 35.9315 65.835C36.4901 66.0356 36.0176 66.9794 36.2658 67.5493C36.3439 67.7283 36.6385 67.3045 36.5875 68.1124C36.5739 68.3378 36.5671 68.5644 36.5683 68.791C36.5683 68.8828 36.5694 68.9734 36.5717 69.0652V69.0822C36.5739 69.1513 36.5762 69.2204 36.5785 69.2895C36.5864 69.5173 36.5989 69.745 36.6159 69.9739C36.6238 70.0906 36.6329 70.2084 36.6419 70.3251C36.6499 70.4327 36.6589 70.5392 36.668 70.6469C36.694 70.9686 36.7224 71.2904 36.745 71.6122C36.7518 71.7006 36.7575 71.7878 36.7632 71.8762C36.7654 71.9045 36.7666 71.9317 36.7677 71.9589C36.7733 72.0461 36.7779 72.1322 36.7813 72.2183C36.7835 72.2433 36.7847 72.2682 36.7847 72.292C36.7892 72.3872 36.7926 72.4823 36.7949 72.5775C36.796 72.6149 36.7971 72.6523 36.7971 72.6897C36.7994 72.7973 36.7994 72.9049 36.7983 73.0126C36.7983 73.0794 36.7971 73.1463 36.7949 73.2131ZM17.9543 51.9071C11.0634 37.1147 20.4253 12.8788 39.2863 16.0852C43.7503 16.8443 46.1478 18.035 49.2544 21.2426C59.3664 31.6831 59.5239 51.6307 47.4881 60.7433C36.7303 68.8896 23.3054 63.3934 17.9543 51.9071ZM40.6357 67.3623L41.0459 68.5961C41.1898 68.8227 42.5256 68.9644 42.538 68.3786L41.5195 68.3752L41.7755 67.1074C40.9507 67.0156 40.3831 67.0745 39.7452 67.6138C39.7055 66.3766 42.1732 66.3132 42.6899 67.1063C42.9165 67.4529 42.1438 67.9821 42.9165 67.8654C43.6416 66.8967 42.9833 65.5507 42.2854 64.821L45.0805 63.8036C43.6144 65.5529 44.4517 68.1463 42.5403 69.5218C43.0819 69.8787 43.926 68.6517 44.2035 68.135C45.2572 66.1783 45.2221 62.9787 47.8767 62.0236C45.545 63.611 45.6062 67.4008 43.9486 69.1502C42.3545 70.8316 39.2048 69.6385 40.6357 67.3623ZM52.8596 69.1128L53.4681 71.4252L52.7078 71.4286C52.6172 70.9709 52.8676 70.0124 52.6648 69.6872C52.5129 69.4425 49.9875 68.6188 49.5218 68.6233C48.7616 68.6324 47.0383 69.6192 46.9556 70.4203L43.6778 71.1681L43.5543 70.6661C45.4442 70.9199 47.9538 68.075 49.5037 68.1305C50.3308 68.1611 51.8762 69.0414 52.8596 69.1128ZM48.8941 66.8491C50.1042 65.2765 52.2648 64.3055 54.2317 64.0574C52.6806 65.2289 50.7103 66.1806 48.8941 66.8491ZM61.3469 68.1226C60.6048 67.377 60.8314 66.6519 59.8106 65.9744C57.0529 64.1446 54.473 65.7115 51.6915 66.3404L54.8571 65.0861C55.0633 64.9581 54.7064 64.6046 54.9738 64.4369C56.1997 63.6665 58.2414 64.4233 59.5692 64.5661L58.5552 65.0691C60.3012 65.2255 61.3571 66.3381 61.3469 68.1226ZM63.3172 64.3723C63.4452 64.4958 63.6673 65.0431 63.6344 65.1847C63.3716 66.286 60.5357 64.4913 59.8264 64.5604L61.0943 63.8036C60.0542 63.5566 58.8691 64.1582 57.923 64.0642C57.5638 64.029 57.1537 63.8568 57.5355 63.5475C58.7297 63.0762 62.481 63.5656 63.3172 64.3723ZM65.7407 58.6609C66.4556 58.4264 67.2204 58.2213 67.9568 58.466L62.3666 60.7479L65.7407 58.6609ZM62.6227 61.5104L65.8064 59.7395L66.4307 60.4941C66.672 59.1673 67.1966 59.3645 68.0237 58.9589C68.3749 58.7867 68.035 57.9947 69.2246 59.0982L67.5331 59.8222C67.3948 59.914 67.3019 60.2913 67.0414 60.4567C65.8415 61.2135 64.0265 61.575 62.6227 61.5104ZM72.0231 64.3078C71.5994 64.1865 71.7523 63.4478 71.4861 62.9425C70.6556 61.3665 68.2775 61.5659 66.8125 61.5126C66.5054 61.5025 65.8676 61.703 65.9265 61.2611C67.4356 61.3597 68.6842 60.3275 70.1832 60.9439C71.136 61.3359 72.5556 63.2099 72.0231 64.3078Z" fill="#9FAAB6"/>
<path d="M8.98633 38.1256C9.42027 35.633 8.89455 32.5977 11.2897 30.8994C14.2842 28.7761 12.9711 32.3349 12.2573 33.9007C11.5696 35.4098 10.3312 37.1445 8.98633 38.1256Z" fill="#9FAAB6"/>
<path d="M157.025 42.2936C157.02 42.0405 156.941 41.937 156.687 41.937C155.231 41.9416 153.776 41.9405 152.321 41.937C152.064 41.9359 151.998 42.0428 151.999 42.2994C151.999 42.6629 152.12 42.8573 152.495 42.8711C152.597 42.8745 152.696 42.9148 152.798 42.9309C153.133 42.9827 153.518 43.3048 153.57 43.6395C153.68 44.3481 153.828 45.0602 153.841 45.7723C153.885 48.2386 153.879 50.7061 153.89 53.1725C153.89 53.2783 153.876 53.383 153.869 53.4888C153.839 53.4969 153.811 53.5061 153.781 53.5153C153.655 53.3358 153.535 53.1506 153.403 52.9758C152.933 52.35 152.456 51.7299 151.986 51.1041C151.474 50.422 150.972 49.7329 150.459 49.0519C150.013 48.4606 149.554 47.8809 149.114 47.2873C148.453 46.3946 147.802 45.4939 147.151 44.5955C146.614 43.8546 146.086 43.1069 145.542 42.3718C145.403 42.1832 145.303 41.9347 144.99 41.9359C143.721 41.9428 142.451 41.9393 141.181 41.9382C141.004 41.9382 140.85 41.9888 140.881 42.1924C140.913 42.404 140.722 42.7112 141.121 42.794C141.38 42.8481 141.65 42.9067 141.882 43.0287C142.615 43.4164 142.909 44.1089 142.913 44.875C142.938 48.3122 142.925 51.7495 142.908 55.1867C142.905 55.5606 142.808 55.9425 142.704 56.3072C142.497 57.033 141.902 57.2516 141.236 57.3103C140.827 57.3471 140.983 57.6301 140.959 57.836C140.935 58.0523 141.025 58.1477 141.261 58.1466C142.831 58.1408 144.4 58.1454 145.968 58.1512C146.148 58.1523 146.268 58.0787 146.24 57.905C146.208 57.7048 146.371 57.4207 146.05 57.3229C145.835 57.2574 145.612 57.2091 145.39 57.1757C144.982 57.1159 144.706 56.8467 144.625 56.4993C144.468 55.8229 144.327 55.1269 144.315 54.4356C144.273 52.2591 144.294 50.0803 144.29 47.9016C144.289 47.2355 144.29 46.5683 144.29 45.9011C144.335 45.8781 144.38 45.8551 144.425 45.8321C144.579 46.0334 144.734 46.2347 144.889 46.436C145.813 47.6439 146.749 48.846 147.661 50.0631C148.716 51.47 149.757 52.886 150.792 54.3067C151.634 55.4594 152.465 56.6212 153.288 57.7877C153.463 58.035 153.639 58.1915 153.968 58.1385C154.189 58.104 154.421 58.1247 154.648 58.1305C155.113 58.1431 155.108 58.1454 155.113 57.6807C155.152 53.2634 155.166 48.8472 155.255 44.431C155.277 43.383 155.624 42.9654 156.575 42.8274C156.965 42.771 157.03 42.6272 157.025 42.2936ZM139.43 53.9282C139.24 53.735 138.751 53.8431 138.612 54.0835C138.364 54.508 138.134 54.9463 137.859 55.3535C137.126 56.4349 136.103 56.9951 134.788 56.9974C133.931 56.9974 133.074 56.9985 132.217 56.9928C132.086 56.9928 131.951 56.9744 131.826 56.9341C131.326 56.7719 131.167 56.3681 131.164 55.8988C131.151 54.1848 131.159 52.4708 131.149 50.7579C131.146 50.5025 131.272 50.4726 131.474 50.4738C132.311 50.4784 133.148 50.4542 133.983 50.4887C134.28 50.5002 134.587 50.6129 134.861 50.7418C135.44 51.0144 135.584 51.5919 135.693 52.1418C135.767 52.5202 136 52.427 136.219 52.4328C136.473 52.4408 136.485 52.2648 136.484 52.0739C136.476 50.598 136.469 49.1221 136.47 47.6462C136.47 47.4138 136.375 47.3252 136.156 47.3367C135.949 47.3471 135.734 47.2746 135.702 47.6289C135.66 48.0799 135.513 48.5078 135.145 48.8264C134.729 49.1854 134.212 49.2578 133.708 49.2889C132.957 49.3361 132.201 49.2981 131.448 49.3061C131.244 49.3073 131.154 49.2532 131.154 49.0255C131.163 47.1469 131.161 45.2684 131.153 43.3887C131.152 43.1667 131.234 43.0942 131.442 43.1058C132.714 43.1771 133.994 42.9746 135.264 43.2495C136.01 43.4106 136.628 43.7246 136.995 44.3965C137.267 44.8957 137.45 45.4421 137.698 45.9563C137.751 46.0656 137.908 46.1875 138.024 46.1945C138.448 46.2209 138.528 46.1266 138.525 45.6998C138.524 45.5249 138.514 45.3489 138.497 45.1741C138.41 44.2734 138.315 43.3715 138.231 42.4696C138.181 41.9335 138.189 41.9335 137.657 41.9335C133.994 41.9347 130.329 41.9347 126.664 41.9359C126.229 41.9359 126.17 42.0003 126.232 42.5214C126.243 42.6134 126.369 42.7365 126.466 42.7653C126.711 42.8377 126.973 42.8492 127.22 42.9137C127.86 43.0793 128.184 43.5061 128.184 44.1664V55.9966C128.184 56.4464 128.005 56.8214 127.599 57.0043C127.261 57.1573 126.882 57.2505 126.513 57.2976C126.145 57.3459 126.234 57.5864 126.225 57.798C126.216 58.0166 126.294 58.1443 126.546 58.1431C128.508 58.1374 130.469 58.1408 132.43 58.1408V58.1282H134.227C135.579 58.1282 136.932 58.1247 138.283 58.1305C138.54 58.1305 138.679 58.0684 138.709 57.7762C138.742 57.4322 138.84 57.0952 138.914 56.7558C139.001 56.3566 139.094 55.9575 139.182 55.5583C139.277 55.1189 139.375 54.6794 139.459 54.2377C139.477 54.1365 139.488 53.9858 139.43 53.9282ZM95.6386 53.85C95.4097 53.7523 95.0312 53.85 94.9438 54.003C94.6217 54.569 94.3237 55.1522 93.9568 55.6883C93.3735 56.5395 92.4751 56.9008 91.4996 56.9767C90.5345 57.0515 89.5601 56.9985 88.5892 56.9916C88.2384 56.9893 87.8289 56.6718 87.7702 56.3463C87.7035 55.9816 87.6356 55.6124 87.6298 55.2443C87.6114 53.7684 87.6218 52.2913 87.608 50.8154C87.6057 50.5612 87.6805 50.468 87.9393 50.4726C88.7342 50.4841 89.5302 50.4599 90.324 50.4829C90.9337 50.5014 91.4594 50.7326 91.7377 51.3101C91.8689 51.5827 91.9402 51.8921 91.9874 52.1935C92.0426 52.5536 92.3003 52.4155 92.4878 52.4316C92.6937 52.4489 92.8076 52.3592 92.8053 52.121C92.7903 50.6451 92.78 49.1693 92.7846 47.6934C92.7857 47.4161 92.6879 47.3252 92.4268 47.3321C92.191 47.3379 91.9747 47.3022 91.9874 47.668C92.0035 48.1305 91.8022 48.5112 91.4444 48.8207C91.0084 49.2003 90.4724 49.259 89.9444 49.2923C89.2864 49.3349 88.6237 49.2969 87.9634 49.3096C87.7023 49.3142 87.5781 49.2406 87.6068 48.9576C87.6298 48.7218 87.6172 48.4825 87.6172 48.2455C87.6195 46.6557 87.6206 45.066 87.6206 43.475C87.6195 43.2749 87.6229 43.092 87.9013 43.1069C89.2139 43.1782 90.5391 42.9459 91.8424 43.2599C92.2888 43.3669 92.6948 43.5486 93.0112 43.8914C93.5691 44.4942 93.8509 45.2477 94.1155 46.0035C94.2363 46.3463 94.4733 46.1576 94.655 46.1634C94.8483 46.1691 94.9323 46.0322 94.9162 45.8263C94.8195 44.6254 94.7264 43.4244 94.6447 42.2223C94.6309 42.0083 94.5504 41.9278 94.3433 41.9324C93.9832 41.9416 93.6209 41.9393 93.2597 41.9393C89.9052 41.9393 86.5497 41.9393 83.1941 41.9347C82.9709 41.9347 82.8202 41.9577 82.8214 42.2441C82.8237 42.7537 82.8156 42.733 83.1803 42.7906C83.5001 42.8412 83.8348 42.9067 84.1201 43.0494C84.6654 43.3232 84.6849 43.8615 84.6849 44.3895V49.9641H84.6907C84.6907 51.9048 84.6976 53.8454 84.6861 55.7872C84.6826 56.2991 84.6217 56.8237 84.0523 57.0514C83.7612 57.1676 83.4472 57.2355 83.1389 57.2942C82.8248 57.354 82.8099 57.3781 82.8237 57.8567C82.8306 58.1201 82.9606 58.1661 83.1814 58.1466C83.3655 58.1293 83.5518 58.1282 83.7382 58.1282C87.3825 58.1282 91.0268 58.1282 94.6711 58.1351C94.869 58.1362 94.9438 58.0684 94.976 57.882C95.0347 57.5392 95.114 57.1987 95.1888 56.8593C95.2762 56.459 95.3705 56.061 95.4557 55.6607C95.5535 55.1994 95.6432 54.7369 95.7387 54.2757C95.7709 54.1169 95.8571 53.9444 95.6386 53.85ZM170.793 34.5748C170.178 34.5253 169.767 34.1307 169.537 33.6395C169.088 32.679 168.726 31.677 168.342 30.6877C168.039 29.9078 167.762 29.1175 167.466 28.3341C167.218 27.6761 166.955 27.0227 166.705 26.3647C166.459 25.7148 166.228 25.0602 165.98 24.4114C165.682 23.628 165.369 22.8504 165.071 22.0659C164.721 21.1398 164.381 20.2103 164.033 19.2832C163.96 19.0899 163.822 18.9933 163.604 19.0025C163.294 19.0151 162.981 19.037 162.675 19.0013C162.331 18.9611 162.191 19.1348 162.094 19.4154C161.969 19.7824 161.838 20.1494 161.703 20.514C161.398 21.3377 161.087 22.159 160.784 22.9838C160.58 23.5394 160.387 24.0974 160.187 24.6541C159.89 25.4812 159.595 26.3083 159.294 27.1343C159.061 27.7785 158.824 28.4204 158.583 29.0611C158.337 29.7214 158.088 30.3806 157.835 31.0386C157.504 31.8944 157.205 32.7653 156.825 33.5981C156.586 34.1181 156.126 34.4597 155.54 34.5598C155.2 34.6162 155.197 34.6208 155.199 35.1212C155.199 35.4283 155.387 35.4065 155.591 35.4053C157.016 35.4053 158.44 35.4065 159.864 35.4111C160.293 35.4111 160.297 35.3904 160.317 34.9555C160.332 34.6369 160.215 34.5184 159.906 34.5621C159.825 34.5736 159.736 34.5805 159.659 34.5598C159.293 34.462 158.952 34.3769 158.788 33.9363C158.605 33.4474 158.777 33.0068 158.889 32.5778C159.1 31.7806 159.399 31.0052 159.681 30.2276C159.741 30.0631 159.769 29.8399 160.05 29.8411C161.628 29.848 163.208 29.8422 164.787 29.8503C164.867 29.8503 164.989 29.9216 165.02 29.9906C165.143 30.2701 165.242 30.5612 165.342 30.8511C165.604 31.6034 165.85 32.3626 166.126 33.1092C166.351 33.7166 166.175 34.2561 165.607 34.4919C165.435 34.5633 165.226 34.5552 165.032 34.5633C164.647 34.5794 164.655 34.5748 164.635 35.1062C164.623 35.4341 164.838 35.4088 165.048 35.4099H167.835V35.4065C168.804 35.4065 169.775 35.4076 170.745 35.4065C170.95 35.4065 171.113 35.3651 171.108 35.1016C171.104 34.8589 171.141 34.6012 170.793 34.5748ZM164.114 28.67C162.939 28.6735 161.763 28.6735 160.589 28.6712C160.299 28.6712 160.253 28.5849 160.35 28.3099C160.674 27.4058 160.989 26.4981 161.31 25.5928C161.643 24.6518 161.982 23.712 162.317 22.7722L162.408 22.7526C162.513 23.0344 162.622 23.314 162.722 23.597C163.101 24.676 163.476 25.7562 163.852 26.8363C164.023 27.3275 164.197 27.8188 164.364 28.3123C164.461 28.5975 164.41 28.67 164.114 28.67ZM198.026 57.3068C197.516 57.2033 197.033 56.9836 196.804 56.4648C196.421 55.5963 196.05 54.722 195.7 53.8397C195.39 53.062 195.122 52.2683 194.825 51.4861C194.515 50.6647 194.189 49.8491 193.874 49.0289C193.637 48.41 193.41 47.7865 193.172 47.1676C192.867 46.3762 192.548 45.5917 192.247 44.7979C191.896 43.8707 191.57 42.9332 191.209 42.0095C191.166 41.9013 190.982 41.7932 190.855 41.784C190.476 41.7541 190.093 41.7656 189.711 41.7783C189.622 41.7806 189.496 41.8254 189.457 41.8933C189.369 42.0394 189.324 42.2119 189.267 42.3753C189.086 42.8849 188.911 43.3968 188.726 43.9041C188.472 44.6035 188.21 45.3006 187.952 45.9989C187.757 46.5246 187.565 47.0515 187.372 47.5772C187.189 48.0753 187.004 48.5722 186.825 49.0715C186.578 49.7536 186.346 50.4404 186.093 51.1191C185.801 51.9059 185.491 52.687 185.191 53.4704C184.847 54.3677 184.519 55.273 184.156 56.1622C183.888 56.8214 183.372 57.2171 182.667 57.3091C182.239 57.3643 182.422 57.6623 182.397 57.8728C182.367 58.1167 182.53 58.1454 182.735 58.1443C184.241 58.1385 185.748 58.1385 187.255 58.1477C187.448 58.1489 187.518 58.073 187.524 57.8993C187.527 57.8072 187.519 57.7129 187.53 57.6209C187.554 57.3874 187.44 57.3298 187.221 57.3103C186.96 57.2861 186.678 57.2493 186.452 57.1297C186.274 57.0365 186.084 56.8271 186.039 56.6362C185.907 56.0702 186.053 55.5169 186.24 54.9762C186.448 54.3803 186.667 53.7856 186.841 53.1794C187.001 52.6272 187.002 52.6007 187.585 52.6007C188.164 52.6019 188.741 52.6019 189.32 52.6019C190.165 52.6019 191.012 52.5996 191.858 52.603C192.009 52.6042 192.15 52.5927 192.221 52.8009C192.567 53.8167 192.931 54.8255 193.294 55.8344C193.472 56.3313 193.396 56.8858 193.026 57.0837C192.758 57.2263 192.423 57.2712 192.114 57.2988C191.722 57.3344 191.835 57.6013 191.821 57.821C191.804 58.0557 191.899 58.15 192.146 58.1477C193.116 58.1362 194.087 58.1431 195.056 58.1431V58.1362C196.016 58.1362 196.976 58.1305 197.936 58.1408C198.139 58.142 198.306 58.1201 198.292 57.8809C198.28 57.6657 198.435 57.3908 198.026 57.3068ZM187.512 51.4078C187.64 51.0144 187.749 50.6567 187.873 50.3046C188.068 49.7467 188.273 49.1923 188.473 48.6355C188.675 48.0707 188.884 47.507 189.079 46.9387C189.215 46.543 189.329 46.1392 189.458 45.7424C189.477 45.6814 189.527 45.6319 189.562 45.5779C189.621 45.6262 189.713 45.663 189.734 45.7251C189.97 46.4303 190.187 47.1423 190.426 47.8475C190.663 48.5435 190.922 49.2314 191.168 49.925C191.339 50.4036 191.503 50.8856 191.685 51.4078H187.512ZM141.329 34.7956C141.294 34.707 141.212 34.5909 141.134 34.5748C140.386 34.431 139.921 33.9766 139.661 33.2829C139.432 32.6732 139.205 32.0624 138.97 31.4539C138.776 30.9489 138.566 30.4496 138.373 29.9434C138.072 29.1497 137.783 28.3525 137.48 27.5599C137.132 26.6523 136.767 25.7516 136.423 24.8428C136.065 23.8961 135.728 22.9413 135.376 21.9922C135.056 21.1283 134.736 20.2655 134.396 19.4097C134.332 19.2475 134.313 19.0013 134.041 19.0025C133.648 19.0048 133.255 18.9944 132.865 19.0174C132.775 19.022 132.646 19.1267 132.614 19.2141C132.318 19.9975 132.044 20.789 131.753 21.5746C131.339 22.6951 130.907 23.8098 130.495 24.9314C130.143 25.8885 129.818 26.8559 129.465 27.813C129.166 28.6263 128.839 29.4292 128.533 30.2414C128.134 31.302 127.764 32.3741 127.342 33.4256C127.089 34.0583 126.644 34.5333 125.905 34.5552C125.55 34.5667 125.573 34.7669 125.563 35.0027C125.552 35.2546 125.604 35.4203 125.911 35.4111C126.447 35.395 126.984 35.3961 127.522 35.3961C128.471 35.3961 129.42 35.4019 130.369 35.4042C130.524 35.4053 130.686 35.4237 130.727 35.2051C130.82 34.7082 130.714 34.569 130.217 34.5633C130.165 34.5633 130.113 34.5644 130.062 34.5598C129.592 34.5184 129.175 34.1445 129.193 33.689C129.214 33.2024 129.283 32.7077 129.408 32.2361C129.575 31.6057 129.796 30.9868 130.038 30.3806C130.12 30.1724 130.072 29.8307 130.491 29.8365C131.977 29.8549 133.463 29.8468 134.95 29.8399C135.172 29.8388 135.293 29.9239 135.365 30.1275C135.74 31.2065 136.136 32.2798 136.485 33.368C136.552 33.5763 136.505 33.8661 136.409 34.0709C136.19 34.5426 135.746 34.6116 135.277 34.5621C135.008 34.5345 134.878 34.6081 134.892 34.9141C134.913 35.3915 134.902 35.4076 135.267 35.4088C136.216 35.4111 137.166 35.4088 138.115 35.4088V35.4065C139.076 35.4065 140.035 35.4007 140.995 35.4099C141.244 35.4122 141.366 35.3328 141.334 35.0706C141.322 34.9785 141.362 34.8738 141.329 34.7956ZM134.502 28.6735C133.307 28.6677 132.11 28.6689 130.915 28.67C130.694 28.67 130.653 28.5964 130.733 28.3847C130.997 27.6888 131.238 26.9859 131.49 26.2853C131.692 25.7286 131.903 25.1752 132.097 24.615C132.298 24.0318 132.482 23.4417 132.674 22.855C132.706 22.8504 132.739 22.8458 132.771 22.8423C132.875 23.1368 132.98 23.4313 133.084 23.7258C133.292 24.3217 133.502 24.9176 133.708 25.5146C133.944 26.2002 134.173 26.887 134.411 27.5714C134.501 27.8314 134.602 28.0868 134.707 28.3422C134.793 28.5527 134.771 28.6746 134.502 28.6735ZM151.661 26.9157C150.717 26.3739 149.682 25.9931 148.692 25.533C148.004 25.2144 147.309 24.9141 146.728 24.3976C145.848 23.6131 145.654 22.3074 146.19 21.2767C146.651 20.3886 148.259 19.902 149.147 20.0941C149.467 20.162 149.787 20.2379 150.1 20.3334C150.743 20.5313 151.233 20.9339 151.612 21.4861C152.009 22.0635 152.201 22.7227 152.384 23.383C152.475 23.7097 152.712 23.6027 152.909 23.6004C153.145 23.5958 153.109 23.4026 153.1 23.2542C153.056 22.4823 153.002 21.7115 152.958 20.9397C152.939 20.5899 152.938 20.2391 152.919 19.8894C152.909 19.6846 152.82 19.5443 152.596 19.4971C152.377 19.4523 152.168 19.3637 151.949 19.3142C151.272 19.1578 150.598 18.9415 149.91 18.8748C148.447 18.7333 147.019 18.8943 145.716 19.6697C144.958 20.1206 144.331 20.6992 143.893 21.4711C143.428 22.2959 143.273 23.1679 143.39 24.1158C143.497 24.9797 143.858 25.6975 144.423 26.3325C145.295 27.3149 146.467 27.8245 147.624 28.3594C148.391 28.7149 149.177 29.0381 149.91 29.4545C151.023 30.0872 151.547 31.3124 151.143 32.6284C150.801 33.7362 149.822 34.2757 148.962 34.3734C148.289 34.4494 147.596 34.477 146.91 34.2665C146.324 34.0882 145.801 33.8316 145.352 33.4325C144.574 32.7388 144.137 31.8496 143.926 30.8384C143.913 30.7763 143.874 30.6958 143.822 30.6682C143.49 30.4864 143.077 30.7257 143.094 31.0949C143.143 32.2487 143.206 33.4025 143.257 34.5564C143.267 34.76 143.354 34.8727 143.553 34.9325C144.089 35.0936 144.614 35.3098 145.158 35.4318C145.896 35.5963 146.649 35.694 147.341 35.8114C148.168 35.6791 148.919 35.5744 149.665 35.4352C150.671 35.2466 151.517 34.7427 152.28 34.0721C153.253 33.2139 153.828 32.1303 153.9 30.8557C153.999 29.0968 153.152 27.7727 151.661 26.9157ZM107.294 50.4381C106.56 49.68 105.612 49.2394 104.661 48.8195C103.765 48.4238 102.839 48.0833 101.985 47.6094C101.165 47.155 100.536 46.4843 100.485 45.4513C100.439 44.5057 100.72 43.7396 101.595 43.2484C102.072 42.9804 102.581 42.9067 103.104 42.8872C104.13 42.8504 105.044 43.123 105.786 43.8776C106.384 44.485 106.714 45.2236 106.886 46.0368C106.961 46.3923 107.202 46.3244 107.433 46.3175C107.68 46.3118 107.737 46.1691 107.72 45.9437C107.636 44.875 107.554 43.8075 107.486 42.7376C107.47 42.503 107.356 42.3603 107.159 42.3005C106.552 42.1153 105.948 41.891 105.325 41.7932C104.395 41.6471 103.467 41.5539 102.504 41.7253C101.556 41.8944 100.677 42.1728 99.8937 42.7135C98.8492 43.4348 98.1153 44.4103 97.9186 45.6768C97.7265 46.9134 98.1003 48.0316 98.9366 48.9783C99.8684 50.0343 101.125 50.5715 102.37 51.1341C103.104 51.4665 103.845 51.8024 104.533 52.2211C105.749 52.9608 106.065 54.1698 105.579 55.5824C105.239 56.5683 104.367 56.9652 103.415 57.1504C103.036 57.224 102.633 57.1826 102.242 57.1722C101.308 57.1492 100.514 56.7719 99.8224 56.1691C99.0724 55.5169 98.7112 54.6323 98.4213 53.7154C98.3615 53.5245 98.2913 53.406 98.0842 53.4681C97.8864 53.5279 97.6011 53.4819 97.6287 53.8408C97.6701 54.3757 97.6908 54.913 97.7219 55.4479C97.7345 55.4479 97.7472 55.4479 97.7598 55.449C97.7598 56.015 97.7414 56.5833 97.7713 57.1492C97.7805 57.3206 97.8898 57.5921 98.0152 57.6358C98.7664 57.8935 99.5233 58.1776 100.302 58.3065C101.829 58.5573 103.357 58.5354 104.843 58.0039C105.626 57.7244 106.332 57.3091 106.937 56.7443C107.82 55.923 108.307 54.9061 108.433 53.6947C108.564 52.4178 108.167 51.3388 107.294 50.4381ZM172.022 53.4773C171.785 53.4497 171.574 53.4278 171.45 53.7028C171.225 54.2043 171.028 54.7266 170.736 55.1867C170.177 56.0644 169.43 56.7144 168.398 57.0388C167.318 57.3781 166.264 57.3448 165.229 56.9629C164.182 56.5764 163.382 55.8608 162.793 54.9118C162.285 54.0939 161.89 53.2323 161.762 52.2694C161.662 51.5286 161.509 50.782 161.523 50.0412C161.543 49.0404 161.615 48.035 161.916 47.0572C162.239 46.0138 162.702 45.066 163.448 44.2607C164.064 43.5981 164.808 43.1196 165.685 42.97C166.538 42.8251 167.411 42.7917 168.276 43.0805C169.201 43.3887 169.909 43.9593 170.434 44.7393C170.773 45.242 170.997 45.824 171.252 46.3808C171.375 46.6465 171.589 46.5303 171.76 46.52C171.832 46.5165 171.957 46.3417 171.952 46.2508C171.896 45.2742 171.819 44.2987 171.747 43.3232C171.737 43.1897 171.746 43.0425 171.692 42.9275C171.634 42.8021 171.532 42.6433 171.417 42.6077C170.618 42.358 169.82 42.0923 169.004 41.922C168.273 41.7691 167.521 41.7046 166.775 41.6552C166.4 41.6299 166.018 41.7414 165.637 41.761C164.836 41.8024 164.088 42.0497 163.362 42.3569C162.427 42.7514 161.609 43.3232 160.865 44.0214C159.741 45.074 158.963 46.344 158.511 47.7911C158.267 48.5745 158.214 49.4177 158.095 50.116C158.175 50.7222 158.243 51.1904 158.299 51.6598C158.404 52.5559 158.695 53.3887 159.126 54.1779C160.111 55.9782 161.563 57.209 163.509 57.8843C164.442 58.2076 165.397 58.3882 166.368 58.4284C167.984 58.494 169.552 58.1834 171.073 57.6358C171.489 57.4863 171.908 57.3356 171.789 56.7501C171.78 56.704 171.814 56.65 171.823 56.5994C171.915 56.0633 172.009 55.5284 172.095 54.9912C172.156 54.607 172.215 54.2227 172.259 53.8362C172.278 53.6671 172.255 53.5049 172.022 53.4773ZM123.842 30.682C123.585 30.4945 123.193 30.6762 123.118 30.9891C123.101 31.0593 123.102 31.1375 123.071 31.1996C122.569 32.1981 122.005 33.1437 121.03 33.7707C120.567 34.0686 120.074 34.3217 119.537 34.3769C118.754 34.4563 117.948 34.5518 117.187 34.2446C116.659 34.0306 116.09 33.8466 115.647 33.5072C114.351 32.5133 113.667 31.1111 113.334 29.5512C113.169 28.7724 113.157 27.9614 113.074 27.1446C113.158 26.3636 113.18 25.5652 113.342 24.7956C113.543 23.8546 113.91 22.9654 114.471 22.1579C115.233 21.0604 116.279 20.3955 117.568 20.2172C118.45 20.0965 119.354 20.1126 120.235 20.4761C121.527 21.0087 122.25 22.0198 122.76 23.2312C122.928 23.6292 122.921 23.666 123.332 23.6223C123.547 23.6004 123.602 23.5026 123.582 23.2933C123.479 22.2902 123.383 21.2871 123.306 20.2817C123.286 20.0343 123.184 19.9043 122.962 19.8353C122.573 19.7122 122.189 19.5684 121.795 19.4649C121.183 19.3027 120.571 19.1014 119.947 19.0358C118.812 18.9173 117.665 18.8368 116.543 19.1601C115.946 19.3315 115.322 19.4522 114.763 19.7099C113.247 20.4082 112.013 21.4481 111.115 22.8826C110.209 24.3332 109.733 25.8931 109.792 27.6048C109.821 28.4043 109.898 29.1923 110.138 29.9711C110.334 30.6141 110.59 31.2215 110.934 31.7863C111.582 32.8469 112.435 33.7212 113.499 34.3723C114.264 34.8405 115.091 35.1936 115.964 35.3789C116.632 35.5215 117.33 35.6032 118.012 35.5951C118.934 35.5848 119.865 35.5249 120.773 35.3697C121.512 35.2431 122.225 34.9532 122.944 34.7209C123.291 34.6081 123.482 34.4103 123.491 33.9812C123.501 33.475 123.66 32.9735 123.743 32.4673C123.822 31.9922 123.896 31.516 123.949 31.0363C123.961 30.9201 123.923 30.7406 123.842 30.682ZM124.358 53.5061C124.185 53.4911 124.003 53.4301 123.931 53.6775C123.885 53.8339 123.836 53.995 123.759 54.1365C123.479 54.6495 123.246 55.2028 122.886 55.6538C122.207 56.505 121.299 57.002 120.209 57.2056C119.115 57.4104 118.096 57.2102 117.12 56.765C116.237 56.3624 115.579 55.6791 115.082 54.8451C114.607 54.0467 114.231 53.2116 114.114 52.2775C114.029 51.5965 113.861 50.9155 113.866 50.2356C113.872 49.4292 114.006 48.6217 114.113 47.8176C114.229 46.9445 114.562 46.1392 114.985 45.3731C115.571 44.3113 116.442 43.5498 117.57 43.1437C118.594 42.7733 119.653 42.7687 120.719 43.0793C121.677 43.36 122.41 43.9283 122.936 44.7427C123.252 45.2305 123.453 45.7907 123.719 46.3106C123.766 46.4038 123.872 46.5119 123.966 46.528C124.388 46.6028 124.48 46.5338 124.442 46.1082C124.346 45.0326 124.225 43.9582 124.101 42.8849C124.09 42.7917 123.997 42.6686 123.911 42.6295C123.613 42.4961 123.31 42.3557 122.995 42.2856C122.108 42.0865 121.217 41.9013 120.32 41.7506C119.08 41.5413 117.871 41.7288 116.669 42.0612C115.57 42.3649 114.581 42.8791 113.723 43.6073C111.955 45.1074 110.863 46.9905 110.643 49.3407C110.499 50.8729 110.675 52.3431 111.302 53.7649C112.003 55.3547 113.138 56.5246 114.64 57.3551C115.366 57.7566 116.125 58.0799 116.96 58.1903C117.662 58.2835 118.36 58.3974 118.762 58.4572C119.687 58.3951 120.315 58.4112 120.919 58.2973C121.758 58.1374 122.587 57.9039 123.405 57.6531C123.73 57.553 124.126 57.484 124.156 56.9698C124.186 56.482 124.332 56.0023 124.404 55.5157C124.488 54.9463 124.548 54.3734 124.621 53.8029C124.645 53.6027 124.547 53.521 124.358 53.5061ZM181.107 57.5093C181.089 57.438 181.015 57.3459 180.947 57.3252C180.723 57.2574 180.49 57.2183 180.258 57.1688C179.776 57.0641 179.404 56.7903 179.302 56.3141C179.202 55.8367 179.192 55.334 179.191 54.8428C179.182 51.3538 179.18 47.8636 179.189 44.3746C179.19 43.8098 179.315 43.2657 179.895 43.0057C180.172 42.8814 180.487 42.8078 180.79 42.7917C181.206 42.7699 181.089 42.4949 181.111 42.266C181.136 42.0003 181.011 41.9266 180.765 41.9301C179.888 41.9405 179.01 41.9382 178.133 41.9393C176.997 41.9393 175.861 41.9324 174.725 41.9439C174.609 41.9439 174.417 42.021 174.389 42.105C174.244 42.5432 174.386 42.7388 174.829 42.7883C175.801 42.8941 176.341 43.3991 176.337 44.4471C176.322 48.0396 176.33 51.6321 176.329 55.2247C176.329 55.4513 176.339 55.6802 176.324 55.9057C176.287 56.4924 175.873 57.1504 175.249 57.1906C175.025 57.2045 174.8 57.2539 174.585 57.3183C174.501 57.3436 174.408 57.4426 174.381 57.5277C174.346 57.6416 174.372 57.7727 174.371 57.897C174.37 58.0776 174.455 58.1489 174.64 58.1477C175.672 58.142 176.704 58.1443 177.737 58.1443V58.142C178.758 58.142 179.78 58.1351 180.802 58.1489C181.039 58.1512 181.122 58.0695 181.112 57.8486C181.107 57.7348 181.133 57.6163 181.107 57.5093Z" fill="#9FAAB6"/>
<path d="M46.8603 48.2963L44.5728 55.4116H29.5742L31.864 53.507C31.719 49.5166 31.9864 45.5126 32.0408 41.5516C32.0781 38.7882 31.9739 36.0033 31.9569 33.2127C31.949 31.8124 32.2696 28.2106 31.6227 27.0538C31.2556 26.3966 30.211 26.076 29.828 25.4155H44.5728L46.0956 32.2792C43.4002 28.5097 39.4573 26.1179 34.658 26.6867V38.6341C37.4282 38.7769 38.1012 38.7565 39.463 36.4588C39.6012 36.2265 39.3282 35.958 39.9967 36.0928V43.2103C39.2727 43.3372 39.5797 43.0358 39.4234 42.6506C38.3799 40.0708 37.5471 39.7909 34.658 39.9054V53.8865C37.1812 53.9715 39.2013 54.4916 41.618 53.3472C43.5305 52.442 44.3587 50.9793 45.5993 49.4486C45.7534 49.2594 46.5703 47.9859 46.8603 48.2963Z" fill="#9FAAB6"/>
<path d="M31.6077 52.3605C21.0346 48.9626 21.4572 32.6678 31.2293 28.4724C32.6025 30.1424 30.1416 31.332 29.216 32.5557C26.3019 36.4067 26.439 44.638 29.2103 48.5321C30.1258 49.8203 32.0405 50.4706 31.6077 52.3605Z" fill="#9FAAB6"/>
<path d="M43.813 35.5824C42.2348 31.9059 39.3037 29.9798 35.3144 29.7668L35.166 28.4661C36.4463 28.3845 37.8229 28.6372 39.0386 29.045C39.8385 29.3124 42.3152 30.9779 42.7548 30.7185L43.2987 29.9922C43.1808 31.626 43.7779 33.1861 43.9966 34.7644C44.0351 35.0386 44.2764 35.6413 43.813 35.5824Z" fill="#9FAAB6"/>
<path d="M44.572 50.3259C42.8373 49.747 41.693 51.5371 40.2224 52.2056C39.0101 52.7573 36.9605 53.1199 35.6485 53.0519C34.6367 52.9998 34.98 52.0515 35.346 51.8475C35.9125 51.5303 37.7502 51.5348 38.7178 51.2108C41.8063 50.1764 42.4929 48.2084 43.9398 45.7464C44.1335 45.4167 43.8944 45.104 44.572 45.2467C44.3703 46.842 43.5432 48.9981 44.572 50.3259Z" fill="#9FAAB6"/>
<path d="M49.0048 21.6043C45.9574 18.4579 43.6056 17.2898 39.2267 16.5452C20.725 13.3999 11.5414 37.1741 18.301 51.6847C23.5502 62.9522 36.7193 68.3436 47.2722 60.3526C59.0787 51.4135 58.9242 31.846 49.0048 21.6043ZM19.0079 51.4768C13.173 39.3802 19.1846 18.9214 33.8841 17.0409C53.0704 14.5869 60.8836 40.6773 51.849 54.4554C42.9432 68.0358 25.8141 65.5895 19.0079 51.4768Z" fill="#9FAAB6"/>
<path d="M93.6416 89.5323C93.9261 88.4584 96.1895 89.3076 96.2822 89.2018C97.0035 85.4284 94.2272 83.0031 91.9904 86.727C92.7812 88.1841 95.3755 85.7555 95.5409 87.3812C95.7031 88.9805 91.269 88.7062 90.2333 88.4749C88.1552 88.0057 86.9905 84.0571 84.8628 83.2608C83.2811 83.5153 86.1599 85.3194 85.5345 86.228C84.2307 84.9757 82.9799 82.1341 81.074 81.7508C80.5346 81.6418 80.0382 81.9788 79.6412 81.8797C79.072 81.7343 78.6981 80.6207 77.7583 80.9446C77.8642 81.9259 77.5829 83.1386 77.7616 84.0737C78.1389 86.0463 82.9866 88.5278 84.8992 88.845C85.2334 88.9012 86.1136 89.1126 86.0242 88.5476C84.3466 88.9474 76.8417 84.3479 78.4201 82.5967C79.0157 82.7355 80.2666 83.274 80.7331 83.5879C80.6173 83.2641 80.5743 82.9073 80.4022 82.6C80.935 82.2068 83.3936 84.3909 83.9032 84.8898C84.2705 85.2533 84.2672 85.8943 84.4855 86.119C85.0745 86.727 86.2658 87.0574 86.6893 87.8801C83.827 87.5662 82.6391 84.87 80.7331 83.5879C81.0508 84.4537 81.3122 84.8006 82.0567 85.4053L81.9839 85.4416C81.7655 85.5474 81.5107 85.5341 81.3056 85.402L79.4161 83.9679L79.0919 83.8721L79.2937 84.1331L81.8085 86.0661L85.6999 88.0454L91.58 89.4001C91.6198 89.41 91.6098 89.4695 91.5701 89.4662C84.3499 88.7492 72.4507 91.5743 69.82 82.9238C70.9252 83.4558 72.1132 84.5561 73.2978 84.8997C74.3136 85.1971 72.9173 83.4393 73.9497 83.9151C74.3368 84.0968 76.9344 86.2611 77.4307 86.7171C77.6624 86.9285 77.8675 87.1631 78.0892 87.3845L74.7604 85.7357L78.0859 88.2073C75.356 87.9528 73.1588 86.2677 71.1436 84.5759C70.5116 85.25 74.6445 87.7182 75.2104 87.9462C76.577 88.4914 78.301 88.8152 79.7437 88.5377C78.4764 86.7071 76.62 84.5429 74.5155 83.6639C73.1985 83.1154 73.1754 83.8259 72.636 83.7994C72.2852 83.7829 71.1899 82.7024 69.9855 82.5835C69.4428 82.5306 69.0821 82.3753 69.1615 83.0758C69.3237 84.5396 70.6076 86.5386 71.8253 87.3614L74.1184 88.5377C72.2323 88.9144 71.3521 87.3944 69.916 86.6212C66.8254 84.9625 63.748 84.1629 60.2206 84.5759L60.8791 86.3007L64.1914 88.2073C60.8956 88.6963 58.3411 87.031 55.0784 87.2061C52.954 87.3217 50.7767 88.237 48.6126 88.5046H15.7012C14.232 88.3659 11.3697 87.9396 10.7642 86.8724C10.5524 86.5023 10.6219 85.8844 10.4101 85.5738C9.69868 84.5462 8.0541 85.9538 9.10968 87.1896C10.1322 88.3857 11.4127 88.6104 12.9018 88.7062C12.9018 88.9606 10.9561 89.3076 10.4598 89.5752C7.77284 91.0324 9.20564 93.6626 10.5987 92.027C11.0454 91.4983 10.966 90.5136 11.4657 90.1667C12.2301 89.638 15.592 89.2778 16.7072 89.2051C17.1109 89.1787 17.5179 89.1523 17.9249 89.1324H38.2819C44.9793 89.4298 51.647 89.9486 58.03 90.4872L64.519 89.2051H58.2352L59.2213 89.8594C58.3874 89.7768 57.5271 90.2592 56.7296 90.2295C56.1307 90.2063 56.2961 89.6016 56.0215 89.5389C55.3464 89.377 54.2181 89.5587 53.4272 89.5323C53.0235 89.5157 52.1996 89.7801 52.2757 89.2018H56.9083C56.7627 88.6203 55.2273 88.5311 54.7673 88.5245C53.4007 88.4947 52.279 88.8516 50.9521 88.8681C50.876 88.389 51.5378 88.4088 51.8786 88.313C53.596 87.8207 55.9487 87.7248 57.7322 87.8801C58.758 87.9727 59.6912 88.4518 60.7169 88.5377C62.9605 88.7194 65.2602 88.3824 67.4971 88.8747C67.3449 89.4695 66.1636 89.1391 65.5018 89.3538C63.5263 89.9949 60.2107 91.4124 60.2206 93.8245C64.0425 93.7253 66.372 93.4114 69.4825 91.1844C67.464 91.9047 65.5349 92.8894 63.3642 93.1702L64.8499 91.6767C63.7414 91.4851 62.3814 92.7704 61.2133 93.1669L63.4072 90.9002C66.2331 89.562 69.3204 88.878 72.4606 88.8747C71.8518 89.9222 70.0351 89.3836 69.0192 89.5653C67.7254 89.7933 66.468 90.2658 65.1841 90.5268C65.108 91.1414 65.8459 90.7713 66.19 90.7053C67.8313 90.4013 69.3998 89.595 71.137 89.866C70.7962 90.3286 69.9987 90.8143 69.4825 91.1844C71.8617 90.3319 74.0919 88.8086 76.7623 89.2051L73.129 90.3649C70.4289 91.4223 69.5156 92.3409 69.1648 95.3312C69.102 95.8566 69.102 95.8632 69.6479 95.8136C71.7095 94.6241 74.1813 94.3531 76.213 93.1107C77.2123 92.4995 79.7603 89.7603 80.3063 89.5983C81.4942 89.2481 83.4068 89.7074 84.7039 89.5356C84.5517 90.1303 83.3737 89.7999 82.7086 90.018C79.8827 90.9366 76.9245 93.5403 77.755 96.8016C78.7709 97.2047 79.6577 96.0416 80.2302 95.959C80.8522 95.8731 81.256 96.3258 82.3016 95.8896C82.927 95.6319 84.9025 93.19 85.3657 92.5061C83.9429 92.7142 82.6921 94.9347 81.9707 95.2552C80.4883 95.9094 81.2394 94.2573 80.0713 94.4886C80.4055 95.688 79.1448 95.5493 78.4201 96.1407C77.4771 92.3343 82.8972 90.0907 85.9944 90.2195C86.4743 91.0291 85.8257 91.8254 85.3657 92.5061C85.5808 92.473 86.0441 92.3904 86.0275 92.668L84.373 94.4853C86.8945 95.3081 88.5457 89.8627 90.1638 89.8627H95.6237L94.9255 91.1612C94.8295 91.3397 94.6343 91.4421 94.4291 91.4223L92.6257 91.2207C92.4603 91.2009 92.3147 91.3265 92.3047 91.495C92.2749 92.1129 92.2021 92.9059 92.854 93.1207C95.7494 93.6625 96.6495 92.2715 96.2822 89.5323H93.6383H93.6416ZM67.4971 88.2106C64.6745 88.3328 62.7189 86.6741 60.5515 85.2335C60.4688 84.6486 61.2993 84.8997 61.6269 84.9823C62.2093 85.131 63.1458 85.4747 63.7447 85.6927C63.8572 85.7357 64.3635 86.7336 65.5117 86.228L64.1914 85.2434C66.6599 85.4251 69.2012 86.7005 71.137 88.2106L66.0147 87.216L67.4971 88.2106ZM75.5512 92.7869C74.5651 93.1933 72.4209 94.6803 71.9709 93.1669L69.8167 95.1528C69.7671 92.2021 72.4838 91.7296 74.7736 91.1811L74.1184 90.5301L79.4062 89.5389L75.5512 92.7869Z" fill="#9FAAB6"/>
<path d="M6.9423 89.1985C4.77159 89.975 2.07475 90.3814 0 89.0366C0.019854 88.042 6.39962 87.553 6.9423 89.1985Z" fill="#9FAAB6"/>
<path d="M9.9198 88.5476C10.1018 89.4067 9.74111 89.0597 9.44661 89.2349C8.487 89.8098 7.39503 90.6193 6.2832 90.5202L7.93771 89.1952L6.2832 87.553C7.83182 87.173 8.58296 88.2039 9.92311 88.5476H9.9198Z" fill="#9FAAB6"/>
<path d="M100.87 92.5655C100.87 92.5655 100.866 92.5622 100.863 92.5589C100.814 92.4796 100.41 91.8518 100.178 91.333C99.9962 89.8891 100.006 87.8206 100.502 86.6443C101.353 84.6287 105.942 83.6969 104.725 81.2716C103.795 79.418 101.201 81.8367 100.916 81.6021C102.415 79.9962 101.115 78.0533 99.4105 77.29C97.4748 77.5312 97.0711 79.5865 97.2729 81.2749C96.3762 80.7066 95.4199 80.4158 94.3411 80.6537C93.1532 84.5065 98.4145 85.6861 98.2855 89.6875C98.259 90.4673 97.5906 92.2219 97.0975 92.8265C96.2074 93.9136 93.4576 94.2275 94.0102 96.2365C94.6125 98.4371 98.7586 96.3984 98.9737 94.3795C99.7613 94.6538 101.581 96.5339 100.416 98.4867C98.7388 98.447 100.364 98.7874 99.3212 99.6333L98.0638 98.371L96.942 96.5471C96.9619 98.4669 98.527 100.007 99.4337 100C100.271 99.9967 101.068 99.1079 101.277 97.165L104.526 96.7718C104.877 94.3894 102.349 93.9004 100.87 92.5655ZM99.5892 92.8398C99.1259 92.8794 98.9638 93.5204 98.848 93.9698C97.9149 95.5757 96.995 96.6826 94.9599 96.8015L95.9526 95.4864L96.9751 94.6703C97.8884 93.9467 98.6131 93.0149 99.0962 91.9575L99.9168 93.1272C100.129 93.4312 100.387 93.6956 100.688 93.9136L101.819 94.7364L100.489 93.3387C100.311 93.1537 100.172 92.9356 100.072 92.6977L99.1326 91.1381C99.1094 91.0786 99.0267 91.0852 99.0101 91.148L98.5502 92.3474C98.441 92.8298 97.5575 93.8773 97.1869 94.2044L94.6323 96.144C94.3643 94.624 95.7342 94.7496 96.449 94.1581C99.8242 91.3661 98.4972 87.2886 97.6038 83.5879L97.445 85.5671C96.8196 84.414 94.2749 82.7354 94.6489 81.4666C95.0658 80.0755 98.0274 82.6958 98.1796 83.0064C98.5038 83.6639 98.0439 85.4779 98.9274 85.8976V82.6099L98.1862 82.2993C97.8851 82.1737 97.7064 81.8631 97.7527 81.5426C97.9215 80.3398 97.4582 78.8761 98.5932 78.126C99.4436 77.5676 99.9962 79.4047 100.105 79.9334C100.701 82.7949 98.2755 85.2598 99.0962 88.2171C99.6918 85.0913 100.244 80.2903 104.556 81.6087L101.72 84.2256L101.244 85.2367C100.201 84.9426 101.75 83.8456 101.575 83.2575C99.8969 84.7973 99.073 88.8846 99.9499 91.2207L99.9598 91.2471L100.41 92.5358L100.42 92.5688C100.847 93.9632 101.551 93.4973 102.865 94.6934C103.348 95.1329 103.798 95.9325 104.225 96.4711C101.69 97.0097 99.9466 95.1659 99.5892 92.8398Z" fill="#9FAAB6"/>
<path d="M184.964 88.7095C184.964 88.4187 186.87 88.5872 187.38 88.4749C188.568 88.2072 190.712 85.8513 189.061 85.2797C187.148 84.6188 188.65 86.945 186.354 87.7711C185.153 88.2072 182.751 88.4154 181.222 88.5178H150.008C147.996 88.2832 145.997 87.4505 144.062 87.2622C140.088 86.8789 136.388 88.5046 132.526 88.5575C131.828 88.5641 131.626 88.3592 132.427 88.1246C134.515 87.51 138.393 87.6257 138.311 84.5792C135.716 84.4007 133.867 84.5461 131.468 85.511C129.257 86.3998 127.48 88.4418 125.075 88.2105C125.66 87.3911 126.749 87.2556 127.553 86.5584C128.513 85.729 130.131 83.3698 128.883 82.2761C127.844 83.2806 126.286 83.0031 125.316 83.3335C122.338 84.3446 120.432 86.836 117.891 88.4749C112.646 89.2018 107.537 89.7106 102.223 89.6776C100.581 93.0248 105.72 94.928 106.213 91.1876C104.747 90.7779 103.953 92.4069 102.735 90.5268L103.07 89.8659H108.033C109.549 89.8659 110.806 93.2726 112.05 94.1119C112.163 94.1879 114.115 95.2551 113.824 94.3267L110.849 91.3495C110.839 91.0786 111.518 91.1282 111.666 91.1744C111.991 91.2769 114.909 95.4104 116.352 96.0977C117.517 96.6528 119.016 96.633 120.25 97.1022C120.773 96.8511 120.776 96.5438 120.756 96.025C120.607 92.3441 117.457 90.7184 114.304 89.8692C113.768 89.7239 113.328 90.2195 113.493 89.2051C115.617 89.4959 117.778 88.9771 119.909 89.2414C122.384 89.5454 127.904 91.865 128.645 94.396C128.767 94.8124 129.002 95.6451 128.221 95.4798L127.388 93.831L126.895 94.4886C126.183 93.3354 125.065 93.6295 123.966 93.1173C122.788 92.5721 122.437 91.5577 121.865 91.1678C121.517 90.9332 120.872 90.9233 120.442 90.6887C119.449 90.1534 121.021 90.2856 120.77 89.8692L118.308 89.519L116.726 89.7106C116.24 89.7073 115.707 89.7338 115.482 89.8626L117.007 89.7668C119.618 90.0146 121.041 92.4829 123.317 93.7649C124.621 94.4985 125.839 94.6934 127.149 95.2254C127.642 95.427 128.006 96.1506 128.546 96.1572C130.276 96.1737 128.569 92.962 128.056 92.3375L123.423 89.5388C126.378 88.8681 128.073 91.1447 130.475 92.2351C133.149 93.4477 135.73 93.6856 138.641 93.8277C138.079 91.224 135.554 90.4904 133.413 89.6181C132.92 89.4166 132.517 89.8164 132.689 88.8747C134.37 89.1225 136.107 89.2448 137.778 89.5719C138.8 89.7701 139.307 90.4045 140.779 90.5367C144.432 90.8671 146.984 89.6247 150.17 89.2481H182.39C183.981 89.3703 186.443 89.6677 187.294 90.6821C187.602 91.0489 187.641 91.6767 187.932 92.0236C188.694 92.9356 189.736 92.5391 189.61 91.3661C189.451 89.8692 186.258 88.7656 184.964 88.7095ZM119.608 93.8575C119.767 94.1978 119.456 94.6373 119.539 94.7694C119.618 94.9016 120.425 94.6207 120.108 95.4831L119.512 95.2419L119.29 95.8169C118.059 95.5922 118.615 93.0479 116.802 93.6625L117.464 94.819C116.845 95.3708 111.518 91.0753 112.169 90.5268C114.436 89.8362 118.662 91.8088 119.608 93.8575ZM121.256 88.5343C120.412 88.6202 121.001 88.27 121.107 87.8834L119.449 88.2105C121.259 86.6608 123.334 84.143 125.736 84.0802L124.747 85.0748C124.694 85.3226 125.081 85.2962 125.233 85.2334C125.521 85.1178 128.532 82.6825 128.711 82.9271C128.999 84.3842 128.168 84.6155 127.536 85.392C125.859 87.4439 123.906 88.2634 121.256 88.5343ZM135.002 84.9129L133.678 86.5584L137.149 85.5671C137.49 85.9306 136.454 86.5188 136.226 86.6278C133.807 87.7777 130.018 87.933 127.391 88.5409C129.466 86.6542 132.308 85.5572 135.002 84.9129ZM137.649 93.1669L134.489 91.8584C133.033 92.0401 135.912 92.5655 135.663 93.1669C132.599 92.7208 129.313 91.5015 127.063 89.367L129.707 89.8626L129.532 89.2084C132.652 89.5785 135.72 90.5169 137.649 93.1669ZM146.792 88.835C145.157 88.683 143.622 88.1643 141.954 88.878L145.26 89.2084L142.285 89.5388L143.44 90.1964L139.307 89.8626L140.296 89.2084L134.336 88.7095C138.88 88.4187 143.393 87.1234 147.903 88.5476C147.98 89.139 147.162 88.8681 146.792 88.835Z" fill="#9FAAB6"/>
<path d="M108.695 88.5443C109.71 88.2568 111.335 84.7444 112.708 83.9646C114.459 82.9733 114.125 84.3347 114.317 84.2488C115.594 81.5261 117.947 82.4546 119.939 80.9412C122.837 87.4968 112.437 88.9143 108.026 89.2018C107.189 89.2547 102.546 89.2249 102.106 88.911C100.26 87.5926 105.683 81.7475 106.206 87.2193L104.108 86.9252L103.231 88.5443H108.691H108.695ZM112.5 87.8801C114.396 88.0222 119.578 85.8381 119.972 83.9382C120.044 83.5945 119.168 82.742 119.776 81.9358C119.138 82.3389 118.066 82.3653 118.119 83.2509H117.463L117.794 82.2695C116.815 81.4567 114.71 85.012 114.436 85.1772C114.161 85.3425 113.519 84.2785 112.725 86.2908C112.616 86.565 112.239 87.0739 112.665 87.2193C115.147 86.2313 117.583 85.4449 119.287 83.2575C119.737 84.0076 118.155 84.9526 117.576 85.5143L112.503 87.8768L112.5 87.8801Z" fill="#9FAAB6"/>
<path d="M191.915 87.8768L190.26 89.2018C190.949 89.3075 192.011 89.6115 191.912 90.5268C190.449 90.8539 189.972 89.2844 188.606 89.2018C188.424 88.4154 188.745 88.6698 189.036 88.4682C189.678 88.0255 191.574 86.5914 191.915 87.8768Z" fill="#9FAAB6"/>
<path d="M191.586 88.5442C193.763 87.966 196.232 87.6356 198.197 89.0366C198.197 89.9122 191.662 90.6722 191.586 88.5442Z" fill="#9FAAB6"/>
</svg>
