<svg width="169" height="100" viewBox="0 0 169 100" fill="none" xmlns="http://www.w3.org/2000/svg">
<path d="M20.8471 99.6629H16.3237L14.5256 95.2518H6.20919L4.41105 99.6629H0L8.42876 79.8553H12.4184L20.8471 99.6629ZM12.9803 91.4308L10.3674 85.053L7.75446 91.4308H12.9803Z" fill="#9FAAB6"/>
<path d="M40.8798 99.6629H35.8226L31.6082 93.3694H28.2086V99.6629H23.8818V79.9958H32.8725C35.2138 79.9958 37.0307 80.5671 38.3231 81.7096C39.6342 82.8522 40.2898 84.4443 40.2898 86.4859V86.5421C40.2898 88.1342 39.8965 89.436 39.1098 90.4475C38.3418 91.4402 37.3304 92.1707 36.0754 92.6389L40.8798 99.6629ZM35.9069 86.7669V86.7107C35.9069 85.7742 35.6072 85.0718 35.0078 84.6035C34.4084 84.1353 33.5749 83.9011 32.5073 83.9011H28.2086V89.5484H32.5916C33.6592 89.5484 34.474 89.2955 35.0359 88.7898C35.6165 88.2841 35.9069 87.6098 35.9069 86.7669Z" fill="#9FAAB6"/>
<path d="M61.4654 96.488C60.9596 97.0312 60.4352 97.5182 59.892 97.949C59.3488 98.3798 58.7494 98.7544 58.0939 99.0728C57.457 99.3725 56.7546 99.5973 55.9867 99.7471C55.2187 99.9157 54.3571 100 53.4018 100C51.9596 100 50.6204 99.7378 49.3841 99.2133C48.1479 98.6888 47.0803 97.9771 46.1812 97.078C45.2821 96.1602 44.5797 95.0832 44.074 93.847C43.5683 92.6108 43.3154 91.2903 43.3154 89.8855V89.8293C43.3154 88.4245 43.5683 87.1133 44.074 85.8959C44.5797 84.6596 45.2821 83.5826 46.1812 82.6648C47.0803 81.7283 48.1573 80.9978 49.4122 80.4734C50.6672 79.9302 52.0532 79.6586 53.5704 79.6586C54.4882 79.6586 55.3217 79.7335 56.071 79.8833C56.8389 80.0332 57.5319 80.2392 58.15 80.5014C58.7682 80.7637 59.3394 81.0821 59.8639 81.4567C60.3883 81.8313 60.8753 82.2434 61.3249 82.6929L58.5715 85.8678C57.8035 85.1747 57.0168 84.6315 56.2114 84.2382C55.4247 83.8449 54.535 83.6482 53.5423 83.6482C52.7182 83.6482 51.9502 83.8074 51.2385 84.1258C50.5454 84.4442 49.9461 84.8844 49.4403 85.4463C48.9346 86.0082 48.5413 86.6638 48.2603 87.413C47.9793 88.1435 47.8389 88.9302 47.8389 89.7731V89.8293C47.8389 90.6721 47.9793 91.4682 48.2603 92.2174C48.5413 92.9666 48.9252 93.6222 49.4122 94.1841C49.918 94.746 50.5173 95.1956 51.2104 95.5327C51.9221 95.8511 52.6994 96.0104 53.5423 96.0104C54.6662 96.0104 55.6121 95.8043 56.38 95.3923C57.1667 94.9802 57.944 94.4183 58.712 93.7065L61.4654 96.488Z" fill="#9FAAB6"/>
<path d="M81.5615 99.6629H77.2347V91.768H69.2555V99.6629H64.9287V79.9958H69.2555V87.7783H77.2347V79.9958H81.5615V99.6629Z" fill="#9FAAB6"/>
<path d="M90.7975 99.6629H86.4707V79.9958H90.7975V99.6629Z" fill="#9FAAB6"/>
<path d="M110.604 83.9854H104.62V99.6629H100.293V83.9854H94.3086V79.9958H110.604V83.9854Z" fill="#9FAAB6"/>
<path d="M128.907 99.6629H113.932V79.9958H128.766V83.8449H118.23V87.8345H127.502V91.6837H118.23V95.8138H128.907V99.6629Z" fill="#9FAAB6"/>
<path d="M150.032 96.488C149.526 97.0312 149.002 97.5182 148.458 97.949C147.915 98.3798 147.316 98.7544 146.66 99.0728C146.023 99.3725 145.321 99.5973 144.553 99.7471C143.785 99.9157 142.924 100 141.968 100C140.526 100 139.187 99.7378 137.951 99.2133C136.714 98.6888 135.647 97.9771 134.748 97.078C133.849 96.1602 133.146 95.0832 132.64 93.847C132.135 92.6108 131.882 91.2903 131.882 89.8855V89.8293C131.882 88.4245 132.135 87.1133 132.64 85.8959C133.146 84.6596 133.849 83.5826 134.748 82.6648C135.647 81.7283 136.724 80.9978 137.979 80.4734C139.234 79.9302 140.62 79.6586 142.137 79.6586C143.055 79.6586 143.888 79.7335 144.637 79.8833C145.405 80.0332 146.098 80.2392 146.716 80.5014C147.335 80.7637 147.906 81.0821 148.43 81.4567C148.955 81.8313 149.442 82.2434 149.891 82.6929L147.138 85.8678C146.37 85.1747 145.583 84.6315 144.778 84.2382C143.991 83.8449 143.101 83.6482 142.109 83.6482C141.285 83.6482 140.517 83.8074 139.805 84.1258C139.112 84.4442 138.512 84.8844 138.007 85.4463C137.501 86.0082 137.108 86.6638 136.827 87.413C136.546 88.1435 136.405 88.9302 136.405 89.7731V89.8293C136.405 90.6721 136.546 91.4682 136.827 92.2174C137.108 92.9666 137.492 93.6222 137.979 94.1841C138.484 94.746 139.084 95.1956 139.777 95.5327C140.489 95.8511 141.266 96.0104 142.109 96.0104C143.233 96.0104 144.178 95.8043 144.946 95.3923C145.733 94.9802 146.51 94.4183 147.278 93.7065L150.032 96.488Z" fill="#9FAAB6"/>
<path d="M168.386 83.9854H162.402V99.6629H158.075V83.9854H152.091V79.9958H168.386V83.9854Z" fill="#9FAAB6"/>
<path fill-rule="evenodd" clip-rule="evenodd" d="M165.592 27.1508C167.062 28.8871 167.463 30.9323 167.452 33.1642H167.451C167.427 38.6686 167.43 44.1736 167.433 49.6785V49.688C167.435 53.5691 167.437 57.4502 167.43 61.331C167.421 65.493 166.015 69.0773 163.578 71.7001C160.842 74.6492 156.865 75.8742 154.689 76.1814C152.81 76.4466 150.913 76.2581 150.913 76.2581C150.519 76.184 150.126 76.1094 149.732 76.0348C149.339 75.9602 148.945 75.8856 148.552 75.8114C144.523 74.4066 141.462 71.9234 139.588 68.1123C139.292 67.5099 138.861 67.5403 138.33 67.5778L138.247 67.5835C122.741 68.6445 109.751 60.4323 103.824 45.835C103.805 45.7864 103.786 45.7381 103.767 45.6904C103.51 45.0389 103.302 44.5129 102.413 45.308C97.893 49.3478 92.4851 51.1731 86.5101 51.372C85.1088 51.4191 84.8122 51.9304 84.861 53.1904L84.8668 53.3427C84.9505 55.5595 85.035 57.7937 84.8575 59.9978C84.3445 66.3916 79.7725 71.5675 73.5374 73.0159C67.4193 74.4363 60.9242 71.6669 57.6819 66.1386C57.0188 65.0061 56.6052 64.3657 55.2475 65.3272C54.1924 66.0746 52.8276 66.0846 51.5484 66.0941L51.4259 66.095C47.3582 66.1299 43.2905 66.1281 39.2228 66.1002C37.4131 66.0898 35.6018 65.8734 34.0749 64.8194C33.1098 64.1528 32.794 64.3814 32.2705 65.3516C28.3075 72.714 19.7166 75.4886 12.4659 71.6739C7.325 68.9691 4.58003 64.5646 4.55037 58.7588C4.46835 42.495 4.49802 26.2294 4.53641 9.96382C4.54862 4.93809 7.88865 1.73244 12.9406 1.70975C14.945 1.70028 16.95 1.70948 18.9552 1.71867C23.2328 1.73829 27.5106 1.75791 31.7819 1.59632C41.2086 1.24033 49.2184 3.91549 55.2929 11.8991C55.3631 11.3358 55.4126 10.8074 55.4597 10.3055C55.5553 9.28511 55.6407 8.37348 55.8688 7.49981C56.7535 4.10221 59.7044 1.7621 63.2242 1.72894C64.8582 1.71365 66.4926 1.69385 68.1271 1.67405C74.5096 1.59675 80.8939 1.51942 87.2692 1.70975C95.6542 1.96104 102.254 5.79142 106.866 12.8414C107.618 13.9914 107.922 14.22 108.901 13.0002C116.935 2.99585 127.465 -1.30918 140.108 0.345123C151.005 1.77257 159.317 7.56089 164.922 17.0592C166.55 19.8181 167.105 22.7533 165.39 25.7303C165.044 26.3289 165.207 26.6953 165.592 27.1508ZM139.499 35.7574C139.652 35.4502 139.748 35.1239 139.795 34.7906L139.793 34.7889C139.882 34.4573 139.937 34.1135 139.945 33.761C139.961 33.1171 139.748 32.4627 139.375 31.8642C138.916 31.0213 138.171 30.3669 137.267 29.9638C136.652 29.6532 135.98 29.4647 135.31 29.4525C134.658 29.4403 134.042 29.5572 133.487 29.7771C132.141 30.2413 131.075 31.2831 130.878 32.7384C130.785 33.1066 130.737 33.494 130.74 33.8971C130.759 36.3088 132.775 38.3296 135.181 38.3487C136.614 38.3592 137.949 37.6664 138.839 36.6054C139.102 36.3768 139.327 36.0976 139.499 35.7574ZM30.7931 55.7589C30.731 55.7876 30.6689 55.8161 30.6064 55.8444C30.6064 56.1615 30.607 56.4787 30.6076 56.7958C30.6087 57.4299 30.6099 58.064 30.6064 58.6982C30.5698 64.9485 25.709 69.8059 19.4438 69.8548C13.3757 69.9001 8.14504 65.0392 8.11015 58.967C8.02903 44.3112 8.05392 29.6541 8.0788 14.9981V14.9958V14.9943C8.08175 13.2605 8.0847 11.5259 8.08747 9.79206C8.0927 6.60321 9.78681 4.91192 13.1785 4.81767C17.6607 4.69374 22.1481 4.69025 26.632 4.75483C27.895 4.77284 29.161 4.73862 30.4272 4.7044C33.7035 4.61587 36.9813 4.52729 40.2127 5.34303C48.3466 7.39737 53.7866 12.4067 55.7354 20.5804C57.7628 29.0805 55.9814 36.7777 49.2643 42.7958C47.8284 44.0822 47.8424 44.899 48.8351 46.325C50.2325 48.3338 51.5638 50.3891 52.8951 52.4445L52.8959 52.4457L52.8966 52.4468L52.8974 52.448L52.8982 52.4492L52.8989 52.4503L52.8997 52.4515C53.5831 53.5066 54.2665 54.5617 54.959 55.6106C56.0076 57.1971 56.5903 58.8779 55.6133 60.6617C54.6554 62.4106 52.9229 62.6637 51.1119 62.6567C50.3816 62.654 49.6512 62.6502 48.9208 62.6464H48.9198H48.9187H48.9177H48.9167C45.9405 62.6311 42.9638 62.6157 39.9894 62.669C37.0339 62.7213 34.7885 61.6147 33.2409 59.0682C32.7573 58.2718 32.2301 57.5017 31.7028 56.7314C31.4616 56.3791 31.2204 56.0266 30.9833 55.6716C30.9475 55.6878 30.9119 55.7041 30.8764 55.7205L30.7931 55.7589ZM11.4582 34.6326H11.4635C11.4635 37.014 11.4571 39.3955 11.4507 41.777C11.4357 47.3533 11.4207 52.9297 11.4879 58.5044C11.5559 64.2468 16.9087 67.8702 22.2684 65.9608C25.7579 64.7181 27.7852 61.0771 27.4049 56.6299C27.186 54.0736 27.2443 51.5188 27.3027 48.9641L27.3159 48.3811C27.3173 48.319 27.318 48.2551 27.3187 48.19C27.326 47.5328 27.3346 46.7575 28.087 46.524C28.9085 46.2673 29.3045 46.9017 29.6706 47.4882C29.7251 47.5756 29.779 47.6619 29.8335 47.744C30.2793 48.4151 30.7261 49.0857 31.1728 49.7564L31.1756 49.7606C32.8171 52.2247 34.4588 54.6892 36.0586 57.1797C36.9868 58.6231 38.1732 59.3056 39.9231 59.2689C42.101 59.2223 44.2794 59.2303 46.4581 59.2384C47.868 59.2436 49.278 59.2488 50.688 59.2392C52.745 59.2253 52.984 58.7977 51.8552 57.0488C50.3308 54.691 48.7875 52.3458 47.2443 50.0007L47.2433 49.9992L47.2422 49.9976L47.2415 49.9965L47.2408 49.9955C46.2206 48.4452 45.2001 46.8945 44.1854 45.3406C42.9362 43.4294 43.0409 43.0035 44.9741 41.787C56.0233 34.8333 55.8174 17.4072 44.6181 10.6613C41.4916 8.77798 38.058 8.106 34.4866 8.11647C29.7336 8.12998 24.9805 8.19274 20.2269 8.2555C18.2242 8.28195 16.2213 8.30839 14.2184 8.33116C11.6728 8.36083 11.4635 8.55108 11.4617 11.1186C11.4543 16.7175 11.4557 22.3155 11.4571 27.914C11.4577 30.1534 11.4582 32.3929 11.4582 34.6326ZM12.8497 27.5457C12.8493 22.6403 12.8489 17.7347 12.8501 12.8298C12.8501 10.7421 13.9208 9.69702 16.0624 9.69469C18.136 9.69364 20.2111 9.66573 22.2861 9.63783C27.0867 9.57326 31.887 9.5087 36.6686 9.77669C43.0705 10.1343 47.9134 13.4788 50.2921 19.5833C52.7458 25.8815 51.9331 31.9197 47.8436 37.3962C46.7705 38.8342 45.2737 39.7991 43.78 40.7619L43.564 40.9012C41.4992 42.2376 41.208 43.5025 42.5282 45.5664C43.857 47.6424 45.2095 49.7037 46.5621 51.765C47.4408 53.1041 48.3195 54.4433 49.1917 55.7865C49.2494 55.8752 49.3169 55.9644 49.3855 56.0548C49.6528 56.4074 49.9351 56.7798 49.7061 57.2241C49.4746 57.6764 49.0098 57.6415 48.5737 57.6087C48.4581 57.6 48.3445 57.5915 48.2378 57.5922C47.1782 57.6003 46.1185 57.5962 45.0588 57.5921C43.3677 57.5855 41.6768 57.579 39.9873 57.6219C38.6235 57.6568 37.7603 57.1037 37.0522 55.9871C35.7267 53.8961 34.364 51.828 33.0014 49.7602L33.0009 49.7594L33.0003 49.7585L32.9998 49.7577L32.9992 49.7568L32.9987 49.7559L32.9973 49.7538C32.5184 49.0271 32.0396 48.3004 31.5624 47.5727C31.5171 47.5037 31.4721 47.4345 31.427 47.3653L31.426 47.3638C31.1774 46.9825 30.9286 46.6007 30.6573 46.2363C29.883 45.2035 28.9081 44.5667 27.5688 44.9662C26.2539 45.3588 25.9208 46.4684 25.9051 47.6565C25.881 49.5616 25.8781 51.4667 25.8751 53.3718C25.8725 55.0554 25.8699 56.7391 25.8528 58.4227C25.8266 60.8844 24.782 62.8209 22.6282 64.0579C18.2022 66.5981 12.9844 63.5223 12.8797 58.2325C12.8083 54.6638 12.8226 51.0942 12.8368 47.5244C12.8431 45.9494 12.8494 44.3744 12.8483 42.7994V34.9031H12.8501C12.8501 32.4508 12.8499 29.9982 12.8497 27.5457ZM26.1876 29.9047C26.1189 29.2533 26.136 28.592 26.1531 27.931C26.1608 27.636 26.1684 27.341 26.1684 27.0469H26.1702C26.1056 22.1933 26.7143 21.6071 31.5972 21.7188C33.0342 21.7519 34.452 21.9334 35.8367 22.3033C37.9957 22.879 39.2007 24.3742 39.3211 26.5218C39.4571 28.9347 38.4439 30.6863 36.2343 31.3998C33.7806 32.1919 31.2188 32.4588 28.643 32.2966C27.213 32.2076 26.3393 31.3335 26.1876 29.9047ZM35.3537 23.6891C34.0735 23.3227 32.7531 23.2791 31.431 23.2878V23.2896C27.5188 23.2547 27.4523 23.321 27.4593 27.3109L27.4595 27.4605L27.4595 27.6409C27.459 28.1284 27.4586 28.6173 27.4943 29.1026C27.5712 30.1424 28.0802 30.7791 29.1994 30.7634L29.5523 30.7584C31.5315 30.7308 33.5091 30.7032 35.4306 30.1005C37.0781 29.5841 37.921 28.4588 37.8878 26.7735C37.8563 25.1354 36.8997 24.1322 35.3537 23.6891ZM105.281 36.5477C100.43 44.7833 93.3366 48.0968 84.3743 47.9328C81.9178 47.8874 81.8358 48.0043 81.8358 50.4419C81.8358 51.4981 81.8493 52.5544 81.8629 53.6107C81.8823 55.1263 81.9017 56.6419 81.8811 58.1576C81.7939 64.7653 76.86 69.8149 70.5199 69.8358C64.0943 69.8568 59.1028 64.774 59.0906 58.0703C59.0614 43.2956 59.0714 28.5213 59.0813 13.7467V13.7448V13.7419L59.0836 10.3331C59.0854 6.60787 60.666 4.85954 64.3717 4.80719L65.3939 4.79258C72.5294 4.69039 79.6675 4.58816 86.7994 4.75136C97.6529 4.99913 105.202 12.4758 106.814 20.7062C106.859 20.9345 106.95 21.1541 107.042 21.3788C107.087 21.4873 107.133 21.597 107.174 21.7095C107.727 21.5649 107.878 21.1589 108.018 20.778C108.059 20.667 108.1 20.5581 108.149 20.4585C118.624 -0.788521 147.454 -2.98005 160.944 16.4558C161.08 16.6529 161.213 16.8519 161.344 17.0525C164.493 21.8683 163.924 24.0424 158.838 26.6527C158.698 26.7253 158.569 26.8188 158.447 26.9068L158.392 26.9468C158.376 26.9581 158.361 26.9692 158.345 26.9802C158.33 26.9911 158.314 27.0017 158.299 27.0121C158.387 27.3493 158.602 27.3753 158.803 27.3996C158.83 27.4028 158.856 27.406 158.882 27.4099C163.212 28.0677 164.348 29.3013 164.362 33.6111C164.387 41.1356 164.38 48.6594 164.373 56.1835V56.1846V56.1863C164.371 57.6343 164.37 59.0824 164.369 60.5306C164.367 63.8667 163.572 66.9062 161.155 69.3909C155.637 75.0634 146.151 73.5349 142.744 66.3985C141.928 64.6908 140.548 63.9173 138.602 64.0778C121.85 65.4615 107.779 54.216 105.424 37.5597C105.4 37.397 105.377 37.2334 105.339 36.9538L105.282 36.5494L105.281 36.5477ZM161.014 33.8798C161.019 37.0623 161.018 40.2449 161.017 43.4274C161.016 44.792 161.016 46.1565 161.016 47.521H161.014C161.012 49.0367 161.015 50.5524 161.018 52.0681V52.0716C161.025 55.1018 161.031 58.132 160.998 61.1622C160.955 65.2277 158.564 68.3213 154.881 69.2321C150.307 70.3645 145.825 67.3616 145.124 62.6907C144.656 59.5709 144.588 59.5238 141.503 60.1711C126.258 63.3747 111.858 54.1078 109.108 38.7497C105.664 19.518 120.888 6.42641 135.107 6.55553C145.27 6.648 153.074 10.8077 158.681 19.1899C160.395 21.7514 160.169 22.3499 157.392 23.5887C154.442 24.9043 151.49 26.2164 148.531 27.5094C145.902 28.6592 145.893 28.6488 144.034 26.5226L144.026 26.5131C140.945 22.9867 136.36 21.7828 131.965 23.3462C127.937 24.7787 124.941 28.804 124.777 33.0021C124.591 37.7917 127.106 41.9026 131.37 43.7748C138.326 46.83 146.481 41.8258 146.919 34.2357C147.095 31.1735 147.367 30.9136 150.455 30.9066L150.995 30.9054H150.996H150.997H150.998C153.331 30.9005 155.662 30.8955 157.994 30.9101C160.705 30.9275 161.009 31.2294 161.014 33.8798ZM62.5014 34.5114H62.4822C62.4822 32.3749 62.4818 30.2383 62.4814 28.1017C62.4804 22.4063 62.4794 16.7108 62.4857 11.0154C62.4874 8.55861 62.6968 8.3597 65.1376 8.33178C66.9895 8.31025 68.8414 8.28649 70.6933 8.26273C75.595 8.19984 80.4967 8.13695 85.3984 8.11542C88.0939 8.10321 90.7842 8.37191 93.2913 9.4764C99.9245 12.399 103.515 17.4713 103.974 24.7351C104.447 32.2257 101.941 38.2314 95.2784 42.1364C92.5916 43.7103 89.6327 44.3995 86.5359 44.4745C85.0071 44.511 83.4772 44.5077 81.947 44.5043L81.9419 44.5043C81.5006 44.5034 81.0593 44.5024 80.618 44.5024C79.1455 44.5042 78.4337 45.1934 78.4459 46.7027C78.4773 50.468 78.4756 54.2352 78.4599 58.0023C78.4407 62.8878 75.1607 66.3671 70.5722 66.4037C65.9262 66.4421 62.5572 63.0902 62.5189 58.189C62.4746 52.6287 62.484 47.0675 62.4935 41.5066C62.4974 39.1748 62.5014 36.843 62.5014 34.5114ZM135.57 41.2535C131.43 41.2134 128.186 37.8528 128.2 33.6181L128.202 33.6163C128.216 29.3362 131.588 26.035 135.882 26.0978C139.3 26.1484 143.773 29.7986 143.749 32.5188C143.703 37.6905 140.322 41.3006 135.57 41.2535ZM81.2788 9.65932C79.6228 9.74439 78.0591 9.82471 76.6501 9.70527V9.70702C75.2488 9.70702 73.9688 9.70636 72.7671 9.70575H72.766C70.5712 9.70462 68.6379 9.70363 66.7054 9.70702C63.8489 9.71225 63.807 9.74539 63.807 12.6166C63.8041 20.6572 63.8039 28.6978 63.8037 36.7385C63.8035 43.1724 63.8033 49.6063 63.8018 56.0402C63.8018 57.42 63.8576 58.7945 64.2136 60.1342C65.3443 64.3921 70.2652 66.3109 73.9541 63.9264C76.5296 62.2623 77.0531 59.733 76.9624 56.8845C76.8525 53.4185 76.8123 49.949 76.8577 46.483C76.8874 44.231 77.9553 43.2525 80.222 43.1792C81.0109 43.1535 81.801 43.1566 82.5914 43.1597C83.3571 43.1627 84.123 43.1657 84.8881 43.1426C95.0893 42.8338 101.178 37.7717 102.505 28.5163C103.798 19.505 98.2198 11.6991 89.2855 9.93029C86.5496 9.38858 83.8067 9.52948 81.2788 9.65932ZM82.4207 21.7238C78.6544 21.6786 77.4771 22.2648 77.02 24.5182C76.6745 26.2242 76.6989 27.972 77.0322 29.685C77.3062 31.0961 78.1158 32.1323 79.6252 32.2771C82.2096 32.5248 84.7799 32.3189 87.2299 31.4241C89.4949 30.5973 90.5244 28.7988 90.3255 26.3393C90.151 24.1816 88.8178 22.6884 86.5074 22.1756C85.1062 21.8651 83.6823 21.6592 82.4207 21.7238ZM83.6148 23.3137C84.3101 23.365 85.0569 23.4201 85.7945 23.5347C87.4951 23.8004 88.6702 24.6413 88.7732 26.5417C88.8867 28.6221 88.2232 29.5644 86.1699 30.2375C84.3745 30.8251 82.5315 30.7837 80.6895 30.7424C80.5036 30.7382 80.3178 30.734 80.1321 30.7305C79.6379 30.7218 79.1944 30.5749 78.8714 30.1641C78.2551 29.3808 78.2952 24.5609 78.9832 23.8965C79.6778 23.2267 80.5068 23.2554 81.3865 23.2859C81.8292 23.3012 82.2847 23.317 82.7424 23.2444C83.0201 23.2699 83.3126 23.2914 83.6148 23.3137ZM159.434 52.1963C159.432 50.8442 159.43 49.4922 159.43 48.1401V48.1419C159.43 46.9199 159.427 45.6979 159.424 44.4759C159.417 41.1503 159.409 37.8249 159.447 34.5004C159.465 32.9804 158.912 32.3103 157.353 32.3556C155.081 32.422 152.806 32.4045 150.534 32.3609C149.206 32.3347 148.642 32.8565 148.492 34.2247C147.676 41.6588 142.61 46.1333 135.249 46.0443C130.562 45.9867 127.05 43.7791 124.87 39.7881C122.596 35.6242 122.616 31.2108 125.144 27.1273C129.569 19.9811 139.329 19.1556 144.992 25.3857C145.953 26.4432 146.74 26.7416 148.066 26.1099C150.874 24.7731 153.733 23.5359 156.605 22.344C158.086 21.7279 158.085 20.988 157.284 19.7525C151.153 10.2975 139.307 5.82302 128.561 8.95549C115.574 12.7406 107.938 25.7085 110.687 39.3082C113.245 51.9741 125.533 60.6665 138.699 59.0994C139.452 59.0097 140.197 58.8638 140.943 58.7178C141.605 58.5882 142.267 58.4585 142.934 58.3682C145.121 58.0715 146.124 58.8534 146.39 60.951C146.411 61.1187 146.426 61.2873 146.442 61.4558C146.465 61.7046 146.489 61.9532 146.529 62.1987C147.145 65.8949 150.031 68.2612 153.556 67.9715C156.947 67.6941 159.4 64.9141 159.425 61.2442C159.444 58.2282 159.439 55.2122 159.434 52.1963Z" fill="#9FAAB6"/>
</svg>
