<svg width="192" height="100" viewBox="0 0 192 100" fill="none" xmlns="http://www.w3.org/2000/svg">
<path d="M124.843 0H191.889V17.9175H168.77V75.7153H147.962V17.9175H124.843V0Z" fill="#9FAAB6"/>
<path d="M0 75.7153L26.587 39.3027L0 0.000131005H23.1191L38.4356 23.1193L53.752 0.000131005H60.6877V24.2752L49.7061 39.3027L60.6877 53.1741V75.7153H52.0181L38.4356 53.7521L23.1191 75.7153H0Z" fill="#9FAAB6"/>
<path d="M79.761 0.000131005H115.596L98.2563 38.1467L79.761 0.000131005Z" fill="#9FAAB6"/>
<path d="M79.761 75.7153H115.596V42.1924L104.614 62.4217H91.8986L79.761 39.3027V75.7153Z" fill="#9FAAB6"/>
<path d="M8.922 95.4553H10.7065C10.6136 96.3104 10.3688 97.0756 9.97225 97.751C9.5757 98.4264 9.01494 98.9623 8.28998 99.3589C7.56503 99.7493 6.66038 99.9445 5.57605 99.9445C4.78293 99.9445 4.06107 99.7957 3.41047 99.4983C2.76606 99.2009 2.2115 98.7796 1.74679 98.2343C1.28207 97.6828 0.922692 97.0229 0.668648 96.2546C0.420799 95.4801 0.296875 94.6188 0.296875 93.6708V92.3231C0.296875 91.3751 0.420799 90.5169 0.668648 89.7486C0.922692 88.9741 1.28517 88.3111 1.75608 87.7596C2.23319 87.2082 2.80634 86.7837 3.47553 86.4863C4.14472 86.1889 4.89756 86.0402 5.73405 86.0402C6.75642 86.0402 7.62079 86.2322 8.32716 86.6164C9.03353 87.0006 9.58189 87.5335 9.97225 88.215C10.3688 88.8904 10.6136 89.6742 10.7065 90.5665H8.922C8.83525 89.9345 8.67415 89.3923 8.43869 88.94C8.20324 88.4815 7.86864 88.1283 7.43491 87.8804C7.00117 87.6326 6.43422 87.5087 5.73405 87.5087C5.13302 87.5087 4.60324 87.6233 4.14472 87.8526C3.6924 88.0818 3.31133 88.4071 3.00152 88.8285C2.69791 89.2498 2.46865 89.7548 2.31374 90.3434C2.15884 90.9321 2.08138 91.5858 2.08138 92.3045V93.6708C2.08138 94.3338 2.14954 94.9565 2.28586 95.5389C2.42837 96.1214 2.64214 96.6326 2.92717 97.0725C3.21219 97.5124 3.57467 97.8594 4.0146 98.1135C4.45453 98.3613 4.97501 98.4853 5.57605 98.4853C6.33818 98.4853 6.94541 98.3644 7.39773 98.1228C7.85005 97.8811 8.19085 97.5341 8.4201 97.0818C8.65556 96.6295 8.82286 96.0873 8.922 95.4553Z" fill="#9FAAB6"/>
<path d="M28.329 92.5648V93.4198C28.329 94.436 28.2019 95.3469 27.9479 96.1524C27.6938 96.9579 27.3283 97.6426 26.8512 98.2064C26.374 98.7703 25.8009 99.2009 25.1317 99.4983C24.4687 99.7957 23.7252 99.9445 22.9011 99.9445C22.1018 99.9445 21.3675 99.7957 20.6983 99.4983C20.0353 99.2009 19.4591 98.7703 18.9696 98.2064C18.4863 97.6426 18.1114 96.9579 17.845 96.1524C17.5785 95.3469 17.4453 94.436 17.4453 93.4198V92.5648C17.4453 91.5486 17.5754 90.6408 17.8357 89.8415C18.1021 89.036 18.477 88.3513 18.9603 87.7875C19.4436 87.2174 20.0167 86.7837 20.6797 86.4863C21.3489 86.1889 22.0832 86.0402 22.8825 86.0402C23.7066 86.0402 24.4501 86.1889 25.1131 86.4863C25.7823 86.7837 26.3555 87.2174 26.8326 87.7875C27.3159 88.3513 27.6845 89.036 27.9386 89.8415C28.1988 90.6408 28.329 91.5486 28.329 92.5648ZM26.5537 93.4198V92.5462C26.5537 91.7407 26.4701 91.0281 26.3028 90.4085C26.1417 89.7889 25.9031 89.2684 25.5871 88.847C25.2711 88.4257 24.8839 88.1066 24.4253 87.8897C23.973 87.6729 23.4587 87.5644 22.8825 87.5644C22.3248 87.5644 21.8198 87.6729 21.3675 87.8897C20.9214 88.1066 20.5372 88.4257 20.215 88.847C19.899 89.2684 19.6543 89.7889 19.4808 90.4085C19.3073 91.0281 19.2205 91.7407 19.2205 92.5462V93.4198C19.2205 94.2316 19.3073 94.9503 19.4808 95.5761C19.6543 96.1957 19.9021 96.7193 20.2243 97.1469C20.5527 97.5682 20.94 97.8873 21.3861 98.1042C21.8384 98.321 22.3434 98.4295 22.9011 98.4295C23.4835 98.4295 24.0009 98.321 24.4532 98.1042C24.9055 97.8873 25.2866 97.5682 25.5964 97.1469C25.9124 96.7193 26.151 96.1957 26.3121 95.5761C26.4732 94.9503 26.5537 94.2316 26.5537 93.4198Z" fill="#9FAAB6"/>
<path d="M46.1821 86.226V99.7585H44.379L37.5663 89.321V99.7585H35.7725V86.226H37.5663L44.4069 96.6914V86.226H46.1821Z" fill="#9FAAB6"/>
<path d="M61.332 96.3383C61.332 96.0223 61.2825 95.7434 61.1833 95.5018C61.0904 95.2539 60.9231 95.0309 60.6814 94.8326C60.446 94.6343 60.1176 94.4453 59.6962 94.2656C59.2811 94.0859 58.7544 93.9031 58.1162 93.7173C57.447 93.519 56.8429 93.299 56.3038 93.0574C55.7647 92.8095 55.3031 92.5276 54.919 92.2116C54.5348 91.8956 54.2405 91.5331 54.036 91.1242C53.8315 90.7152 53.7293 90.2474 53.7293 89.7207C53.7293 89.194 53.8377 88.7076 54.0546 88.2615C54.2715 87.8154 54.5813 87.4281 54.984 87.0997C55.393 86.7651 55.8794 86.5049 56.4432 86.319C57.0071 86.1331 57.636 86.0402 58.33 86.0402C59.3462 86.0402 60.2074 86.2353 60.9138 86.6257C61.6264 87.0099 62.1685 87.5149 62.5403 88.1407C62.9121 88.7603 63.098 89.4233 63.098 90.1297H61.3135C61.3135 89.6216 61.205 89.1723 60.9882 88.782C60.7713 88.3854 60.4429 88.0756 60.003 87.8526C59.563 87.6233 59.0054 87.5087 58.33 87.5087C57.6918 87.5087 57.1651 87.6047 56.7499 87.7968C56.3348 87.9889 56.025 88.2491 55.8205 88.5775C55.6222 88.9059 55.5231 89.2808 55.5231 89.7021C55.5231 89.9871 55.582 90.2474 55.6997 90.4828C55.8236 90.7121 56.0126 90.9259 56.2666 91.1242C56.5269 91.3224 56.8553 91.5052 57.2518 91.6725C57.6546 91.8398 58.1348 92.0009 58.6925 92.1558C59.4608 92.3727 60.1238 92.6143 60.6814 92.8808C61.2391 93.1472 61.6976 93.4477 62.057 93.7823C62.4226 94.1107 62.6921 94.4856 62.8656 94.9069C63.0453 95.3221 63.1351 95.793 63.1351 96.3197C63.1351 96.8711 63.0236 97.3699 62.8005 97.8161C62.5775 98.2622 62.2584 98.6432 61.8432 98.9593C61.4281 99.2753 60.9293 99.52 60.3468 99.6935C59.7706 99.8608 59.1262 99.9445 58.4136 99.9445C57.7878 99.9445 57.1713 99.8577 56.5641 99.6842C55.963 99.5107 55.4147 99.2505 54.919 98.9035C54.4295 98.5565 54.036 98.129 53.7386 97.6209C53.4474 97.1066 53.3018 96.5118 53.3018 95.8364H55.0863C55.0863 96.3011 55.1761 96.7007 55.3558 97.0353C55.5355 97.3637 55.7802 97.6364 56.09 97.8532C56.4061 98.0701 56.7623 98.2312 57.1589 98.3365C57.5616 98.4357 57.9799 98.4853 58.4136 98.4853C59.0394 98.4853 59.5692 98.3985 60.003 98.225C60.4367 98.0515 60.7651 97.8037 60.9882 97.4815C61.2174 97.1593 61.332 96.7782 61.332 96.3383Z" fill="#9FAAB6"/>
<path d="M75.1806 86.226V99.7585H73.4147V86.226H75.1806ZM79.5303 86.226V87.6945H69.0742V86.226H79.5303Z" fill="#9FAAB6"/>
<path d="M86.2969 86.226H90.7767C91.7929 86.226 92.6511 86.3809 93.3513 86.6907C94.0576 87.0005 94.5936 87.4591 94.9592 88.0663C95.3309 88.6673 95.5168 89.4078 95.5168 90.2876C95.5168 90.9072 95.3898 91.4742 95.1358 91.9885C94.8879 92.4966 94.5285 92.9303 94.0576 93.2897C93.5929 93.6429 93.0353 93.9062 92.3847 94.0797L91.8828 94.2749H87.6724L87.6538 92.8157H90.8325C91.4769 92.8157 92.0129 92.7041 92.4404 92.4811C92.868 92.2518 93.1902 91.9451 93.407 91.561C93.6239 91.1768 93.7323 90.7523 93.7323 90.2876C93.7323 89.7671 93.6301 89.3117 93.4256 88.9214C93.2211 88.531 92.8989 88.2305 92.459 88.0198C92.0253 87.8029 91.4645 87.6945 90.7767 87.6945H88.0907V99.7585H86.2969V86.226ZM94.2063 99.7585L90.9161 93.6243L92.7843 93.615L96.121 99.647V99.7585H94.2063Z" fill="#9FAAB6"/>
<path d="M110.527 86.226H112.312V95.3809C112.312 96.3971 112.086 97.2429 111.633 97.9183C111.181 98.5936 110.58 99.1017 109.83 99.4425C109.087 99.7771 108.278 99.9444 107.404 99.9444C106.487 99.9444 105.657 99.7771 104.914 99.4425C104.176 99.1017 103.591 98.5936 103.157 97.9183C102.729 97.2429 102.516 96.3971 102.516 95.3809V86.226H104.291V95.3809C104.291 96.0873 104.421 96.6697 104.681 97.1282C104.941 97.5868 105.304 97.9276 105.769 98.1506C106.24 98.3737 106.785 98.4852 107.404 98.4852C108.03 98.4852 108.576 98.3737 109.04 98.1506C109.511 97.9276 109.877 97.5868 110.137 97.1282C110.397 96.6697 110.527 96.0873 110.527 95.3809V86.226Z" fill="#9FAAB6"/>
<path d="M128.056 95.4553H129.84C129.747 96.3104 129.503 97.0756 129.106 97.751C128.709 98.4264 128.149 98.9623 127.424 99.3589C126.699 99.7493 125.794 99.9445 124.71 99.9445C123.917 99.9445 123.195 99.7957 122.544 99.4983C121.9 99.2009 121.345 98.7796 120.881 98.2343C120.416 97.6828 120.056 97.0229 119.802 96.2546C119.555 95.4801 119.431 94.6188 119.431 93.6708V92.3231C119.431 91.3751 119.555 90.5169 119.802 89.7486C120.056 88.9741 120.419 88.3111 120.89 87.7596C121.367 87.2082 121.94 86.7837 122.609 86.4863C123.279 86.1889 124.031 86.0402 124.868 86.0402C125.89 86.0402 126.755 86.2322 127.461 86.6164C128.167 87.0006 128.716 87.5335 129.106 88.215C129.503 88.8904 129.747 89.6742 129.84 90.5665H128.056C127.969 89.9345 127.808 89.3923 127.572 88.94C127.337 88.4815 127.002 88.1283 126.569 87.8804C126.135 87.6326 125.568 87.5087 124.868 87.5087C124.267 87.5087 123.737 87.6233 123.279 87.8526C122.826 88.0818 122.445 88.4071 122.135 88.8285C121.832 89.2498 121.602 89.7548 121.448 90.3434C121.293 90.9321 121.215 91.5858 121.215 92.3045V93.6708C121.215 94.3338 121.283 94.9565 121.42 95.5389C121.562 96.1214 121.776 96.6326 122.061 97.0725C122.346 97.5124 122.708 97.8594 123.148 98.1135C123.588 98.3613 124.109 98.4853 124.71 98.4853C125.472 98.4853 126.079 98.3644 126.532 98.1228C126.984 97.8811 127.325 97.5341 127.554 97.0818C127.789 96.6295 127.957 96.0873 128.056 95.4553Z" fill="#9FAAB6"/>
<path d="M141.766 86.226V99.7585H140V86.226H141.766ZM146.115 86.226V87.6945H135.659V86.226H146.115Z" fill="#9FAAB6"/>
<path d="M154.805 86.226V99.7585H153.011V86.226H154.805Z" fill="#9FAAB6"/>
<path d="M173.246 92.5648V93.4198C173.246 94.436 173.119 95.3469 172.865 96.1524C172.611 96.9579 172.245 97.6426 171.768 98.2064C171.291 98.7703 170.718 99.2009 170.049 99.4983C169.386 99.7957 168.642 99.9445 167.818 99.9445C167.019 99.9445 166.285 99.7957 165.615 99.4983C164.952 99.2009 164.376 98.7703 163.887 98.2064C163.403 97.6426 163.028 96.9579 162.762 96.1524C162.496 95.3469 162.362 94.436 162.362 93.4198V92.5648C162.362 91.5486 162.492 90.6408 162.753 89.8415C163.019 89.036 163.394 88.3513 163.877 87.7875C164.361 87.2174 164.934 86.7837 165.597 86.4863C166.266 86.1889 167 86.0402 167.799 86.0402C168.624 86.0402 169.367 86.1889 170.03 86.4863C170.699 86.7837 171.272 87.2174 171.75 87.7875C172.233 88.3513 172.602 89.036 172.856 89.8415C173.116 90.6408 173.246 91.5486 173.246 92.5648ZM171.471 93.4198V92.5462C171.471 91.7407 171.387 91.0281 171.22 90.4085C171.059 89.7889 170.82 89.2684 170.504 88.847C170.188 88.4257 169.801 88.1066 169.342 87.8897C168.89 87.6729 168.376 87.5644 167.799 87.5644C167.242 87.5644 166.737 87.6729 166.285 87.8897C165.838 88.1066 165.454 88.4257 165.132 88.847C164.816 89.2684 164.571 89.7889 164.398 90.4085C164.224 91.0281 164.138 91.7407 164.138 92.5462V93.4198C164.138 94.2316 164.224 94.9503 164.398 95.5761C164.571 96.1957 164.819 96.7193 165.141 97.1469C165.47 97.5682 165.857 97.8873 166.303 98.1042C166.755 98.321 167.26 98.4295 167.818 98.4295C168.401 98.4295 168.918 98.321 169.37 98.1042C169.823 97.8873 170.204 97.5682 170.513 97.1469C170.829 96.7193 171.068 96.1957 171.229 95.5761C171.39 94.9503 171.471 94.2316 171.471 93.4198Z" fill="#9FAAB6"/>
<path d="M191.099 86.226V99.7585H189.296L182.483 89.321V99.7585H180.689V86.226H182.483L189.324 96.6914V86.226H191.099Z" fill="#9FAAB6"/>
</svg>
