<svg width="329" height="100" viewBox="0 0 329 100" fill="none" xmlns="http://www.w3.org/2000/svg">
<path d="M2.32558 0C1.0412 0 0 1.0412 0 2.32558V22.9991C0 24.2835 1.0412 25.3247 2.32558 25.3247H53.5387C54.0543 25.3247 54.3148 25.9461 53.9532 26.3138L0.97282 80.1797C0.611237 80.5474 0.871675 81.1688 1.38732 81.1688H30.1292C30.2839 81.1688 30.4322 81.2305 30.5413 81.3401L48.7694 99.6574C48.9876 99.8767 49.2843 100 49.5936 100H94.6757C95.9312 100 96.9601 99.0035 97.0001 97.7486L97.5978 79.0231C97.6397 77.7104 96.5869 76.6234 95.2734 76.6234H42.2183C41.6997 76.6234 41.4406 75.9957 41.8082 75.6299L95.9299 21.7727C96.2975 21.4069 96.0384 20.7792 95.5198 20.7792H63.5681C63.4134 20.7792 63.2651 20.7176 63.156 20.6079L42.6484 0L2.32558 0Z" fill="#9FAAB6"/>
<path d="M101.408 69.3798V45.5814L108.85 38.1395H129.083L136.524 45.5814V59.6899H108.618V67.1318L112.028 70.5426H125.904L129.315 67.2093V64.5736H136.447V69.3798L129.16 76.7442H108.773L101.408 69.3798ZM129.315 54.031V47.7519L125.827 44.3411H112.106L108.618 47.7519V54.031H129.315Z" fill="#9FAAB6"/>
<path d="M146.242 38.1395H153.141V45.7364L160.738 38.1395H172.831L180.428 45.7364V76.7442H173.219V47.907L169.731 44.4186H162.366L153.451 53.3333V76.7442H146.242V38.1395Z" fill="#9FAAB6"/>
<path d="M193.639 69.3799V44.3411H186.662V38.1396H193.794V25.5814H200.848V38.1396H212.864V44.4186H200.848V67.0543L204.337 70.4651H212.864V76.7442H201.081L193.639 69.3799Z" fill="#9FAAB6"/>
<path d="M221.036 38.1395H227.935V44.8837L234.602 38.1395H244.912V44.4186H236.23L228.245 52.4806V76.7442H221.036V38.1395Z" fill="#9FAAB6"/>
<path d="M248.726 69.3023V45.5814L256.167 38.1395H276.788L284.152 45.5814V69.3023L276.788 76.7442H256.167L248.726 69.3023ZM273.454 70.4651L276.943 67.0543V47.8294L273.454 44.4186H259.423L255.935 47.8294V67.0543L259.423 70.4651H273.454Z" fill="#9FAAB6"/>
<path d="M293.466 69.3023V45.5814L300.908 38.1395H321.528L328.892 45.5814V69.3023L321.528 76.7442H300.908L293.466 69.3023ZM318.195 70.4651L321.683 67.0543V47.8294L318.195 44.4186H304.163L300.675 47.8294V67.0543L304.163 70.4651H318.195Z" fill="#9FAAB6"/>
</svg>
