<svg width="340" height="101" viewBox="0 0 340 101" fill="none" xmlns="http://www.w3.org/2000/svg">
<path d="M0 0V100.105H75.6351V0H0ZM68.8837 51.3302C68.8837 51.3302 68.8837 51.3278 68.8837 51.3253V93.3902H55.5493L48.659 93.3878L26.0252 93.3902L19.0837 93.3878V93.3829H6.74891V75.022H6.75135V67.5069H6.74891V23.99C6.74891 23.99 6.74403 23.9875 6.74159 23.9875V6.71506H68.8716V35.6383C68.8716 35.6383 68.8789 35.6504 68.8813 35.6553V37.1195C68.8813 37.1195 68.8813 37.1195 68.8813 37.1243V51.3302H68.8837Z" fill="#9FAAB6"/>
<path d="M68.8813 37.1195L68.8809 51.3251C60.396 31.7836 46.0984 15.9729 28.541 6.71727H40.8734C40.8734 6.71727 40.8709 6.71727 40.8709 6.71484H42.2071C52.7596 14.2469 61.8496 24.1039 68.8716 35.6383L68.8711 37.1023C68.8711 37.1023 68.8789 37.1146 68.8813 37.1195Z" fill="#9FAAB6"/>
<path d="M55.6411 89.6617C55.6411 90.9101 55.6069 92.1562 55.5435 93.3877H48.6557C48.7239 92.1562 48.7654 90.915 48.7654 89.6617C48.7654 74.6364 43.8256 60.8887 35.6796 50.3507C35.4358 50.0356 35.1895 49.7253 34.9408 49.415C34.8165 49.2622 34.6921 49.1071 34.5654 48.9544C34.3142 48.6489 34.0606 48.3459 33.8022 48.0453C33.1585 47.2962 32.4978 46.5641 31.8224 45.8538C31.4152 45.4271 31.0032 45.0053 30.5862 44.5932C23.9031 37.9897 15.7474 33.2237 6.75048 31.0104H6.74805L6.74891 23.99L6.75048 23.9802C34.5654 29.9316 55.6411 57.1118 55.6411 89.6617Z" fill="#9FAAB6"/>
<path d="M19.0837 93.3878V93.3829C17.8207 85.2667 13.1176 78.4767 6.75391 75.0319V67.5168C16.9138 71.4125 24.5234 81.3445 26.0254 93.388H19.0863L19.0837 93.3878Z" fill="#9FAAB6"/>
<path d="M97.4355 5.12415H107.199V39.3564H128.353V47.3118H97.4355V5.12415Z" fill="#9FAAB6"/>
<path d="M136.247 15.0067H145.648V47.431H136.247V15.0067ZM140.948 10.4866C139.22 10.4866 137.814 9.98441 136.729 8.97994C135.644 7.97548 135.102 6.72993 135.102 5.24332C135.102 3.75671 135.644 2.51117 136.729 1.5067C137.814 0.502235 139.22 0 140.948 0C142.675 0 144.081 0.482145 145.166 1.44644C146.251 2.41072 146.794 3.61609 146.794 5.06252C146.794 6.62949 146.251 7.9353 145.166 8.97994C144.081 9.98441 142.675 10.4866 140.948 10.4866Z" fill="#9FAAB6"/>
<path d="M187.654 30.6775C187.654 30.7981 187.594 31.6418 187.474 33.2088H162.945C163.386 35.2177 164.431 36.8048 166.078 37.97C167.726 39.1351 169.775 39.7177 172.226 39.7177C173.913 39.7177 175.4 39.4767 176.686 38.9945C178.012 38.4722 179.237 37.6686 180.362 36.5838L185.364 42.0079C182.311 45.5035 177.851 47.2512 171.985 47.2512C168.328 47.2512 165.094 46.5481 162.282 45.1419C159.469 43.6954 157.299 41.7066 155.773 39.1753C154.246 36.6441 153.482 33.7713 153.482 30.557C153.482 27.3829 154.226 24.5302 155.712 21.9989C157.239 19.4275 159.308 17.4386 161.92 16.0324C164.572 14.5859 167.525 13.8627 170.779 13.8627C173.953 13.8627 176.826 14.5458 179.398 15.9118C181.969 17.2779 183.978 19.2467 185.424 21.8181C186.911 24.3494 187.654 27.3025 187.654 30.6775ZM170.84 20.9744C168.71 20.9744 166.922 21.577 165.476 22.7824C164.029 23.9878 163.145 25.6351 162.824 27.7244H178.795C178.474 25.6753 177.59 24.048 176.143 22.8427C174.697 21.5971 172.929 20.9744 170.84 20.9744Z" fill="#9FAAB6"/>
<path d="M125.062 100.045L121.095 96.3609C117.947 98.8168 114.263 100.045 110.045 100.045C107.652 100.045 105.495 99.6669 103.575 98.9113C101.654 98.1241 100.143 97.0379 99.0412 95.6525C97.9708 94.2672 97.4355 92.7086 97.4355 90.9769C97.4355 88.9304 98.0022 87.1357 99.1356 85.5929C100.301 84.0187 102.158 82.5231 104.708 81.1063C103.512 79.8783 102.646 78.7134 102.111 77.6114C101.576 76.4779 101.308 75.313 101.308 74.1165C101.308 72.5108 101.733 71.0939 102.583 69.866C103.433 68.6381 104.629 67.6935 106.172 67.0323C107.746 66.3396 109.557 65.9933 111.603 65.9933C114.468 65.9933 116.766 66.686 118.498 68.0713C120.229 69.4252 121.095 71.2671 121.095 73.597C121.095 75.2972 120.576 76.8085 119.537 78.1309C118.529 79.4533 116.892 80.7284 114.625 81.9564L120.67 87.5765C121.394 86.0652 121.945 84.3493 122.323 82.4287L128.226 84.2706C127.597 87.1987 126.589 89.7018 125.204 91.7798L129.076 95.3692L125.062 100.045ZM111.603 70.9995C110.501 70.9995 109.62 71.2828 108.958 71.8496C108.329 72.4163 108.014 73.1405 108.014 74.0221C108.014 74.6833 108.187 75.313 108.533 75.9112C108.88 76.4779 109.557 77.2493 110.564 78.2254C112.17 77.3753 113.287 76.6196 113.917 75.9584C114.547 75.2657 114.862 74.5258 114.862 73.7387C114.862 72.9201 114.578 72.2589 114.012 71.7551C113.445 71.2513 112.642 70.9995 111.603 70.9995ZM110.564 94.2829C112.862 94.2829 114.925 93.6375 116.751 92.3466L108.77 84.8845C107.29 85.7346 106.235 86.569 105.605 87.3876C104.976 88.2062 104.661 89.1351 104.661 90.1741C104.661 91.402 105.196 92.3938 106.267 93.1494C107.337 93.9051 108.77 94.2829 110.564 94.2829Z" fill="#9FAAB6"/>
<path d="M141.07 65.8121H127.57V57.8567H164.334V65.8121H150.834V100.044H141.07V65.8121Z" fill="#9FAAB6"/>
<path d="M179.337 71.9601C180.462 70.3931 181.969 69.2078 183.857 68.4043C185.786 67.6007 187.996 67.1989 190.487 67.1989V75.8775C189.442 75.7972 188.739 75.757 188.378 75.757C185.686 75.757 183.576 76.5204 182.049 78.0472C180.523 79.5338 179.759 81.7838 179.759 84.7972V100.105H170.357V67.6811H179.337V71.9601Z" fill="#9FAAB6"/>
<path d="M213.87 14.4629C217.888 14.4629 221.122 15.6683 223.573 18.079C226.064 20.4897 227.31 24.0656 227.31 28.8067V47.3693H217.908V30.2531C217.908 27.6817 217.345 25.7732 216.22 24.5277C215.095 23.2419 213.468 22.5991 211.339 22.5991C208.968 22.5991 207.08 23.3424 205.673 24.829C204.267 26.2754 203.564 28.4451 203.564 31.3379V47.3693H194.162V14.945H203.142V18.7419C204.388 17.3758 205.934 16.3312 207.783 15.608C209.631 14.8446 211.66 14.4629 213.87 14.4629Z" fill="#9FAAB6"/>
<path d="M210.555 66.5956C215.577 66.5956 219.434 67.801 222.126 70.2117C224.818 72.5823 226.164 76.1783 226.164 80.9997V99.502H217.365V95.4641C215.597 98.4775 212.303 99.9842 207.481 99.9842C204.99 99.9842 202.82 99.5623 200.972 98.7185C199.164 97.8748 197.778 96.7096 196.814 95.223C195.849 93.7364 195.367 92.0489 195.367 90.1605C195.367 87.1471 196.492 84.7765 198.742 83.0488C201.032 81.3211 204.548 80.4573 209.289 80.4573H216.762C216.762 78.4082 216.14 76.8412 214.894 75.7564C213.649 74.6314 211.78 74.0689 209.289 74.0689C207.561 74.0689 205.854 74.3501 204.166 74.9126C202.519 75.435 201.113 76.1582 199.948 77.0823L196.573 70.5131C198.34 69.2675 200.45 68.3032 202.901 67.6202C205.392 66.9372 207.943 66.5956 210.555 66.5956ZM209.832 93.656C211.439 93.656 212.865 93.2944 214.111 92.5712C215.356 91.8078 216.24 90.7029 216.762 89.2564V85.9417H210.314C206.457 85.9417 204.528 87.2073 204.528 89.7386C204.528 90.9439 204.99 91.9082 205.914 92.6315C206.878 93.3145 208.184 93.656 209.832 93.656Z" fill="#9FAAB6"/>
<path d="M262.272 92.6924V99.9246H233.344V94.2594L249.857 74.7325H233.766V67.5004H261.73V73.1656L245.217 92.6924H262.272Z" fill="#9FAAB6"/>
<path d="M262.272 39.9564V47.1886H233.344V41.5234L249.857 21.9965H233.766V14.7643H261.73V20.4295L245.217 39.9564H262.272Z" fill="#9FAAB6"/>
<path d="M286.136 47.2512C282.721 47.2512 279.647 46.5481 276.915 45.1419C274.223 43.6954 272.114 41.7066 270.587 39.1753C269.06 36.6441 268.297 33.7713 268.297 30.557C268.297 27.3427 269.06 24.4699 270.587 21.9387C272.114 19.4074 274.223 17.4386 276.915 16.0324C279.647 14.5859 282.721 13.8627 286.136 13.8627C289.551 13.8627 292.605 14.5859 295.297 16.0324C297.989 17.4386 300.098 19.4074 301.625 21.9387C303.152 24.4699 303.915 27.3427 303.915 30.557C303.915 33.7713 303.152 36.6441 301.625 39.1753C300.098 41.7066 297.989 43.6954 295.297 45.1419C292.605 46.5481 289.551 47.2512 286.136 47.2512ZM286.136 39.5369C288.547 39.5369 290.516 38.7334 292.042 37.1262C293.609 35.4789 294.393 33.2891 294.393 30.557C294.393 27.8248 293.609 25.6552 292.042 24.048C290.516 22.4007 288.547 21.577 286.136 21.577C283.725 21.577 281.737 22.4007 280.17 24.048C278.603 25.6552 277.819 27.8248 277.819 30.557C277.819 33.2891 278.603 35.4789 280.17 37.1262C281.737 38.7334 283.725 39.5369 286.136 39.5369Z" fill="#9FAAB6"/>
<path d="M286.136 99.9842C282.721 99.9842 279.647 99.281 276.915 97.8748C274.223 96.4283 272.114 94.4395 270.587 91.9082C269.06 89.377 268.297 86.5042 268.297 83.2899C268.297 80.0756 269.06 77.2028 270.587 74.6716C272.114 72.1403 274.223 70.1715 276.915 68.7653C279.647 67.3189 282.721 66.5956 286.136 66.5956C289.551 66.5956 292.605 67.3189 295.297 68.7653C297.989 70.1715 300.098 72.1403 301.625 74.6716C303.152 77.2028 303.915 80.0756 303.915 83.2899C303.915 86.5042 303.152 89.377 301.625 91.9082C300.098 94.4395 297.989 96.4283 295.297 97.8748C292.605 99.281 289.551 99.9842 286.136 99.9842ZM286.136 92.2698C288.547 92.2698 290.516 91.4663 292.042 89.8591C293.609 88.2118 294.393 86.022 294.393 83.2899C294.393 80.5577 293.609 78.3881 292.042 76.7809C290.516 75.1336 288.547 74.31 286.136 74.31C283.725 74.31 281.737 75.1336 280.17 76.7809C278.603 78.3881 277.819 80.5577 277.819 83.2899C277.819 86.022 278.603 88.2118 280.17 89.8591C281.737 91.4663 283.725 92.2698 286.136 92.2698Z" fill="#9FAAB6"/>
<path d="M323.919 99.9842C321.227 99.9842 318.596 99.6627 316.024 99.0199C313.453 98.3368 311.404 97.4931 309.877 96.4886L313.011 89.7386C314.457 90.6627 316.205 91.4261 318.254 92.0288C320.303 92.5913 322.312 92.8725 324.281 92.8725C328.259 92.8725 330.248 91.8881 330.248 89.9194C330.248 88.9953 329.705 88.3323 328.62 87.9305C327.536 87.5288 325.868 87.1872 323.618 86.906C320.966 86.5042 318.777 86.0421 317.049 85.5198C315.321 84.9975 313.814 84.0734 312.529 82.7475C311.283 81.4216 310.66 79.5332 310.66 77.0823C310.66 75.0332 311.243 73.2251 312.408 71.6582C313.614 70.051 315.341 68.8055 317.591 67.9215C319.881 67.0376 322.573 66.5956 325.667 66.5956C327.957 66.5956 330.227 66.8568 332.477 67.3791C334.768 67.8613 336.656 68.5443 338.143 69.4282L335.009 76.118C332.156 74.5108 329.042 73.7073 325.667 73.7073C323.658 73.7073 322.152 73.9885 321.147 74.551C320.143 75.1135 319.64 75.8367 319.64 76.7207C319.64 77.7251 320.183 78.4283 321.268 78.8301C322.352 79.2318 324.08 79.6136 326.451 79.9752C329.102 80.4171 331.272 80.8993 332.96 81.4216C334.647 81.9037 336.114 82.8078 337.359 84.1337C338.605 85.4595 339.228 87.3078 339.228 89.6783C339.228 91.6872 338.625 93.4752 337.419 95.0422C336.214 96.6091 334.446 97.8346 332.116 98.7185C329.826 99.5623 327.094 99.9842 323.919 99.9842Z" fill="#9FAAB6"/>
<path d="M323.919 47.2512C321.227 47.2512 318.596 46.9298 316.024 46.2869C313.453 45.6039 311.404 44.7602 309.877 43.7557L313.011 37.0057C314.457 37.9298 316.205 38.6932 318.254 39.2959C320.303 39.8584 322.312 40.1396 324.281 40.1396C328.259 40.1396 330.248 39.1552 330.248 37.1865C330.248 36.2624 329.705 35.5994 328.62 35.1976C327.536 34.7958 325.868 34.4543 323.618 34.1731C320.966 33.7713 318.777 33.3092 317.049 32.7869C315.321 32.2646 313.814 31.3405 312.529 30.0146C311.283 28.6887 310.66 26.8003 310.66 24.3494C310.66 22.3003 311.243 20.4922 312.408 18.9252C313.614 17.3181 315.341 16.0726 317.591 15.1886C319.881 14.3047 322.573 13.8627 325.667 13.8627C327.957 13.8627 330.227 14.1239 332.477 14.6462C334.768 15.1284 336.656 15.8114 338.143 16.6953L335.009 23.3851C332.156 21.7779 329.042 20.9744 325.667 20.9744C323.658 20.9744 322.152 21.2556 321.147 21.8181C320.143 22.3806 319.64 23.1038 319.64 23.9878C319.64 24.9922 320.183 25.6954 321.268 26.0971C322.352 26.4989 324.08 26.8806 326.451 27.2422C329.102 27.6842 331.272 28.1664 332.96 28.6887C334.647 29.1708 336.114 30.0748 337.359 31.4007C338.605 32.7266 339.228 34.5749 339.228 36.9454C339.228 38.9543 338.625 40.7423 337.419 42.3093C336.214 43.8762 334.446 45.1017 332.116 45.9856C329.826 46.8294 327.094 47.2512 323.919 47.2512Z" fill="#9FAAB6"/>
</svg>
