<svg width="316" height="100" viewBox="0 0 316 100" fill="none" xmlns="http://www.w3.org/2000/svg">
<path fill-rule="evenodd" clip-rule="evenodd" d="M0 6.06672V76.4734H20.5353C20.5353 76.4734 51.8272 76.4734 51.8272 41.2701C51.8272 6.06671 20.5353 6.06672 20.5353 6.06672H0ZM7.82297 68.6504V13.8897H16.6238C16.6238 13.8897 44.0042 13.8897 44.0042 41.2701C44.0042 68.6504 16.6238 68.6504 16.6238 68.6504H7.82297Z" fill="#9FAAB6"/>
<path d="M69.4289 6.06672H106.588V13.8897H77.2519V35.4028H104.632V43.2258H77.2519V68.6504H106.588V76.4734H69.4289V6.06672Z" fill="#9FAAB6"/>
<path d="M124.19 3.13311V76.4734H132.013V21.7127L186.773 78.4292V6.06672H178.95L179.928 60.8275L124.19 3.13311Z" fill="#9FAAB6"/>
<path d="M234.689 76.4734L247.402 3.13311L273.804 60.8275L301.184 3.13311L312.919 76.4734H305.096L298.251 27.5799L273.804 76.4734L250.335 27.5799L242.512 76.4734H234.689Z" fill="#9FAAB6"/>
<path d="M215.132 36.3809L190.685 92.1193L218.558 39.8581L217.639 38.7208L203.397 66.6947L216.11 37.3587L215.132 36.3809Z" fill="#9FAAB6"/>
<path d="M210.242 19.7571C210.242 0.199653 228.822 5.08894 228.822 5.08894C228.822 5.08894 207.309 -1.75609 208.287 19.7571C208.579 26.1804 211.652 31.4353 215.65 35.2755C216.113 35.7196 216.572 36.1674 217.023 36.6236L218.065 34.8173L216.11 32.4694C212.451 29.072 210.242 25.4903 210.242 19.7571Z" fill="#9FAAB6"/>
<path fill-rule="evenodd" clip-rule="evenodd" d="M237.623 4.11098C237.623 4.11098 238.601 1.17752 235.667 0.199583C232.734 -0.778329 230.778 2.15524 230.778 2.15524L216.454 31.7581L218.196 34.591L218.742 33.6444L228.822 11.9339C228.822 11.9339 230.095 10.4437 230.778 10.9561C231.389 11.4143 230.778 12.9118 230.778 12.9118L219.741 34.591L217.952 37.5936C218.292 37.9613 218.624 38.3363 218.945 38.7208C220.813 40.9604 223.421 41.836 223.933 45.1817C225.213 53.5636 218.742 58.5215 220.999 66.6949C221.773 69.4983 223.933 73.54 223.933 73.54C223.933 73.54 222.44 69.4362 221.977 66.6949C220.555 58.2749 226.968 53.6523 225.888 45.1817C225.371 41.1214 223.484 39.9252 220.999 37.3587L237.623 4.11098ZM231.756 5.08894C230.998 6.4152 230.389 8.31729 231.756 9.00042C233.205 9.72499 234.177 7.60385 234.689 6.06681C235.051 4.97995 235.593 3.83656 234.689 3.1332C233.602 2.28786 232.439 3.89346 231.756 5.08894Z" fill="#9FAAB6"/>
<path d="M33.0539 90.143V91.2851C33.0539 92.6424 32.8843 93.859 32.545 94.9349C32.2056 96.0109 31.7173 96.9254 31.0801 97.6785C30.4428 98.4316 29.6772 99.0068 28.7834 99.4041C27.8978 99.8014 26.9047 100 25.8039 100C24.7363 100 23.7556 99.8014 22.8617 99.4041C21.9762 99.0068 21.2065 98.4316 20.5527 97.6785C19.9071 96.9254 19.4064 96.0109 19.0505 94.9349C18.6946 93.859 18.5167 92.6424 18.5167 91.2851V90.143C18.5167 88.7857 18.6905 87.5732 19.0381 86.5056C19.394 85.4296 19.8947 84.5151 20.5402 83.762C21.1858 83.0006 21.9513 82.4212 22.8369 82.024C23.7307 81.6267 24.7115 81.4281 25.7791 81.4281C26.8799 81.4281 27.873 81.6267 28.7586 82.024C29.6524 82.4212 30.418 83.0006 31.0552 83.762C31.7008 84.5151 32.1932 85.4296 32.5325 86.5056C32.8801 87.5732 33.0539 88.7857 33.0539 90.143ZM30.6828 91.2851V90.1181C30.6828 89.0422 30.5711 88.0905 30.3476 87.2628C30.1324 86.4352 29.8138 85.74 29.3917 85.1772C28.9696 84.6144 28.4523 84.1882 27.8399 83.8985C27.2357 83.6089 26.5488 83.464 25.7791 83.464C25.0343 83.464 24.3597 83.6089 23.7556 83.8985C23.1597 84.1882 22.6466 84.6144 22.2162 85.1772C21.7941 85.74 21.4672 86.4352 21.2354 87.2628C21.0037 88.0905 20.8878 89.0422 20.8878 90.1181V91.2851C20.8878 92.3693 21.0037 93.3293 21.2354 94.1652C21.4672 94.9929 21.7982 95.6922 22.2286 96.2633C22.6672 96.8261 23.1845 97.2523 23.7804 97.5419C24.3846 97.8316 25.0591 97.9765 25.8039 97.9765C26.5819 97.9765 27.273 97.8316 27.8771 97.5419C28.4813 97.2523 28.9903 96.8261 29.4041 96.2633C29.8262 95.6922 30.1448 94.9929 30.36 94.1652C30.5752 93.3293 30.6828 92.3693 30.6828 91.2851Z" fill="#9FAAB6"/>
<path d="M13.2338 94.0039H15.6173C15.4932 95.146 15.1663 96.1681 14.6366 97.0702C14.1069 97.9723 13.3579 98.6882 12.3896 99.2179C11.4213 99.7393 10.2129 100 8.76458 100C7.70522 100 6.74103 99.8014 5.87203 99.4041C5.0113 99.0068 4.27057 98.4441 3.64985 97.7158C3.02913 96.9792 2.54911 96.0978 2.20978 95.0715C1.87873 94.037 1.71321 92.8866 1.71321 91.6203V89.8202C1.71321 88.5539 1.87873 87.4077 2.20978 86.3814C2.54911 85.3469 3.03327 84.4613 3.66227 83.7247C4.29954 82.9882 5.06509 82.4212 5.95893 82.024C6.85276 81.6267 7.85833 81.4281 8.97562 81.4281C10.3412 81.4281 11.4957 81.6846 12.4392 82.1978C13.3827 82.7109 14.1152 83.4227 14.6366 84.333C15.1663 85.2352 15.4932 86.2821 15.6173 87.4739H13.2338C13.1179 86.6297 12.9027 85.9055 12.5882 85.3014C12.2737 84.6889 11.8268 84.2172 11.2475 83.8861C10.6681 83.5551 9.91084 83.3896 8.97562 83.3896C8.17283 83.3896 7.46521 83.5427 6.85276 83.8489C6.2486 84.1551 5.73961 84.5896 5.32579 85.1524C4.92026 85.7152 4.61404 86.3897 4.40713 87.1759C4.20022 87.9622 4.09677 88.8353 4.09677 89.7954V91.6203C4.09677 92.5058 4.18781 93.3376 4.36989 94.1156C4.56024 94.8935 4.84577 95.5763 5.22648 96.1639C5.60719 96.7516 6.09135 97.215 6.67896 97.5544C7.26658 97.8854 7.96178 98.0509 8.76458 98.0509C9.78256 98.0509 10.5936 97.8896 11.1978 97.5668C11.802 97.244 12.2572 96.7805 12.5634 96.1764C12.8779 95.5722 13.1013 94.848 13.2338 94.0039Z" fill="#9FAAB6"/>
<path d="M36.8949 81.6763H42.8787C44.236 81.6763 45.3822 81.8832 46.3175 82.297C47.2609 82.7109 47.9768 83.3233 48.4651 84.1344C48.9617 84.9372 49.21 85.9262 49.21 87.1014C49.21 87.929 49.0403 88.6863 48.701 89.3732C48.37 90.0519 47.8899 90.6312 47.261 91.1113C46.6402 91.583 45.8954 91.9347 45.0264 92.1665L44.356 92.4272H38.7323L38.7074 90.4781H42.9532C43.8139 90.4781 44.5298 90.3292 45.1008 90.0312C45.6719 89.725 46.1023 89.3153 46.3919 88.8022C46.6816 88.2891 46.8264 87.7221 46.8264 87.1014C46.8264 86.4062 46.6899 85.7979 46.4168 85.2765C46.1437 84.7551 45.7133 84.3537 45.1257 84.0723C44.5463 83.7826 43.7973 83.6378 42.8787 83.6378H39.2909V99.7517H36.8949V81.6763ZM47.4596 99.7517L43.0649 91.5582L45.5602 91.5458L50.0169 99.6027V99.7517H47.4596Z" fill="#9FAAB6"/>
<path d="M59.4825 92.6631H54.6533V90.714H59.4825C60.4177 90.714 61.175 90.565 61.7544 90.2671C62.3337 89.9691 62.7558 89.5553 63.0206 89.0256C63.2937 88.496 63.4303 87.8918 63.4303 87.2131C63.4303 86.5924 63.2937 86.0089 63.0206 85.4627C62.7558 84.9165 62.3337 84.4778 61.7544 84.1468C61.175 83.8075 60.4177 83.6378 59.4825 83.6378H55.212V99.7517H52.816V81.6763H59.4825C60.8481 81.6763 62.0026 81.9122 62.9461 82.384C63.8896 82.8557 64.6055 83.5095 65.0938 84.3454C65.5821 85.1731 65.8263 86.1207 65.8263 87.1883C65.8263 88.347 65.5821 89.336 65.0938 90.1554C64.6055 90.9747 63.8896 91.5996 62.9461 92.0299C62.0026 92.452 60.8481 92.6631 59.4825 92.6631Z" fill="#9FAAB6"/>
<path d="M83.0263 90.143V91.2851C83.0263 92.6424 82.8566 93.859 82.5173 94.9349C82.178 96.0109 81.6897 96.9254 81.0524 97.6785C80.4151 98.4316 79.6496 99.0068 78.7558 99.4041C77.8702 99.8014 76.877 100 75.7763 100C74.7087 100 73.7279 99.8014 72.8341 99.4041C71.9485 99.0068 71.1788 98.4316 70.525 97.6785C69.8795 96.9254 69.3788 96.0109 69.0229 94.9349C68.667 93.859 68.4891 92.6424 68.4891 91.2851V90.143C68.4891 88.7857 68.6629 87.5732 69.0105 86.5056C69.3663 85.4296 69.8671 84.5151 70.5126 83.762C71.1581 83.0006 71.9237 82.4212 72.8093 82.024C73.7031 81.6267 74.6838 81.4281 75.7515 81.4281C76.8522 81.4281 77.8454 81.6267 78.7309 82.024C79.6248 82.4212 80.3903 83.0006 81.0276 83.762C81.6731 84.5151 82.1656 85.4296 82.5049 86.5056C82.8525 87.5732 83.0263 88.7857 83.0263 90.143ZM80.6552 91.2851V90.1181C80.6552 89.0422 80.5434 88.0905 80.32 87.2628C80.1048 86.4352 79.7861 85.74 79.3641 85.1772C78.942 84.6144 78.4247 84.1882 77.8123 83.8985C77.2081 83.6089 76.5212 83.464 75.7515 83.464C75.0066 83.464 74.3321 83.6089 73.7279 83.8985C73.132 84.1882 72.6189 84.6144 72.1885 85.1772C71.7665 85.74 71.4395 86.4352 71.2078 87.2628C70.9761 88.0905 70.8602 89.0422 70.8602 90.1181V91.2851C70.8602 92.3693 70.9761 93.3293 71.2078 94.1652C71.4395 94.9929 71.7706 95.6922 72.201 96.2633C72.6396 96.8261 73.1569 97.2523 73.7528 97.5419C74.3569 97.8316 75.0314 97.9765 75.7763 97.9765C76.5543 97.9765 77.2453 97.8316 77.8495 97.5419C78.4537 97.2523 78.9627 96.8261 79.3765 96.2633C79.7986 95.6922 80.1172 94.9929 80.3324 94.1652C80.5476 93.3293 80.6552 92.3693 80.6552 91.2851Z" fill="#9FAAB6"/>
<path d="M86.8694 81.6763H92.8531C94.2104 81.6763 95.3567 81.8832 96.2919 82.297C97.2354 82.7109 97.9513 83.3233 98.4396 84.1344C98.9361 84.9372 99.1844 85.9262 99.1844 87.1014C99.1844 87.929 99.0148 88.6863 98.6754 89.3732C98.3444 90.0519 97.8644 90.6312 97.2354 91.1113C96.6147 91.583 95.8698 91.9347 95.0008 92.1665L94.3304 92.4272H88.7067L88.6819 90.4781H92.9276C93.7883 90.4781 94.5042 90.3292 95.0753 90.0312C95.6463 89.725 96.0767 89.3153 96.3664 88.8022C96.656 88.2891 96.8009 87.7221 96.8009 87.1014C96.8009 86.4062 96.6643 85.7979 96.3912 85.2765C96.1181 84.7551 95.6877 84.3537 95.1001 84.0723C94.5208 83.7826 93.7718 83.6378 92.8531 83.6378H89.2653V99.7517H86.8694V81.6763ZM97.434 99.7517L93.0393 91.5582L95.5346 91.5458L99.9914 99.6027V99.7517H97.434Z" fill="#9FAAB6"/>
<path d="M109.482 83.2778L103.498 99.7517H101.052L107.942 81.6763H109.519L109.482 83.2778ZM114.497 99.7517L108.501 83.2778L108.464 81.6763H110.04L116.955 99.7517H114.497ZM114.187 93.0603V95.0218H104.032V93.0603H114.187Z" fill="#9FAAB6"/>
<path d="M124.696 81.6763V99.7517H122.337V81.6763H124.696ZM130.506 81.6763V83.6378H116.539V81.6763H130.506Z" fill="#9FAAB6"/>
<path d="M144.923 97.8026V99.7517H135.352V97.8026H144.923ZM135.836 81.6763V99.7517H133.44V81.6763H135.836ZM143.657 89.4477V91.3968H135.352V89.4477H143.657ZM144.799 81.6763V83.6378H135.352V81.6763H144.799Z" fill="#9FAAB6"/>
<path d="M218.55 99.7517H214.776L214.801 97.8026H218.55C219.842 97.8026 220.917 97.5336 221.778 96.9957C222.639 96.4494 223.284 95.688 223.715 94.7114C224.153 93.7266 224.373 92.5762 224.373 91.2602V90.1554C224.373 89.1208 224.249 88.2022 224 87.3994C223.752 86.5883 223.388 85.9055 222.908 85.351C222.428 84.7882 221.84 84.362 221.145 84.0723C220.458 83.7826 219.668 83.6378 218.774 83.6378H214.702V81.6763H218.774C219.957 81.6763 221.037 81.875 222.014 82.2722C222.991 82.6612 223.831 83.2281 224.534 83.973C225.246 84.7096 225.792 85.6034 226.173 86.6545C226.554 87.6973 226.744 88.8725 226.744 90.1802V91.2602C226.744 92.5679 226.554 93.7473 226.173 94.7983C225.792 95.8411 225.242 96.7308 224.522 97.4674C223.81 98.204 222.949 98.7709 221.94 99.1682C220.938 99.5572 219.808 99.7517 218.55 99.7517ZM216.055 81.6763V99.7517H213.659V81.6763H216.055Z" fill="#9FAAB6"/>
<path d="M233.169 81.6763V99.7517H230.773V81.6763H233.169Z" fill="#9FAAB6"/>
<path d="M243.615 97.0081L248.941 81.6763H251.536L244.844 99.7517H242.995L243.615 97.0081ZM238.637 81.6763L243.913 97.0081L244.571 99.7517H242.721L236.042 81.6763H238.637Z" fill="#9FAAB6"/>
<path d="M256.794 81.6763V99.7517H254.398V81.6763H256.794Z" fill="#9FAAB6"/>
<path d="M271.039 95.1832C271.039 94.7611 270.972 94.3887 270.84 94.0659C270.716 93.7349 270.492 93.4369 270.17 93.1721C269.855 92.9073 269.416 92.6548 268.854 92.4148C268.299 92.1748 267.596 91.9306 266.743 91.6824C265.849 91.4175 265.042 91.1237 264.322 90.8009C263.602 90.4699 262.986 90.0933 262.473 89.6712C261.96 89.2491 261.566 88.765 261.293 88.2187C261.02 87.6725 260.884 87.0477 260.884 86.3442C260.884 85.6407 261.028 84.991 261.318 84.3951C261.608 83.7992 262.022 83.282 262.56 82.8433C263.106 82.3964 263.755 82.0488 264.509 81.8005C265.262 81.5522 266.102 81.4281 267.029 81.4281C268.386 81.4281 269.536 81.6888 270.48 82.2102C271.432 82.7233 272.156 83.3978 272.652 84.2337C273.149 85.0614 273.397 85.9469 273.397 86.8904H271.014C271.014 86.2118 270.869 85.6117 270.579 85.0903C270.29 84.5606 269.851 84.1468 269.263 83.8489C268.676 83.5427 267.931 83.3896 267.029 83.3896C266.176 83.3896 265.473 83.5178 264.918 83.7744C264.364 84.031 263.95 84.3786 263.677 84.8172C263.412 85.2558 263.28 85.7566 263.28 86.3193C263.28 86.7001 263.358 87.0477 263.515 87.3622C263.681 87.6684 263.933 87.9539 264.273 88.2187C264.62 88.4836 265.059 88.7277 265.589 88.9512C266.127 89.1747 266.768 89.3898 267.513 89.5967C268.539 89.8864 269.425 90.2092 270.17 90.5651C270.914 90.9209 271.527 91.3223 272.007 91.7693C272.495 92.2079 272.855 92.7086 273.087 93.2714C273.327 93.8259 273.447 94.4549 273.447 95.1584C273.447 95.895 273.298 96.5612 273 97.1571C272.702 97.753 272.276 98.262 271.721 98.6841C271.167 99.1062 270.501 99.4331 269.723 99.6648C268.953 99.8883 268.092 100 267.14 100C266.305 100 265.481 99.8841 264.67 99.6524C263.867 99.4207 263.135 99.0731 262.473 98.6096C261.819 98.1461 261.293 97.575 260.896 96.8964C260.507 96.2095 260.313 95.415 260.313 94.5128H262.696C262.696 95.1336 262.816 95.6674 263.056 96.1143C263.296 96.5529 263.623 96.9171 264.037 97.2068C264.459 97.4964 264.935 97.7116 265.465 97.8523C266.002 97.9847 266.561 98.0509 267.14 98.0509C267.976 98.0509 268.684 97.9351 269.263 97.7033C269.843 97.4716 270.281 97.1405 270.579 96.7102C270.885 96.2798 271.039 95.7708 271.039 95.1832Z" fill="#9FAAB6"/>
<path d="M279.324 81.6763V99.7517H276.928V81.6763H279.324Z" fill="#9FAAB6"/>
<path d="M297.853 90.143V91.2851C297.853 92.6424 297.683 93.859 297.344 94.9349C297.005 96.0109 296.516 96.9254 295.879 97.6785C295.242 98.4316 294.476 99.0068 293.583 99.4041C292.697 99.8014 291.704 100 290.603 100C289.535 100 288.555 99.8014 287.661 99.4041C286.775 99.0068 286.006 98.4316 285.352 97.6785C284.706 96.9254 284.206 96.0109 283.85 94.9349C283.494 93.859 283.316 92.6424 283.316 91.2851V90.143C283.316 88.7857 283.49 87.5732 283.837 86.5056C284.193 85.4296 284.694 84.5151 285.339 83.762C285.985 83.0006 286.75 82.4212 287.636 82.024C288.53 81.6267 289.511 81.4281 290.578 81.4281C291.679 81.4281 292.672 81.6267 293.558 82.024C294.452 82.4212 295.217 83.0006 295.854 83.762C296.5 84.5151 296.992 85.4296 297.332 86.5056C297.679 87.5732 297.853 88.7857 297.853 90.143ZM295.482 91.2851V90.1181C295.482 89.0422 295.37 88.0905 295.147 87.2628C294.932 86.4352 294.613 85.74 294.191 85.1772C293.769 84.6144 293.251 84.1882 292.639 83.8985C292.035 83.6089 291.348 83.464 290.578 83.464C289.833 83.464 289.159 83.6089 288.555 83.8985C287.959 84.1882 287.446 84.6144 287.015 85.1772C286.593 85.74 286.266 86.4352 286.035 87.2628C285.803 88.0905 285.687 89.0422 285.687 90.1181V91.2851C285.687 92.3693 285.803 93.3293 286.035 94.1652C286.266 94.9929 286.597 95.6922 287.028 96.2633C287.466 96.8261 287.984 97.2523 288.58 97.5419C289.184 97.8316 289.858 97.9765 290.603 97.9765C291.381 97.9765 292.072 97.8316 292.676 97.5419C293.28 97.2523 293.789 96.8261 294.203 96.2633C294.625 95.6922 294.944 94.9929 295.159 94.1652C295.374 93.3293 295.482 92.3693 295.482 91.2851Z" fill="#9FAAB6"/>
<path d="M315.598 81.6763V99.7517H313.19L304.09 85.8103V99.7517H301.694V81.6763H304.09L313.227 95.6549V81.6763H315.598Z" fill="#9FAAB6"/>
</svg>
