<svg width="261" height="100" viewBox="0 0 261 100" fill="none" xmlns="http://www.w3.org/2000/svg">
<path d="M60.4175 3.41953C65.5258 6.80846 71.877 17.6704 68.2856 23.5107C66.0787 27.0963 60.8836 26.5887 58.8868 23.0122C57.612 20.7346 58.2197 19.3809 57.7354 17.3046C56.9952 14.126 53.0612 11.2493 49.8856 10.9886C39.8014 10.1562 35.5932 22.6143 43.8086 28.5004C55.5651 36.9293 69.8254 43.9175 82.0388 51.9759C87.2157 55.3923 93.6536 60.7707 95.2757 67.0821C96.2626 70.9329 97.9212 77.8434 94.3527 85.7235C91.5427 91.9297 82.4779 99.0213 75.8389 99.8719C58.7619 99.872 38.8587 100.091 21.7988 99.9559C6.33216 98.3507 -3.98487 81.0357 1.47985 66.3915C4.80164 57.4961 13.4602 52.7443 21.1684 48.1388C22.8636 47.1281 28.511 43.4236 29.8589 43.1171C35.6024 41.8 39.2714 47.8004 35.4881 52.2824C29.3792 57.519 14.2278 62.4492 11.8427 70.3612C9.90996 76.7732 12.2859 82.9291 17.4674 86.1397C19.3316 87.2968 21.5019 87.8639 23.6951 87.8639L75.4683 87.8547C84.168 86.0756 88.1295 76.5034 84.561 68.6691C83.1491 65.5683 79.9553 63.6794 77.2046 61.8546C64.5023 53.4074 48.3092 45.8246 36.4203 36.8195C25.1344 28.2717 25.7604 11.0069 37.6037 3.30519C44.4528 -1.14935 53.6414 -1.0899 60.4266 3.41496L60.4175 3.41953Z" fill="#9FAAB6"/>
<path d="M138.003 25.3232C138.003 26.7763 137.738 28.0757 137.207 29.2214C136.676 30.3392 135.935 31.2893 134.985 32.0718C134.035 32.8263 132.903 33.4131 131.59 33.8323C130.277 34.2235 128.823 34.4191 127.231 34.4191C124.995 34.4191 122.801 34.0419 120.65 33.2874C118.498 32.5049 116.542 31.3173 114.781 29.7244L118.596 25.1555C119.937 26.2453 121.306 27.1116 122.704 27.7543C124.129 28.3971 125.68 28.7184 127.356 28.7184C128.698 28.7184 129.732 28.4809 130.458 28.0058C131.213 27.5028 131.59 26.8182 131.59 25.9519V25.8681C131.59 25.4489 131.506 25.0856 131.338 24.7782C131.199 24.4429 130.905 24.1355 130.458 23.8561C130.039 23.5766 129.438 23.2972 128.656 23.0177C127.901 22.7383 126.909 22.4449 125.68 22.1375C124.199 21.7742 122.857 21.369 121.656 20.9219C120.454 20.4748 119.434 19.9299 118.596 19.2871C117.757 18.6165 117.101 17.7921 116.626 16.814C116.178 15.836 115.955 14.6204 115.955 13.1673V13.0834C115.955 11.7421 116.206 10.5405 116.709 9.47857C117.212 8.38873 117.911 7.45258 118.805 6.67014C119.727 5.88769 120.817 5.28688 122.075 4.86771C123.332 4.44854 124.716 4.23895 126.225 4.23895C128.376 4.23895 130.346 4.56032 132.135 5.20304C133.951 5.84577 135.614 6.76794 137.123 7.96956L133.77 12.8319C132.456 11.9377 131.171 11.2391 129.913 10.7361C128.656 10.2051 127.398 9.93966 126.141 9.93966C124.883 9.93966 123.933 10.1912 123.29 10.6942C122.676 11.1692 122.368 11.77 122.368 12.4966V12.5804C122.368 13.0555 122.452 13.4746 122.62 13.8379C122.815 14.1733 123.151 14.4807 123.626 14.7601C124.101 15.0395 124.744 15.305 125.554 15.5565C126.392 15.808 127.44 16.1014 128.698 16.4368C130.179 16.828 131.492 17.2751 132.638 17.7781C133.812 18.2532 134.79 18.84 135.572 19.5386C136.382 20.2093 136.983 21.0057 137.374 21.9279C137.794 22.8501 138.003 23.9539 138.003 25.2393V25.3232Z" fill="#9FAAB6"/>
<path d="M168.712 21.2153C168.712 23.4509 168.405 25.393 167.79 27.0418C167.203 28.6905 166.351 30.0738 165.233 31.1916C164.115 32.2814 162.76 33.1058 161.167 33.6647C159.574 34.1956 157.8 34.4611 155.843 34.4611C151.903 34.4611 148.801 33.3712 146.538 31.1916C144.274 29.0119 143.143 25.7563 143.143 21.4249V4.65814H149.598V21.2572C149.598 23.6605 150.157 25.4769 151.274 26.7064C152.392 27.9081 153.943 28.5089 155.927 28.5089C157.911 28.5089 159.462 27.922 160.58 26.7484C161.698 25.5747 162.257 23.8142 162.257 21.4668V4.65814H168.712V21.2153Z" fill="#9FAAB6"/>
<path d="M198.509 14.8859C198.509 16.5905 198.202 18.0855 197.587 19.371C196.972 20.6564 196.12 21.7323 195.03 22.5986C193.968 23.4649 192.711 24.1216 191.257 24.5687C189.832 24.9879 188.295 25.1974 186.647 25.1974H181.742V34H175.287V4.65814H187.275C189.036 4.65814 190.601 4.90964 191.97 5.41265C193.367 5.88771 194.541 6.57235 195.491 7.46658C196.469 8.3608 197.21 9.43667 197.713 10.6942C198.244 11.9237 198.509 13.293 198.509 14.802V14.8859ZM191.97 15.0116V14.9278C191.97 13.4747 191.495 12.3709 190.545 11.6164C189.623 10.8618 188.351 10.4846 186.73 10.4846H181.742V19.4548H186.856C188.477 19.4548 189.734 19.0356 190.629 18.1973C191.523 17.331 191.97 16.2691 191.97 15.0116Z" fill="#9FAAB6"/>
<path d="M225.629 34H203.287V4.65814H225.419V10.4008H209.7V16.353H223.533V22.0956H209.7V28.2574H225.629V34Z" fill="#9FAAB6"/>
<path d="M256.727 34H249.182L242.894 24.6106H237.822V34H231.367V4.65814H244.781C248.274 4.65814 250.984 5.51045 252.913 7.21507C254.869 8.9197 255.847 11.295 255.847 14.341V14.4248C255.847 16.8001 255.26 18.7422 254.086 20.2512C252.94 21.7323 251.431 22.8221 249.559 23.5208L256.727 34ZM249.308 14.7601V14.6763C249.308 13.2791 248.861 12.2311 247.966 11.5325C247.072 10.8339 245.829 10.4846 244.236 10.4846H237.822V18.9099H244.361C245.954 18.9099 247.17 18.5326 248.008 17.7781C248.874 17.0236 249.308 16.0176 249.308 14.7601Z" fill="#9FAAB6"/>
<path d="M142.571 69.2634C141.816 70.0738 141.034 70.8003 140.223 71.4431C139.413 72.0858 138.519 72.6447 137.54 73.1198C136.59 73.5669 135.542 73.9022 134.397 74.1258C133.251 74.3773 131.966 74.503 130.54 74.503C128.389 74.503 126.391 74.1118 124.546 73.3293C122.702 72.5469 121.109 71.485 119.768 70.1436C118.426 68.7744 117.378 67.1675 116.624 65.3232C115.869 63.4789 115.492 61.5088 115.492 59.4129V59.3291C115.492 57.2332 115.869 55.2771 116.624 53.4607C117.378 51.6164 118.426 50.0095 119.768 48.6403C121.109 47.243 122.716 46.1532 124.588 45.3707C126.46 44.5603 128.528 44.1552 130.792 44.1552C132.161 44.1552 133.405 44.2669 134.522 44.4905C135.668 44.714 136.702 45.0214 137.624 45.4127C138.547 45.8039 139.399 46.2789 140.181 46.8378C140.964 47.3967 141.69 48.0115 142.361 48.6822L138.253 53.4188C137.107 52.3848 135.934 51.5744 134.732 50.9876C133.558 50.4008 132.231 50.1074 130.75 50.1074C129.52 50.1074 128.375 50.3449 127.313 50.8199C126.279 51.295 125.385 51.9517 124.63 52.79C123.876 53.6284 123.289 54.6064 122.87 55.7242C122.45 56.8141 122.241 57.9877 122.241 59.2452V59.3291C122.241 60.5866 122.45 61.7742 122.87 62.892C123.289 64.0098 123.862 64.9879 124.588 65.8262C125.343 66.6645 126.237 67.3352 127.271 67.8382C128.333 68.3133 129.492 68.5508 130.75 68.5508C132.427 68.5508 133.838 68.2434 134.984 67.6286C136.157 67.0139 137.317 66.1755 138.463 65.1136L142.571 69.2634Z" fill="#9FAAB6"/>
<path d="M168.822 74H147.738V44.6581H154.193V68.1316H168.822V74Z" fill="#9FAAB6"/>
<path d="M196.033 74H173.691V44.6581H195.824V50.4008H180.105V56.353H193.937V62.0956H180.105V68.2574H196.033V74Z" fill="#9FAAB6"/>
<path d="M230.36 74H223.612L220.929 67.419H208.521L205.839 74H199.258L211.833 44.4485H217.785L230.36 74ZM218.623 61.7183L214.725 52.2032L210.827 61.7183H218.623Z" fill="#9FAAB6"/>
<path d="M260.961 74H255.47L241.26 55.347V74H234.889V44.6581H240.841L254.59 62.7243V44.6581H260.961V74Z" fill="#9FAAB6"/>
<path d="M127.302 89.264C127.302 90.2134 127.129 91.0987 126.783 91.9199C126.436 92.741 125.942 93.4531 125.301 94.0562C124.672 94.6592 123.915 95.1339 123.03 95.4804C122.157 95.8268 121.195 96 120.143 96H114.889V82.5279H120.143C121.195 82.5279 122.157 82.7011 123.03 83.0475C123.915 83.3811 124.672 83.8494 125.301 84.4525C125.942 85.0555 126.436 85.7676 126.783 86.5888C127.129 87.3971 127.302 88.276 127.302 89.2255V89.264ZM124.204 89.3024V89.264C124.204 88.6737 124.101 88.1284 123.896 87.6281C123.703 87.1277 123.427 86.6978 123.068 86.3386C122.722 85.9793 122.298 85.7035 121.798 85.511C121.298 85.3057 120.746 85.2031 120.143 85.2031H117.853V93.3248H120.143C120.746 93.3248 121.298 93.2286 121.798 93.0361C122.298 92.8437 122.722 92.5678 123.068 92.2086C123.427 91.8493 123.703 91.4259 123.896 90.9383C124.101 90.4508 124.204 89.9055 124.204 89.3024Z" fill="#9FAAB6"/>
<path d="M141.587 96H138.123L135.236 91.6889H132.907V96H129.943V82.5279H136.102C137.706 82.5279 138.95 82.9192 139.836 83.7019C140.734 84.4846 141.183 85.5752 141.183 86.9737V87.0122C141.183 88.1028 140.914 88.9945 140.375 89.6874C139.849 90.3674 139.156 90.8678 138.296 91.1885L141.587 96ZM138.181 87.1662V87.1277C138.181 86.4861 137.975 86.005 137.565 85.6842C137.154 85.3635 136.583 85.2031 135.852 85.2031H132.907V89.0715H135.91C136.641 89.0715 137.199 88.8983 137.584 88.5519C137.982 88.2054 138.181 87.7435 138.181 87.1662Z" fill="#9FAAB6"/>
<path d="M155.783 82.5279L150.606 90.6304V96H147.642V90.6881L142.465 82.5279H145.929L149.143 87.936L152.415 82.5279H155.783Z" fill="#9FAAB6"/>
<path d="M169.464 93.8252C169.118 94.1973 168.758 94.5309 168.386 94.826C168.014 95.1211 167.604 95.3777 167.155 95.5958C166.718 95.8011 166.237 95.9551 165.711 96.0577C165.185 96.1732 164.595 96.231 163.941 96.231C162.953 96.231 162.035 96.0513 161.188 95.6921C160.342 95.3328 159.61 94.8453 158.994 94.2294C158.378 93.6007 157.897 92.8629 157.551 92.0161C157.204 91.1693 157.031 90.2647 157.031 89.3024V89.2639C157.031 88.3017 157.204 87.4035 157.551 86.5695C157.897 85.7227 158.378 84.9849 158.994 84.3562C159.61 83.7147 160.348 83.2143 161.208 82.8551C162.067 82.483 163.017 82.2969 164.056 82.2969C164.685 82.2969 165.256 82.3483 165.769 82.4509C166.295 82.5535 166.77 82.6947 167.193 82.8743C167.616 83.0539 168.008 83.2721 168.367 83.5287C168.726 83.7853 169.06 84.0676 169.368 84.3755L167.482 86.5503C166.956 86.0755 166.417 85.7035 165.865 85.434C165.326 85.1646 164.717 85.0299 164.037 85.0299C163.472 85.0299 162.946 85.1389 162.459 85.357C161.984 85.5752 161.573 85.8767 161.227 86.2616C160.88 86.6465 160.611 87.0956 160.419 87.6088C160.226 88.1092 160.13 88.6481 160.13 89.2254V89.2639C160.13 89.8413 160.226 90.3866 160.419 90.8998C160.611 91.4131 160.874 91.8621 161.208 92.2471C161.554 92.632 161.965 92.9399 162.439 93.1709C162.927 93.389 163.459 93.498 164.037 93.498C164.807 93.498 165.455 93.3569 165.981 93.0746C166.519 92.7924 167.052 92.4074 167.578 91.9199L169.464 93.8252Z" fill="#9FAAB6"/>
<path d="M181.517 96H171.836V82.5279H174.8V93.3056H181.517V96Z" fill="#9FAAB6"/>
<path d="M194.01 96H183.752V82.5279H193.914V85.1646H186.697V87.8975H193.048V90.5342H186.697V93.3633H194.01V96Z" fill="#9FAAB6"/>
<path d="M209.771 96H206.672L205.44 92.9784H199.744L198.512 96H195.49L201.264 82.4316H203.997L209.771 96ZM204.382 90.3609L202.592 85.9921L200.802 90.3609H204.382Z" fill="#9FAAB6"/>
<path d="M223.821 96H221.299L214.775 87.4356V96H211.85V82.5279H214.583L220.895 90.8229V82.5279H223.821V96Z" fill="#9FAAB6"/>
<path d="M230.153 96H227.189V82.5279H230.153V96Z" fill="#9FAAB6"/>
<path d="M245.492 96H242.971L236.447 87.4356V96H233.521V82.5279H236.254L242.567 90.8229V82.5279H245.492V96Z" fill="#9FAAB6"/>
<path d="M260.966 94.0947C260.273 94.6849 259.445 95.1917 258.483 95.6151C257.534 96.0257 256.443 96.231 255.211 96.231C254.159 96.231 253.197 96.0577 252.325 95.7113C251.465 95.3649 250.721 94.8837 250.092 94.2679C249.476 93.652 248.995 92.9207 248.649 92.0738C248.302 91.227 248.129 90.3032 248.129 89.3024V89.2639C248.129 88.3017 248.302 87.4035 248.649 86.5695C249.008 85.7227 249.502 84.9849 250.13 84.3562C250.759 83.7147 251.503 83.2143 252.363 82.8551C253.223 82.483 254.166 82.2969 255.192 82.2969C255.795 82.2969 256.34 82.3418 256.828 82.4317C257.328 82.5086 257.79 82.6241 258.214 82.7781C258.637 82.9321 259.035 83.1245 259.407 83.3555C259.779 83.5864 260.138 83.8494 260.485 84.1445L258.618 86.3963C258.361 86.1782 258.105 85.9857 257.848 85.8189C257.591 85.6521 257.322 85.511 257.04 85.3955C256.77 85.28 256.475 85.1902 256.154 85.1261C255.834 85.0619 255.481 85.0299 255.096 85.0299C254.557 85.0299 254.05 85.1453 253.575 85.3763C253.114 85.5944 252.703 85.8959 252.344 86.2808C251.997 86.6529 251.721 87.0956 251.516 87.6088C251.324 88.1092 251.227 88.6481 251.227 89.2254V89.2639C251.227 89.8798 251.324 90.4508 251.516 90.9768C251.721 91.4901 252.004 91.9391 252.363 92.324C252.735 92.709 253.165 93.0105 253.652 93.2286C254.153 93.4339 254.705 93.5365 255.308 93.5365C256.411 93.5365 257.341 93.2671 258.098 92.7282V90.8036H255.115V88.2439H260.966V94.0947Z" fill="#9FAAB6"/>
</svg>
