<svg width="350" height="100" viewBox="0 0 350 100" fill="none" xmlns="http://www.w3.org/2000/svg">
<path d="M42.2131 37.269L42.6993 57.2509H40.8868C40.0321 52.2407 37.9249 48.2178 34.5651 45.1822C31.2348 42.1171 27.6244 40.5846 23.7342 40.5846C20.728 40.5846 18.3408 41.3951 16.5725 43.016C14.8336 44.6075 13.9642 46.4495 13.9642 48.542C13.9642 49.8682 14.2737 51.0471 14.8926 52.0786C15.7473 53.4638 17.1177 54.8343 19.0039 56.19C20.3891 57.1625 23.5868 58.8866 28.597 61.3623C35.6113 64.8105 40.3416 68.0672 42.7878 71.1322C45.2045 74.1973 46.4128 77.7045 46.4128 81.6537C46.4128 86.6639 44.4529 90.9816 40.5331 94.6066C36.6429 98.2022 31.6916 100 25.6793 100C23.7931 100 22.01 99.8084 20.3301 99.4253C18.6502 99.0422 16.543 98.3201 14.0084 97.2591C12.5938 96.6697 11.4296 96.3749 10.516 96.3749C9.74972 96.3749 8.93924 96.6697 8.08456 97.2591C7.22987 97.8485 6.53728 98.7474 6.00679 99.9558H4.37109V77.3213H6.00679C7.30355 83.6873 9.79393 88.5501 13.4779 91.9099C17.1914 95.2403 21.1848 96.9054 25.4583 96.9054C28.7591 96.9054 31.3821 96.0065 33.3273 94.2087C35.3019 92.411 36.2892 90.3185 36.2892 87.9312C36.2892 86.5166 35.9061 85.1461 35.1398 83.8199C34.403 82.4937 33.2683 81.2411 31.7358 80.0622C30.2032 78.8539 27.4918 77.2919 23.6015 75.3762C18.1492 72.6942 14.2295 70.4102 11.8422 68.524C9.455 66.6378 7.61301 64.5305 6.31624 62.2022C5.04895 59.874 4.4153 57.3099 4.4153 54.5101C4.4153 49.7356 6.16888 45.6685 9.67604 42.3087C13.1832 38.9489 17.604 37.269 22.9384 37.269C24.8836 37.269 26.7698 37.5048 28.597 37.9763C29.9822 38.33 31.6621 38.9931 33.6367 39.9657C35.6408 40.9088 37.0407 41.3803 37.8365 41.3803C38.6027 41.3803 39.2069 41.1445 39.649 40.673C40.0911 40.2014 40.5037 39.0668 40.8868 37.269H42.2131Z" fill="#9FAAB6"/>
<path d="M9.58586 14.7902V21.9843C9.58586 23.3875 9.66877 24.274 9.83459 24.6439C10.0132 25.001 10.3193 25.2881 10.753 25.5049C11.1994 25.7217 12.0094 25.8302 13.1829 25.8302V26.5381H0V25.8302C1.19903 25.8302 2.00901 25.7217 2.42995 25.5049C2.86364 25.2753 3.1634 24.9819 3.32922 24.6248C3.5078 24.2676 3.59709 23.3875 3.59709 21.9843V5.1469C3.59709 3.74378 3.5078 2.86364 3.32922 2.50648C3.1634 2.13657 2.86364 1.84319 2.42995 1.62635C1.99626 1.4095 1.18627 1.30108 0 1.30108V0.59314H11.3079C15.0325 0.59314 17.7048 1.25643 19.3248 2.58302C20.9448 3.90961 21.7547 5.56784 21.7547 7.55772C21.7547 9.24146 21.2318 10.6828 20.1858 11.8819C19.1398 13.0809 17.6984 13.8973 15.8616 14.331C14.6243 14.6371 12.5324 14.7902 9.58586 14.7902ZM9.58586 2.08555V13.2978C10.0068 13.3233 10.3257 13.336 10.5425 13.336C12.0987 13.336 13.2977 12.8768 14.1396 11.9584C14.9815 11.0273 15.4024 9.59224 15.4024 7.65339C15.4024 5.72728 14.9815 4.31779 14.1396 3.42489C13.2977 2.532 12.0413 2.08555 10.3703 2.08555H9.58586Z" fill="#9FAAB6"/>
<path d="M36.5048 14.7136V21.9843C36.5048 23.3875 36.5877 24.274 36.7535 24.6439C36.9321 25.0011 37.2382 25.2881 37.6719 25.5049C38.1056 25.7217 38.9156 25.8302 40.1019 25.8302V26.5381H26.8232V25.8302C28.0223 25.8302 28.8323 25.7217 29.2532 25.5049C29.6869 25.2753 29.9866 24.9819 30.1525 24.6248C30.331 24.2676 30.4203 23.3875 30.4203 21.9843V5.1469C30.4203 3.74378 30.331 2.86364 30.1525 2.50649C29.9866 2.13657 29.6869 1.84319 29.2532 1.62635C28.8195 1.4095 28.0095 1.30108 26.8232 1.30108V0.59314H38.8773C42.0152 0.59314 44.3112 0.809986 45.7654 1.24368C47.2195 1.67737 48.4058 2.48097 49.3242 3.65449C50.2426 4.81526 50.7018 6.18011 50.7018 7.74905C50.7018 9.6624 50.013 11.2441 48.6354 12.4941C47.7552 13.285 46.5243 13.8781 44.9426 14.2736L51.1801 23.0558C51.9965 24.1911 52.5769 24.899 52.9213 25.1796C53.4443 25.5751 54.0501 25.7919 54.7389 25.8302V26.5381H46.569L38.2076 14.7136H36.5048ZM36.5048 1.98988V13.3552H37.5954C39.3684 13.3552 40.695 13.1957 41.5751 12.8768C42.4553 12.5452 43.1441 11.9584 43.6415 11.1165C44.1518 10.2619 44.4069 9.15217 44.4069 7.78732C44.4069 5.81019 43.9413 4.34967 43.0101 3.40576C42.0917 2.46184 40.6057 1.98988 38.552 1.98988H36.5048Z" fill="#9FAAB6"/>
<path d="M94.9881 81.521H73.8125L71.2926 87.3564C70.4674 89.3016 70.0548 90.9078 70.0548 92.1751C70.0548 93.855 70.7327 95.0928 72.0884 95.8885C72.8841 96.3601 74.844 96.7137 77.968 96.9495V98.5852H58.0303V96.9495C60.1817 96.6253 61.95 95.7412 63.3352 94.297C64.7204 92.8234 66.4298 89.8026 68.4633 85.2344L89.9042 37.4015H90.7441L112.362 86.5607C114.425 91.2172 116.119 94.1497 117.446 95.358C118.448 96.2717 119.862 96.8022 121.69 96.9495V98.5852H92.6893V96.9495H93.8829C96.2112 96.9495 97.8468 96.6253 98.7899 95.9769C99.4383 95.5054 99.7625 94.8275 99.7625 93.9434C99.7625 93.4129 99.6741 92.8677 99.4973 92.3077C99.4383 92.0424 98.9962 90.9372 98.171 88.9921L94.9881 81.521ZM93.485 78.2496L84.555 57.6045L75.3598 78.2496H93.485Z" fill="#9FAAB6"/>
<path d="M68.224 2.08555V12.6472H68.7406C70.3861 12.6472 71.5788 12.1306 72.3186 11.0974C73.0584 10.0642 73.5304 8.5399 73.7345 6.52451H74.4615V20.1093H73.7345C73.5814 18.6296 73.2561 17.4178 72.7587 16.4739C72.2739 15.53 71.7063 14.8986 71.0558 14.5797C70.4052 14.248 69.4613 14.0822 68.224 14.0822V21.3912C68.224 22.8198 68.2814 23.6936 68.3962 24.0125C68.5238 24.3314 68.7534 24.5929 69.085 24.797C69.4167 25.0011 69.9524 25.1031 70.6922 25.1031H72.2421C74.6656 25.1031 76.6045 24.5418 78.0586 23.4193C79.5255 22.2969 80.5779 20.5876 81.2156 18.2916H81.9236L80.7564 26.5381H58.332V25.8302H59.193C59.9456 25.8302 60.5515 25.6962 61.0107 25.4284C61.3424 25.2498 61.5975 24.9436 61.7761 24.51C61.9164 24.2038 61.9865 23.4002 61.9865 22.0991V5.0321C61.9865 3.85858 61.9546 3.13789 61.8909 2.87002C61.7633 2.42357 61.5273 2.07917 61.1829 1.83681C60.6982 1.47966 60.0349 1.30108 59.193 1.30108H58.332V0.59314H80.0485V8.26566H79.3214C78.9515 6.39058 78.4285 5.04486 77.7525 4.2285C77.0892 3.41213 76.1453 2.81262 74.9207 2.42995C74.2064 2.20035 72.8671 2.08555 70.9027 2.08555H68.224Z" fill="#9FAAB6"/>
<path d="M105.225 0L105.435 8.64832H104.651C104.281 6.47986 103.369 4.73872 101.915 3.42489C100.473 2.0983 98.9109 1.43501 97.2271 1.43501C95.9261 1.43501 94.8929 1.78579 94.1275 2.48735C93.3749 3.17615 92.9986 3.97338 92.9986 4.87903C92.9986 5.45303 93.1326 5.96326 93.4004 6.40971C93.7703 7.00922 94.3635 7.60236 95.1799 8.18912C95.7794 8.61005 97.1634 9.35626 99.3318 10.4277C102.368 11.9201 104.415 13.3296 105.474 14.6562C106.52 15.9828 107.043 17.5007 107.043 19.21C107.043 21.3784 106.194 23.2471 104.498 24.8161C102.814 26.3723 100.671 27.1504 98.069 27.1504C97.2526 27.1504 96.4809 27.0675 95.7539 26.9016C95.0268 26.7358 94.1148 26.4233 93.0178 25.9641C92.4055 25.709 91.9016 25.5814 91.5062 25.5814C91.1746 25.5814 90.8238 25.709 90.4539 25.9641C90.084 26.2192 89.7842 26.6083 89.5546 27.1312H88.8467V17.3349H89.5546C90.1159 20.0901 91.1937 22.1948 92.7882 23.6489C94.3954 25.0903 96.1238 25.811 97.9733 25.811C99.402 25.811 100.537 25.422 101.379 24.6439C102.234 23.8658 102.661 22.9601 102.661 21.9269C102.661 21.3147 102.495 20.7215 102.164 20.1475C101.845 19.5735 101.354 19.0314 100.69 18.5212C100.027 17.9982 98.8535 17.3222 97.1697 16.493C94.8099 15.3323 93.1134 14.3437 92.0802 13.5274C91.047 12.711 90.2498 11.799 89.6885 10.7913C89.1401 9.78357 88.8658 8.67383 88.8658 7.46205C88.8658 5.39563 89.6248 3.63536 91.1427 2.18121C92.6606 0.727072 94.574 0 96.8827 0C97.7246 0 98.541 0.102045 99.3318 0.306135C99.9313 0.459203 100.658 0.746205 101.513 1.16714C102.38 1.57532 102.986 1.77941 103.331 1.77941C103.662 1.77941 103.924 1.67737 104.115 1.47328C104.307 1.26919 104.485 0.778094 104.651 0H105.225Z" fill="#9FAAB6"/>
<path d="M130.17 0L130.381 8.64832H129.596C129.226 6.47986 128.314 4.73872 126.86 3.42489C125.419 2.0983 123.856 1.43501 122.172 1.43501C120.871 1.43501 119.838 1.78579 119.073 2.48735C118.32 3.17615 117.944 3.97338 117.944 4.87903C117.944 5.45303 118.078 5.96326 118.346 6.40971C118.716 7.00922 119.309 7.60236 120.125 8.18912C120.725 8.61005 122.109 9.35626 124.277 10.4277C127.313 11.9201 129.36 13.3296 130.419 14.6562C131.465 15.9828 131.988 17.5007 131.988 19.21C131.988 21.3784 131.14 23.2471 129.443 24.8161C127.759 26.3723 125.616 27.1504 123.014 27.1504C122.198 27.1504 121.426 27.0675 120.699 26.9016C119.972 26.7358 119.06 26.4233 117.963 25.9641C117.351 25.709 116.847 25.5814 116.452 25.5814C116.12 25.5814 115.769 25.709 115.399 25.9641C115.029 26.2192 114.73 26.6083 114.5 27.1312H113.792V17.3349H114.5C115.061 20.0901 116.139 22.1948 117.733 23.6489C119.341 25.0903 121.069 25.811 122.919 25.811C124.347 25.811 125.483 25.422 126.324 24.6439C127.179 23.8658 127.606 22.9601 127.606 21.9269C127.606 21.3147 127.441 20.7215 127.109 20.1475C126.79 19.5735 126.299 19.0314 125.636 18.5212C124.972 17.9982 123.799 17.3222 122.115 16.493C119.755 15.3323 118.059 14.3437 117.026 13.5274C115.992 12.711 115.195 11.799 114.634 10.7913C114.085 9.78357 113.811 8.67383 113.811 7.46205C113.811 5.39563 114.57 3.63536 116.088 2.18121C117.606 0.727072 119.519 0 121.828 0C122.67 0 123.486 0.102045 124.277 0.306135C124.877 0.459203 125.604 0.746205 126.458 1.16714C127.326 1.57532 127.932 1.77941 128.276 1.77941C128.608 1.77941 128.869 1.67737 129.06 1.47328C129.252 1.26919 129.43 0.778094 129.596 0H130.17Z" fill="#9FAAB6"/>
<path d="M187.155 77.5422L184.9 98.5852H131.674V96.9495H133.663C135.402 96.9495 136.802 96.64 137.863 96.0211C138.629 95.6085 139.219 94.9012 139.631 93.8992C139.955 93.1918 140.118 91.3351 140.118 88.329V48.8955C140.118 45.8304 139.955 43.9148 139.631 43.1485C139.307 42.3822 138.644 41.7191 137.642 41.1591C136.669 40.5697 135.343 40.275 133.663 40.275H131.674V38.6393H163.636V40.275H161.028C159.289 40.275 157.889 40.5844 156.828 41.2033C156.062 41.6159 155.458 42.3233 155.016 43.3253C154.691 44.0326 154.529 45.8894 154.529 48.8955V87.0911C154.529 90.1562 154.706 92.1161 155.06 92.9708C155.413 93.796 156.106 94.4149 157.138 94.8275C157.874 95.0928 159.657 95.2254 162.487 95.2254H167.482C170.665 95.2254 173.318 94.6654 175.44 93.5455C177.562 92.4256 179.389 90.6572 180.921 88.2405C182.483 85.8239 183.957 82.2577 185.342 77.5422H187.155Z" fill="#9FAAB6"/>
<path d="M160.052 14.7136V21.9843C160.052 23.3875 160.135 24.274 160.3 24.6439C160.479 25.0011 160.785 25.2881 161.219 25.5049C161.652 25.7217 162.462 25.8302 163.649 25.8302V26.5381H150.37V25.8302C151.569 25.8302 152.379 25.7217 152.8 25.5049C153.234 25.2753 153.534 24.9819 153.699 24.6248C153.878 24.2676 153.967 23.3875 153.967 21.9843V5.1469C153.967 3.74378 153.878 2.86364 153.699 2.50649C153.534 2.13657 153.234 1.84319 152.8 1.62635C152.366 1.4095 151.556 1.30108 150.37 1.30108V0.59314H162.424C165.562 0.59314 167.858 0.809986 169.312 1.24368C170.766 1.67737 171.953 2.48097 172.871 3.65449C173.789 4.81526 174.249 6.18011 174.249 7.74905C174.249 9.6624 173.56 11.2441 172.182 12.4941C171.302 13.285 170.071 13.8781 168.49 14.2736L174.727 23.0558C175.543 24.1911 176.124 24.899 176.468 25.1796C176.991 25.5751 177.597 25.7919 178.286 25.8302V26.5381H170.116L161.755 14.7136H160.052ZM160.052 1.98988V13.3552H161.142C162.915 13.3552 164.242 13.1957 165.122 12.8768C166.002 12.5452 166.691 11.9584 167.188 11.1165C167.699 10.2619 167.954 9.15217 167.954 7.78732C167.954 5.81019 167.488 4.34967 166.557 3.40576C165.639 2.46184 164.153 1.98988 162.099 1.98988H160.052Z" fill="#9FAAB6"/>
<path d="M222.293 42.0875V66.4903H223.487C227.288 66.4903 230.044 65.2966 231.753 62.9094C233.463 60.5222 234.553 57.0003 235.025 52.3437H236.705V83.7313H235.025C234.671 80.3126 233.92 77.5128 232.77 75.3318C231.65 73.1509 230.339 71.6921 228.836 70.9553C227.333 70.189 225.152 69.8058 222.293 69.8058V86.6933C222.293 89.9941 222.426 92.013 222.691 92.7498C222.986 93.4866 223.516 94.0907 224.282 94.5623C225.049 95.0338 226.286 95.2696 227.996 95.2696H231.577C237.176 95.2696 241.656 93.9728 245.016 91.3793C248.405 88.7858 250.837 84.8365 252.31 79.5316H253.946L251.249 98.5852H199.438V96.9495H201.427C203.166 96.9495 204.566 96.64 205.627 96.0211C206.393 95.6085 206.982 94.9012 207.395 93.8992C207.719 93.1918 207.881 91.3351 207.881 88.329V48.8955C207.881 46.1841 207.808 44.5189 207.66 43.9C207.365 42.8685 206.82 42.0728 206.024 41.5128C204.905 40.6876 203.372 40.275 201.427 40.275H199.438V38.6393H249.613V56.3666H247.934C247.079 52.0343 245.871 48.925 244.309 47.0388C242.776 45.1526 240.595 43.7674 237.766 42.8832C236.115 42.3527 233.021 42.0875 228.482 42.0875H222.293Z" fill="#9FAAB6"/>
<path d="M191.772 2.08555V12.6472H192.288C193.934 12.6472 195.127 12.1306 195.866 11.0974C196.606 10.0642 197.078 8.5399 197.282 6.52451H198.009V20.1093H197.282C197.129 18.6296 196.804 17.4178 196.307 16.4739C195.822 15.53 195.254 14.8986 194.604 14.5797C193.953 14.248 193.009 14.0822 191.772 14.0822V21.3912C191.772 22.8198 191.829 23.6936 191.944 24.0125C192.072 24.3314 192.301 24.5929 192.633 24.797C192.965 25.0011 193.5 25.1031 194.24 25.1031H195.79C198.213 25.1031 200.152 24.5418 201.606 23.4193C203.073 22.2969 204.126 20.5876 204.764 18.2916H205.471L204.304 26.5381H181.88V25.8302H182.741C183.493 25.8302 184.099 25.6962 184.559 25.4284C184.89 25.2498 185.145 24.9436 185.324 24.51C185.464 24.2038 185.534 23.4002 185.534 22.0991V5.0321C185.534 3.85858 185.502 3.13789 185.439 2.87002C185.311 2.42357 185.075 2.07917 184.731 1.83681C184.246 1.47966 183.583 1.30108 182.741 1.30108H181.88V0.59314H203.596V8.26566H202.869C202.499 6.39058 201.976 5.04486 201.3 4.2285C200.637 3.41213 199.693 2.81262 198.469 2.42995C197.754 2.20035 196.415 2.08555 194.451 2.08555H191.772Z" fill="#9FAAB6"/>
<path d="M235.105 17.4306L234.129 26.5381H211.093V25.8302H211.954C212.706 25.8302 213.312 25.6962 213.771 25.4284C214.103 25.2498 214.358 24.9436 214.537 24.51C214.677 24.2038 214.747 23.4002 214.747 22.0991V5.0321C214.747 3.70552 214.677 2.8764 214.537 2.54475C214.396 2.21311 214.109 1.9261 213.676 1.68375C213.255 1.42863 212.681 1.30108 211.954 1.30108H211.093V0.59314H224.926V1.30108H223.797C223.045 1.30108 222.439 1.43501 221.98 1.70288C221.648 1.88146 221.387 2.18759 221.195 2.62129C221.055 2.92742 220.985 3.73103 220.985 5.0321V21.5634C220.985 22.89 221.061 23.7382 221.214 24.1082C221.367 24.4653 221.667 24.7332 222.114 24.9118C222.433 25.0266 223.204 25.084 224.429 25.084H226.591C227.968 25.084 229.116 24.8416 230.035 24.3569C230.953 23.8722 231.744 23.1068 232.407 22.0609C233.083 21.0149 233.721 19.4715 234.321 17.4306H235.105Z" fill="#9FAAB6"/>
<path d="M250.315 2.08555V12.6472H250.831C252.477 12.6472 253.67 12.1306 254.409 11.0974C255.149 10.0642 255.621 8.5399 255.825 6.52451H256.552V20.1093H255.825C255.672 18.6296 255.347 17.4178 254.849 16.4739C254.365 15.53 253.797 14.8986 253.147 14.5797C252.496 14.248 251.552 14.0822 250.315 14.0822V21.3912C250.315 22.8198 250.372 23.6936 250.487 24.0125C250.615 24.3314 250.844 24.5929 251.176 24.797C251.508 25.0011 252.043 25.1031 252.783 25.1031H254.333C256.756 25.1031 258.695 24.5418 260.149 23.4193C261.616 22.2969 262.669 20.5876 263.306 18.2916H264.014L262.847 26.5381H240.423V25.8302H241.284C242.036 25.8302 242.642 25.6962 243.102 25.4284C243.433 25.2498 243.688 24.9436 243.867 24.51C244.007 24.2038 244.077 23.4002 244.077 22.0991V5.0321C244.077 3.85858 244.045 3.13789 243.982 2.87002C243.854 2.42357 243.618 2.07917 243.274 1.83681C242.789 1.47966 242.126 1.30108 241.284 1.30108H240.423V0.59314H262.139V8.26566H261.412C261.042 6.39058 260.519 5.04486 259.843 4.2285C259.18 3.41213 258.236 2.81262 257.012 2.42995C256.297 2.20035 254.958 2.08555 252.994 2.08555H250.315Z" fill="#9FAAB6"/>
<path d="M285.208 19.1526H276.044L274.953 21.6782C274.596 22.52 274.417 23.2152 274.417 23.7637C274.417 24.4908 274.711 25.0265 275.297 25.3709C275.642 25.575 276.49 25.7281 277.842 25.8301V26.5381H269.213V25.8301C270.144 25.6898 270.909 25.3072 271.509 24.6821C272.108 24.0443 272.848 22.7369 273.728 20.7598L283.008 0.057373H283.372L292.728 21.3338C293.621 23.3492 294.354 24.6183 294.928 25.1413C295.362 25.5368 295.974 25.7664 296.765 25.8301V26.5381H284.214V25.8301H284.73C285.738 25.8301 286.446 25.6898 286.854 25.4092C287.135 25.2051 287.275 24.9117 287.275 24.5291C287.275 24.2995 287.237 24.0635 287.16 23.8211C287.135 23.7063 286.943 23.228 286.586 22.3861L285.208 19.1526ZM284.558 17.7367L280.693 8.80136L276.713 17.7367H284.558Z" fill="#9FAAB6"/>
<path d="M308.405 78.1611L324.673 38.6393H349.076V40.275H347.131C345.363 40.275 343.948 40.5844 342.887 41.2033C342.15 41.6159 341.561 42.3085 341.119 43.2811C340.794 43.9884 340.632 45.8304 340.632 48.8071V88.329C340.632 91.394 340.794 93.3097 341.119 94.076C341.443 94.8423 342.106 95.5201 343.108 96.1096C344.11 96.6695 345.451 96.9495 347.131 96.9495H349.076V98.5852H317.777V96.9495H319.722C321.49 96.9495 322.905 96.64 323.966 96.0211C324.703 95.6085 325.292 94.9012 325.734 93.8992C326.058 93.1918 326.22 91.3351 326.22 88.329V43.9L303.232 98.5852H302.171L278.83 44.2979V86.5164C278.83 89.4636 278.903 91.2762 279.051 91.954C279.434 93.4276 280.259 94.636 281.526 95.5791C282.823 96.4927 284.842 96.9495 287.583 96.9495V98.5852H267.07V96.9495H267.689C269.015 96.979 270.253 96.7727 271.403 96.3306C272.552 95.859 273.422 95.2401 274.011 94.4739C274.6 93.7076 275.057 92.6319 275.381 91.2467C275.44 90.9225 275.47 89.4194 275.47 86.7375V48.8071C275.47 45.7715 275.308 43.8853 274.984 43.1485C274.659 42.3822 273.996 41.7191 272.994 41.1591C271.992 40.5697 270.651 40.275 268.971 40.275H267.07V38.6393H291.561L308.405 78.1611Z" fill="#9FAAB6"/>
<path d="M318.767 0L318.977 8.64832H318.193C317.823 6.47986 316.911 4.73872 315.457 3.42489C314.015 2.0983 312.453 1.43501 310.769 1.43501C309.468 1.43501 308.435 1.78579 307.67 2.48735C306.917 3.17615 306.541 3.97338 306.541 4.87903C306.541 5.45303 306.675 5.96326 306.942 6.40971C307.312 7.00922 307.905 7.60236 308.722 8.18912C309.321 8.61005 310.705 9.35626 312.874 10.4277C315.91 11.9201 317.957 13.3296 319.016 14.6562C320.062 15.9828 320.585 17.5007 320.585 19.21C320.585 21.3784 319.736 23.2471 318.04 24.8161C316.356 26.3723 314.213 27.1504 311.611 27.1504C310.795 27.1504 310.023 27.0675 309.296 26.9016C308.569 26.7358 307.657 26.4233 306.56 25.9641C305.948 25.709 305.444 25.5814 305.048 25.5814C304.717 25.5814 304.366 25.709 303.996 25.9641C303.626 26.2192 303.326 26.6083 303.097 27.1312H302.389V17.3349H303.097C303.658 20.0901 304.736 22.1948 306.33 23.6489C307.937 25.0903 309.666 25.811 311.515 25.811C312.944 25.811 314.079 25.422 314.921 24.6439C315.776 23.8658 316.203 22.9601 316.203 21.9269C316.203 21.3147 316.037 20.7215 315.706 20.1475C315.387 19.5735 314.896 19.0314 314.232 18.5212C313.569 17.9982 312.395 17.3222 310.712 16.493C308.352 15.3323 306.655 14.3437 305.622 13.5274C304.589 12.711 303.792 11.799 303.231 10.7913C302.682 9.78357 302.408 8.67383 302.408 7.46205C302.408 5.39563 303.167 3.63536 304.685 2.18121C306.203 0.727072 308.116 0 310.425 0C311.267 0 312.083 0.102045 312.874 0.306135C313.473 0.459203 314.2 0.746205 315.055 1.16714C315.922 1.57532 316.528 1.77941 316.873 1.77941C317.204 1.77941 317.466 1.67737 317.657 1.47328C317.849 1.26919 318.027 0.778094 318.193 0H318.767Z" fill="#9FAAB6"/>
<path d="M335.983 2.08555V12.6472H336.499C338.145 12.6472 339.338 12.1306 340.077 11.0974C340.817 10.0642 341.289 8.5399 341.493 6.52451H342.22V20.1093H341.493C341.34 18.6296 341.015 17.4178 340.517 16.4739C340.033 15.53 339.465 14.8986 338.815 14.5797C338.164 14.248 337.22 14.0822 335.983 14.0822V21.3912C335.983 22.8198 336.04 23.6936 336.155 24.0125C336.283 24.3314 336.512 24.5929 336.844 24.797C337.175 25.0011 337.711 25.1031 338.451 25.1031H340.001C342.424 25.1031 344.363 24.5418 345.817 23.4193C347.284 22.2969 348.337 20.5876 348.974 18.2916H349.682L348.515 26.5381H326.091V25.8302H326.952C327.704 25.8302 328.31 25.6962 328.77 25.4284C329.101 25.2498 329.356 24.9436 329.535 24.51C329.675 24.2038 329.745 23.4002 329.745 22.0991V5.0321C329.745 3.85858 329.713 3.13789 329.65 2.87002C329.522 2.42357 329.286 2.07917 328.942 1.83681C328.457 1.47966 327.794 1.30108 326.952 1.30108H326.091V0.59314H347.807V8.26566H347.08C346.71 6.39058 346.187 5.04486 345.511 4.2285C344.848 3.41213 343.904 2.81262 342.68 2.42995C341.965 2.20035 340.626 2.08555 338.662 2.08555H335.983Z" fill="#9FAAB6"/>
</svg>
