<svg width="153" height="100" viewBox="0 0 153 100" fill="none" xmlns="http://www.w3.org/2000/svg">
<path d="M11.5383 74.2744H16.8369V91.953C16.8369 93.5872 16.4696 95.0067 15.7351 96.2117C15.0088 97.4167 13.9978 98.3452 12.702 98.9972C11.4062 99.6492 9.89999 99.9752 8.1833 99.9752C6.65644 99.9752 5.26988 99.707 4.02363 99.1705C2.78563 98.6258 1.80349 97.8005 1.0772 96.6945C0.350905 95.5804 -0.00811421 94.1814 0.000139101 92.4977H5.33591C5.35242 93.1663 5.48859 93.7399 5.74445 94.2186C6.00855 94.689 6.36757 95.0521 6.82151 95.308C7.28369 95.5556 7.82841 95.6794 8.45566 95.6794C9.11593 95.6794 9.67303 95.5391 10.127 95.2585C10.5891 94.9696 10.9399 94.5487 11.1793 93.9957C11.4186 93.4427 11.5383 92.7618 11.5383 91.953V74.2744Z" fill="#9FAAB6"/>
<path d="M29.7616 100C27.8386 100 26.1755 99.5915 24.7725 98.7744C23.3777 97.9491 22.3006 96.8018 21.5413 95.3327C20.782 93.8554 20.4023 92.1428 20.4023 90.1951C20.4023 88.2308 20.782 86.5141 21.5413 85.045C22.3006 83.5676 23.3777 82.4204 24.7725 81.6033C26.1755 80.778 27.8386 80.3654 29.7616 80.3654C31.6846 80.3654 33.3435 80.778 34.7384 81.6033C36.1414 82.4204 37.2226 83.5676 37.9819 85.045C38.7412 86.5141 39.1209 88.2308 39.1209 90.1951C39.1209 92.1428 38.7412 93.8554 37.9819 95.3327C37.2226 96.8018 36.1414 97.9491 34.7384 98.7744C33.3435 99.5915 31.6846 100 29.7616 100ZM29.7864 95.9146C30.6612 95.9146 31.3916 95.667 31.9776 95.1718C32.5636 94.6684 33.0052 93.9833 33.3023 93.1167C33.6077 92.2501 33.7603 91.2639 33.7603 90.1579C33.7603 89.052 33.6077 88.0657 33.3023 87.1991C33.0052 86.3325 32.5636 85.6475 31.9776 85.144C31.3916 84.6406 30.6612 84.3888 29.7864 84.3888C28.9033 84.3888 28.1605 84.6406 27.558 85.144C26.9637 85.6475 26.5139 86.3325 26.2086 87.1991C25.9114 88.0657 25.7629 89.052 25.7629 90.1579C25.7629 91.2639 25.9114 92.2501 26.2086 93.1167C26.5139 93.9833 26.9637 94.6684 27.558 95.1718C28.1605 95.667 28.9033 95.9146 29.7864 95.9146Z" fill="#9FAAB6"/>
<path d="M54.7451 91.5322V80.613H60.0189V99.6287H54.9555V96.1747H54.7574C54.3283 97.2889 53.6143 98.1843 52.6157 98.8611C51.6253 99.5379 50.4162 99.8763 48.9884 99.8763C47.7174 99.8763 46.599 99.5874 45.6334 99.0097C44.6678 98.4319 43.9126 97.6107 43.3679 96.5461C42.8314 95.4814 42.559 94.2063 42.5508 92.7207V80.613H47.8246V91.7798C47.8329 92.9022 48.1341 93.7895 48.7284 94.4415C49.3226 95.0935 50.1191 95.4195 51.1177 95.4195C51.7532 95.4195 52.3475 95.2751 52.9004 94.9862C53.4534 94.6891 53.8991 94.2516 54.2375 93.6739C54.5841 93.0962 54.7533 92.3823 54.7451 91.5322Z" fill="#9FAAB6"/>
<path d="M0.000278201 63.8027V38.4485H10.1519C12.0171 38.4485 13.5729 38.725 14.8191 39.2779C16.0654 39.8309 17.0021 40.5985 17.6294 41.5806C18.2566 42.5545 18.5702 43.677 18.5702 44.948C18.5702 45.9384 18.3722 46.8091 17.976 47.5602C17.5798 48.3029 17.0351 48.9137 16.3418 49.3924C15.6568 49.8628 14.8728 50.1971 13.9897 50.3952V50.6428C14.9553 50.684 15.859 50.9564 16.7009 51.4598C17.551 51.9633 18.2401 52.669 18.7683 53.5768C19.2965 54.4764 19.5606 55.5494 19.5606 56.7956C19.5606 58.1409 19.2264 59.3418 18.5579 60.3982C17.8976 61.4464 16.9196 62.2758 15.6238 62.8866C14.328 63.4973 12.731 63.8027 10.8328 63.8027H0.000278201ZM5.36081 59.4202H9.73094C11.2248 59.4202 12.3142 59.1354 12.9993 58.5659C13.6843 57.9882 14.0268 57.2207 14.0268 56.2633C14.0268 55.5617 13.8576 54.9427 13.5192 54.4063C13.1808 53.8698 12.698 53.4489 12.0708 53.1435C11.4518 52.8381 10.7131 52.6855 9.85474 52.6855H5.36081V59.4202ZM5.36081 49.0581H9.33478C10.0693 49.0581 10.7213 48.9302 11.2908 48.6743C11.8685 48.4102 12.3225 48.0388 12.6526 47.5602C12.991 47.0815 13.1602 46.5079 13.1602 45.8393C13.1602 44.9232 12.8342 44.1845 12.1822 43.6233C11.5384 43.0621 10.6223 42.7815 9.43382 42.7815H5.36081V49.0581Z" fill="#9FAAB6"/>
<path d="M2.77491 7.80254C2.77491 8.73741 3.00263 9.55242 3.45808 10.2476C3.91352 10.9427 4.46486 11.53 5.11207 12.0094C5.75928 12.4649 6.67018 13.0522 7.84475 13.7713C9.09124 14.5144 10.0621 15.1376 10.7572 15.641C11.4524 16.1444 12.0397 16.7916 12.5191 17.5827C13.0225 18.3497 13.2742 19.2726 13.2742 20.3513C13.2742 21.5019 12.9865 22.5446 12.4112 23.4795C11.8359 24.4144 10.9849 25.1575 9.8583 25.7088C8.75564 26.2362 7.42526 26.4998 5.86715 26.4998C4.02139 26.4998 2.33145 26.0803 0.79731 25.2414C0.677456 25.1694 0.593557 25.0856 0.545616 24.9897C0.521645 24.8938 0.497674 24.75 0.473703 24.5582L0.00627095 19.6681C-0.0177 19.5722 0.0302417 19.5123 0.150096 19.4883C0.293921 19.4644 0.377819 19.5003 0.40179 19.5962C0.761353 21.2982 1.46849 22.7843 2.52321 24.0548C3.57793 25.3013 4.96824 25.9245 6.69415 25.9245C7.89269 25.9245 8.89947 25.6009 9.71448 24.9537C10.5535 24.2825 10.9729 23.2278 10.9729 21.7896C10.9729 20.7109 10.7332 19.776 10.2538 18.985C9.7744 18.1939 9.18712 17.5467 8.49196 17.0433C7.82078 16.516 6.8979 15.9047 5.72333 15.2095C4.57272 14.5144 3.66183 13.9151 2.99065 13.4117C2.34343 12.9083 1.7921 12.2731 1.33665 11.506C0.881208 10.739 0.653485 9.84007 0.653485 8.80932C0.653485 7.61078 0.965106 6.59201 1.58835 5.75303C2.23556 4.89008 3.06256 4.25485 4.06934 3.84735C5.10008 3.41587 6.19076 3.20013 7.34136 3.20013C8.75564 3.20013 10.1579 3.48778 11.5483 4.06308C11.9078 4.18294 12.0876 4.38669 12.0876 4.67434L12.3393 8.77337C12.3393 8.89322 12.2674 8.95315 12.1236 8.95315C12.0037 8.95315 11.9318 8.9052 11.9078 8.80932C11.74 7.56283 11.2366 6.41223 10.3976 5.35751C9.55867 4.27882 8.34814 3.73948 6.76606 3.73948C5.42369 3.73948 4.41691 4.135 3.74573 4.92604C3.09851 5.6931 2.77491 6.65194 2.77491 7.80254Z" fill="#9FAAB6"/>
<path d="M26.5133 26.2841C26.4175 26.332 26.3216 26.356 26.2257 26.356C25.8661 26.356 25.5545 26.0803 25.2908 25.529C25.0271 24.9777 24.8953 24.2466 24.8953 23.3357V16.5399C24.8953 13.8552 24.1402 12.5128 22.6301 12.5128C21.815 12.5128 21.1918 12.7885 20.7603 13.3398C20.3528 13.8672 20.0772 14.4784 19.9333 15.1736C19.8374 15.629 19.6936 15.9886 19.5019 16.2523C19.3341 16.516 19.0224 16.6478 18.567 16.6478C18.1835 16.6478 17.8838 16.5399 17.6681 16.3242C17.4763 16.1085 17.3804 15.8568 17.3804 15.5691C17.3804 14.9938 17.752 14.4185 18.4951 13.8432C19.2382 13.2679 20.1251 12.7885 21.1558 12.405C22.1866 12.0214 23.1095 11.8297 23.9245 11.8297C24.9073 11.8297 25.6504 12.1413 26.1538 12.7645C26.6572 13.3878 26.9089 14.2867 26.9089 15.4612V22.1851C26.9089 23.0241 27.0167 23.6353 27.2325 24.0188C27.4482 24.4024 27.7958 24.5941 28.2752 24.5941C28.7546 24.5941 29.3539 24.4383 30.073 24.1267H30.1449C30.2408 24.1267 30.3007 24.1866 30.3247 24.3065C30.3487 24.4024 30.3127 24.4743 30.2168 24.5222L26.5133 26.2841ZM20.0412 26.32C19.1543 26.32 18.4591 26.0923 17.9557 25.6369C17.4763 25.1575 17.2366 24.5582 17.2366 23.8391C17.2366 23.1199 17.5243 22.4967 18.0996 21.9693C18.6749 21.442 19.6217 20.9386 20.9401 20.4592L25.2549 18.8411L25.3627 19.3086L21.5514 20.7828C20.8802 21.0465 20.3888 21.3581 20.0772 21.7176C19.7895 22.0532 19.6457 22.4607 19.6457 22.9402C19.6457 23.5155 19.8255 24.0069 20.185 24.4144C20.5686 24.7979 21.06 24.9897 21.6592 24.9897C22.1387 24.9897 22.714 24.7979 23.3851 24.4144L25.6504 23.048L25.7223 23.5155L23.0615 25.2414C22.4623 25.6249 21.9349 25.9006 21.4795 26.0684C21.024 26.2362 20.5446 26.32 20.0412 26.32Z" fill="#9FAAB6"/>
<path d="M31.7261 26.0683C31.6542 26.0683 31.6182 25.9964 31.6182 25.8526C31.6182 25.7088 31.6542 25.6369 31.7261 25.6369C32.3733 25.6369 32.8527 25.5769 33.1643 25.4571C33.476 25.3133 33.6917 25.0735 33.8116 24.738C33.9314 24.3784 33.9913 23.851 33.9913 23.1559V4.56645C33.9913 3.7035 33.9074 3.08026 33.7396 2.69672C33.5718 2.31319 33.2722 2.12142 32.8407 2.12142C32.4812 2.12142 31.9298 2.28922 31.1867 2.62481H31.1148C31.0429 2.62481 30.983 2.56489 30.935 2.44503C30.9111 2.32518 30.935 2.25326 31.007 2.22929L35.6094 0.0359557C35.6573 0.0119851 35.7172 0 35.7892 0C35.8611 0 35.933 0.0359558 36.0049 0.107867C36.0768 0.15581 36.1128 0.215738 36.1128 0.287651V23.1559C36.1128 23.851 36.1607 24.3664 36.2566 24.702C36.3764 25.0376 36.5922 25.2773 36.9038 25.4211C37.2154 25.5649 37.6948 25.6369 38.342 25.6369C38.414 25.6369 38.4499 25.7088 38.4499 25.8526C38.4499 25.9964 38.414 26.0683 38.342 26.0683C37.8147 26.0683 37.3832 26.0564 37.0476 26.0324L35.0341 25.9964L33.0924 26.0324C32.7568 26.0564 32.3014 26.0683 31.7261 26.0683Z" fill="#9FAAB6"/>
<path d="M35.1438 55.7062V44.787H40.4176V63.8027H35.3542V60.3487H35.1561C34.727 61.4629 34.0131 62.3584 33.0144 63.0351C32.024 63.7119 30.8149 64.0503 29.3871 64.0503C28.1161 64.0503 26.9977 63.7614 26.0321 63.1837C25.0665 62.606 24.3113 61.7848 23.7666 60.7201C23.2301 59.6554 22.9578 58.3803 22.9495 56.8947V44.787H28.2234V55.9538C28.2316 57.0762 28.5329 57.9635 29.1271 58.6155C29.7213 59.2675 30.5178 59.5935 31.5164 59.5935C32.1519 59.5935 32.7462 59.4491 33.2992 59.1602C33.8521 58.8631 34.2978 58.4257 34.6362 57.8479C34.9828 57.2702 35.152 56.5563 35.1438 55.7062Z" fill="#9FAAB6"/>
<path d="M60.4586 50.2095L55.6305 50.5066C55.5479 50.0939 55.3705 49.7225 55.0981 49.3924C54.8258 49.054 54.4667 48.7858 54.0211 48.5877C53.5836 48.3813 53.0595 48.2782 52.4488 48.2782C51.6317 48.2782 50.9426 48.4515 50.3813 48.7981C49.8201 49.1365 49.5395 49.5905 49.5395 50.1599C49.5395 50.6139 49.7211 50.9977 50.0842 51.3113C50.4474 51.6249 51.0705 51.8766 51.9536 52.0665L55.3952 52.7597C57.244 53.1394 58.6223 53.7501 59.5301 54.592C60.438 55.4338 60.8919 56.5397 60.8919 57.9098C60.8919 59.1561 60.5247 60.2496 59.7901 61.1905C59.0638 62.1314 58.0652 62.8659 56.7942 63.3941C55.5314 63.9141 54.0747 64.1741 52.424 64.1741C49.9068 64.1741 47.9012 63.65 46.4074 62.6018C44.9218 61.5454 44.051 60.1093 43.7952 58.2936L48.9824 58.0212C49.1392 58.7888 49.5189 59.3748 50.1214 59.7792C50.7239 60.1753 51.4955 60.3734 52.4364 60.3734C53.3608 60.3734 54.1036 60.196 54.6648 59.8411C55.2343 59.4779 55.5232 59.0116 55.5314 58.4421C55.5232 57.9634 55.321 57.5714 54.9248 57.266C54.5286 56.9524 53.9179 56.7131 53.0926 56.548L49.7995 55.8919C47.9425 55.5205 46.5601 54.8767 45.6522 53.9606C44.7526 53.0445 44.3028 51.8766 44.3028 50.4571C44.3028 49.2356 44.6329 48.1833 45.2932 47.3002C45.9617 46.4171 46.8984 45.7362 48.1034 45.2575C49.3167 44.7788 50.7362 44.5394 52.3621 44.5394C54.7639 44.5394 56.6539 45.047 58.0322 46.0622C59.4187 47.0773 60.2276 48.4598 60.4586 50.2095Z" fill="#9FAAB6"/>
<path d="M47.4318 26.4999C46.0415 26.4999 44.855 26.1763 43.8722 25.5291C42.8894 24.8819 42.1343 24.0309 41.6069 22.9762C41.1035 21.9214 40.8518 20.7948 40.8518 19.5963C40.8518 18.182 41.1874 16.8876 41.8586 15.713C42.5298 14.5144 43.4407 13.5796 44.5913 12.9084C45.7659 12.2132 47.0483 11.8657 48.4386 11.8657C49.781 11.8657 50.8117 12.2252 51.5309 12.9444C52.25 13.6635 52.6096 14.6703 52.6096 15.9647C52.6096 16.3003 52.5736 16.54 52.5017 16.6838C52.4537 16.8276 52.3459 16.8995 52.1781 16.8995H50.1645L50.2005 16.2523C50.2005 15.0538 49.9368 14.1429 49.4094 13.5197C48.8821 12.8964 48.163 12.5848 47.2521 12.5848C45.9816 12.5848 44.9868 13.0882 44.2677 14.095C43.5725 15.1017 43.225 16.4801 43.225 18.2299C43.225 20.3154 43.7164 22.0053 44.6992 23.2998C45.682 24.5942 47.0603 25.2414 48.8341 25.2414C49.5533 25.2414 50.1645 25.1455 50.6679 24.9538C51.1953 24.762 51.7826 24.4624 52.4298 24.0549H52.4657C52.5376 24.0549 52.5976 24.1028 52.6455 24.1987C52.7174 24.2706 52.7294 24.3425 52.6815 24.4144C51.0514 25.8047 49.3016 26.4999 47.4318 26.4999ZM42.5418 16.4681L50.7039 16.3242V16.8995L42.5777 16.9355L42.5418 16.4681Z" fill="#9FAAB6"/>
<path d="M74.3704 26.0684C74.2984 26.0684 74.2625 25.9964 74.2625 25.8526C74.2625 25.7088 74.2984 25.6369 74.3704 25.6369C75.0176 25.6369 75.497 25.577 75.8086 25.4571C76.1202 25.3133 76.336 25.0736 76.4558 24.738C76.5757 24.3784 76.6356 23.8511 76.6356 23.1559V17.4388C76.6356 16.0246 76.3839 14.9698 75.8805 14.2747C75.3771 13.5795 74.5981 13.2319 73.5434 13.2319C72.7044 13.2319 71.8414 13.5196 70.9545 14.0949C70.0916 14.6462 69.3485 15.4013 68.7252 16.3601L68.5814 15.9287C69.5882 14.5144 70.583 13.4836 71.5658 12.8364C72.5725 12.1652 73.6273 11.8297 74.7299 11.8297C76.0004 11.8297 76.9712 12.1892 77.6424 12.9083C78.3136 13.6275 78.6492 14.7181 78.6492 16.1804V23.1559C78.6492 23.875 78.7091 24.4024 78.8289 24.738C78.9488 25.0736 79.1645 25.3133 79.4762 25.4571C79.7878 25.577 80.2672 25.6369 80.9144 25.6369C80.9863 25.6369 81.0223 25.7088 81.0223 25.8526C81.0223 25.9964 80.9863 26.0684 80.9144 26.0684C80.3631 26.0684 79.9196 26.0564 79.584 26.0324L77.6424 25.9964L75.7007 26.0324C75.3652 26.0564 74.9217 26.0684 74.3704 26.0684ZM65.0936 26.0684C65.0217 26.0684 64.9858 25.9964 64.9858 25.8526C64.9858 25.7088 65.0217 25.6369 65.0936 25.6369C65.7408 25.6369 66.2203 25.577 66.5319 25.4571C66.8435 25.3133 67.0473 25.0736 67.1431 24.738C67.263 24.4024 67.3229 23.875 67.3229 23.1559V17.4388C67.3229 16.0246 67.0712 14.9698 66.5678 14.2747C66.0644 13.5795 65.2974 13.2319 64.2666 13.2319C63.4037 13.2319 62.5407 13.5196 61.6778 14.0949C60.8148 14.6462 60.0717 15.4013 59.4485 16.3601L59.3047 15.9287C60.3114 14.5144 61.3062 13.4836 62.289 12.8364C63.2958 12.1652 64.3385 11.8297 65.4172 11.8297C66.6877 11.8297 67.6585 12.1892 68.3297 12.9083C69.0248 13.6275 69.3724 14.6942 69.3724 16.1085V23.1559C69.3724 23.875 69.4324 24.4024 69.5522 24.738C69.6721 25.0736 69.8878 25.3133 70.1994 25.4571C70.511 25.577 70.9905 25.6369 71.6377 25.6369C71.7096 25.6369 71.7455 25.7088 71.7455 25.8526C71.7455 25.9964 71.7096 26.0684 71.6377 26.0684C71.0863 26.0684 70.6429 26.0564 70.3073 26.0324L68.3656 25.9964L66.3881 26.0324C66.0764 26.0564 65.645 26.0684 65.0936 26.0684ZM55.8529 26.0684C55.7809 26.0684 55.745 25.9964 55.745 25.8526C55.745 25.7088 55.7809 25.6369 55.8529 25.6369C56.5001 25.6369 56.9795 25.577 57.2911 25.4571C57.6027 25.3133 57.8065 25.0736 57.9024 24.738C58.0222 24.4024 58.0821 23.875 58.0821 23.1559V16.0365C58.0821 15.2215 57.9863 14.6342 57.7945 14.2747C57.6027 13.9151 57.2791 13.7353 56.8237 13.7353C56.4401 13.7353 55.7929 13.9151 54.882 14.2747H54.8101C54.7142 14.2747 54.6423 14.2267 54.5944 14.1309C54.5704 14.011 54.6064 13.9271 54.7022 13.8792L58.8732 11.9016C58.9211 11.8776 58.993 11.8656 59.0889 11.8656C59.3047 11.8656 59.5324 12.1413 59.7721 12.6926C60.0118 13.2439 60.1317 13.9511 60.1317 14.814V23.1559C60.1317 23.875 60.1796 24.4024 60.2755 24.738C60.3953 25.0736 60.6111 25.3133 60.9227 25.4571C61.2343 25.577 61.7137 25.6369 62.3609 25.6369C62.4329 25.6369 62.4688 25.7088 62.4688 25.8526C62.4688 25.9964 62.4329 26.0684 62.3609 26.0684C61.8096 26.0684 61.3781 26.0564 61.0665 26.0324L59.1249 25.9964L57.1473 26.0324C56.8357 26.0564 56.4042 26.0684 55.8529 26.0684Z" fill="#9FAAB6"/>
<path d="M64.213 63.8027V44.787H69.4869V63.8027H64.213ZM66.8623 42.3358C66.0783 42.3358 65.4056 42.0758 64.8444 41.5558C64.2914 41.0276 64.0149 40.3962 64.0149 39.6617C64.0149 38.9354 64.2914 38.3123 64.8444 37.7923C65.4056 37.2641 66.0783 37 66.8623 37C67.6464 37 68.3149 37.2641 68.8679 37.7923C69.4291 38.3123 69.7097 38.9354 69.7097 39.6617C69.7097 40.3962 69.4291 41.0276 68.8679 41.5558C68.3149 42.0758 67.6464 42.3358 66.8623 42.3358Z" fill="#9FAAB6"/>
<path d="M64.2363 99.6286V80.613H69.3493V83.9308H69.5473C69.894 82.7506 70.4758 81.8593 71.2929 81.2568C72.11 80.646 73.0509 80.3406 74.1155 80.3406C74.3797 80.3406 74.6644 80.3571 74.9698 80.3902C75.2751 80.4232 75.5434 80.4686 75.7745 80.5263V85.206C75.5269 85.1317 75.1843 85.0657 74.7469 85.0079C74.3095 84.9501 73.9092 84.9212 73.5461 84.9212C72.7703 84.9212 72.077 85.0904 71.4662 85.4288C70.8637 85.7589 70.385 86.2211 70.0302 86.8154C69.6835 87.4096 69.5102 88.0946 69.5102 88.8704V99.6286H64.2363Z" fill="#9FAAB6"/>
<path d="M78.9841 52.8093V63.8027H73.7102V44.787H78.7365V48.142H78.9594C79.3803 47.0361 80.0859 46.1612 81.0763 45.5174C82.0667 44.8654 83.2676 44.5394 84.6789 44.5394C85.9994 44.5394 87.1508 44.8283 88.1329 45.406C89.1151 45.9838 89.8785 46.8091 90.4232 47.882C90.9679 48.9467 91.2403 50.2177 91.2403 51.6951V63.8027H85.9664V52.6359C85.9747 51.4722 85.6776 50.5644 85.0751 49.9123C84.4726 49.2521 83.6431 48.9219 82.5867 48.9219C81.8769 48.9219 81.2496 49.0746 80.7049 49.38C80.1685 49.6854 79.7475 50.1311 79.4422 50.717C79.1451 51.2948 78.9924 51.9922 78.9841 52.8093Z" fill="#9FAAB6"/>
<path d="M83.7758 88.6352V99.6286H78.502V80.613H83.5282V83.9679H83.7511C84.172 82.862 84.8776 81.9871 85.868 81.3434C86.8584 80.6914 88.0593 80.3654 89.4706 80.3654C90.7911 80.3654 91.9425 80.6542 92.9246 81.232C93.9068 81.8097 94.6702 82.635 95.2149 83.7079C95.7596 84.7726 96.032 86.0436 96.032 87.521V99.6286H90.7581V88.4619C90.7664 87.2981 90.4693 86.3903 89.8668 85.7383C89.2643 85.078 88.4348 84.7479 87.3784 84.7479C86.6686 84.7479 86.0414 84.9006 85.4966 85.2059C84.9602 85.5113 84.5393 85.957 84.2339 86.543C83.9368 87.1207 83.7841 87.8181 83.7758 88.6352Z" fill="#9FAAB6"/>
<path d="M104.063 64.1741C102.107 64.1741 100.423 63.7779 99.0117 62.9856C97.6086 62.185 96.5274 61.0543 95.7681 59.5935C95.0088 58.1244 94.6292 56.3871 94.6292 54.3815C94.6292 52.4255 95.0088 50.7088 95.7681 49.2314C96.5274 47.7541 97.5962 46.6028 98.9745 45.7774C100.361 44.9521 101.987 44.5394 103.852 44.5394C105.107 44.5394 106.275 44.7416 107.356 45.146C108.445 45.5422 109.394 46.1406 110.203 46.9411C111.02 47.7417 111.656 48.7486 112.11 49.9619C112.564 51.1668 112.791 52.5782 112.791 54.1958V55.6443H96.7338V52.3759H107.826C107.826 51.6166 107.661 50.944 107.331 50.358C107.001 49.772 106.543 49.314 105.957 48.9838C105.379 48.6455 104.706 48.4763 103.939 48.4763C103.138 48.4763 102.429 48.662 101.81 49.0334C101.199 49.3965 100.72 49.8876 100.373 50.5066C100.027 51.1173 99.8494 51.7982 99.8411 52.5493V55.6566C99.8411 56.5975 100.014 57.4105 100.361 58.0955C100.716 58.7805 101.215 59.3087 101.859 59.6801C102.503 60.0515 103.266 60.2372 104.149 60.2372C104.735 60.2372 105.272 60.1547 105.759 59.9896C106.246 59.8246 106.663 59.577 107.009 59.2468C107.356 58.9167 107.62 58.5123 107.801 58.0336L112.679 58.3555C112.432 59.5275 111.924 60.5509 111.156 61.4257C110.397 62.2923 109.415 62.9691 108.21 63.456C107.013 63.9347 105.631 64.1741 104.063 64.1741Z" fill="#9FAAB6"/>
<path d="M105.611 99.9876C104.397 99.9876 103.316 99.7772 102.367 99.3562C101.418 98.9271 100.667 98.2957 100.114 97.4621C99.5692 96.6203 99.2969 95.5721 99.2969 94.3176C99.2969 93.2612 99.4908 92.3739 99.8787 91.6559C100.267 90.9379 100.795 90.3601 101.463 89.9227C102.132 89.4853 102.891 89.1551 103.741 88.9323C104.6 88.7095 105.499 88.5527 106.44 88.4619C107.546 88.3463 108.437 88.239 109.114 88.14C109.791 88.0327 110.282 87.8759 110.587 87.6695C110.893 87.4632 111.045 87.1578 111.045 86.7534V86.6791C111.045 85.8951 110.798 85.2885 110.303 84.8593C109.816 84.4301 109.122 84.2155 108.223 84.2155C107.274 84.2155 106.519 84.426 105.957 84.8469C105.396 85.2596 105.025 85.7795 104.843 86.4068L99.9654 86.0106C100.213 84.8552 100.7 83.8565 101.426 83.0147C102.153 82.1646 103.089 81.5126 104.236 81.0586C105.392 80.5965 106.729 80.3654 108.248 80.3654C109.304 80.3654 110.315 80.4892 111.281 80.7368C112.255 80.9844 113.117 81.3681 113.868 81.8881C114.627 82.4081 115.226 83.0766 115.663 83.8936C116.101 84.7025 116.319 85.6722 116.319 86.8029V99.6286H111.318V96.9917H111.169C110.864 97.5859 110.455 98.11 109.944 98.5639C109.432 99.0096 108.817 99.3604 108.099 99.6162C107.381 99.8638 106.552 99.9876 105.611 99.9876ZM107.121 96.3479C107.897 96.3479 108.582 96.1952 109.176 95.8898C109.77 95.5762 110.237 95.1553 110.575 94.6271C110.913 94.0989 111.083 93.5005 111.083 92.832V90.8141C110.918 90.9213 110.691 91.0204 110.402 91.1112C110.121 91.1937 109.803 91.2721 109.448 91.3464C109.094 91.4124 108.739 91.4743 108.384 91.5321C108.029 91.5816 107.707 91.627 107.418 91.6683C106.799 91.7591 106.259 91.9035 105.796 92.1016C105.334 92.2997 104.975 92.5679 104.719 92.9063C104.463 93.2364 104.336 93.6491 104.336 94.1443C104.336 94.8623 104.596 95.4111 105.115 95.7908C105.644 96.1622 106.312 96.3479 107.121 96.3479Z" fill="#9FAAB6"/>
<path d="M125.685 74.2744V99.6286H120.411V74.2744H125.685Z" fill="#9FAAB6"/>
<path d="M132.993 99.9505C132.176 99.9505 131.474 99.6617 130.888 99.0839C130.31 98.4979 130.021 97.7964 130.021 96.9793C130.021 96.1705 130.31 95.4772 130.888 94.8995C131.474 94.3218 132.176 94.0329 132.993 94.0329C133.785 94.0329 134.478 94.3218 135.073 94.8995C135.667 95.4772 135.964 96.1705 135.964 96.9793C135.964 97.524 135.824 98.0234 135.543 98.4773C135.271 98.923 134.912 99.282 134.466 99.5544C134.02 99.8185 133.529 99.9505 132.993 99.9505Z" fill="#9FAAB6"/>
<path d="M132.053 50.2095L127.225 50.5066C127.143 50.0939 126.965 49.7225 126.693 49.3924C126.42 49.054 126.061 48.7858 125.616 48.5877C125.178 48.3813 124.654 48.2782 124.043 48.2782C123.226 48.2782 122.537 48.4515 121.976 48.7981C121.415 49.1365 121.134 49.5905 121.134 50.1599C121.134 50.6139 121.316 50.9977 121.679 51.3113C122.042 51.6249 122.665 51.8766 123.548 52.0665L126.99 52.7597C128.839 53.1394 130.217 53.7501 131.125 54.592C132.033 55.4338 132.487 56.5397 132.487 57.9098C132.487 59.1561 132.119 60.2496 131.385 61.1905C130.658 62.1314 129.66 62.8659 128.389 63.3941C127.126 63.9141 125.669 64.1741 124.019 64.1741C121.501 64.1741 119.496 63.65 118.002 62.6018C116.516 61.5454 115.646 60.1093 115.39 58.2936L120.577 58.0212C120.734 58.7888 121.113 59.3748 121.716 59.7792C122.318 60.1753 123.09 60.3734 124.031 60.3734C124.955 60.3734 125.698 60.196 126.259 59.8411C126.829 59.4779 127.118 59.0116 127.126 58.4421C127.118 57.9634 126.916 57.5714 126.519 57.266C126.123 56.9524 125.512 56.7131 124.687 56.548L121.394 55.8919C119.537 55.5205 118.155 54.8767 117.247 53.9606C116.347 53.0445 115.897 51.8766 115.897 50.4571C115.897 49.2356 116.227 48.1833 116.888 47.3002C117.556 46.4171 118.493 45.7362 119.698 45.2575C120.911 44.7788 122.331 44.5394 123.957 44.5394C126.358 44.5394 128.248 45.047 129.627 46.0622C131.013 47.0773 131.822 48.4598 132.053 50.2095Z" fill="#9FAAB6"/>
<path d="M151.63 50.2095L146.802 50.5066C146.72 50.0939 146.542 49.7225 146.27 49.3924C145.997 49.054 145.638 48.7858 145.193 48.5877C144.755 48.3813 144.231 48.2782 143.621 48.2782C142.803 48.2782 142.114 48.4515 141.553 48.7981C140.992 49.1365 140.711 49.5905 140.711 50.1599C140.711 50.6139 140.893 50.9977 141.256 51.3113C141.619 51.6249 142.242 51.8766 143.125 52.0665L146.567 52.7597C148.416 53.1394 149.794 53.7501 150.702 54.592C151.61 55.4338 152.064 56.5397 152.064 57.9098C152.064 59.1561 151.696 60.2496 150.962 61.1905C150.236 62.1314 149.237 62.8659 147.966 63.3941C146.703 63.9141 145.246 64.1741 143.596 64.1741C141.079 64.1741 139.073 63.65 137.579 62.6018C136.094 61.5454 135.223 60.1093 134.967 58.2936L140.154 58.0212C140.311 58.7888 140.691 59.3748 141.293 59.7792C141.896 60.1753 142.667 60.3734 143.608 60.3734C144.533 60.3734 145.275 60.196 145.837 59.8411C146.406 59.4779 146.695 59.0116 146.703 58.4421C146.695 57.9634 146.493 57.5714 146.097 57.266C145.7 56.9524 145.09 56.7131 144.264 56.548L140.971 55.8919C139.114 55.5205 137.732 54.8767 136.824 53.9606C135.924 53.0445 135.475 51.8766 135.475 50.4571C135.475 49.2356 135.805 48.1833 136.465 47.3002C137.133 46.4171 138.07 45.7362 139.275 45.2575C140.488 44.7788 141.908 44.5394 143.534 44.5394C145.936 44.5394 147.826 45.047 149.204 46.0622C150.59 47.0773 151.399 48.4598 151.63 50.2095Z" fill="#9FAAB6"/>
</svg>
