<svg width="305" height="100" viewBox="0 0 305 100" fill="none" xmlns="http://www.w3.org/2000/svg">
<path d="M43.8001 0H49.2001C58.1501 0 67.3501 4.13665 76.8003 12.41C87.6001 24.2061 93 37.043 93 50.9208V90.0719C92.3504 96.4772 89.2504 99.6796 83.7004 99.6796C78.7003 99.6796 75.8002 96.4772 75 90.0719V59.6478C75 46.3038 72.7001 36.7761 68.0999 31.0649C61.7503 22.7916 54.5501 18.655 46.5001 18.655C36.4501 18.655 28.25 24.553 21.9 36.3491C19.3 41.0463 18 48.3855 18 58.3668V90.3923C17.35 96.7976 14.25 100 8.70004 100C3.70001 100 0.8 96.7976 0 90.3923V50.6006C0 38.2707 4.60001 26.3678 13.8 14.8919C19.9501 7.89969 28.0501 3.14919 38.1001 0.640515C40.5001 0.213505 42.4001 0 43.8001 0Z" fill="#9FAAB6"/>
<path d="M147.233 100C140.26 99.5213 133.037 96.4341 125.563 90.7389C122.604 87.9711 120.998 86.587 120.748 86.587C110.916 74.7178 106 62.6888 106 50.5001V8.66453C107.656 3.55484 110.163 1 113.524 1H117.437C121.851 2.70323 124.058 5.89678 124.058 10.5807V43.1549C124.058 52.5759 125.563 59.9211 128.573 65.1902C135.043 75.8355 143.07 81.1582 152.651 81.1582C159.773 81.1582 166.294 77.9649 172.213 71.5775C178.233 65.5628 181.242 55.5565 181.242 41.5581V10.9C182.045 4.3 184.955 1 189.971 1H191.776C196.592 2.75645 199 5.41775 199 8.98386V53.0549C199 57.0469 197.997 61.7307 195.99 67.1067C194.285 73.5471 189.77 80.6789 182.446 88.5035C173.066 96.1676 164.94 100 158.068 100H147.233Z" fill="#9FAAB6"/>
<path d="M224.269 1C229.103 1 233.09 5.91263 236.229 15.7379C238.422 20.0098 246.296 37.5243 259.851 68.2819H260.448C276.894 30.4758 286.362 9.2233 288.854 4.52428C290.997 2.17476 293.489 1 296.329 1C301.312 1 304.203 4.31068 305 10.9321C305 13.2282 301.612 21.5583 294.834 35.9224C279.037 72.1261 269.767 92.738 267.026 97.7574C265.532 99.2525 264.336 100 263.439 100H256.86C254.17 100 251.08 95.1942 247.592 85.5825C226.661 39.7137 215.797 15.2573 215 12.2136V10.6116C215 4.95146 218.09 1.74758 224.269 1Z" fill="#9FAAB6"/>
</svg>
