<svg width="244" height="100" viewBox="0 0 244 100" fill="none" xmlns="http://www.w3.org/2000/svg">
<path d="M86.2446 25.5079L70.7727 34.4499C70.3384 34.6992 69.8115 34.6992 69.3772 34.4499L44.457 20.05C44.0512 19.8149 43.5457 19.8149 43.1327 20.05L36.0553 24.1399C35.5996 24.4035 35.5996 25.059 36.0553 25.3155L51.4916 34.2361C51.9615 34.5069 51.9615 35.1909 51.4916 35.4688L35.7349 44.5747C35.3006 44.824 34.7738 44.824 34.3394 44.5747L1.34505 25.515C0.746963 25.1659 0.746963 24.3037 1.34505 23.9546L41.9507 0.491632C43.0899 -0.163877 44.4926 -0.163877 45.6318 0.491632L86.2446 23.9546C86.8426 24.3037 86.8426 25.1659 86.2446 25.515V25.5079Z" fill="#9FAAB6"/>
<path d="M35.0378 76.0602V94.0012C35.0378 94.7066 34.276 95.1412 33.6708 94.7921L1.84416 76.4022C0.704948 75.7467 0 74.5283 0 73.2102V36.4232C0 35.725 0.754757 35.2832 1.36708 35.6323L16.6966 44.4889C17.2092 44.781 17.5225 45.3296 17.5225 45.9139V64.2824C17.5225 64.8524 17.8286 65.3868 18.327 65.6718L34.4255 74.9701C34.81 75.1909 35.045 75.6042 35.045 76.0459L35.0378 76.0602Z" fill="#9FAAB6"/>
<path d="M87.5907 55.9106V73.2175C87.5907 74.5356 86.8858 75.754 85.7466 76.4095L45.1195 99.8796C44.5286 100.222 43.7881 99.7941 43.7881 99.1101V81.2973C43.7881 80.7416 44.0872 80.2286 44.5642 79.9507L68.7011 66.0069C69.3063 65.6577 69.3063 64.7813 68.7011 64.4322L44.849 50.6523C44.379 50.3815 44.379 49.6975 44.849 49.4196L60.6698 40.2781C61.0614 40.0501 61.5455 40.0501 61.9371 40.2781L86.8787 54.6851C87.313 54.9345 87.5835 55.4047 87.5835 55.9106H87.5907Z" fill="#9FAAB6"/>
<path d="M125.214 49.0416H97.1582V0H125.214V4.91221H102.582V15.3685H122.825L122.792 19.9171H102.549L102.582 44.1294H125.214V49.0416Z" fill="#9FAAB6"/>
<path d="M146.267 5.3623C145.233 4.78106 144.059 4.48895 142.746 4.48895C139.043 4.48895 138.51 6.82583 138.51 11.4996V15.3656H146.267V19.9141H138.51V49.0357H133.247V19.9171H127.597V15.3685H133.247V11.2432C133.247 7.77667 133.59 4.41741 135.591 2.40245C137.593 0.387492 139.431 0 142.424 0C144.039 0 145.319 0.193746 146.267 0.581238V5.3623Z" fill="#9FAAB6"/>
<path d="M167.316 5.3623C166.283 4.78106 165.109 4.48895 163.796 4.48895C160.093 4.48895 159.56 6.82583 159.56 11.4996V15.3656H167.319V19.9141H159.56V49.0357H154.297V19.9171H148.646V15.3685H154.297V11.2432C154.297 7.77667 154.639 4.41741 156.641 2.40245C158.643 0.387492 160.48 0 163.474 0C165.088 0 166.369 0.193746 167.316 0.581238V5.3623Z" fill="#9FAAB6"/>
<path d="M97.1554 97.3471V90.9505C97.8881 91.5974 98.7638 92.1786 99.7855 92.6943C100.807 93.2099 101.882 93.6481 103.014 94.0028C104.143 94.3575 105.278 94.6317 106.422 94.8255C107.563 95.0192 108.617 95.1176 109.585 95.1176C112.921 95.1176 115.414 94.4976 117.058 93.2606C118.706 92.0236 119.528 90.2411 119.528 87.9132C119.528 86.6643 119.254 85.5763 118.706 84.6493C118.157 83.7223 117.398 82.8788 116.43 82.1127C115.462 81.3497 114.315 80.6164 112.993 79.9159C111.67 79.2155 110.243 78.4792 108.715 77.7013C107.101 76.8816 105.594 76.053 104.194 75.2124C102.794 74.3718 101.579 73.4478 100.545 72.4344C99.5114 71.4209 98.6983 70.2763 98.1085 68.9946C97.5158 67.7129 97.2209 66.2106 97.2209 64.4878C97.2209 62.3775 97.6826 60.5413 98.6089 58.9794C99.5353 57.4175 100.751 56.1299 102.258 55.1194C103.765 54.106 105.481 53.3548 107.408 52.8571C109.335 52.3623 111.298 52.1149 113.299 52.1149C117.863 52.1149 123.123 53.8675 125.211 54.9674V61.0749C122.476 59.1791 117.032 57.0271 112.748 57.0271C111.563 57.0271 110.38 57.1523 109.198 57.3997C108.012 57.6471 106.958 58.0524 106.035 58.6128C105.108 59.1732 104.355 59.8945 103.774 60.7768C103.193 61.6591 102.901 62.7381 102.901 64.0079C102.901 65.1942 103.121 66.2166 103.562 67.078C104.003 67.9395 104.655 68.7264 105.516 69.4358C106.377 70.1452 107.426 70.8367 108.665 71.5044C109.904 72.1721 111.328 72.9053 112.942 73.7012C114.598 74.5209 116.171 75.3823 117.657 76.2854C119.143 77.1886 120.445 78.1931 121.565 79.29C122.685 80.3899 123.573 81.606 124.228 82.9414C124.883 84.2767 125.214 85.8058 125.214 87.5287C125.214 89.8119 124.767 91.7464 123.873 93.3291C122.98 94.9119 121.773 96.1996 120.257 97.1892C118.738 98.1817 116.99 98.8971 115.009 99.3383C113.028 99.7794 110.94 100 108.745 100C108.012 100 107.11 99.9404 106.032 99.8211C104.956 99.7019 103.857 99.529 102.737 99.3055C101.617 99.0789 100.557 98.7988 99.5561 98.4649C98.5553 98.1311 97.7541 97.7585 97.1494 97.3501L97.1554 97.3471Z" fill="#9FAAB6"/>
<path d="M146.268 98.8046C145.052 99.6421 143.694 99.9998 141.651 99.9998C135.86 99.9998 133.278 96.7687 133.278 90.3065V69.6711H127.595V65.1464H133.278V58.1238L138.574 56.4099V65.1434H146.268V69.6681H138.574V89.3676C138.574 91.5853 138.949 93.171 139.703 94.1159C140.456 95.0638 141.04 95.5377 142.783 95.5377C144.117 95.5377 145.299 94.7925 146.268 94.0592V98.7986V98.8046Z" fill="#9FAAB6"/>
<path d="M174.806 99.9999H169.701V94.0504H169.573C167.271 98.0147 163.69 99.9969 159.213 99.9969C155.919 99.9969 153.343 99.1236 151.481 97.3799C149.619 95.6361 148.687 93.3201 148.687 90.4318C148.687 84.2498 152.324 80.6521 159.601 79.6387L169.704 78.2467C169.704 72.6251 167.244 69.8172 162.701 69.8172C158.719 69.8172 152.431 72.4164 148.654 74.7086V69.0482C151.904 66.9796 158.913 65.3551 163.154 65.3551C170.925 65.3551 174.809 69.4685 174.809 77.6982V99.9969L174.806 99.9999ZM169.701 82.4793L161.537 83.5792C159.082 83.9249 157.233 84.533 155.985 85.4034C154.737 86.2767 154.111 87.8207 154.111 90.0384C154.111 91.6539 154.686 92.9744 155.839 93.9967C156.991 95.0191 158.522 95.5318 160.441 95.5318C163.068 95.5318 165.236 94.6108 166.946 92.7687C168.659 90.9266 169.513 88.5957 169.513 85.773L169.704 82.4763L169.701 82.4793Z" fill="#9FAAB6"/>
<path d="M185.784 49.0504C180.896 49.0504 176.997 47.5482 174.081 44.5436C171.165 41.5391 169.705 37.5538 169.705 32.588C169.705 27.184 171.221 22.9633 174.256 19.9259C177.292 16.8886 181.393 15.3714 186.558 15.3714C191.723 15.3714 195.336 16.8469 198.1 19.8007C200.867 22.7546 202.249 26.8501 202.249 32.0842C202.249 37.3184 200.76 41.3274 197.778 44.4154C194.797 47.5064 190.8 49.0504 185.784 49.0504ZM186.171 19.7083C182.769 19.7083 180.08 20.835 178.099 23.0855C176.118 25.3359 175.129 28.4418 175.129 32.4002C175.129 36.3586 176.13 39.2171 178.132 41.4168C180.133 43.6166 182.814 44.7165 186.171 44.7165C189.528 44.7165 192.223 43.6375 194.064 41.4794C195.905 39.3214 196.825 36.2542 196.825 32.275C196.825 28.2958 195.905 25.1541 194.064 22.9752C192.223 20.7963 189.593 19.7083 186.171 19.7083Z" fill="#9FAAB6"/>
<path d="M202.263 97.7018C199.722 99.2309 196.44 99.9969 192.952 99.9969C188.237 99.9969 184.433 98.4619 181.538 95.3917C178.643 92.3216 177.195 88.3424 177.195 83.454C177.195 78.0053 178.756 73.6266 181.878 70.321C184.999 67.0154 189.163 65.3611 194.373 65.3611C197.28 65.3611 200.11 65.9006 202.329 66.9766V72.4045C199.874 70.6817 196.979 69.8202 194.179 69.8202C190.799 69.8202 188.028 71.0304 185.866 73.4567C183.704 75.88 182.622 79.0634 182.622 83.0039C182.622 86.9444 183.638 89.94 185.672 92.1815C187.707 94.423 190.435 95.5408 193.858 95.5408C196.741 95.5408 199.725 94.584 202.266 92.6644V97.7048L202.263 97.7018Z" fill="#9FAAB6"/>
<path d="M221.881 19.9173H217.833C215.572 19.9173 213.728 21.3182 212.209 23.4494C210.69 25.5806 209.934 28.4898 209.934 32.174V49.0388H204.638V15.3687H209.934V22.7698H210.062C210.815 20.4449 211.968 18.6296 213.517 17.327C215.066 16.0245 216.799 15.3717 218.715 15.3717C220.091 15.3717 221.878 15.3717 221.878 15.3717V19.9203L221.881 19.9173Z" fill="#9FAAB6"/>
<path d="M232.878 99.9997H225.452L210.076 83.3226H209.948V99.9997H204.652V51.435H209.948V81.2868H210.076L224.943 65.1492H231.886L215.566 82.0946L232.878 99.9997Z" fill="#9FAAB6"/>
<path d="M243.574 48.0193C242.326 48.7079 240.679 49.0536 238.635 49.0536C232.845 49.0536 229.95 46.523 229.95 40.0608V19.9172H224.267V15.3686H229.95V7.31773L235.246 5.60382V15.3686H243.577V19.9172H235.246V39.1189C235.246 41.3366 235.621 42.2218 236.375 43.1697C237.128 44.1176 238.376 44.5915 240.119 44.5915C241.453 44.5915 242.606 44.2249 243.574 43.4916V48.0163V48.0193Z" fill="#9FAAB6"/>
</svg>
