<svg width="445" height="100" viewBox="0 0 445 100" fill="none" xmlns="http://www.w3.org/2000/svg">
<path d="M21.4751 89.3267C21.2879 89.3267 21.0957 89.3115 20.9085 89.2811C20.2355 89.1749 19.6031 88.8814 19.092 88.4362C18.576 87.9859 18.1965 87.404 17.9992 86.7513C17.8018 86.0986 17.7866 85.4105 17.9637 84.7527L21.4802 71.7039C16.2434 65.8346 13.1824 58.3463 12.8231 50.4533C12.6055 45.6617 13.324 40.9411 14.9583 36.4279C16.5976 31.9146 19.0718 27.8365 22.315 24.2948C25.5583 20.7581 29.4138 17.9398 33.7651 15.916C38.1215 13.8921 42.7561 12.7689 47.5527 12.5766C47.8461 12.5614 48.1295 12.6019 48.4027 12.6778C52.7995 12.5614 57.1357 13.2495 61.2947 14.7219C65.7675 16.3056 69.8203 18.714 73.3519 21.8864C76.8785 25.0588 79.7018 28.8384 81.7459 33.1188C83.79 37.3993 84.9537 41.9733 85.2017 46.7091C85.4496 51.4449 84.7766 56.115 83.193 60.5878C81.6093 65.0605 79.2009 69.1184 76.0285 72.645C72.8561 76.1715 69.0765 78.9948 64.796 81.0389C60.5155 83.083 55.9416 84.2468 51.2057 84.4947C45.7767 84.7325 40.3022 83.7863 35.283 81.7422C34.7112 82.0914 33.9624 82.5518 33.2642 82.9818C30.0968 84.9399 25.7556 87.6216 23.0285 88.9624C22.9829 88.9826 22.9424 89.0029 22.8969 89.0231C22.4466 89.2154 21.9609 89.3115 21.4751 89.3115V89.3267ZM46.8595 17.9348C43.09 18.1979 39.437 19.139 35.9964 20.7378C32.2826 22.4632 28.9938 24.8716 26.2211 27.8871C23.4535 30.9078 21.3385 34.3888 19.9421 38.2443C18.5456 42.0947 17.9283 46.1222 18.1206 50.2154C18.4393 57.3192 21.3537 64.0334 26.3223 69.1234C26.975 69.7964 27.228 70.7628 26.9851 71.6684L24.1112 82.3443C26.2616 81.0895 28.6599 79.6121 30.4814 78.4889C31.4174 77.9121 32.2219 77.4162 32.7987 77.0671C33.9371 76.384 34.7568 75.8882 35.9711 76.293C36.0571 76.3233 36.1381 76.3537 36.219 76.3891C40.8183 78.4585 45.9083 79.435 50.9528 79.2124C54.9651 78.9999 58.8661 78.0082 62.5141 76.2677C66.1621 74.5271 69.3851 72.1187 72.087 69.1133C74.7889 66.1079 76.8481 62.6521 78.194 58.8371C79.5399 55.0221 80.1167 51.0452 79.9042 47.0076C79.6917 42.97 78.7 39.0741 76.9595 35.421C75.2189 31.773 72.8105 28.55 69.8051 25.8481C66.7996 23.1412 63.3439 21.0869 59.5289 19.7411C55.719 18.3952 51.737 17.8184 47.6994 18.0309C47.4161 18.0461 47.1327 18.0157 46.8646 17.9398L46.8595 17.9348Z" fill="#9FAAB6"/>
<path d="M30.019 11.5899C29.8773 12.2679 29.5991 12.9155 29.2044 13.4873C28.8097 14.059 28.3038 14.5447 27.7169 14.9191C27.1249 15.3138 26.457 15.587 25.7588 15.7236C25.0605 15.8602 24.337 15.8552 23.6388 15.7135C23.2289 15.6275 22.8393 15.4959 22.4599 15.3189C17.9264 18.7696 14.0912 23.0905 11.2122 28.0389C7.35676 34.6569 5.31771 42.1958 5.30253 49.8511C5.31771 57.4962 7.39723 65.0149 11.3185 71.5874C12.0673 72.8473 11.6575 74.4765 10.3976 75.2253C9.9726 75.4783 9.50206 75.5997 9.04163 75.5997C8.13595 75.5997 7.25556 75.1393 6.75972 74.3045C2.35275 66.9123 0.015179 58.4525 0 49.846C0.015179 41.2446 2.30721 32.7848 6.62816 25.3572C9.91695 19.7106 14.3138 14.7927 19.5151 10.8866C19.4797 10.3857 19.5151 9.87972 19.6163 9.38387C19.7631 8.70587 20.0413 8.0633 20.4411 7.49155C20.8408 6.91981 21.3417 6.43408 21.9286 6.05967C23.1075 5.30072 24.5394 5.03761 25.9156 5.32601C27.2868 5.61442 28.491 6.43408 29.2651 7.60287C29.6497 8.17967 29.9128 8.83236 30.0443 9.51542C30.1759 10.1985 30.1657 10.9018 30.0241 11.5798L30.019 11.5899ZM99.1847 34.9251C98.9772 34.2521 98.6382 33.6298 98.1879 33.0884C97.7376 32.547 97.1861 32.1018 96.5638 31.778C96.078 31.5199 95.5518 31.3479 95.0104 31.2518C91.671 23.3081 86.2673 16.2751 79.3862 11.0434C70.8606 4.56201 60.2758 1 49.5746 1C49.5139 1 49.4582 1 49.3975 1C45.031 1 40.6848 1.57174 36.4701 2.70511C35.0534 3.08458 34.2135 4.54177 34.598 5.95847C34.9775 7.37518 36.4347 8.21509 37.8514 7.83055C41.6158 6.81862 45.5016 6.30759 49.4127 6.30759C49.4633 6.30759 49.519 6.30759 49.5696 6.30759C59.1222 6.30759 68.5686 9.49012 76.1784 15.2733C82.2601 19.8979 87.0465 26.0959 90.0317 33.1036C89.8142 33.3718 89.6219 33.6652 89.4549 33.9739C88.8174 35.1882 88.6858 36.6049 89.0805 37.9153C89.2829 38.5883 89.6118 39.2157 90.057 39.757C90.5023 40.2984 91.0538 40.7487 91.6761 41.0726C92.2984 41.4014 92.9764 41.5988 93.6797 41.6595C94.378 41.7202 95.0863 41.6392 95.7542 41.4217C97.0647 41.0068 98.1626 40.096 98.8052 38.8817C99.4478 37.6674 99.5894 36.2456 99.1948 34.9301L99.1847 34.9251ZM96.1084 47.1897H96.0983C94.636 47.1897 93.4521 48.3686 93.447 49.8308C93.4217 55.609 92.2731 61.2404 90.0368 66.5682C87.8004 71.8961 84.5875 76.6572 80.4791 80.7252C76.3757 84.7932 71.5791 87.9605 66.231 90.1412C60.9538 92.2966 55.3932 93.3845 49.6809 93.3845C49.5645 93.3845 49.4431 93.3845 49.3267 93.3845C47.4546 93.3845 45.5825 93.263 43.7307 93.0303C43.5739 92.585 43.3664 92.16 43.0932 91.7704C42.6935 91.1936 42.1824 90.7028 41.5955 90.3284C41.0035 89.954 40.3458 89.696 39.6577 89.5796C38.2814 89.3114 36.8546 89.5948 35.6858 90.3689C34.517 91.143 33.6974 92.3472 33.409 93.7235L33.4798 93.7386C33.3533 94.4217 33.3584 95.125 33.5001 95.803C33.6468 96.486 33.9251 97.1387 34.3248 97.7105C34.7245 98.2873 35.2305 98.7781 35.8224 99.1525C36.4144 99.5269 37.0722 99.7849 37.7603 99.9013C39.1365 100.169 40.5634 99.8861 41.7372 99.112C42.1065 98.8641 42.4405 98.5757 42.7339 98.2519C44.9147 98.5453 47.1156 98.6971 49.3115 98.6971C49.4431 98.6971 49.5746 98.6971 49.7062 98.6971C56.0915 98.6971 62.325 97.4727 68.2397 95.0592C74.2354 92.6103 79.6139 89.0584 84.2182 84.4997C88.8225 79.9409 92.43 74.5979 94.9345 68.6275C97.4441 62.6521 98.7293 56.3376 98.7596 49.8612C98.7647 48.3939 97.5858 47.1998 96.1185 47.1948L96.1084 47.1897Z" fill="#9FAAB6"/>
<path d="M187.073 5.67117C187.089 4.48884 187.562 3.35861 188.4 2.52095C189.237 1.6833 190.368 1.20636 191.55 1.19434H191.967C193.149 1.21037 194.279 1.6833 195.117 2.52095C195.955 3.35861 196.432 4.48884 196.444 5.67117C196.351 6.79339 195.838 7.83544 195.009 8.59695C194.179 9.35444 193.093 9.77126 191.967 9.75924H191.55C190.985 9.79531 190.42 9.71916 189.883 9.5348C189.35 9.34642 188.857 9.05385 188.44 8.6731C188.023 8.29234 187.686 7.82743 187.45 7.31441C187.213 6.79739 187.085 6.24029 187.073 5.67518V5.67117ZM191.55 77.3005C192.099 77.3486 192.656 77.2805 193.177 77.0961C193.698 76.9118 194.171 76.6152 194.568 76.2304C194.965 75.8457 195.273 75.3767 195.47 74.8637C195.67 74.3467 195.754 73.7936 195.718 73.2445V19.1017C195.718 18.0235 195.289 16.9935 194.528 16.232C193.766 15.4705 192.732 15.0417 191.658 15.0417C190.584 15.0417 189.55 15.4705 188.788 16.232C188.027 16.9935 187.598 18.0276 187.598 19.1017V73.2405C187.598 74.2986 188.011 75.3126 188.748 76.0741C189.486 76.8356 190.492 77.2725 191.546 77.3005H191.55ZM259.925 28.889C257.58 24.4643 254.226 20.6567 250.137 17.767C245.913 15.3262 241.112 14.0677 236.234 14.1239C232.611 14.1679 229.024 14.8533 225.641 16.1519C222.387 17.3262 219.561 19.4464 217.521 22.2399C216.455 23.1216 215.617 24.2478 215.072 25.5223L214.655 18.5967C214.7 18.0917 214.639 17.5787 214.475 17.0977C214.311 16.6168 214.05 16.1719 213.706 15.7992C213.361 15.4224 212.944 15.1258 212.479 14.9214C212.014 14.717 211.509 14.6088 211 14.6088C210.491 14.6088 209.986 14.713 209.521 14.9214C209.056 15.1298 208.636 15.4264 208.295 15.7992C207.95 16.1759 207.69 16.6168 207.525 17.0977C207.361 17.5787 207.301 18.0917 207.345 18.5967V95.9053C207.345 96.9834 207.77 98.0214 208.531 98.7869C209.293 99.5525 210.323 99.9853 211.405 99.9933C211.95 100.025 212.495 99.9412 213.008 99.7488C213.517 99.5565 213.982 99.2559 214.367 98.8671C214.752 98.4823 215.052 98.0174 215.249 97.5084C215.441 96.9994 215.525 96.4503 215.493 95.9053V66.7357C217.092 69.1565 219.164 71.2245 221.581 72.8237C225.878 75.8096 231.004 77.3767 236.234 77.3005C241.224 77.3967 246.15 76.1262 250.47 73.6293C254.727 71.0001 258.121 67.1846 260.229 62.6476C262.778 57.4614 264.037 51.7381 263.901 45.9627C263.72 40.063 262.37 34.2596 259.925 28.889ZM250.137 63.7859C248.262 65.906 245.941 67.5894 243.34 68.7156C240.739 69.8418 237.925 70.3789 235.092 70.2947C231.493 70.435 227.942 69.4651 224.916 67.5132C221.894 65.3329 219.505 62.3831 217.99 58.9764C216.299 54.8402 215.477 50.4035 215.569 45.9346C215.389 41.4337 216.343 36.9569 218.351 32.921C219.862 29.398 222.411 26.4161 225.665 24.3841C229.653 22.0034 234.338 21.0656 238.935 21.7269C243.532 22.3882 247.761 24.6126 250.915 28.0273C254.763 33.2456 256.767 39.5941 256.614 46.0789C256.462 52.5597 254.165 58.808 250.081 63.842L250.137 63.7859ZM154.012 76.4949C145.058 76.4949 134.076 72.8237 128.373 64.2868C127.832 63.4251 127.656 62.3831 127.88 61.3891C128.109 60.3952 128.718 59.5335 129.584 58.9924C130.445 58.4513 131.487 58.275 132.481 58.4994C133.475 58.7279 134.337 59.3371 134.878 60.2028C139.355 67.1285 149.114 69.5733 156.845 68.7677C159.086 68.5112 161.254 67.8018 163.214 66.6836C165.174 65.5654 166.885 64.0624 168.248 62.2629C168.865 61.4653 169.266 60.5194 169.406 59.5215C169.546 58.5235 169.426 57.5015 169.053 56.5636C167.442 51.0006 158.877 49.2211 151.98 47.9987C151.146 47.9987 150.341 47.6099 149.198 47.6099L147.587 47.1931C141.082 45.9707 132.517 44.7443 129.263 35.7906C126.814 28.893 131.291 20.3321 136.994 17.0777C140.517 14.9936 144.437 13.667 148.505 13.19C152.569 12.7131 156.693 13.0898 160.605 14.2962C163.771 15.0457 166.733 16.4925 169.266 18.5326C171.803 20.5726 173.847 23.1537 175.258 26.0875C175.502 26.5163 175.659 26.9933 175.711 27.4862C175.767 27.9792 175.719 28.4762 175.574 28.9491C175.43 29.422 175.194 29.8629 174.873 30.2397C174.552 30.6164 174.16 30.925 173.719 31.1495C173.278 31.3699 172.793 31.4981 172.3 31.5262C171.807 31.5543 171.31 31.4821 170.845 31.3138C170.38 31.1454 169.955 30.8809 169.595 30.5443C169.234 30.2036 168.945 29.7948 168.749 29.3419C167.807 27.4381 166.432 25.7829 164.729 24.5124C163.03 23.2418 161.05 22.3922 158.958 22.0275C153.086 20.3722 146.802 21.1016 141.467 24.0555C138.686 26.0835 135.768 30.9811 136.99 34.2315C138.629 38.7084 142.689 39.514 149.198 40.7364L153.675 41.542C161.406 42.7644 173.61 44.7964 176.865 55.4454C177.446 57.4373 177.566 59.5335 177.214 61.5735C176.861 63.6175 176.047 65.5534 174.837 67.2327C172.873 70.0021 170.328 72.3107 167.378 73.998C164.428 75.6854 161.15 76.7074 157.763 76.9919C156.549 76.6232 155.278 76.4549 154.008 76.4909L154.012 76.4949Z" fill="#9FAAB6"/>
<path d="M335.196 4.47684C335.204 3.29049 335.677 2.15626 336.515 1.3186C337.353 0.480949 338.487 0.00801582 339.669 0H340.086C341.276 0 342.411 0.472933 343.252 1.31059C344.09 2.14824 344.563 3.29049 344.563 4.47684C344.563 5.66318 344.094 6.80142 343.252 7.64308C342.411 8.48074 341.272 8.95367 340.086 8.95367H339.669C338.487 8.93764 337.357 8.46471 336.523 7.62705C335.685 6.7894 335.208 5.65917 335.196 4.47684ZM339.673 77.3006C340.218 77.3326 340.759 77.2485 341.264 77.0561C341.773 76.8637 342.23 76.5671 342.615 76.1824C343 75.7976 343.296 75.3367 343.489 74.8317C343.681 74.3227 343.765 73.7816 343.733 73.2406V19.1017C343.733 18.0236 343.304 16.9935 342.543 16.232C341.781 15.4705 340.747 15.0417 339.669 15.0417C338.591 15.0417 337.561 15.4705 336.8 16.232C336.038 16.9935 335.609 18.0276 335.609 19.1017V73.2406C335.609 74.3187 336.038 75.3487 336.8 76.1102C337.561 76.8717 338.595 77.3006 339.669 77.3006H339.673ZM301.025 77.3006C298.432 77.2244 295.847 76.9559 293.294 76.495C287.791 75.0882 282.853 72.0342 279.142 67.7377C275.43 63.4412 273.118 58.1147 272.525 52.4676C271.88 46.7843 272.02 41.041 272.942 35.3939C274.364 29.5944 277.483 24.3481 281.895 20.3241C287.154 16.3683 293.61 14.3323 300.187 14.5567C306.764 14.7812 313.069 17.246 318.047 21.5505C320.556 23.8751 322.387 26.837 323.357 30.1154C323.574 31.1254 323.409 32.1835 322.896 33.0813C322.383 33.9791 321.558 34.6564 320.576 34.981C319.566 35.2095 318.499 35.0532 317.602 34.5402C316.7 34.0272 316.023 33.1895 315.71 32.2036C315.71 31.7867 312.428 22.4162 298.191 22.4162H297.803C293.674 22.3722 289.663 23.7749 286.464 26.3801C283.266 28.9852 281.078 32.6324 280.284 36.6804C279.527 41.5179 279.394 46.4356 279.895 51.3053C280.456 55.9945 282.629 60.3471 286.043 63.6136C289.458 66.88 293.899 68.8599 298.612 69.2126C302.183 69.6414 305.794 68.8759 308.885 67.0443C311.979 65.2087 314.379 62.4032 315.714 59.0646C315.858 58.5756 316.107 58.1227 316.435 57.7339C316.764 57.3452 317.169 57.0245 317.622 56.7961C318.079 56.5676 318.576 56.4354 319.085 56.4033C319.594 56.3713 320.103 56.4474 320.58 56.6197C321.065 56.772 321.517 57.0165 321.902 57.3452C322.291 57.6738 322.608 58.0786 322.836 58.5315C323.065 58.9844 323.201 59.4814 323.233 59.9904C323.265 60.4994 323.197 61.0084 323.028 61.4854C320.552 71.6053 310.792 77.3086 301.033 77.3086L301.025 77.3006ZM384.029 73.2406C382.766 74.1984 381.404 75.0161 379.969 75.6894C377.34 76.5391 374.586 76.9439 371.825 76.8837C368.891 77.02 365.965 76.4669 363.288 75.2726C360.807 73.97 358.703 72.0582 357.168 69.7096C355.785 66.7838 355.092 63.5775 355.14 60.3391V4.06001C355.224 3.038 355.693 2.08411 356.446 1.39074C357.2 0.697376 358.19 0.308609 359.216 0.308609C360.242 0.308609 361.228 0.693368 361.981 1.39074C362.739 2.08411 363.204 3.038 363.288 4.06001V15.4625H381.584C382.093 15.4184 382.602 15.4785 383.083 15.6429C383.564 15.8072 384.009 16.0677 384.382 16.4124C384.758 16.7571 385.059 17.1739 385.263 17.6388C385.468 18.1037 385.576 18.6087 385.576 19.1177C385.576 19.6267 385.468 20.1317 385.263 20.5967C385.059 21.0616 384.758 21.4824 384.382 21.8231C384.009 22.1678 383.564 22.4283 383.083 22.5926C382.602 22.7569 382.089 22.817 381.584 22.7729H363.288V59.3932C363.152 62.1787 364.021 64.9241 365.737 67.1245C366.647 68.0022 367.729 68.6715 368.919 69.0964C370.109 69.5172 371.376 69.6815 372.63 69.5733C374.426 69.5292 376.213 69.2567 377.941 68.7677C378.33 68.7677 379.139 67.9341 379.556 67.5453C379.985 67.2167 380.482 66.9842 381.011 66.868C381.54 66.7517 382.089 66.7517 382.618 66.868C383.147 66.9842 383.644 67.2167 384.077 67.5453C384.51 67.874 384.866 68.2948 385.115 68.7717C385.556 69.5092 385.692 70.3949 385.492 71.2326C385.287 72.0702 384.762 72.7957 384.033 73.2486L384.029 73.2406ZM441.811 15.4585C440.841 15.0257 439.739 14.9976 438.749 15.3784C437.755 15.7591 436.957 16.5166 436.524 17.4865L417.807 63.0605L397.872 17.8753C397.684 17.3543 397.391 16.8733 397.01 16.4725C396.63 16.0677 396.169 15.7471 395.656 15.5307C395.147 15.3142 394.598 15.202 394.041 15.21C393.487 15.214 392.934 15.3343 392.429 15.5627C391.924 15.7912 391.468 16.1198 391.095 16.5286C390.722 16.9374 390.437 17.4224 390.257 17.9474C390.081 18.4725 390.009 19.0296 390.057 19.5826C390.105 20.1357 390.265 20.6728 390.526 21.1618L413.327 73.6333L407.211 87.0638C406.822 88.2862 403.151 94.7951 392.97 90.3183C392.49 90.1058 391.968 89.9896 391.443 89.9736C390.918 89.9575 390.393 90.0537 389.9 90.2421C389.411 90.4305 388.959 90.715 388.578 91.0798C388.197 91.4445 387.892 91.8773 387.676 92.3623C387.464 92.8432 387.347 93.3643 387.335 93.8893C387.319 94.4143 387.416 94.9394 387.6 95.4324C387.792 95.9253 388.077 96.3742 388.442 96.755C388.802 97.1357 389.239 97.4443 389.724 97.6567C392.766 99.0956 396.113 99.793 399.483 99.6847C401.712 99.7088 403.92 99.292 405.988 98.4623C409.844 96.6988 412.998 93.6929 414.942 89.9255L444.248 20.7409C444.464 20.2359 444.568 19.6909 444.56 19.1418C444.552 18.5927 444.428 18.0516 444.196 17.5546C443.967 17.0577 443.63 16.6128 443.222 16.2521C442.809 15.8914 442.324 15.6188 441.799 15.4585H441.811Z" fill="#9FAAB6"/>
</svg>
