<svg width="303" height="100" viewBox="0 0 303 100" fill="none" xmlns="http://www.w3.org/2000/svg">
<path d="M64.0667 41.9701L62.8872 57.4018C61.1835 60.2194 59.0211 62.7422 56.4 64.9702C53.8445 67.1326 50.7974 68.869 47.259 70.1796C43.786 71.4246 39.7889 72.0471 35.2675 72.0471C28.4527 71.9816 22.3914 70.4744 17.0837 67.5257C11.776 64.577 7.61507 60.4488 4.60082 55.1411C1.6521 49.7679 0.177734 43.4445 0.177734 36.171C0.177734 29.0285 1.6521 22.8034 4.60082 17.4958C7.54954 12.1225 11.6777 7.96155 16.9854 5.01283C22.3587 1.99858 28.6493 0.491455 35.8573 0.491455C40.7063 0.491455 45.0638 1.14673 48.9299 2.45727C52.8616 3.70229 56.269 5.27494 59.1522 7.17523L61.118 21.0342H60.2333C58.7918 15.2678 55.843 10.9103 51.3872 7.96155C46.9313 4.9473 41.7547 3.44018 35.8573 3.44018C30.0909 3.44018 25.078 4.81625 20.8188 7.56839C16.625 10.255 13.3487 14.0556 10.9897 18.9701C8.69626 23.8191 7.54954 29.52 7.54954 36.0727C7.54954 42.6254 8.69626 48.359 10.9897 53.2736C13.3487 58.1881 16.5923 62.0214 20.7205 64.7736C24.9142 67.5257 29.7632 68.9673 35.2675 69.0984C39.9199 69.0984 44.212 68.2465 48.1436 66.5428C52.1408 64.7736 55.4826 61.9231 58.1692 57.9915C60.8559 53.9944 62.5596 48.6539 63.2804 41.9701H64.0667Z" fill="#9FAAB6"/>
<path d="M115.706 0.491455L144.8 70.0813H136.445L113.74 9.82908L115.706 0.491455ZM94.5733 63.4958C94.1146 64.8063 94.0491 65.9203 94.3767 66.8377C94.7044 67.7551 95.2286 68.4759 95.9494 69.0001C96.7357 69.4588 97.522 69.6881 98.3083 69.6881H99.193V70.671H79.4365V69.6881C79.4365 69.6881 79.6003 69.6881 79.928 69.6881C80.1901 69.6881 80.3211 69.6881 80.3211 69.6881C81.8283 69.6881 83.3681 69.2294 84.9408 68.312C86.579 67.3291 87.9223 65.7237 88.9707 63.4958H94.5733ZM115.706 0.491455L116.59 7.3718L91.9194 70.3762H86.022L111.184 10.6154C111.184 10.6154 111.348 10.2222 111.676 9.43591C112.069 8.58406 112.495 7.56839 112.954 6.3889C113.478 5.20941 113.904 4.06269 114.231 2.94873C114.625 1.83477 114.821 1.01567 114.821 0.491455H115.706ZM129.565 43.8377V46.7864H98.7998V43.8377H129.565ZM133.988 63.4958H142.048C143.031 65.7237 144.341 67.3291 145.979 68.312C147.618 69.2294 149.19 69.6881 150.697 69.6881C150.697 69.6881 150.828 69.6881 151.09 69.6881C151.353 69.6881 151.484 69.6881 151.484 69.6881V70.671H129.368V69.6881H130.253C131.498 69.6881 132.612 69.1639 133.595 68.1155C134.578 67.0015 134.709 65.4616 133.988 63.4958Z" fill="#9FAAB6"/>
<path d="M188.563 2.1624V70.671H182.174V2.1624H188.563ZM213.823 1.76923V4.71796H156.913V1.76923H213.823ZM213.823 4.42308V12.3846L212.84 12.2863V10.6154C212.84 8.97722 212.251 7.60115 211.071 6.48719C209.957 5.37323 208.614 4.78348 207.041 4.71796V4.42308H213.823ZM213.823 0V2.85043L201.832 1.76923C203.274 1.76923 204.781 1.67094 206.353 1.47436C207.992 1.27778 209.499 1.04844 210.875 0.786327C212.251 0.524218 213.234 0.262109 213.823 0ZM182.469 63.4958V70.671H174.605V69.6881C174.605 69.6881 174.802 69.6881 175.195 69.6881C175.654 69.6881 175.883 69.6881 175.883 69.6881C177.587 69.6881 179.029 69.0984 180.208 67.9189C181.453 66.6739 182.108 65.1995 182.174 63.4958H182.469ZM188.268 63.4958H188.563C188.628 65.1995 189.251 66.6739 190.43 67.9189C191.675 69.0984 193.15 69.6881 194.853 69.6881C194.853 69.6881 195.05 69.6881 195.443 69.6881C195.902 69.6881 196.131 69.6881 196.131 69.6881V70.671H188.268V63.4958ZM163.695 4.42308V4.71796C162.057 4.78348 160.681 5.37323 159.567 6.48719C158.453 7.60115 157.896 8.97722 157.896 10.6154V12.2863L156.913 12.3846V4.42308H163.695ZM156.913 0C157.568 0.262109 158.551 0.524218 159.862 0.786327C161.238 1.04844 162.745 1.27778 164.383 1.47436C166.021 1.67094 167.528 1.76923 168.905 1.76923L156.913 2.85043V0Z" fill="#9FAAB6"/>
<path d="M22.3196 77.6189L22.5655 79.6787L14.849 96.8642C14.849 96.8642 14.767 97.0384 14.603 97.3868C14.4596 97.7352 14.3058 98.1554 14.1419 98.6473C13.9779 99.1187 13.8652 99.5696 13.8037 100H13.4963L13.0659 98.0631L22.3196 77.6189ZM3.4125 97.3253V99.5696H0V99.2621C0.0204955 99.2621 0.102477 99.2621 0.245945 99.2621C0.409909 99.2621 0.491891 99.2621 0.491891 99.2621C1.04527 99.2621 1.53716 99.0982 1.96757 98.7702C2.39797 98.4218 2.65416 97.9402 2.73615 97.3253H3.4125ZM4.30405 97.8172C4.30405 97.8377 4.30405 97.8582 4.30405 97.8787C4.30405 97.8992 4.30405 97.9299 4.30405 97.9709C4.30405 98.2988 4.41678 98.6063 4.64223 98.8932C4.88817 99.1597 5.17511 99.2929 5.50304 99.2929H5.96419V99.5696H4.08885V97.8172H4.30405ZM5.04189 77.6189H5.34932L5.96419 79.4327L4.15033 99.5696H2.4902L5.04189 77.6189ZM5.34932 77.6189L14.2034 96.7719L13.4963 100L4.7652 81.0621L5.34932 77.6189ZM22.5963 77.6189L25.2402 99.5696H22.8422L21.1513 80.9392L22.3196 77.6189H22.5963ZM24.3179 97.3253H24.9635C25.066 97.9402 25.3324 98.4218 25.7628 98.7702C26.1932 99.0982 26.6749 99.2621 27.2078 99.2621C27.2078 99.2621 27.2897 99.2621 27.4537 99.2621C27.6177 99.2621 27.6997 99.2621 27.6997 99.2621V99.5696H24.3179V97.3253ZM22.6885 97.8172H22.9037V99.5696H21.0284V99.2929H21.4895C21.8379 99.2929 22.1249 99.1597 22.3503 98.8932C22.5758 98.6063 22.6885 98.2988 22.6885 97.9709C22.6885 97.9299 22.6885 97.8992 22.6885 97.8787C22.6885 97.8582 22.6885 97.8377 22.6885 97.8172Z" fill="#9FAAB6"/>
<path d="M36.9759 78.0492V99.5695H34.9776V78.0492H36.9759ZM45.2766 98.6165V99.5695H36.8837V98.6165H45.2766ZM43.9546 88.5019V89.4242H36.8837V88.5019H43.9546ZM45.2766 78.0492V79.0023H36.8837V78.0492H45.2766ZM47.1519 94.5891L45.3688 99.5695H40.2654L41.3722 98.6165C42.4584 98.6165 43.3397 98.4525 44.0161 98.1246C44.7129 97.7761 45.2766 97.2945 45.707 96.6796C46.1374 96.0648 46.5165 95.3679 46.8445 94.5891H47.1519ZM43.9546 89.3627V91.3918H43.6472V90.9306C43.6472 90.5207 43.5037 90.1723 43.2168 89.8854C42.9298 89.5779 42.5814 89.4242 42.1715 89.4242V89.3627H43.9546ZM43.9546 86.5344V88.5634H42.1715V88.5019C42.5814 88.4814 42.9298 88.3277 43.2168 88.0408C43.5037 87.7333 43.6472 87.3747 43.6472 86.9648V86.5344H43.9546ZM45.2766 78.91V81.3695H44.9691V80.8161C44.9691 80.3242 44.7949 79.9041 44.4465 79.5556C44.0981 79.1867 43.6677 78.992 43.1553 78.9715V78.91H45.2766ZM45.2766 77.4958V78.3874L41.5259 78.0492C41.9768 78.0492 42.4482 78.0185 42.9401 77.957C43.4525 77.8955 43.9239 77.8238 44.3543 77.7418C44.7847 77.6598 45.0921 77.5778 45.2766 77.4958ZM35.0698 97.3252V99.5695H32.6104V99.2621C32.6104 99.2621 32.6718 99.2621 32.7948 99.2621C32.9383 99.2621 33.01 99.2621 33.01 99.2621C33.5429 99.2621 33.9938 99.0776 34.3627 98.7087C34.7521 98.3193 34.9571 97.8581 34.9776 97.3252H35.0698ZM35.0698 80.2935H34.9776C34.9776 79.7606 34.7829 79.3097 34.3935 78.9408C34.004 78.5514 33.5429 78.3567 33.01 78.3567C33.01 78.3567 32.9485 78.3567 32.8256 78.3567C32.7026 78.3567 32.6411 78.3567 32.6411 78.3567L32.6104 78.0492H35.0698V80.2935Z" fill="#9FAAB6"/>
<path d="M63.0919 78.0494C65.2849 78.0494 67.2012 78.5003 68.8409 79.4021C70.501 80.2834 71.7922 81.5336 72.7145 83.1528C73.6573 84.7719 74.1287 86.6575 74.1287 88.8095C74.1287 90.9615 73.6573 92.8471 72.7145 94.4663C71.7922 96.0649 70.501 97.3151 68.8409 98.2169C67.2012 99.1187 65.2849 99.5696 63.0919 99.5696H56.5128L56.4821 98.6473C56.4821 98.6473 56.6973 98.6473 57.1277 98.6473C57.5786 98.6473 58.132 98.6473 58.7878 98.6473C59.4642 98.6473 60.1303 98.6473 60.7861 98.6473C61.442 98.6473 61.9851 98.6473 62.4155 98.6473C62.8664 98.6473 63.0919 98.6473 63.0919 98.6473C64.8545 98.6473 66.3814 98.2374 67.6726 97.4176C68.9843 96.5978 69.9989 95.4501 70.7162 93.9744C71.454 92.4987 71.823 90.7771 71.823 88.8095C71.823 86.8419 71.454 85.1203 70.7162 83.6446C69.9989 82.169 68.9843 81.0212 67.6726 80.2014C66.3609 79.3816 64.834 78.9717 63.0919 78.9717C63.0919 78.9717 62.8562 78.9717 62.3848 78.9717C61.9339 78.9717 61.36 78.9717 60.6632 78.9717C59.9868 78.9717 59.3002 78.9717 58.6034 78.9717C57.927 78.9717 57.3531 78.9717 56.8817 78.9717C56.4103 78.9717 56.1747 78.9717 56.1747 78.9717V78.0494H63.0919ZM57.0355 78.0494V99.5696H55.0372V78.0494H57.0355ZM55.1294 97.3254V99.5696H52.6699V99.2622C52.6699 99.2622 52.7314 99.2622 52.8544 99.2622C52.9978 99.2622 53.0696 99.2622 53.0696 99.2622C53.6025 99.2622 54.0534 99.0778 54.4223 98.7088C54.8117 98.3194 55.0167 97.8583 55.0372 97.3254H55.1294ZM55.1294 80.2936H55.0372C55.0372 79.7607 54.8424 79.3099 54.453 78.9409C54.0636 78.5515 53.6025 78.3568 53.0696 78.3568C53.0696 78.3568 53.0081 78.3568 52.8851 78.3568C52.7621 78.3568 52.7007 78.3568 52.7007 78.3568L52.6699 78.0494H55.1294V80.2936Z" fill="#9FAAB6"/>
<path d="M83.8499 78.0494V99.5696H81.8516V78.0494H83.8499ZM81.9438 97.3254V99.5696H79.4844V99.2622C79.4844 99.2622 79.5459 99.2622 79.6688 99.2622C79.8123 99.2622 79.884 99.2622 79.884 99.2622C80.4169 99.2622 80.8678 99.0778 81.2367 98.7088C81.6261 98.3194 81.8311 97.8583 81.8516 97.3254H81.9438ZM81.9438 80.2936H81.8516C81.8311 79.7607 81.6261 79.3099 81.2367 78.9409C80.8678 78.5515 80.4169 78.3568 79.884 78.3568C79.884 78.3568 79.8123 78.3568 79.6688 78.3568C79.5459 78.3568 79.4844 78.3568 79.4844 78.3568V78.0494H81.9438V80.2936ZM83.7577 97.3254H83.8499C83.8704 97.8583 84.0651 98.3194 84.434 98.7088C84.8234 99.0778 85.2846 99.2622 85.8175 99.2622C85.8175 99.2622 85.879 99.2622 86.0019 99.2622C86.1249 99.2622 86.1966 99.2622 86.2171 99.2622V99.5696H83.7577V97.3254ZM83.7577 80.2936V78.0494H86.2171V78.3568C86.1966 78.3568 86.1249 78.3568 86.0019 78.3568C85.879 78.3568 85.8175 78.3568 85.8175 78.3568C85.2846 78.3568 84.8234 78.5515 84.434 78.9409C84.0651 79.3099 83.8704 79.7607 83.8499 80.2936H83.7577Z" fill="#9FAAB6"/>
<path d="M101.68 77.6189L110.78 99.3851H108.167L101.065 80.5395L101.68 77.6189ZM95.0704 97.3253C94.9269 97.7352 94.9064 98.0836 95.0089 98.3706C95.1114 98.6575 95.2754 98.883 95.5008 99.0469C95.7467 99.1904 95.9927 99.2621 96.2386 99.2621H96.5153V99.5696H90.3359V99.2621C90.3359 99.2621 90.3872 99.2621 90.4897 99.2621C90.5716 99.2621 90.6126 99.2621 90.6126 99.2621C91.084 99.2621 91.5657 99.1187 92.0576 98.8317C92.57 98.5243 92.9901 98.0222 93.318 97.3253H95.0704ZM101.68 77.6189L101.957 79.7709L94.2403 99.4773H92.3957L100.266 80.7855C100.266 80.7855 100.317 80.6625 100.42 80.4165C100.543 80.1501 100.676 79.8324 100.819 79.4635C100.983 79.0946 101.117 78.7359 101.219 78.3875C101.342 78.0391 101.404 77.7829 101.404 77.6189H101.68ZM106.015 91.1767V92.099H96.3924V91.1767H106.015ZM107.398 97.3253H109.919C110.227 98.0222 110.637 98.5243 111.149 98.8317C111.661 99.1187 112.153 99.2621 112.625 99.2621C112.625 99.2621 112.666 99.2621 112.748 99.2621C112.83 99.2621 112.871 99.2621 112.871 99.2621V99.5696H105.954V99.2621H106.23C106.62 99.2621 106.968 99.0982 107.275 98.7702C107.583 98.4218 107.624 97.9402 107.398 97.3253Z" fill="#9FAAB6"/>
<path d="M147.277 90.5925L146.908 95.4192C146.375 96.3005 145.699 97.0896 144.879 97.7865C144.08 98.4628 143.127 99.0059 142.02 99.4158C140.934 99.8053 139.683 100 138.269 100C136.138 99.9795 134.242 99.5081 132.582 98.5858C130.922 97.6635 129.62 96.3723 128.677 94.7121C127.755 93.0315 127.294 91.0537 127.294 88.7787C127.294 86.5447 127.755 84.5976 128.677 82.9375C129.6 81.2568 130.891 79.9554 132.551 79.0331C134.232 78.0903 136.199 77.6189 138.454 77.6189C139.97 77.6189 141.333 77.8239 142.543 78.2338C143.772 78.6232 144.838 79.1151 145.74 79.7094L146.355 84.0442H146.078C145.627 82.2406 144.705 80.8777 143.311 79.9554C141.917 79.0126 140.298 78.5412 138.454 78.5412C136.65 78.5412 135.082 78.9716 133.75 79.8324C132.438 80.6727 131.414 81.8615 130.676 83.3986C129.958 84.9153 129.6 86.6984 129.6 88.7479C129.6 90.7975 129.958 92.5909 130.676 94.128C131.414 95.6652 132.428 96.8642 133.719 97.725C135.031 98.5858 136.548 99.0367 138.269 99.0777C139.724 99.0777 141.067 98.8112 142.297 98.2784C143.547 97.725 144.592 96.8334 145.432 95.6037C146.273 94.3535 146.806 92.6831 147.031 90.5925H147.277Z" fill="#9FAAB6"/>
<path d="M164.611 77.6189C166.804 77.6189 168.731 78.0903 170.391 79.0331C172.051 79.9554 173.342 81.2568 174.264 82.9375C175.207 84.6181 175.679 86.5754 175.679 88.8094C175.679 91.0434 175.207 93.0008 174.264 94.6814C173.342 96.362 172.051 97.6737 170.391 98.6165C168.731 99.5388 166.804 100 164.611 100C162.439 100 160.522 99.5388 158.862 98.6165C157.202 97.6737 155.9 96.362 154.958 94.6814C154.035 93.0008 153.574 91.0434 153.574 88.8094C153.574 86.5754 154.035 84.6181 154.958 82.9375C155.9 81.2568 157.202 79.9554 158.862 79.0331C160.522 78.0903 162.439 77.6189 164.611 77.6189ZM164.611 99.0777C166.353 99.0777 167.87 98.6473 169.161 97.7865C170.473 96.9256 171.487 95.7267 172.205 94.1895C172.942 92.6523 173.311 90.859 173.311 88.8094C173.311 86.7599 172.942 84.9665 172.205 83.4294C171.487 81.8922 170.473 80.6932 169.161 79.8324C167.87 78.9716 166.353 78.5412 164.611 78.5412C162.889 78.5412 161.373 78.9716 160.061 79.8324C158.77 80.6932 157.755 81.8922 157.017 83.4294C156.3 84.9665 155.941 86.7599 155.941 88.8094C155.941 90.859 156.3 92.6523 157.017 94.1895C157.755 95.7267 158.77 96.9256 160.061 97.7865C161.373 98.6473 162.889 99.0777 164.611 99.0777Z" fill="#9FAAB6"/>
<path d="M202.13 77.6189L202.376 79.6787L194.66 96.8642C194.66 96.8642 194.578 97.0384 194.414 97.3868C194.27 97.7352 194.116 98.1554 193.952 98.6473C193.788 99.1187 193.676 99.5696 193.614 100H193.307L192.876 98.0631L202.13 77.6189ZM183.223 97.3253V99.5696H179.811V99.2621C179.831 99.2621 179.913 99.2621 180.057 99.2621C180.22 99.2621 180.302 99.2621 180.302 99.2621C180.856 99.2621 181.348 99.0982 181.778 98.7702C182.209 98.4218 182.465 97.9402 182.547 97.3253H183.223ZM184.115 97.8172C184.115 97.8377 184.115 97.8582 184.115 97.8787C184.115 97.8992 184.115 97.9299 184.115 97.9709C184.115 98.2988 184.227 98.6063 184.453 98.8932C184.699 99.1597 184.986 99.2929 185.314 99.2929H185.775V99.5696H183.899V97.8172H184.115ZM184.852 77.6189H185.16L185.775 79.4327L183.961 99.5696H182.301L184.852 77.6189ZM185.16 77.6189L194.014 96.7719L193.307 100L184.576 81.0621L185.16 77.6189ZM202.407 77.6189L205.051 99.5696H202.653L200.962 80.9392L202.13 77.6189H202.407ZM204.128 97.3253H204.774C204.877 97.9402 205.143 98.4218 205.573 98.7702C206.004 99.0982 206.485 99.2621 207.018 99.2621C207.018 99.2621 207.1 99.2621 207.264 99.2621C207.428 99.2621 207.51 99.2621 207.51 99.2621V99.5696H204.128V97.3253ZM202.499 97.8172H202.714V99.5696H200.839V99.2929H201.3C201.648 99.2929 201.935 99.1597 202.161 98.8932C202.386 98.6063 202.499 98.2988 202.499 97.9709C202.499 97.9299 202.499 97.8992 202.499 97.8787C202.499 97.8582 202.499 97.8377 202.499 97.8172Z" fill="#9FAAB6"/>
<path d="M266.84 0.491455C273.851 0.491455 280.011 1.99858 285.319 5.01283C290.626 7.96155 294.755 12.1225 297.703 17.4958C300.718 22.869 302.225 29.1268 302.225 36.2693C302.225 43.4117 300.718 49.6696 297.703 55.0428C294.755 60.416 290.626 64.6097 285.319 67.624C280.011 70.5727 273.851 72.0471 266.84 72.0471C259.894 72.0471 253.767 70.5727 248.46 67.624C243.152 64.6097 238.991 60.416 235.977 55.0428C233.028 49.6696 231.554 43.4117 231.554 36.2693C231.554 29.1268 233.028 22.869 235.977 17.4958C238.991 12.1225 243.152 7.96155 248.46 5.01283C253.767 1.99858 259.894 0.491455 266.84 0.491455ZM266.84 69.0984C272.41 69.0984 277.259 67.7223 281.387 64.9702C285.581 62.218 288.824 58.3847 291.118 53.4701C293.477 48.5556 294.656 42.822 294.656 36.2693C294.656 29.7166 293.477 23.9829 291.118 19.0684C288.824 14.1539 285.581 10.3205 281.387 7.56839C277.259 4.81625 272.41 3.44018 266.84 3.44018C261.336 3.44018 256.487 4.81625 252.293 7.56839C248.165 10.3205 244.921 14.1539 242.562 19.0684C240.269 23.9829 239.122 29.7166 239.122 36.2693C239.122 42.822 240.269 48.5556 242.562 53.4701C244.921 58.3847 248.165 62.218 252.293 64.9702C256.487 67.7223 261.336 69.0984 266.84 69.0984Z" fill="#9FAAB6"/>
<path d="M216.388 78.0494H220.446C221.758 78.0494 222.885 78.2851 223.828 78.7565C224.77 79.2279 225.498 79.9145 226.01 80.8163C226.523 81.6976 226.779 82.7531 226.779 83.9828C226.779 84.9256 226.594 85.7762 226.226 86.5345C225.857 87.2723 225.365 87.8975 224.75 88.4099C224.135 88.9222 223.438 89.3116 222.659 89.5781C221.881 89.824 221.071 89.9163 220.231 89.8548C219.411 89.7933 218.612 89.5576 217.833 89.1477V88.8403C217.833 88.8403 218.007 88.871 218.355 88.9325C218.704 88.9735 219.144 88.9837 219.677 88.9632C220.231 88.9222 220.805 88.8095 221.399 88.6251C222.014 88.4201 222.577 88.0717 223.09 87.5798C223.623 87.0879 224.022 86.4013 224.289 85.52C224.35 85.2945 224.401 85.0178 224.442 84.6899C224.483 84.3415 224.494 84.0033 224.473 83.6754C224.453 82.2612 224.084 81.1237 223.366 80.2629C222.649 79.4021 221.635 78.9717 220.323 78.9717H216.695C216.695 78.9717 216.664 78.8999 216.603 78.7565C216.562 78.5925 216.511 78.4388 216.449 78.2953C216.408 78.1314 216.388 78.0494 216.388 78.0494ZM216.787 78.0494V99.5696H214.789V78.0494H216.787ZM214.881 97.3254V99.5696H212.422V99.2622C212.422 99.2622 212.483 99.2622 212.606 99.2622C212.75 99.2622 212.822 99.2622 212.822 99.2622C213.354 99.2622 213.805 99.0778 214.174 98.7088C214.564 98.3194 214.769 97.8583 214.789 97.3254H214.881ZM214.881 80.2936H214.789C214.789 79.7607 214.594 79.3099 214.205 78.9409C213.816 78.5515 213.354 78.3568 212.822 78.3568C212.822 78.3568 212.76 78.3568 212.637 78.3568C212.514 78.3568 212.453 78.3568 212.453 78.3568L212.422 78.0494H214.881V80.2936ZM216.695 97.3254H216.787C216.808 97.8583 217.003 98.3194 217.372 98.7088C217.761 99.0778 218.222 99.2622 218.755 99.2622C218.755 99.2622 218.816 99.2622 218.939 99.2622C219.083 99.2622 219.155 99.2622 219.155 99.2622V99.5696H216.695V97.3254Z" fill="#9FAAB6"/>
<path d="M239.812 77.6189L248.912 99.3851H246.299L239.197 80.5395L239.812 77.6189ZM233.202 97.3253C233.059 97.7352 233.038 98.0836 233.141 98.3706C233.243 98.6575 233.407 98.883 233.633 99.0469C233.879 99.1904 234.125 99.2621 234.37 99.2621H234.647V99.5696H228.468V99.2621C228.468 99.2621 228.519 99.2621 228.622 99.2621C228.703 99.2621 228.744 99.2621 228.744 99.2621C229.216 99.2621 229.697 99.1187 230.189 98.8317C230.702 98.5243 231.122 98.0222 231.45 97.3253H233.202ZM239.812 77.6189L240.089 79.7709L232.372 99.4773H230.528L238.398 80.7855C238.398 80.7855 238.449 80.6625 238.552 80.4165C238.675 80.1501 238.808 79.8324 238.951 79.4635C239.115 79.0946 239.248 78.7359 239.351 78.3875C239.474 78.0391 239.535 77.7829 239.535 77.6189H239.812ZM244.147 91.1767V92.099H234.524V91.1767H244.147ZM245.53 97.3253H248.051C248.359 98.0222 248.769 98.5243 249.281 98.8317C249.793 99.1187 250.285 99.2621 250.757 99.2621C250.757 99.2621 250.798 99.2621 250.88 99.2621C250.962 99.2621 251.003 99.2621 251.003 99.2621V99.5696H244.085V99.2621H244.362C244.751 99.2621 245.1 99.0982 245.407 98.7702C245.715 98.4218 245.756 97.9402 245.53 97.3253Z" fill="#9FAAB6"/>
<path d="M257.151 77.5881L275.013 96.6489L275.29 100L257.428 80.9699L257.151 77.5881ZM257.213 97.3868V99.5695H254.661V99.2621C254.661 99.2621 254.753 99.2621 254.938 99.2621C255.122 99.2621 255.225 99.2621 255.245 99.2621C255.758 99.2621 256.198 99.0777 256.567 98.7087C256.936 98.3398 257.121 97.8992 257.121 97.3868H257.213ZM258.535 97.3868C258.535 97.8992 258.719 98.3398 259.088 98.7087C259.457 99.0777 259.898 99.2621 260.41 99.2621C260.431 99.2621 260.533 99.2621 260.718 99.2621C260.902 99.2621 260.994 99.2621 260.994 99.2621V99.5695H258.443V97.3868H258.535ZM257.151 77.5881L258.504 79.3098L258.535 99.5695H257.121V81.431C257.121 80.3858 257.069 79.484 256.967 78.7256C256.885 77.9673 256.844 77.5881 256.844 77.5881H257.151ZM275.29 78.0493V96.0648C275.29 96.7207 275.31 97.356 275.351 97.9709C275.392 98.5653 275.433 99.0572 275.474 99.4466C275.536 99.8155 275.567 100 275.567 100H275.29L273.906 98.3706V78.0493H275.29ZM277.749 78.0493V78.3567C277.749 78.3567 277.657 78.3567 277.473 78.3567C277.288 78.3567 277.196 78.3567 277.196 78.3567C276.684 78.3567 276.243 78.5412 275.874 78.9101C275.505 79.2585 275.31 79.6992 275.29 80.2321H275.198V78.0493H277.749ZM271.416 78.0493H273.968V80.2321H273.906C273.886 79.6992 273.691 79.2585 273.322 78.9101C272.974 78.5412 272.533 78.3567 272 78.3567C272 78.3567 271.908 78.3567 271.724 78.3567C271.539 78.3567 271.437 78.3567 271.416 78.3567V78.0493Z" fill="#9FAAB6"/>
<path d="M286.356 78.0801L292.382 89.3014L291.06 90.3774L283.712 78.0801H286.356ZM292.812 89.6703V99.5696H290.814V89.6703H292.812ZM298.285 78.0801H300.16L292.597 90.3159L291.491 89.9778L298.285 78.0801ZM297.024 80.2629C297.209 79.976 297.26 79.689 297.178 79.4021C297.096 79.0947 296.942 78.8487 296.717 78.6642C296.491 78.4593 296.235 78.3568 295.948 78.3568C295.948 78.3568 295.887 78.3568 295.764 78.3568C295.641 78.3568 295.579 78.3568 295.579 78.3568V78.0494H302.404V78.3568H301.974C301.339 78.3568 300.744 78.5413 300.191 78.9102C299.638 79.2791 299.197 79.6993 298.869 80.1707L297.024 80.2629ZM287.525 80.2629L284.942 80.1707C284.655 79.6993 284.235 79.2791 283.682 78.9102C283.128 78.5413 282.524 78.3568 281.868 78.3568H281.438V78.0494H289V78.3568C289 78.3568 288.929 78.3568 288.785 78.3568C288.662 78.3568 288.601 78.3568 288.601 78.3568C288.15 78.3568 287.801 78.572 287.555 79.0024C287.33 79.4123 287.32 79.8325 287.525 80.2629ZM290.876 97.3254V99.5696H288.447V99.2622C288.447 99.2622 288.508 99.2622 288.631 99.2622C288.754 99.2622 288.826 99.2622 288.847 99.2622C289.379 99.2622 289.83 99.0778 290.199 98.7088C290.589 98.3194 290.794 97.8583 290.814 97.3254H290.876ZM292.72 97.3254H292.812C292.812 97.8583 293.007 98.3194 293.397 98.7088C293.786 99.0778 294.247 99.2622 294.78 99.2622C294.78 99.2622 294.842 99.2622 294.965 99.2622C295.087 99.2622 295.149 99.2622 295.149 99.2622V99.5696H292.72V97.3254Z" fill="#9FAAB6"/>
</svg>
