<svg width="393" height="100" viewBox="0 0 393 100" fill="none" xmlns="http://www.w3.org/2000/svg">
<path d="M49.5544 0.787243C46.4375 0.785077 43.3273 1.07621 40.265 1.6568V44.2437L57.2531 62.9992C58.2921 64.1685 59.5599 65.1124 60.9782 65.7723C62.3964 66.4323 63.9349 66.7943 65.4987 66.836C67.0624 66.8778 68.618 66.5983 70.0695 66.015C71.5209 65.4317 72.8373 64.5568 73.9372 63.4446C76.0581 61.3506 77.2847 58.5159 77.359 55.5364C77.4332 52.5569 76.3495 49.6646 74.3355 47.4675C72.3216 45.2705 69.5342 43.9398 66.5595 43.7552C63.5848 43.5706 60.6544 44.5465 58.3842 46.4777L52.7851 40.2706C55.7109 37.7426 59.3109 36.1234 63.1436 35.6115C66.9762 35.0997 70.8749 35.7175 74.3615 37.3892C77.8482 39.0609 80.7712 41.7138 82.772 45.0225C84.7729 48.3312 85.7647 52.152 85.6257 56.0161C85.4867 59.8803 84.223 63.6199 81.9896 66.7764C79.7563 69.9328 76.6502 72.3689 73.0525 73.7858C69.4548 75.2026 65.5218 75.5388 61.7358 74.7529C57.9498 73.9671 54.4755 72.0934 51.7389 69.3618L30.2475 45.6293C30.0342 45.3723 29.7975 45.1357 29.5405 44.9224C28.7684 44.3375 27.856 43.9661 26.895 43.8454C25.9339 43.7247 24.958 43.8589 24.0652 44.2346C23.1725 44.6103 22.3942 45.2142 21.8087 45.9857C21.2231 46.7573 20.8508 47.6693 20.7292 48.6303C20.6075 49.5912 20.7408 50.5672 21.1157 51.4604C21.4905 52.3535 22.0937 53.1323 22.8647 53.7186C23.6357 54.3049 24.5474 54.678 25.5082 54.8006C26.469 54.9231 27.4452 54.7907 28.3387 54.4168L34.065 60.7793C32.0697 62.1556 29.7487 62.9852 27.333 63.1856C24.9174 63.3861 22.4914 62.9503 20.2965 61.9216C18.1017 60.893 16.2145 59.3074 14.823 57.3228C13.4314 55.3381 12.5839 53.0235 12.3649 50.6095C12.1459 48.1955 12.563 45.7662 13.5747 43.5635C14.5864 41.3608 16.1574 39.4615 18.1313 38.0547C20.1052 36.6478 22.4131 35.7826 24.8254 35.545C27.2377 35.3074 29.6701 35.7058 31.8805 36.7005V4.02509C20.3444 8.41675 10.8659 16.9612 5.30544 27.9817C-0.255072 39.0022 -1.49619 51.7029 1.82565 63.5913C5.14749 75.4798 12.7924 85.6976 23.2602 92.2395C33.7279 98.7813 46.2626 101.175 58.4044 98.9506C70.5461 96.7262 81.4182 90.0445 88.887 80.2166C96.3558 70.3888 99.8821 58.1244 98.7737 45.8305C97.6653 33.5365 92.0024 22.1006 82.8962 13.7671C73.7901 5.43355 61.8982 0.804091 49.5544 0.787243Z" fill="#9FAAB6"/>
<path d="M123.643 3.64893H114.751V47.8375H141.646V39.6073H123.643V3.64893Z" fill="#9FAAB6"/>
<path d="M156.613 15.5623H148.37V47.8372H156.613V15.5623Z" fill="#9FAAB6"/>
<path d="M152.014 0.0237054C145.468 0.556467 146.193 10.3176 152.807 9.93797C159.675 9.543 159.096 -0.551922 152.014 0.0237054Z" fill="#9FAAB6"/>
<path d="M196.738 47.8378V25.8507C196.738 25.0393 196.129 22.8501 195.82 22.005C192.504 13.0032 180.621 13.0093 174.617 19.2463V15.5629H166.374V47.8378H174.617V26.2855C174.617 26.1844 175.719 24.9474 175.912 24.7637C179.381 21.4937 186.224 20.4434 188.012 25.8997C188.147 26.3099 188.496 27.6908 188.496 28.0154V47.8348H196.738V47.8378Z" fill="#9FAAB6"/>
<path d="M123.842 99.7298H129.852L130.318 97.1946H127.179L132.856 64.8798H136.028L136.46 62.3416H130.452L123.842 99.7298Z" fill="#9FAAB6"/>
<path d="M203.887 33.0093C204.889 48.5481 221.144 51.4569 233.177 45.8874V39.3901C227.794 41.2609 219.977 43.6522 215.072 39.6014C213.051 37.9327 212.212 35.6057 211.704 33.1072H234.913C238.281 8.87576 202.31 8.52671 203.887 33.0093ZM212.136 27.6939C214.059 19.7913 225.985 18.8972 227.32 27.6939H212.136Z" fill="#9FAAB6"/>
<path d="M277.828 47.8556L291.089 15.5623H281.977L275.25 34.1905L266.04 17.5096H262.479L253.891 34.6284L246.843 15.5623H237.73L251.068 47.8556H254.549L264.623 29.4263L274.059 47.8556H277.828Z" fill="#9FAAB6"/>
<path d="M327.987 36.0616C331.055 23.4406 321.129 13.707 308.612 14.9777C296.398 16.2177 289.647 29.794 295.902 40.3237C303.364 52.8834 324.472 50.5258 327.987 36.0616ZM310.125 22.121C321.738 20.9054 324.27 38.606 313.046 41.0677C300.397 43.8417 297.43 23.4498 310.125 22.121Z" fill="#9FAAB6"/>
<path d="M344.227 26.2856C344.227 25.8907 346.842 24.5955 347.332 24.4057C350.017 23.3677 352.916 23.2575 355.721 23.7964V14.9139C350.984 14.421 347.087 17.3328 344.227 20.7621V15.563H335.984V47.838H344.227V26.2856Z" fill="#9FAAB6"/>
<path d="M380.231 31.0495C385.755 27.8866 389.448 21.8854 389.989 15.5627H381.53C380.767 21.3373 376.631 27.3018 370.467 27.9081V0.617798H362.225V47.8376H370.467V31.1597L382.828 47.8376H392.372L380.225 31.0495H380.231Z" fill="#9FAAB6"/>
<path d="M145.146 93.7893H148.183L152.558 69.0833H149.521L145.146 93.7893Z" fill="#9FAAB6"/>
<path d="M177.883 78.833C177.482 77.7858 176.759 76.9193 175.712 76.2304C174.665 75.5415 173.342 75.1955 171.741 75.1955C170.14 75.1955 168.541 75.5844 167.084 76.3651C165.626 77.1459 164.389 78.239 163.379 79.6535C162.366 81.0681 161.692 82.7093 161.358 84.577C161.223 85.2659 161.159 85.9457 161.159 86.6131C161.159 88.1043 161.459 89.4178 162.059 90.5537C162.659 91.6897 163.505 92.5623 164.598 93.1747C165.688 93.787 166.946 94.0932 168.37 94.0932C169.95 94.0932 171.395 93.7442 172.708 93.043C174.022 92.3419 175.078 91.457 175.881 90.3884L175.247 93.7932H178.318L181.557 75.4986H178.486L177.886 78.836L177.883 78.833ZM176.882 84.6076C176.637 85.9885 176.141 87.1949 175.397 88.2298C174.65 89.2647 173.762 90.0547 172.727 90.5997C171.692 91.1447 170.608 91.4172 169.472 91.4172C167.981 91.4172 166.756 90.9457 165.801 89.9995C164.843 89.0534 164.365 87.7583 164.365 86.111C164.365 85.5537 164.411 85.0424 164.5 84.5739C164.745 83.193 165.234 81.9928 165.969 80.9671C166.704 79.9444 167.589 79.1637 168.624 78.6309C169.659 78.0981 170.743 77.8287 171.879 77.8287C173.37 77.8287 174.601 78.3002 175.568 79.2463C176.536 80.1924 177.02 81.4784 177.02 83.1012C177.02 83.637 176.974 84.1361 176.885 84.6046L176.882 84.6076Z" fill="#9FAAB6"/>
<path d="M198.943 75.9022H195.906L195.903 75.9175H193.726L193.245 78.0332H195.477L192.74 91.6738H190.474L189.993 93.7895H192.317H195.354H197.681L198.22 91.6738H195.78L198.514 78.0332H200.933L201.472 75.9175H198.94L198.943 75.9022Z" fill="#9FAAB6"/>
<path d="M221.732 75.1615C220.485 75.1615 219.294 75.4187 218.158 75.93C217.022 76.4414 216.076 77.1762 215.32 78.1346L215.789 75.4983H212.751L209.512 93.7928H212.549L214.353 83.6122V83.6796C214.686 81.7659 216.539 79.3072 216.539 79.3072C217.662 78.306 219.025 77.8039 220.629 77.8039C221.964 77.8039 223.005 78.1591 223.749 78.8725C224.493 79.5859 224.867 80.6208 224.867 81.9772C224.867 82.4885 224.821 82.9784 224.732 83.4469L222.895 93.7959H225.899L227.8 83.0121C227.91 82.4548 227.965 81.821 227.965 81.1107C227.965 79.1756 227.399 77.6998 226.263 76.6863C225.127 75.6728 223.615 75.1676 221.722 75.1676L221.732 75.1615Z" fill="#9FAAB6"/>
<path d="M240.042 82.8378H253.364L253.829 80.2689H240.51L240.042 82.8378Z" fill="#9FAAB6"/>
<path d="M282.813 90.7526L281.077 75.4954H277.939L270.728 90.8506L269.228 75.4954H266.123L268.628 93.79H271.763L278.775 79.2339L280.578 93.79H283.716L292.663 75.4954H289.659L282.813 90.7526Z" fill="#9FAAB6"/>
<path d="M311.64 76.5732C310.807 75.8536 309.601 75.4862 308.055 75.4862C306.346 75.4862 304.846 75.9302 303.6 76.8059C302.344 77.6907 301.508 78.9277 301.12 80.4862L301.015 80.9026H303.845L303.918 80.6699C304.169 79.8738 304.625 79.2278 305.274 78.7563C305.924 78.2847 306.72 78.0459 307.644 78.0459C308.462 78.0459 309.08 78.2235 309.484 78.5695C309.879 78.9094 310.069 79.3656 310.069 79.9626C310.069 80.082 310.054 80.2627 310.026 80.4862C309.864 81.3925 309.42 82.0416 308.664 82.4703C307.877 82.9173 306.759 83.15 305.342 83.1653H304.457L303.995 85.673H304.977C306.361 85.673 307.406 85.872 308.076 86.267C308.698 86.6344 309.001 87.21 309.001 88.0245C309.001 88.2143 308.979 88.4378 308.933 88.695C308.786 89.5585 308.394 90.2413 307.742 90.7832C307.096 91.319 306.248 91.5885 305.219 91.5885C304.191 91.5885 303.413 91.316 302.911 90.774C302.399 90.226 302.179 89.5309 302.237 88.6522L302.262 88.297H299.472L299.442 88.597C299.423 88.7654 299.414 89.0043 299.414 89.3074C299.414 90.8414 299.928 92.0447 300.942 92.8836C301.934 93.7042 303.278 94.1237 304.932 94.1237C306.763 94.1237 308.287 93.643 309.463 92.6938C310.645 91.7416 311.38 90.5015 311.655 88.992C311.723 88.4899 311.753 88.1439 311.753 87.9296C311.753 86.9192 311.487 86.0802 310.966 85.4311C310.611 84.9902 310.155 84.6442 309.607 84.3962C310.296 84.1237 310.911 83.7042 311.444 83.147C312.182 82.3754 312.65 81.4446 312.84 80.3821C312.892 80.0759 312.917 79.7728 312.917 79.4789C312.917 78.2847 312.485 77.308 311.637 76.5762L311.64 76.5732Z" fill="#9FAAB6"/>
<path d="M328.839 78.9674L329.439 75.4952H326.402L323.162 93.7898H326.199L327.969 83.8418C328.324 81.8394 329.032 80.4156 330.088 79.5675C331.144 78.7224 332.464 78.2999 334.044 78.2999H334.846L335.413 75.1615C333.989 75.1615 332.721 75.4952 331.607 76.1627C330.495 76.8302 329.571 77.7641 328.836 78.9674H328.839Z" fill="#9FAAB6"/>
<path d="M356.723 75.4948L348.241 83.5719L350.813 69.0833H347.776L343.4 93.7893H346.438L347.874 85.7428L353.618 93.7893H357.757L350.746 84.6405L360.926 75.4948H356.723Z" fill="#9FAAB6"/>
<path d="M375.057 65.1127H378.229L372.488 97.4612H369.35L368.915 99.9995H374.922L381.499 62.6082H375.492L375.057 65.1127Z" fill="#9FAAB6"/>
</svg>
