<svg width="128" height="100" viewBox="0 0 128 100" fill="none" xmlns="http://www.w3.org/2000/svg">
<path d="M49.0245 62.9919C48.7774 62.9919 48.5424 62.9867 48.3176 62.9764C48.0414 62.9644 47.5935 62.9181 47.18 62.858C46.9638 62.8272 46.7991 62.6521 46.7802 62.4359C46.7613 62.2197 46.8935 62.0173 47.1011 61.9504C48.1735 61.5986 49.3317 61.3533 50.4538 61.1148C51.902 60.8076 53.3982 60.4885 54.6799 59.9514L54.7966 59.9051C55.2873 59.7095 55.567 59.5207 55.5481 59.1261C55.5481 59.0935 55.5224 59.066 55.4898 59.0592C51.8471 58.3317 48.0774 58.0382 44.4312 57.7551C42.5438 57.6093 40.5998 57.4583 38.6935 57.249C38.3057 57.2061 37.8578 57.1632 37.3774 57.1168C35.6513 56.9521 33.5065 56.7462 32.1458 56.3653C31.9468 56.3087 31.8078 56.1302 31.8026 55.9226C31.7992 55.715 31.9313 55.5314 32.1287 55.4679C33.5048 55.0287 35.2034 54.8674 37.0034 54.6941C38.7844 54.5242 40.6186 54.3492 42.1234 53.8825C42.1629 53.8705 42.1921 53.8653 42.2212 53.8602L42.2401 53.8567C42.6347 53.783 42.6073 53.6234 42.5936 53.5462C42.5884 53.517 42.5644 53.493 42.5352 53.4878C39.0778 52.8564 35.5106 52.6076 32.0617 52.3657C29.4845 52.1855 26.8336 52.0002 24.2547 51.6588C24.1877 51.6502 24.0985 51.6399 23.9956 51.6296L23.9458 51.6244C23.8823 51.6176 23.8017 51.609 23.7107 51.597C23.4843 51.5695 23.3092 51.3825 23.2989 51.1543C23.2886 50.9261 23.4448 50.7236 23.6678 50.6739C26.0666 50.1557 28.6918 49.9086 31.2313 49.6701C33.5751 49.4505 35.9996 49.2223 38.225 48.783L41.7854 48.0572C41.8214 48.0503 41.8472 48.016 41.8437 47.98C41.8403 47.944 41.8094 47.9148 41.7734 47.9148L9.18273 47.3246C8.98541 47.3211 8.81211 47.1941 8.74862 47.0071C8.68513 46.8201 8.74519 46.6142 8.89961 46.4906C9.46412 46.0377 10.5091 45.2724 11.2709 44.7113L11.3292 44.6684C12.2627 43.9838 13.1429 43.3369 13.4397 43.0727C15.2379 41.4701 16.8542 39.6136 18.4174 37.8188C19.3868 36.7035 20.3854 35.5573 21.4201 34.4798C21.5025 34.394 21.6243 34.2619 21.7701 34.1074C22.7224 33.0831 23.1497 32.6576 23.347 32.534C23.6164 32.3744 23.9818 32.4122 24.7591 32.5615C25.3905 32.6816 26.0975 32.8171 26.5384 32.5443C26.5436 32.5409 26.547 32.5374 26.5522 32.534C27.3861 31.7001 28.1702 30.7907 28.9303 29.9122C29.548 29.1967 30.1812 28.464 30.8332 27.7777C30.967 27.637 31.1386 27.4534 31.3342 27.2441C32.9471 25.5231 34.5343 23.8776 35.2326 23.4727L35.3133 23.4246C35.5106 23.3079 35.653 23.2221 35.8898 23.2719C36.13 23.3217 36.8592 23.4727 41.1763 27.2424L41.2792 27.3316C42.2607 28.1878 42.9384 28.905 43.4824 29.4798C44.143 30.1799 44.541 30.602 44.9357 30.6655C46.0561 30.8491 47.5077 29.8144 50.1433 27.9338L50.169 27.915C52.3584 26.3536 53.4583 25.5694 54.5564 24.3941C56.4472 22.3711 57.9864 20.4047 58.1562 20.1868C58.1648 20.1748 58.1734 20.1645 58.1837 20.1542L58.242 20.0907C59.7245 18.5002 60.1054 18.344 60.2307 18.2925C60.3045 18.2617 60.3851 18.2514 60.464 18.2599C60.7643 18.296 61.1727 18.5431 61.6754 18.8639C62.0752 19.1196 62.4527 19.3598 62.7667 19.437C62.7993 19.4439 62.8199 19.4319 62.8319 19.4216C63.8013 18.6203 64.7588 17.7692 65.6768 16.8941C66.6153 15.9967 67.6911 14.8917 68.7876 13.6992C69.3812 13.0541 69.8788 12.4913 70.3181 11.9954L70.3576 11.9508C71.943 10.1612 72.5984 9.42336 73.4667 9.52631C74.0603 9.59838 74.4704 10.0496 74.7982 10.4117L74.8479 10.4666C75.9718 11.6986 77.0133 13.133 78.0205 14.5194C79.1307 16.0499 80.2785 17.6285 81.5534 18.972C82.2603 19.7167 83.0634 20.4631 83.8423 21.1854C84.5184 21.8134 85.2167 22.462 85.8533 23.1089C85.9545 23.2119 86.0558 23.356 86.1536 23.495C86.471 23.9462 86.7507 24.286 87.1728 24.2671C87.6584 24.2414 88.1611 23.73 88.693 23.1895C89.4531 22.4174 90.3145 21.5458 91.3749 21.7105C91.3835 21.7105 91.392 21.7139 91.4006 21.7156C91.7163 21.7826 92.2431 22.1154 93.9349 24.0749C94.0413 24.1985 94.134 24.3048 94.2077 24.3889C95.0588 25.3498 95.8704 26.3724 96.658 27.3642C97.4438 28.3542 98.2554 29.3769 99.1048 30.336L99.3072 30.5694C99.9249 31.2797 101.071 32.6009 101.637 32.6901C101.963 32.7416 102.324 32.7176 102.67 32.6953H102.687C103.01 32.673 103.315 32.6541 103.575 32.6867C103.6 32.6902 103.624 32.6953 103.65 32.7022C103.813 32.7519 104.154 32.8549 105.809 34.6239L105.958 34.7835C106.92 35.8044 107.856 36.8785 108.76 37.9166C110.386 39.7852 112.064 41.712 113.938 43.3764C114.633 43.9941 115.4 44.5466 116.141 45.0819C116.606 45.4165 117.133 45.7974 117.619 46.1818C117.773 46.3036 117.835 46.5078 117.773 46.6931C117.713 46.8801 117.543 47.0088 117.348 47.0157L77.1677 48.668C77.1283 48.668 77.0991 48.7007 77.0991 48.7401C77.0991 48.8379 77.0991 48.9992 77.7271 49.0696L77.7511 49.073C77.7923 49.0781 77.83 49.0816 77.8575 49.0867C80.5977 49.598 83.645 49.7061 86.5928 49.8108C89.9387 49.9292 93.3841 50.0527 96.4109 50.7614C96.6254 50.8111 96.7764 51.005 96.7729 51.2264C96.7695 51.4477 96.6099 51.6347 96.3937 51.6776C95.5684 51.8372 94.1906 52.0139 93.0839 52.1564C90.7932 52.4515 88.4391 52.7535 87.8265 53.1189C87.8042 53.1327 87.7905 53.155 87.7905 53.1807C87.7905 53.2065 87.8042 53.2305 87.8265 53.2425C88.307 53.529 88.935 53.6526 89.4892 53.7607C89.6505 53.7915 89.8049 53.8224 89.9525 53.855C90.9991 54.0884 92.171 54.2806 93.3035 54.4676C95.2184 54.7833 97.1985 55.1093 98.8336 55.6567L98.9864 55.7064C99.0258 55.7184 99.0687 55.7322 99.1082 55.7459C99.3192 55.8162 99.4514 56.0273 99.4239 56.2469C99.3964 56.4683 99.2163 56.6398 98.9949 56.657C96.9565 56.8131 94.9284 57.1786 92.9706 57.7466C91.4246 58.1944 89.9027 58.7726 88.446 59.4658C88.2898 59.5413 88.1028 59.5225 87.9638 59.4178C83.192 55.8454 78.9007 53.8139 75.21 53.378C72.9571 53.1121 71.3339 52.5682 68.6434 51.6656C68.3003 51.5507 67.9399 51.4306 67.5573 51.3019C65.4022 50.5846 64.2989 49.8537 64.2766 49.1279C64.2474 48.1705 65.8912 47.3246 68.9334 46.0994C69.6197 45.8232 70.2683 45.5624 70.7814 45.317C71.8847 44.7885 72.9639 44.2154 72.9691 43.512C72.9725 43.0229 72.4698 42.5356 71.4317 42.0192C67.8679 40.245 59.7949 39.267 56.7561 38.8981L56.4335 38.8586C55.1861 38.7059 53.8958 38.5515 52.6244 38.5755C52.6038 38.5755 52.5832 38.5858 52.5695 38.6012C52.5557 38.6167 52.5506 38.639 52.554 38.6596C52.5866 38.8689 52.8663 38.9787 53.1751 39.0799C53.2266 39.0971 53.2747 39.1125 53.3107 39.1263C54.6714 39.6633 56.1127 40.0442 57.5059 40.4131C58.6109 40.7066 59.7554 41.0085 60.8484 41.386C63.4993 42.3023 63.7344 42.7759 63.7464 43.1482C63.767 43.5617 63.2351 44.0044 62.1627 44.4557C61.0903 44.9069 59.3831 45.3239 57.578 45.7631C53.9936 46.6365 50.3028 47.5356 49.1086 49.0713C48.5407 49.8022 48.5235 49.9669 48.9199 50.8249C49.5856 52.2679 52.5111 53.5187 55.0934 54.622C56.4867 55.2174 57.7925 55.7768 58.568 56.2915C59.812 57.1151 60.4314 57.8804 60.464 58.6302C60.4898 59.2222 60.1346 59.8176 59.4054 60.3992C57.2005 62.1597 52.2297 62.9919 49.0348 62.9919H49.0245ZM34.699 55.8849C35.617 56.005 36.595 56.0976 37.4632 56.1817C37.9505 56.228 38.4035 56.2726 38.7947 56.3155C40.6855 56.5232 42.6227 56.6742 44.4981 56.82C48.1769 57.1065 51.9758 57.4017 55.6717 58.1395C56.1264 58.2304 56.4593 58.6182 56.4816 59.0815C56.5348 60.2225 55.5224 60.624 55.1415 60.775L55.0334 60.8196C53.7723 61.3481 52.355 61.6672 50.9669 61.9641C53.7946 61.7153 57.1954 60.9586 58.81 59.67C59.2767 59.296 59.5289 58.9425 59.5169 58.6748C59.5083 58.4826 59.347 57.9439 58.0395 57.0757C57.3343 56.609 56.0663 56.065 54.7228 55.4902C51.8436 54.26 48.8752 52.9902 48.0585 51.2212C47.5146 50.0442 47.5746 49.5105 48.3588 48.4999C49.752 46.7051 53.6058 45.7666 57.3326 44.8589C59.1137 44.4248 60.7849 44.0181 61.7887 43.5943C62.2142 43.4159 62.4733 43.2683 62.6277 43.1619C62.3617 42.9955 61.7801 42.7038 60.5327 42.2731C59.4723 41.9076 58.3467 41.6091 57.2571 41.3208C55.8381 40.9451 54.3694 40.5573 52.9607 40.0013C52.9384 39.9928 52.9075 39.9825 52.8732 39.9722C52.5042 39.8504 51.7424 39.5981 51.6189 38.8037C51.5743 38.5154 51.6566 38.2237 51.8437 38.0007C52.0307 37.7776 52.3052 37.6472 52.5952 37.6404C53.9353 37.6129 55.2582 37.7742 56.5382 37.9303L56.8573 37.9681C59.9441 38.3421 68.1338 39.3356 71.8418 41.1818C72.7289 41.6228 73.9076 42.3469 73.8991 43.5222C73.8888 44.7662 72.607 45.4817 71.1777 46.1646C70.6372 46.422 69.9766 46.6897 69.2766 46.9711C66.7783 47.9766 65.4159 48.6869 65.2203 49.085C65.3181 49.224 65.7969 49.7336 67.8456 50.4148C68.2282 50.5417 68.5902 50.6636 68.9334 50.7785C71.6564 51.6914 73.1561 52.1941 75.3112 52.448C79.1101 52.8959 83.4752 54.9309 88.2915 58.4998C89.7157 57.8375 91.1982 57.2816 92.7029 56.8457C93.9469 56.4854 95.2184 56.204 96.5035 56.0033C95.4243 55.7682 94.2729 55.5777 93.1456 55.3924C91.9994 55.2037 90.8155 55.0081 89.7448 54.7696C89.6041 54.7387 89.4583 54.7095 89.309 54.6804C88.6759 54.5551 87.9638 54.4161 87.3427 54.0455C87.039 53.8636 86.8485 53.5325 86.8485 53.1773C86.8485 52.8221 87.0372 52.4909 87.3427 52.3091C88.0444 51.8904 89.6659 51.6467 92.9449 51.2247C93.0718 51.2092 93.2005 51.1921 93.3327 51.1749C91.1501 50.9072 88.832 50.8249 86.5671 50.7442C83.5747 50.6378 80.4913 50.528 77.6825 50.0047C77.6756 50.0047 77.6619 50.003 77.6482 50.0013L77.619 49.9978C76.4093 49.8623 76.1571 49.236 76.1571 48.735C76.1571 48.1928 76.5826 47.7501 77.1248 47.7278L115.994 46.1286C115.858 46.0308 115.723 45.933 115.589 45.8369C114.829 45.2878 114.041 44.7216 113.312 44.0713C111.394 42.3658 109.697 40.4166 108.055 38.5309C107.152 37.4945 106.224 36.4272 105.273 35.4201L105.122 35.2605C103.913 33.9667 103.504 33.6716 103.391 33.6047C103.224 33.5927 102.991 33.6081 102.746 33.6236H102.729C102.349 33.6493 101.919 33.6785 101.488 33.6098C100.726 33.4897 99.9163 32.697 98.5986 31.1785L98.3978 30.9486C97.5348 29.974 96.7146 28.941 95.9219 27.9407C95.1429 26.9592 94.3381 25.9452 93.5042 25.0049C93.427 24.9174 93.3327 24.8093 93.2246 24.6823C91.7404 22.9631 91.296 22.6748 91.1964 22.6268C90.6233 22.5633 89.9799 23.2136 89.3588 23.8416C88.7239 24.4867 88.0685 25.1525 87.2191 25.1971C86.2428 25.2486 85.7057 24.485 85.3849 24.0286C85.3197 23.9342 85.2287 23.8072 85.1824 23.7592C84.563 23.1278 83.8715 22.4878 83.204 21.8666C82.4148 21.134 81.5997 20.3773 80.8722 19.6103C79.5545 18.2222 78.3894 16.6179 77.2621 15.065C76.2686 13.6958 75.2426 12.2837 74.1547 11.0894L74.105 11.0345C73.8562 10.7617 73.6005 10.4786 73.3534 10.4494C72.9897 10.4048 72.3171 11.1444 71.0593 12.5651L71.0199 12.6097C70.5772 13.109 70.0762 13.6735 69.4773 14.3255C68.3672 15.5335 67.2776 16.6539 66.3236 17.565C65.3902 18.4573 64.4156 19.3238 63.4273 20.1388C63.1802 20.3413 62.8508 20.4168 62.5436 20.3395C62.0821 20.228 61.6394 19.9449 61.1727 19.6481C61.0234 19.552 60.6768 19.3306 60.4675 19.2311C60.2787 19.3701 59.8395 19.7441 58.9266 20.7239L58.882 20.7719C58.6555 21.0636 57.1181 23.018 55.241 25.0255C54.0794 26.2695 52.9538 27.0725 50.7129 28.6699L50.6872 28.6888C47.8492 30.7135 46.2843 31.8305 44.7847 31.5834C44.0778 31.4685 43.5699 30.9314 42.8012 30.1181C42.2693 29.5553 41.6104 28.857 40.6632 28.0316L40.5603 27.9424C37.1904 25.0015 36.1146 24.3597 35.7988 24.219C35.7954 24.2208 35.792 24.2242 35.7885 24.2259L35.7045 24.2757C35.025 24.6686 32.9197 26.9146 32.0206 27.8738C31.8181 28.09 31.6465 28.2736 31.511 28.416C30.8744 29.0852 30.2481 29.811 29.6441 30.511C28.8686 31.4101 28.0724 32.3315 27.2145 33.1895C27.1596 33.2444 27.0978 33.2924 27.0326 33.3336C26.2811 33.8003 25.3442 33.6219 24.591 33.4777C24.4108 33.4434 23.9818 33.361 23.7965 33.361C23.6576 33.4794 23.3075 33.826 22.4582 34.7389C22.3089 34.9002 22.1836 35.034 22.0979 35.1232C21.0786 36.1853 20.0886 37.3229 19.1312 38.4245C17.544 40.2467 15.9088 42.1273 14.066 43.7676C13.7366 44.061 12.9198 44.6598 11.8869 45.4182L11.8286 45.4611C11.4408 45.746 10.9792 46.084 10.5485 46.4066L41.7957 46.9728C42.3104 46.9814 42.736 47.376 42.7823 47.8908C42.8286 48.4038 42.4837 48.8688 41.9793 48.9718L38.4155 49.6976C36.1403 50.1471 33.6918 50.377 31.3239 50.6001C29.9427 50.7288 28.5357 50.8609 27.1596 51.0376C28.8188 51.1955 30.4866 51.3122 32.1201 51.4271C35.6084 51.6708 39.2031 51.9213 42.7102 52.563C43.1255 52.6385 43.4532 52.9697 43.5235 53.3866C43.6196 53.9563 43.3159 54.6066 42.4185 54.7747L42.398 54.7782C40.8091 55.2689 38.9268 55.449 37.1046 55.6241C36.2707 55.703 35.4625 55.7819 34.7041 55.8849H34.699Z" fill="#9FAAB6"/>
<path d="M53.4432 0.00171757C45.6276 0.00171757 39.1795 5.85444 38.2392 13.4144C47.1907 14.5709 50.8472 15.1063 52.4738 15.3585C53.1086 15.458 54.4607 15.6742 54.4504 15.8458C54.4384 16.0242 52.9645 16.0654 52.4738 16.0808C50.341 16.1461 46.271 16.3434 38.1963 16.8393C38.3473 18.2685 38.9255 21.9096 41.7841 25.2623C43.9392 27.7897 46.6871 28.9629 48.0186 29.5C50.3572 28.3933 51.6656 27.1926 52.6745 26.2918C55.9261 23.3903 57.5098 21.0842 57.5098 21.0842C58.4586 19.7047 59.0186 19.6481 60.1659 18.3749C61.1456 18.1913 62.1301 19.2279 62.7667 19.7203C63.2849 19.3892 63.9763 18.6735 64.5186 18.2599C66.1091 17.0451 67.1562 15.6159 68.136 14.4439C68.2681 13.5242 68.3625 12.0418 67.9163 10.3242C67.3656 8.20686 66.2571 6.86336 65.6429 6.05348C63.3488 3.02846 58.9545 0 53.4415 0L53.4432 0.00171757Z" fill="#9FAAB6"/>
<path d="M92.2906 37.1446C91.4653 36.8512 89.607 35.6707 89.0099 35.681C87.4691 35.7084 83.1932 39.3186 81.5306 39.9997C81.3436 39.7647 82.5858 36.8375 82.5893 36.1614C82.5893 35.9607 82.6133 35.8646 82.3628 35.9366C81.3453 36.2335 79.59 37.426 78.4695 37.9167C77.1621 38.4898 75.6779 39.0337 74.3018 39.3958C75.9575 36.9919 78.9963 36.1014 81.081 34.3546C82.4074 33.2428 83.6085 31.424 84.8404 30.132C86.5048 28.3869 88.4145 26.8787 90.0412 25.0925C90.5422 29.0338 87.1534 31.333 85.4478 34.4267C85.8785 34.7493 89.3531 32.565 90.1578 32.7967L95.0857 37.8893C94.1677 37.6353 93.1932 37.462 92.2941 37.1429L92.2906 37.1446Z" fill="#9FAAB6"/>
<path d="M63.834 35.1816L67.523 23.5877C67.4098 23.4624 66.8281 23.9428 66.7114 24.0544C65.3988 25.3104 64.3916 27.1189 63.0893 28.4143C62.4578 28.8793 61.4712 28.2222 60.9016 28.483L55.7009 33.8278L56.2276 30.9675C55.9926 30.7273 53.1546 32.6422 52.6124 32.8463C51.1505 33.3988 49.6628 33.5001 48.5561 32.2304C48.4514 31.7276 51.799 30.1096 52.3601 29.7338C55.2891 27.776 57.5814 24.4422 60.3697 22.2356C61.4953 23.8124 60.0848 25.101 59.7211 26.4034C59.6593 26.6247 59.6061 26.81 59.9167 26.7482C64.4328 23.1227 67.5281 18.1159 71.967 14.4011L71.0062 18.4093C70.6561 19.8111 71.5466 20.8663 72.7941 21.3296C72.1197 22.505 70.1946 24.0406 70.2289 25.4631C70.2443 26.134 70.886 27.3539 70.6115 27.951L64.812 34.3546L63.834 35.1833V35.1816Z" fill="#9FAAB6"/>
<path d="M73.6976 30.8903C73.5037 31.7963 69.6945 33.3937 68.7285 33.6751L73.6976 28.5568V30.8903Z" fill="#9FAAB6"/>
<path d="M31.982 39.6994C31.2631 39.4592 31.4021 37.1531 31.2305 36.9884C31.1087 36.9798 30.9869 36.9815 30.865 36.9953C29.6005 37.1497 26.2992 40.2365 24.9797 40.9022C24.7275 40.9348 24.7395 40.9159 24.7549 40.6792C24.7961 40.0151 25.2216 39.3116 24.9849 38.6476C23.1472 39.4695 21.4554 40.9434 19.4873 41.3552L24.314 35.8679C24.9523 35.2176 25.8428 36.2489 26.3438 36.2351C26.5137 36.23 27.1451 35.7152 27.3201 35.5625C29.0239 34.0766 30.7363 31.2729 32.2875 29.5365C32.924 28.8244 33.6739 28.2067 34.3207 27.5049L33.2003 32.4088C33.2346 33.0488 34.7274 33.1552 34.6725 33.7266C34.6347 34.1126 33.3032 36.1047 33.0133 36.7396C32.5912 37.6644 32.2634 38.7231 31.9838 39.7028L31.982 39.6994Z" fill="#9FAAB6"/>
<path d="M33.79 41.2042L38.1551 37.2903C38.0779 39.6839 35.6963 40.5281 33.79 41.2042Z" fill="#9FAAB6"/>
<path d="M11.6185 73.7154H8.7565C8.87146 71.6564 7.11101 70.2031 5.10519 70.8929C2.54516 71.7731 2.55374 76.6735 3.55235 78.6948C4.95934 81.5397 8.91779 80.4707 8.7565 77.3324H11.6185C11.6769 81.7439 6.73352 83.9281 3.0805 81.8777C-1.07355 79.5476 -1.04438 71.2275 3.27782 69.0672C6.97202 67.2193 11.6648 69.3641 11.6185 73.7172V73.7154Z" fill="#9FAAB6"/>
<path d="M15.3862 68.5925V80.044H20.508V82.4547H12.5225V68.5925H15.3862Z" fill="#9FAAB6"/>
<path d="M13.8808 91.0424H11.0188C11.2745 88.2559 7.85651 87.0805 6.19729 89.3094C5.00135 90.9154 4.98591 94.7057 6.07204 96.3649C7.65919 98.7894 11.1732 97.6707 11.0188 94.8087H13.8808C13.874 100.109 6.86647 101.756 3.78482 97.7462C2.03638 95.471 1.99005 91.2037 3.36101 88.7346C5.99654 83.9903 13.8843 85.3527 13.8791 91.0407L13.8808 91.0424Z" fill="#9FAAB6"/>
<path d="M20.208 99.7829L23.5951 86.2174L28.1026 86.0613L31.5102 99.7829H28.6482L27.9053 96.6841L23.9194 96.6103L22.998 99.7829H20.2097H20.208ZM27.4403 94.3574L25.8583 88.0276L24.4273 94.3574H27.4403Z" fill="#9FAAB6"/>
<path d="M20.6582 82.4547L24.0659 68.5838L28.6386 68.5993L31.9604 82.4547H29.1722L28.328 79.1551L24.258 79.2272L23.5219 82.4547H20.6599H20.6582ZM27.7412 77.0309L26.3102 70.5502L24.8792 77.0309H27.7412Z" fill="#9FAAB6"/>
<path d="M38.8167 68.5925C39.1633 68.6285 39.896 68.8379 40.246 68.9717C43.2419 70.1128 43.0686 75.0406 39.9458 75.9003C43.2247 76.3807 41.6015 80.2448 42.2072 82.4548H39.57C38.6108 81.1559 39.8102 78.5633 38.743 77.4051C38.6606 77.3159 38.2763 77.031 38.2128 77.031H35.2752V82.4548H32.5625V68.5925C34.5615 68.7469 36.8538 68.3849 38.815 68.5925H38.8167ZM35.2752 74.7695H38.0635C38.1716 74.7695 38.8373 74.3114 38.9609 74.1604C39.7313 73.2236 39.3572 70.8523 38.0635 70.8523H35.2752V74.7695Z" fill="#9FAAB6"/>
<path d="M46.2752 86.0716V88.3314H42.9602V99.7829H40.0965V88.3314H36.7832V86.0716H46.2752Z" fill="#9FAAB6"/>
<path d="M46.1237 68.5925V74.7695L50.7188 68.5925H53.658L49.2895 74.6957L53.9583 82.4547H50.7943L47.553 76.88L46.1237 78.613V82.4547H43.2617V68.5925H46.1237Z" fill="#9FAAB6"/>
<path d="M51.5488 99.7829L54.9359 86.2174L59.4434 86.0613L62.8511 99.7829H59.989L59.2461 96.6841L55.2602 96.6103L54.3388 99.7829H51.5505H51.5488ZM58.7828 94.3574L57.2008 87.8766L55.7698 94.3574H58.7828Z" fill="#9FAAB6"/>
<path d="M69.3301 73.716H66.4681C66.5933 70.5914 62.6898 69.519 61.221 72.3107C60.1572 74.3337 60.2362 79.4314 62.9197 80.2019C64.9856 80.7955 66.4252 79.3371 66.4681 77.3313H69.3301C69.1173 83.6044 60.4386 84.615 58.2578 78.836C57.4428 76.6775 57.4874 73.5393 58.5735 71.4717C61.2142 66.446 69.234 67.8444 69.3301 73.7143V73.716Z" fill="#9FAAB6"/>
<path d="M75.0201 68.4843C84.531 67.3381 84.4915 83.3761 75.2809 82.604C68.0435 81.9983 67.793 69.356 75.0201 68.4843ZM73.8997 79.5395C75.5554 81.0837 78.0039 80.2704 78.7846 78.2766C79.7627 75.7835 79.3371 70.3151 75.5966 70.7115C72.086 71.0838 71.8801 77.6572 73.8997 79.5395Z" fill="#9FAAB6"/>
<path d="M72.9441 86.0716V97.3721H78.0675V99.7829H70.082V86.0716H72.9441Z" fill="#9FAAB6"/>
<path d="M85.2246 86.0716L87.5616 92.0976L89.9706 86.0716H92.9854L89.0664 95.0369V99.7829H86.4309L86.2044 99.5564V94.7349L82.2871 86.0716H85.2246Z" fill="#9FAAB6"/>
<path d="M109.26 90.4401H106.398C107.25 86.9947 100.874 87.7566 102.448 90.399C103.536 92.2263 108.973 91.8454 109.395 95.5036C110.099 101.617 98.4927 101.458 99.4673 95.2617H102.18C102.156 97.1868 103.271 97.9092 105.106 97.6587C106.797 97.427 107.156 95.8896 105.787 94.8945C103.707 93.3845 99.7539 93.6728 99.4845 90.0438C99.0607 84.2992 110.219 84.5153 109.261 90.4401H109.26Z" fill="#9FAAB6"/>
<path d="M125.983 86.0716C125.883 86.7854 126.226 87.7651 125.756 88.3314H122.517V99.7829H119.804V88.3314H116.565C116.096 87.7651 116.439 86.7854 116.338 86.0716H125.981H125.983Z" fill="#9FAAB6"/>
<path d="M85.9034 68.5925V78.764C85.9034 78.9887 86.5005 79.8793 86.7493 80.0268C87.5798 80.521 89.0623 80.4678 89.752 79.7506C90.0146 79.4778 90.4229 78.5014 90.4229 78.1617V68.5942H93.2849V78.3127C93.2849 78.522 92.9246 79.6734 92.8131 79.9496C91.3066 83.697 84.3986 83.522 83.2644 79.5927C83.1323 79.1329 82.8887 77.9798 82.8887 77.5577V68.5925H85.9017H85.9034Z" fill="#9FAAB6"/>
<path d="M99.0117 68.5925L103.08 79.893V68.5925H105.944V82.2282L105.717 82.4547H101.498L97.2032 71.3052V82.4547H94.4922V68.5925H99.0117Z" fill="#9FAAB6"/>
<path d="M116.189 68.5925V70.8522H112.874V82.2282L112.649 82.4547H110.012V70.8522H106.546V68.5925H116.189Z" fill="#9FAAB6"/>
<path d="M119.353 68.5925L121.762 74.6185L124.023 68.5925H127.036L123.119 77.5577V82.4547H120.257V77.5577C120.257 76.8834 116.858 70.4782 116.408 69.0506C116.36 68.8945 116.311 68.7606 116.34 68.5925H119.353Z" fill="#9FAAB6"/>
</svg>
