<svg width="399" height="100" viewBox="0 0 399 100" fill="none" xmlns="http://www.w3.org/2000/svg">
<path d="M93.2342 49.9313L85.9282 46.2656H85.9195L66.5943 36.59L66.5858 19.9864L93.2342 33.302V49.9313ZM106.473 26.6054L56.6699 1.65703V99.751C56.6699 99.8199 56.7301 99.8885 56.8074 99.8885C57.1163 99.9056 57.434 99.9314 57.7431 99.94C58.4729 99.9829 59.2025 100 59.9324 100C60.662 100 61.3918 99.9829 62.1129 99.94C63.6239 99.8798 65.1091 99.7339 66.5858 99.5278C76.5875 98.1028 85.8509 93.4753 93.174 86.1522C93.8265 85.5084 94.4446 84.8472 95.0543 84.1691C97.7757 81.1299 100.059 77.7988 101.879 74.2618L90.0319 68.3293L73.248 59.9159V73.2659L82.6315 77.9534C78.1931 81.9798 72.6812 84.8472 66.5858 86.0663V49.94L92.2898 62.7919L104.266 68.7757H104.275C104.283 68.75 104.292 68.7242 104.3 68.69C105.829 64.449 106.55 59.9588 106.55 55.4517V26.7342C106.55 26.6827 106.515 26.6312 106.473 26.6054Z" fill="#9FAAB6"/>
<path d="M28.2794 24.9657L23.2313 30.0223V19.6L30.1682 23.077L28.2794 24.9657ZM53.3653 2.28882e-05C53.3053 0.00868289 53.2623 0.0171274 53.2023 0.0257874L32.0914 21.1625L23.2313 16.724L13.3154 26.6484V39.9469L0 53.2796V66.2518C0 66.3807 0.154364 66.4493 0.240314 66.3549L23.2313 43.3637L39.9553 26.6484L53.2709 13.3243L56.6706 15.024L56.6699 1.65703L53.3653 2.28882e-05Z" fill="#9FAAB6"/>
<path d="M39.9553 63.2704H23.3348L39.9553 46.6458V63.2704ZM23.2333 50.0242L20.8669 52.3947L13.3496 59.9202L13.4104 60.3024C13.9675 63.7785 14.9108 67.157 16.2117 70.3893C17.2202 72.9059 18.4519 75.3251 19.879 77.6263C20.5093 78.6425 21.172 79.6345 21.8834 80.5982V80.6023C22.2737 81.139 22.6803 81.6674 23.1032 82.1918C23.1397 82.249 23.1843 82.3057 23.2333 82.3587V81.6064C23.2333 77.1097 26.7094 73.288 31.202 73.0847C31.328 73.0808 31.4581 73.0767 31.5882 73.0767C32.0476 73.0767 32.5029 73.1133 32.942 73.1865C33.7023 73.3084 34.43 73.5279 35.1092 73.8369C38.1014 75.1991 39.9553 78.2645 39.9553 81.5536V95.4223C39.9553 95.4788 39.988 95.5306 40.0393 95.5544C43.1303 97.0015 46.3674 98.1091 49.6943 98.8543C49.7848 98.8746 49.8714 98.8049 49.8714 98.7121V23.3577L39.9553 33.286L23.2333 50.0242Z" fill="#9FAAB6"/>
<path d="M131.853 38.4925L134.356 33.5241C134.594 33.0233 134.827 32.5352 135.053 32.0581C135.28 31.5812 135.488 31.1168 135.679 30.6639C135.764 30.4625 135.838 30.2608 135.917 30.0594C135.982 30.2314 136.042 30.4005 136.108 30.5743C136.274 31.0152 136.471 31.4742 136.698 31.9506C136.924 32.4275 137.181 32.9518 137.467 33.5241L139.983 38.4925H131.853ZM132.891 22.2627L120.379 47.287H127.421L129.331 43.4972H142.518L144.438 47.287H151.623L139.183 22.2627H132.891Z" fill="#9FAAB6"/>
<path d="M173.607 40.5838C173.273 40.9297 172.826 41.1858 172.267 41.3524C171.706 41.5197 171.069 41.6031 170.354 41.6031H161.346V36.8836H170.176C170.676 36.8836 171.236 36.9497 171.856 37.081C172.475 37.2124 173.005 37.4377 173.446 37.76C173.887 38.0815 174.108 38.5764 174.108 39.2438C174.108 39.7917 173.941 40.2388 173.607 40.5838ZM161.346 27.9472H168.96C170.033 27.9472 170.932 28.0902 171.659 28.3761C172.386 28.6613 172.749 29.1621 172.749 29.8773C172.749 30.3298 172.594 30.7119 172.285 31.0215C171.975 31.3313 171.546 31.5639 170.997 31.7189C170.449 31.8735 169.806 31.9504 169.067 31.9504H161.346V27.9472ZM177.844 34.5072C177.22 34.1679 176.571 33.8943 175.901 33.6751C176.986 33.276 177.838 32.7074 178.451 31.9685C179.274 30.9801 179.685 29.7703 179.685 28.3402C179.685 27.1014 179.285 26.0287 178.487 25.1226C177.688 24.2172 176.521 23.5136 174.984 23.014C173.446 22.5132 171.546 22.2625 169.282 22.2625H154.732V47.2868H170.211C171.379 47.2868 172.589 47.1736 173.84 46.9475C175.091 46.7211 176.258 46.3281 177.343 45.7678C178.427 45.2083 179.309 44.4332 179.988 43.4436C180.668 42.4552 181.007 41.1858 181.007 39.6367C181.007 38.3975 180.715 37.3608 180.132 36.5269C179.547 35.6923 178.785 35.0196 177.844 34.5072Z" fill="#9FAAB6"/>
<path d="M215.79 36.4555C215.79 36.3604 215.784 36.1096 215.772 35.7039C215.76 35.2993 215.742 34.8468 215.719 34.3461C215.695 33.8453 215.671 33.4164 215.647 33.0586H200.347V38.1348H208.84C208.744 38.4091 208.61 38.6722 208.426 38.9215C208.021 39.4702 207.461 39.9347 206.746 40.316C206.031 40.6978 205.179 40.995 204.19 41.2094C203.201 41.4239 202.111 41.5317 200.919 41.5317C199.798 41.5317 198.72 41.4184 197.684 41.192C196.647 40.9659 195.723 40.59 194.913 40.066C194.103 39.5417 193.465 38.8384 193 37.9566C192.536 37.0749 192.303 35.9667 192.303 34.632C192.303 33.6309 192.523 32.7074 192.965 31.8619C193.406 31.0153 194.019 30.2884 194.806 29.681C195.592 29.0732 196.515 28.5964 197.576 28.2506C198.637 27.9055 199.786 27.7327 201.026 27.7327C202.265 27.7327 203.386 27.8637 204.386 28.1254C205.387 28.3881 206.299 28.7158 207.121 29.1087C207.943 29.5017 208.688 29.9372 209.355 30.4133L213.574 25.6949C212.811 25.0275 211.828 24.3845 210.625 23.7644C209.421 23.1453 208.021 22.6329 206.424 22.2273C204.827 21.8227 203.064 21.6198 201.133 21.6198C198.75 21.6198 196.563 21.9413 194.573 22.5847C192.583 23.2277 190.861 24.1338 189.407 25.3019C187.954 26.4696 186.828 27.8456 186.03 29.4303C185.231 31.0153 184.832 32.7498 184.832 34.632C184.832 36.8249 185.201 38.7379 185.94 40.3694C186.679 42.0023 187.728 43.3544 189.086 44.427C190.445 45.4997 192.053 46.3038 193.912 46.8397C195.771 47.3764 197.809 47.6446 200.025 47.6446C202.408 47.6446 204.565 47.4055 206.496 46.9294C208.426 46.4529 210.082 45.7497 211.465 44.82C212.847 43.891 213.914 42.7288 214.664 41.3343C215.415 39.9401 215.79 38.3141 215.79 36.4555Z" fill="#9FAAB6"/>
<path d="M255.865 31.8437H242.781V22.2625H235.703V47.2868H242.781V38.0633H255.865V47.2868H262.943V22.2625H255.865V31.8437Z" fill="#9FAAB6"/>
<path d="M292.828 37.1698C292.399 37.9565 291.785 38.642 290.988 39.2259C290.188 39.8097 289.241 40.2626 288.146 40.5837C287.049 40.9059 285.857 41.0663 284.571 41.0663C283.26 41.0663 282.056 40.9059 280.96 40.5837C279.864 40.2626 278.916 39.8097 278.118 39.2259C277.319 38.642 276.706 37.9565 276.277 37.1698C275.848 36.3838 275.633 35.5384 275.633 34.6323C275.633 33.7269 275.848 32.8803 276.277 32.0936C276.706 31.3069 277.319 30.6225 278.118 30.0383C278.916 29.4545 279.864 29.0019 280.96 28.6797C282.056 28.3582 283.26 28.1971 284.571 28.1971C285.857 28.1971 287.049 28.3582 288.146 28.6797C289.241 29.0019 290.188 29.4545 290.988 30.0383C291.785 30.6225 292.399 31.3069 292.828 32.0936C293.257 32.8803 293.472 33.7269 293.472 34.6323C293.472 35.5384 293.257 36.3838 292.828 37.1698ZM299.513 29.4842C298.727 27.9108 297.613 26.5348 296.171 25.3551C294.729 24.1754 293.025 23.2584 291.059 22.602C289.093 21.9474 286.93 21.6197 284.571 21.6197C282.187 21.6197 280.012 21.9474 278.047 22.602C276.08 23.2584 274.382 24.1754 272.952 25.3551C271.522 26.5348 270.408 27.9108 269.61 29.4842C268.811 31.0569 268.412 32.7725 268.412 34.6323C268.412 36.4673 268.805 38.1775 269.592 39.7618C270.379 41.3468 271.487 42.7287 272.916 43.9091C274.347 45.0888 276.05 46.0057 278.029 46.6615C280.006 47.3168 282.187 47.6445 284.571 47.6445C286.93 47.6445 289.093 47.3168 291.059 46.6615C293.025 46.0057 294.729 45.0888 296.171 43.9091C297.613 42.7287 298.727 41.3468 299.513 39.7618C300.3 38.1775 300.693 36.4553 300.693 34.596C300.693 32.7609 300.3 31.0569 299.513 29.4842Z" fill="#9FAAB6"/>
<path d="M321.569 33.6835L312.346 22.2628H306.161V47.2868H312.989V40.2446C312.989 38.2662 312.941 36.4076 312.846 34.6676C312.813 34.0659 312.753 33.4545 312.698 32.8445C312.642 32.2345 320.389 41.7102 320.389 41.7102H322.749L330.439 32.8638C330.384 33.4672 330.324 34.0725 330.292 34.6676C330.196 36.4076 330.149 38.2662 330.149 40.2446V47.2868H336.977V22.2628H330.792L321.569 33.6835Z" fill="#9FAAB6"/>
<path d="M350.884 37.349H365.863V31.8435H350.884V28.09H367.293V22.2626H344.092V47.287H367.829V41.46H350.884V37.349Z" fill="#9FAAB6"/>
<path d="M397.159 35.2396C396.48 34.2864 395.568 33.5592 394.424 33.0588C393.28 32.558 392.011 32.2013 390.617 31.9869C389.223 31.772 387.81 31.6055 386.381 31.4861C385.784 31.4146 385.117 31.3493 384.378 31.2898C383.639 31.2299 382.931 31.1348 382.252 31.0035C381.572 30.8732 381.012 30.6813 380.571 30.4312C380.13 30.1816 379.91 29.8419 379.91 29.413C379.91 28.9358 380.13 28.561 380.571 28.2867C381.012 28.0131 381.619 27.816 382.395 27.6963C383.169 27.5776 384.032 27.5181 384.987 27.5181C385.987 27.5181 387.018 27.6077 388.078 27.7859C389.139 27.9644 390.175 28.2097 391.189 28.5193C392.201 28.8288 393.088 29.2102 393.852 29.6627L396.962 24.8013C396.223 24.3005 395.287 23.7998 394.156 23.2994C393.023 22.7993 391.725 22.394 390.259 22.0841C388.793 21.7746 387.131 21.6196 385.272 21.6196C383.508 21.6196 381.852 21.7982 380.303 22.1556C378.753 22.5134 377.384 23.0439 376.192 23.7464C375 24.4497 374.071 25.3191 373.404 26.3566C372.736 27.3929 372.403 28.5791 372.403 29.9127C372.403 31.0815 372.67 32.1179 373.207 33.0232C373.743 33.9297 374.505 34.6982 375.495 35.3293C376.484 35.961 377.663 36.4672 379.034 36.8483C380.405 37.2296 381.936 37.492 383.628 37.635C384.509 37.7068 385.313 37.7718 386.04 37.8316C386.767 37.8911 387.423 37.9692 388.007 38.0635C388.591 38.1593 389.085 38.278 389.491 38.4209C389.895 38.5639 390.2 38.7377 390.402 38.9398C390.604 39.1423 390.705 39.4105 390.705 39.7436C390.705 40.3638 390.449 40.8166 389.938 41.1026C389.424 41.3885 388.805 41.5732 388.078 41.6567C387.351 41.7401 386.69 41.7815 386.095 41.7815C384.354 41.7815 382.418 41.4956 380.285 40.9233C378.152 40.3521 376.013 39.4105 373.868 38.0994L370.937 43.7479C372.105 44.4152 373.404 45.047 374.833 45.6428C376.263 46.2386 377.86 46.7213 379.624 47.0903C381.387 47.4597 383.33 47.6444 385.451 47.6444C387.857 47.6444 390.02 47.3106 391.94 46.6432C393.857 45.9767 395.377 45.0056 396.497 43.7298C397.617 42.455 398.177 40.9117 398.177 39.101C398.177 37.4804 397.838 36.1929 397.159 35.2396Z" fill="#9FAAB6"/>
<path d="M193.317 71.842C192.918 72.177 192.339 72.3435 191.581 72.3435H187.473V67.8693H191.407C192.243 67.8693 192.87 68.0428 193.288 68.3904C193.706 68.7369 193.915 69.3154 193.915 70.1257C193.915 70.936 193.715 71.5082 193.317 71.842ZM187.473 62.0645H191.311C192.044 62.0645 192.587 62.2216 192.941 62.5369C193.294 62.8519 193.471 63.4013 193.471 64.1858C193.471 64.8669 193.291 65.3811 192.931 65.7284C192.571 66.0757 192.076 66.2495 191.446 66.2495H187.473V62.0645ZM193.741 66.9821C194.255 66.7383 194.67 66.362 194.985 65.8543C195.3 65.3463 195.458 64.7577 195.458 64.0889C195.458 62.9063 195.13 62.0064 194.474 61.3895C193.818 60.7716 192.893 60.4635 191.697 60.4635H185.506V73.9445H192.024C192.744 73.9445 193.4 73.7903 193.992 73.4815C194.583 73.1727 195.049 72.7325 195.39 72.1603C195.73 71.588 195.901 70.9098 195.901 70.1257C195.901 68.4546 195.181 67.4063 193.741 66.9821Z" fill="#9FAAB6"/>
<path d="M205.137 70.9359C204.404 72.1062 203.388 72.6908 202.09 72.6908C200.611 72.6908 199.872 71.9512 199.872 70.4729V64.6873H197.924V70.5502C197.924 71.6686 198.242 72.5627 198.879 73.2307C199.515 73.8995 200.457 74.2337 201.704 74.2337C202.398 74.2337 203.044 74.1049 203.642 73.8476C204.24 73.5907 204.757 73.1861 205.195 72.6327V73.9445H207.085V64.6873H205.137V70.9359Z" fill="#9FAAB6"/>
<path d="M209.748 73.9443H211.734V64.6871H209.748V73.9443Z" fill="#9FAAB6"/>
<path d="M210.73 60.5988C210.408 60.5988 210.138 60.708 209.92 60.9265C209.701 61.1449 209.592 61.4153 209.592 61.7361C209.592 62.0583 209.701 62.3279 209.92 62.5464C210.138 62.7648 210.408 62.874 210.73 62.874C211.064 62.874 211.343 62.7648 211.569 62.5464C211.793 62.3279 211.906 62.0583 211.906 61.7361C211.906 61.4153 211.793 61.1449 211.569 60.9265C211.343 60.708 211.064 60.5988 210.73 60.5988Z" fill="#9FAAB6"/>
<path d="M214.416 73.9443H216.364V59.6918H214.416V73.9443Z" fill="#9FAAB6"/>
<path d="M227.144 70.3763C226.899 71.0836 226.478 71.6464 225.881 72.0637C225.282 72.4817 224.585 72.6907 223.788 72.6907C223.158 72.6907 222.589 72.5525 222.081 72.276C221.573 72.0002 221.175 71.6046 220.885 71.0901C220.596 70.5759 220.452 69.9906 220.452 69.3349C220.452 68.6795 220.596 68.0939 220.885 67.58C221.175 67.0662 221.573 66.6667 222.081 66.384C222.589 66.1017 223.158 65.9602 223.788 65.9602C224.585 65.9602 225.289 66.1725 225.9 66.5959C226.51 67.0205 226.925 67.5862 227.144 68.2938V70.3763ZM227.144 65.921C226.282 64.9057 225.016 64.398 223.344 64.398C222.419 64.398 221.586 64.607 220.847 65.0243C220.107 65.4424 219.529 66.0248 219.111 66.7697C218.693 67.5154 218.484 68.3707 218.484 69.3349C218.484 70.3117 218.693 71.171 219.111 71.9098C219.529 72.6493 220.107 73.2212 220.847 73.6262C221.586 74.0308 222.419 74.2336 223.344 74.2336C224.18 74.2336 224.903 74.1016 225.514 73.8381C226.125 73.575 226.687 73.1599 227.201 72.5942V73.9444H229.091V59.6919H227.144V65.921Z" fill="#9FAAB6"/>
<path d="M231.752 73.9443H233.738V64.6871H231.752V73.9443Z" fill="#9FAAB6"/>
<path d="M232.738 60.5988C232.416 60.5988 232.146 60.708 231.928 60.9265C231.709 61.1449 231.6 61.4153 231.6 61.7361C231.6 62.0583 231.709 62.3279 231.928 62.5464C232.146 62.7648 232.416 62.874 232.738 62.874C233.072 62.874 233.352 62.7648 233.577 62.5464C233.801 62.3279 233.914 62.0583 233.914 61.7361C233.914 61.4153 233.801 61.1449 233.577 60.9265C233.352 60.708 233.072 60.5988 232.738 60.5988Z" fill="#9FAAB6"/>
<path d="M241.917 64.3979C241.223 64.3979 240.557 64.5299 239.921 64.793C239.284 65.0565 238.747 65.4651 238.31 66.0177V64.6871H236.42V73.9443H238.368V67.7152C238.754 67.1234 239.213 66.6832 239.747 66.394C240.281 66.1048 240.856 65.9604 241.473 65.9604C242.913 65.9604 243.633 66.7122 243.633 68.2167V73.9443H245.581V68.0233C245.581 66.9184 245.279 66.0373 244.675 65.3809C244.07 64.7255 243.151 64.3979 241.917 64.3979Z" fill="#9FAAB6"/>
<path d="M256.265 70.3575C256.046 71.0647 255.631 71.6297 255.021 72.0543C254.41 72.4788 253.706 72.6907 252.909 72.6907C252.279 72.6907 251.71 72.5492 251.202 72.2665C250.694 71.9835 250.296 71.5883 250.007 71.0807C249.717 70.5726 249.573 69.9841 249.573 69.3153C249.573 68.66 249.717 68.075 250.007 67.5604C250.296 67.0463 250.694 66.6511 251.202 66.3746C251.71 66.0984 252.279 65.9602 252.909 65.9602C253.706 65.9602 254.404 66.1652 255.002 66.5771C255.6 66.9889 256.02 67.5543 256.265 68.2739V70.3575ZM256.322 66.0175C255.808 65.4391 255.252 65.0243 254.654 64.7736C254.057 64.5229 253.327 64.398 252.465 64.398C251.54 64.398 250.707 64.6038 249.968 65.0149C249.228 65.4268 248.65 66.0019 248.232 66.7407C247.814 67.4803 247.605 68.3384 247.605 69.3153C247.605 70.2798 247.817 71.1355 248.242 71.8804C248.666 72.6265 249.251 73.2049 249.996 73.6168C250.742 74.0275 251.585 74.2337 252.523 74.2337C254.169 74.2337 255.416 73.726 256.265 72.7096V73.6937C256.265 74.7475 255.991 75.536 255.445 76.056C254.898 76.5771 254.028 76.8373 252.832 76.8373C251.559 76.8373 250.44 76.6188 249.476 76.1819V77.7822C249.887 77.9752 250.392 78.1229 250.99 78.226C251.588 78.329 252.202 78.3802 252.832 78.3802C254.658 78.3802 256.011 77.9589 256.891 77.117C257.772 76.2744 258.213 75.0628 258.213 73.4814V64.6872H256.322V66.0175Z" fill="#9FAAB6"/>
<path d="M275.956 70.9744C275.055 71.8616 273.706 72.305 271.905 72.305H269.823V62.1217H272.214C273.846 62.1217 275.104 62.5721 275.985 63.472C276.865 64.3719 277.306 65.5933 277.306 67.1359C277.306 68.8077 276.856 70.0871 275.956 70.9744ZM275.975 61.273C274.908 60.733 273.648 60.4634 272.195 60.4634H267.855V73.9445H271.925C274.252 73.9445 276.062 73.3689 277.354 72.2183C278.646 71.068 279.292 69.3734 279.292 67.1359C279.292 65.774 279.006 64.5904 278.434 63.5874C277.862 62.5848 277.042 61.8137 275.975 61.273Z" fill="#9FAAB6"/>
<path d="M283.304 66.3454V64.6871H281.414V73.9443H283.362V68.2167C283.632 67.5218 284.121 67.0142 284.828 66.6926C285.535 66.3711 286.384 66.2111 287.374 66.2111V64.6871C286.448 64.6871 285.635 64.8224 284.934 65.092C284.233 65.3624 283.69 65.7804 283.304 66.3454Z" fill="#9FAAB6"/>
<path d="M289.994 68.718C290.02 67.8819 290.303 67.2139 290.843 66.7124C291.383 66.2109 292.141 65.9602 293.119 65.9602C294.122 65.9602 294.896 66.2008 295.443 66.6834C295.989 67.1649 296.275 67.8431 296.301 68.718H289.994ZM295.877 65.0055C295.131 64.6005 294.224 64.3976 293.157 64.3976C291.55 64.3976 290.313 64.8411 289.445 65.7283C288.577 66.6155 288.143 67.8181 288.143 69.3349C288.143 70.8909 288.628 72.096 289.599 72.9509C290.569 73.8062 291.91 74.2336 293.62 74.2336C294.276 74.2336 294.942 74.1785 295.616 74.07C296.291 73.96 296.834 73.8225 297.246 73.6552V72.0927C296.783 72.2727 296.25 72.4182 295.645 72.5267C295.041 72.6366 294.443 72.6907 293.852 72.6907C292.695 72.6907 291.778 72.4755 291.103 72.0448C290.428 71.6141 290.059 70.9616 289.994 70.0871H298.133V69.1226C298.133 68.2103 297.943 67.3968 297.564 66.6834C297.185 65.9696 296.622 65.4101 295.877 65.0055Z" fill="#9FAAB6"/>
<path d="M306.851 71.3602C306.607 71.7971 306.234 72.1382 305.732 72.3821C305.231 72.6263 304.672 72.749 304.054 72.749C302.576 72.749 301.836 72.1832 301.836 71.0514C301.836 70.4603 302.02 70.0194 302.386 69.7302C302.753 69.441 303.308 69.2966 304.054 69.2966C305.083 69.2966 306.015 69.5658 306.851 70.1069V71.3602ZM304.305 64.3978C303.726 64.3978 303.128 64.453 302.511 64.5611C301.894 64.6714 301.393 64.8159 301.007 64.9958V66.5772C301.432 66.3838 301.91 66.2329 302.444 66.1236C302.978 66.0144 303.527 65.9604 304.093 65.9604C305.044 65.9604 305.742 66.1371 306.186 66.4898C306.629 66.8443 306.851 67.3875 306.851 68.1198V68.6024C305.964 68.0879 304.884 67.8306 303.611 67.8306C302.415 67.8306 301.492 68.1104 300.843 68.6692C300.194 69.2287 299.869 70.0227 299.869 71.0514C299.869 72.029 300.207 72.803 300.882 73.3753C301.557 73.9475 302.454 74.2335 303.572 74.2335C304.357 74.2335 305.022 74.1213 305.568 73.8964C306.115 73.6717 306.587 73.3401 306.985 72.9032V73.9443H308.818V68.2167C308.818 67.0203 308.448 66.0852 307.709 65.4102C306.97 64.7349 305.835 64.3978 304.305 64.3978Z" fill="#9FAAB6"/>
<path d="M322.338 64.3979C321.734 64.3979 321.133 64.5267 320.535 64.7836C319.937 65.0409 319.432 65.4197 319.021 65.9208C318.815 65.407 318.494 65.0242 318.057 64.7734C317.62 64.5227 317.028 64.3979 316.282 64.3979C315.691 64.3979 315.119 64.5332 314.566 64.8025C314.013 65.0728 313.518 65.4778 313.081 66.0177V64.6871H311.229V73.9443H313.139V67.6187C313.91 66.5127 314.784 65.9604 315.762 65.9604C316.43 65.9604 316.893 66.1175 317.15 66.4325C317.408 66.7478 317.537 67.2845 317.537 68.0429V73.9443H319.426V68.1782C319.426 67.741 319.413 67.426 319.387 67.2326C320.005 66.3838 320.802 65.9604 321.779 65.9604C322.46 65.9604 322.943 66.1175 323.226 66.4325C323.508 66.7478 323.65 67.2845 323.65 68.0429V73.9443H325.54V67.7922C325.54 66.6738 325.29 65.8283 324.787 65.256C324.286 64.6838 323.47 64.3979 322.338 64.3979Z" fill="#9FAAB6"/>
<path d="M332.135 68.6599C331.389 68.4673 330.846 68.3101 330.506 68.1875C330.165 68.0659 329.917 67.9211 329.763 67.7538C329.609 67.5862 329.532 67.3678 329.532 67.0974C329.532 66.6739 329.712 66.3775 330.072 66.2109C330.432 66.0436 330.952 65.9602 331.634 65.9602C332.2 65.9602 332.755 66.0248 333.302 66.1529C333.848 66.2817 334.308 66.4555 334.681 66.6739V65.0534C334.321 64.8483 333.845 64.6872 333.254 64.5715C332.662 64.4553 332.058 64.398 331.441 64.398C330.258 64.398 329.316 64.6266 328.616 65.0824C327.915 65.5392 327.564 66.2109 327.564 67.0974C327.564 67.6508 327.677 68.1004 327.902 68.4477C328.127 68.7953 328.461 69.0812 328.905 69.3058C329.348 69.5316 329.95 69.7533 330.708 69.9717C331.415 70.164 331.946 70.3317 332.3 70.4732C332.653 70.6144 332.904 70.7718 333.051 70.9453C333.199 71.1191 333.273 71.3477 333.273 71.63C333.273 72.0031 333.112 72.2727 332.791 72.4403C332.469 72.6076 331.961 72.6911 331.268 72.6911C330.651 72.6911 330.014 72.5975 329.358 72.4109C328.702 72.2248 328.124 71.9835 327.622 71.6881V73.3464C328.034 73.6168 328.599 73.8319 329.319 73.9923C330.039 74.1534 330.721 74.2336 331.364 74.2336C332.649 74.2336 333.62 73.9956 334.276 73.5199C334.931 73.0445 335.26 72.408 335.26 71.6112C335.26 70.8393 335.031 70.2348 334.575 69.7979C334.119 69.361 333.305 68.9814 332.135 68.6599Z" fill="#9FAAB6"/>
</svg>
