<svg width="360" height="100" viewBox="0 0 360 100" fill="none" xmlns="http://www.w3.org/2000/svg">
<path d="M65.6255 31.8143L65.5889 31.8518C65.6327 31.8849 65.6766 31.9179 65.72 31.9513C65.6888 31.9052 65.6576 31.8595 65.6255 31.8143ZM77.2855 32.2484C77.2633 32.2755 77.2416 32.3027 77.2208 32.3298C77.2511 32.3094 77.2814 32.2895 77.3117 32.2696L77.2855 32.2484ZM136.005 98.3812C126.776 95.8427 117.835 92.4565 108.863 89.1593C99.3615 85.6681 89.7064 82.8231 79.506 82.2918C78.9368 82.2624 78.2866 81.9251 77.8511 81.5335C76.6891 80.4886 76.2084 79.0412 75.8471 77.5658C74.605 72.4884 74.4088 67.3188 74.4318 62.1211C74.44 60.204 74.9139 58.4663 76.0108 56.9384C78.136 53.979 80.2919 51.0386 82.5157 48.1529C83.9581 46.2813 85.5438 44.5206 87.1273 42.6364L87.0066 42.2639C87.6581 41.8818 88.1198 41.6109 88.5819 41.3401C88.5001 41.2564 88.4187 41.1728 88.3373 41.0891C86.199 42.3434 84.0607 43.5982 81.704 44.9805C82.3095 43.4467 82.7264 42.0699 83.3825 40.8183C84.0571 39.5319 84.809 38.2138 85.8165 37.1955C86.7737 36.2279 88.1053 35.6306 89.4487 34.7556C85.5601 35.7784 82.9425 38.0895 81.331 41.4237C79.5264 45.1582 77.2511 48.5562 74.6738 51.7765C74.5259 51.961 74.359 52.1306 74.0624 52.4615C74.0841 49.1422 74.0303 46.006 75.8566 43.3323C77.4948 40.9345 79.3053 38.6461 81.1438 36.3943C83.4535 33.566 85.8676 30.8232 89.1562 29.0475C89.3538 28.9408 89.5179 28.7712 89.6979 28.6306C89.6481 28.5479 89.5979 28.4651 89.5482 28.3824C87.5247 29.5363 85.5009 30.6902 83.2667 31.964C84.5708 28.5049 85.8309 25.163 87.0459 21.9395C85.4231 23.5944 83.9639 25.5812 83.0696 27.8606C81.8636 30.9339 80.2245 33.6533 77.8597 35.9688C76.6619 37.1417 75.626 38.4797 74.3382 39.9465C74.4233 39.3135 74.4662 38.954 74.5205 38.5963C74.8736 36.2695 75.7504 34.1705 77.2208 32.3298C76.5023 32.8023 75.7816 33.2762 75.0219 33.7758C75.1558 30.6586 74.4291 27.7028 73.2119 24.851C72.379 22.8981 71.8889 20.8823 71.7446 18.7458C71.6628 17.5404 71.1912 16.3611 70.895 15.1701C70.8055 15.1882 70.7159 15.2058 70.6264 15.2239C71.6845 18.4904 71.3038 21.7188 70.4736 24.9622C69.4992 23.83 68.5551 22.7326 67.6105 21.6352C68.0527 22.7027 68.6695 23.6355 69.231 24.6009C69.9242 25.7919 70.2235 27.0413 69.8464 28.4384C69.3468 30.2905 68.9417 32.1688 68.4922 34.0507C67.6263 33.3946 66.675 32.6743 65.72 31.9513C65.9112 32.2335 66.0912 32.5256 66.3146 32.7797C67.9134 34.6046 68.9968 36.6566 69.2283 39.2375C68.3765 38.3219 67.6783 37.4162 66.8291 36.6864C63.5717 33.887 60.8972 30.6473 58.8692 26.8459C58.228 25.6445 57.2595 24.6181 56.4411 23.5112C56.3633 23.5609 56.2855 23.6107 56.2073 23.6604C57.3441 26.458 58.4808 29.2555 59.6754 32.1964C58.6486 31.7248 57.8392 31.3531 57.0294 30.9814C58.3348 32.4112 59.7473 33.6383 61.0853 34.9424C63.7992 37.588 66.3675 40.3562 68.14 43.7628C69.4087 46.2018 69.1108 48.766 68.9453 51.5807C66.5135 48.6878 64.2043 46.0521 62.7149 42.8169C61.7305 40.6786 60.5097 38.6904 58.7318 37.0884C57.5037 35.9819 56.0414 35.3145 54.6835 35.3973C59.4557 36.9392 59.8518 41.3437 61.598 45.1812C59.1957 43.6791 57.0646 42.3461 54.9336 41.0136C54.8409 41.1249 54.7486 41.2361 54.6559 41.3473C55.1009 41.6268 55.5454 41.9057 56.0495 42.2227L56.0346 42.6351C57.4793 44.347 58.9529 45.9816 60.2994 47.7152C62.657 50.7505 65.0037 53.799 67.2071 56.9461C67.8664 57.888 68.3186 59.1604 68.3755 60.3057C68.6478 65.7927 68.5116 71.2825 67.3785 76.6804C67.0561 78.2178 66.3318 79.6882 65.6607 81.1279C65.3171 81.8659 64.59 82.219 63.7006 82.3266C59.9987 82.7756 56.2801 83.1586 52.6144 83.8233C45.9531 85.0315 39.6052 87.3597 33.2179 89.5418C25.3746 92.2213 17.5196 94.871 9.62796 97.4032C6.55956 98.3871 3.37722 99.0147 0 99.867C0.368967 99.8968 0.486982 99.9154 0.604545 99.914C5.95999 99.8525 11.3154 99.7911 16.6704 99.7192C16.9652 99.7155 17.2727 99.6626 17.5503 99.5654C22.2524 97.9159 26.9789 96.3306 31.6434 94.5807C38.2505 92.1024 44.7743 89.4007 51.4004 86.9762C61.9643 83.1111 72.7059 82.4026 83.5814 85.6631C85.2323 86.1583 86.8628 86.7217 88.5028 87.2534C86.157 86.9952 83.8699 86.5607 81.5652 86.2605C75.5523 85.4778 69.5788 85.7346 63.6323 86.9627C57.704 88.1867 52.1288 90.4366 46.5274 92.6319C41.5798 94.5708 36.6231 96.4853 31.6534 98.3667C30.1902 98.9206 28.67 99.3244 27.2068 99.7874C30.3521 99.7874 33.4955 99.8091 36.6385 99.7712C37.3593 99.7626 38.1234 99.6681 38.7904 99.4121C43.099 97.759 47.3978 96.0783 51.678 94.3538C60.294 90.8825 69.1135 88.344 78.4891 88.1053C85.2861 87.9326 91.9845 88.5366 98.5503 90.3426C106.602 92.5569 114.261 95.8355 121.958 99.0142C122.945 99.4221 124.061 99.6803 125.125 99.711C128.538 99.8109 131.954 99.7748 135.368 99.7852C137.379 99.791 139.389 99.7861 141.45 99.7861C139.608 99.3122 137.799 98.8745 136.005 98.3812ZM71.973 37.6025C69.0533 32.9511 71.0293 28.2155 71.68 23.4294C74.1303 28.1834 73.7703 32.8742 71.973 37.6025Z" fill="#9FAAB6"/>
<path fill-rule="evenodd" clip-rule="evenodd" d="M59.1288 75.5813V65.0449L59.1284 65.044H65.451C65.4191 65.7526 65.3954 66.4581 65.3719 67.161L65.3718 67.1622C65.3178 68.7762 65.2642 70.3764 65.1114 71.9671C64.9786 73.3533 64.7381 74.729 64.4976 76.1049L64.4974 76.106C64.3869 76.738 64.2764 77.3705 64.1764 78.0035C64.0593 78.7464 63.6677 78.9902 62.8872 79.0512C54.9151 79.6743 47.1541 81.3622 39.5985 83.9477C36.5512 84.9906 33.5323 86.117 30.5133 87.2433C29.1151 87.765 27.7162 88.287 26.3152 88.8003C26.2594 88.8209 26.1988 88.8279 26.1128 88.8379C26.0643 88.8435 26.0077 88.85 25.9395 88.8605V66.9707H34.9796V58.9904H48.295V50.8071H58.844V75.5813H59.1288ZM35.9617 79.4378V59.907C36.5757 61.7002 36.5843 78.3273 35.9617 79.4378ZM38.3903 79.2904V60.0336C39.1006 62.2306 39.0667 78.3757 38.3903 79.2904ZM40.9803 79.1353C40.3649 78.6121 40.2369 64.208 40.9803 59.9354V79.1353ZM43.0304 79.1244C42.5823 72.8809 42.6827 66.6374 43.1118 60.3985C43.6453 63.9077 43.5884 78.1021 43.0304 79.1244ZM45.5689 79.1339C45.0367 78.3806 44.9028 63.7969 45.5689 60.5694V79.1339ZM51.7735 77.7128C51.2689 69.5123 51.3385 61.3141 51.7753 53.1163C52.1931 61.3164 52.2686 69.5155 51.7735 77.7128ZM53.7725 78.0108C53.0979 75.7355 53.0477 59.5416 53.7178 52.8107C54.1767 61.2087 54.2721 69.6095 53.7725 78.0108ZM55.554 77.4713C55.0322 69.4798 55.1606 61.4868 55.5522 53.5047C55.975 61.5017 56.1654 69.487 55.554 77.4713ZM57.6593 77.4885C57.317 69.3134 57.1655 61.1382 57.6661 52.9635C57.9605 61.1387 58.1133 69.3138 57.6593 77.4885ZM29.5175 68.9557H28.1719V70.7417H29.5175V68.9557ZM29.8027 68.9557H31.1484V70.7417H29.8027V68.9557ZM32.8378 68.9557H31.4922V70.7417H32.8378V68.9557ZM28.1426 71.3779H29.4882V73.1639H28.1426V71.3779ZM31.121 71.3779H29.7754V73.1639H31.121V71.3779ZM31.4629 71.3779H32.8085V73.1639H31.4629V71.3779ZM29.4882 73.7731H28.1426V75.5591H29.4882V73.7731ZM29.7754 73.7731H31.121V75.5591H29.7754V73.7731ZM32.8085 73.7731H31.4629V75.5591H32.8085V73.7731ZM28.1426 76.1682H29.4882V77.9542H28.1426V76.1682ZM31.121 76.1682H29.7754V77.9542H31.121V76.1682ZM31.4629 76.1682H32.8085V77.9542H31.4629V76.1682ZM29.4882 78.5637H28.1426V80.3498H29.4882V78.5637ZM29.7754 78.5637H31.121V80.3498H29.7754V78.5637ZM32.8085 78.5637H31.4629V80.3498H32.8085V78.5637Z" fill="#9FAAB6"/>
<path d="M114.994 99.7631C111.639 99.7631 108.537 99.7703 105.435 99.7509C105.151 99.749 104.86 99.5949 104.587 99.4777C99.2809 97.2074 93.825 95.4083 88.1083 94.5491C81.7178 93.5892 75.317 93.7126 68.9152 94.5885C62.3611 95.4851 56.1171 97.5854 49.776 99.3249C48.2956 99.7309 46.7189 99.7843 45.186 100L45.125 99.74C46.9499 99.026 48.7514 98.2442 50.6034 97.6107C55.5619 95.9147 60.4742 94.0264 65.5303 92.6885C72.1898 90.9259 79.0338 90.642 85.9117 91.2063C95.196 91.9682 103.865 94.8761 112.307 98.6146C113.128 98.9781 113.959 99.3213 114.994 99.7631Z" fill="#9FAAB6"/>
<path d="M55.1152 99.7016C68.9461 95.7777 83.2806 94.6382 97.2774 99.7016H55.1152Z" fill="#9FAAB6"/>
<path fill-rule="evenodd" clip-rule="evenodd" d="M115.667 67.0231C113.706 67.0405 111.746 67.0416 109.785 67.0426C109.101 67.0429 108.418 67.0433 107.734 67.0443C107.413 67.0449 107.092 67.0448 106.743 67.0446L106.155 67.0443V52.665H93.6264V60.7914H83.2791V64.9495H77.3281C77.367 69.5231 77.7473 73.9326 78.936 78.2436C79.0183 78.542 79.3479 78.9607 79.6034 78.9919C80.8403 79.1429 82.0835 79.2414 83.3617 79.3428L83.3629 79.3429C83.7805 79.376 84.2018 79.4094 84.6279 79.445L84.6278 79.1348C84.6277 78.9801 84.6276 78.8572 84.6279 78.7342L84.64 74.3547C84.648 71.4297 84.6561 68.5046 84.6645 65.5798C84.6656 65.1955 84.668 64.8112 84.6704 64.427C84.6751 63.6731 84.6798 62.9193 84.6745 62.1655C84.6699 61.5365 84.9186 61.4063 85.5186 61.7215V79.7235H86.739C86.739 79.197 86.7385 78.6759 86.7379 78.1587C86.7368 77.0498 86.7356 75.9582 86.7399 74.8664C86.7567 70.6156 86.7743 66.3647 86.8114 62.1144C86.8129 61.9516 86.8992 61.7897 86.9855 61.6277C87.0257 61.5521 87.066 61.4765 87.0976 61.4009C87.1417 61.4747 87.1898 61.5472 87.2379 61.6197C87.3482 61.7859 87.4585 61.9521 87.5199 62.1347C87.5708 62.2864 87.5613 62.459 87.5518 62.6308C87.5481 62.6987 87.5443 62.7665 87.5443 62.8329C87.5466 67.8766 87.5484 72.9203 87.5502 77.964L87.5502 77.9958V80.0129L88.188 80.084L88.8968 80.163V78.5456C88.8962 77.5981 88.8954 76.6499 88.8947 75.7023C88.891 71.261 88.8873 66.8196 88.9067 62.3785C88.9076 62.1645 89.0389 61.9512 89.1702 61.7378C89.2315 61.6382 89.2928 61.5386 89.3408 61.4389C89.3774 61.5349 89.4239 61.631 89.4703 61.727C89.5704 61.9338 89.6705 62.1407 89.6718 62.3482C89.6911 65.6989 89.6909 69.05 89.6907 72.4009C89.6907 73.1337 89.6906 73.8664 89.6908 74.5991C89.6911 75.8662 89.691 77.1331 89.6909 78.408L89.6908 80.3367L90.219 80.433C90.4742 80.4795 90.7224 80.5247 91.0016 80.5759L91.0014 78.247C91.0012 76.7199 91.001 75.2118 91.0016 73.7038C91.0021 72.6361 91.0029 71.5681 91.0036 70.5004C91.0056 67.7527 91.0075 65.0049 91.0052 62.2573L91.0052 62.2208C91.0047 61.7612 91.0042 61.3404 91.7536 61.6034V80.5107C93.0599 80.8915 94.3581 81.258 95.6479 81.6222C98.5607 82.4445 101.431 83.2549 104.26 84.1914C107.099 85.1315 109.896 86.1983 112.694 87.2653L112.695 87.2657L112.696 87.2661L112.697 87.2665L112.699 87.267L112.7 87.2677L112.702 87.2683C113.927 87.7357 115.154 88.2033 116.383 88.6601C116.39 88.6434 116.4 88.626 116.41 88.6083C116.432 88.5691 116.456 88.5279 116.456 88.4865C116.461 86.3714 116.465 84.2562 116.469 82.1411L116.469 82.1363C116.479 77.358 116.488 72.5796 116.509 67.8013C116.511 67.1583 116.241 67.0168 115.666 67.0217L115.667 67.0231ZM109.935 83.2034H108.764V76.685C109.047 76.6665 109.299 76.6502 109.567 76.6329L109.935 76.609V83.2034ZM109.952 76.3811H108.771V70.4202H109.952V76.3811ZM111.898 83.2106L111.097 83.2667C111.07 83.2219 111.044 83.1861 111.023 83.156C110.986 83.1041 110.961 83.0692 110.961 83.0343C110.961 81.626 110.962 80.2178 110.964 78.8095V78.8064C110.967 76.2425 110.97 73.6786 110.963 71.1147C110.962 70.5057 111.141 70.2425 111.898 70.47V83.2106ZM112.905 70.4483H114.173V76.4137H112.905V70.4483ZM114.178 83.1939H112.924V76.7899H114.178V83.1939ZM97.3945 56.5812H99.3375V59.6541H97.3945V56.5812ZM102.009 56.5812H100.066V59.6541H102.009V56.5812ZM97.3945 61.7332H99.3375V64.8061H97.3945V61.7332ZM102.009 61.7332H100.066V64.8061H102.009V61.7332ZM97.3945 66.386H99.3375V69.4589H97.3945V66.386ZM102.009 66.386H100.066V69.4589H102.009V66.386ZM97.3945 71.538H99.3375V74.6109H97.3945V71.538ZM102.009 71.538H100.066V74.6109H102.009V71.538Z" fill="#9FAAB6"/>
<path d="M167.181 28.929H162.859V25.2827H167.181V28.929ZM167.073 45H162.967V30.5226H167.073V45Z" fill="#9FAAB6"/>
<path d="M159.79 39.8141C159.79 40.6784 159.619 41.4347 159.277 42.0829C158.952 42.7312 158.475 43.2714 157.845 43.7035C157.233 44.1357 156.486 44.4598 155.603 44.6759C154.739 44.892 153.776 45 152.713 45H143.719V26.093H152.497C154.442 26.093 155.963 26.5341 157.062 27.4165C158.178 28.2988 158.736 29.4872 158.736 30.9818V31.0358C158.736 31.576 158.664 32.0532 158.52 32.4673C158.394 32.8815 158.214 33.2596 157.98 33.6018C157.764 33.9259 157.503 34.214 157.197 34.4661C156.909 34.7182 156.594 34.9343 156.251 35.1143C157.35 35.5285 158.214 36.0957 158.844 36.816C159.475 37.5182 159.79 38.4996 159.79 39.7601V39.8141ZM154.604 31.7381V31.684C154.604 31.0538 154.37 30.5766 153.902 30.2525C153.433 29.9104 152.758 29.7393 151.876 29.7393H147.77V33.7368H151.606C152.524 33.7368 153.253 33.5838 153.794 33.2776C154.334 32.9535 154.604 32.4403 154.604 31.7381ZM155.657 39.3009V39.2469C155.657 38.6166 155.414 38.1214 154.928 37.7613C154.442 37.3832 153.658 37.1941 152.578 37.1941H147.77V41.3537H152.713C153.631 41.3537 154.352 41.1916 154.874 40.8675C155.396 40.5253 155.657 40.0032 155.657 39.3009Z" fill="#9FAAB6"/>
<path d="M184.434 38.1665C184.434 38.3645 184.425 38.5356 184.407 38.6796C184.407 38.8237 184.398 38.9948 184.38 39.1928H174.305C174.503 40.1292 174.908 40.8405 175.521 41.3266C176.151 41.7948 176.925 42.0289 177.843 42.0289C178.528 42.0289 179.14 41.9119 179.68 41.6778C180.22 41.4437 180.778 41.0655 181.355 40.5433L183.705 42.6231C183.02 43.4694 182.192 44.1357 181.22 44.6219C180.247 45.09 179.104 45.3241 177.789 45.3241C176.709 45.3241 175.701 45.1441 174.764 44.7839C173.846 44.4238 173.045 43.9106 172.36 43.2444C171.694 42.5781 171.172 41.7948 170.794 40.8945C170.416 39.9761 170.227 38.9588 170.227 37.8423V37.7883C170.227 36.7619 170.398 35.7896 170.74 34.8712C171.1 33.9529 171.595 33.1516 172.225 32.4673C172.856 31.7831 173.603 31.2429 174.467 30.8467C175.349 30.4506 176.322 30.2525 177.384 30.2525C178.591 30.2525 179.635 30.4686 180.517 30.9007C181.4 31.3329 182.129 31.9181 182.705 32.6564C183.299 33.3767 183.732 34.214 184.002 35.1683C184.29 36.1047 184.434 37.0861 184.434 38.1124V38.1665ZM180.436 36.6269C180.31 35.7085 179.986 34.9703 179.464 34.4121C178.942 33.8358 178.249 33.5477 177.384 33.5477C176.52 33.5477 175.818 33.8268 175.277 34.385C174.755 34.9433 174.413 35.6905 174.251 36.6269H180.436Z" fill="#9FAAB6"/>
<path d="M200.756 45H196.651V36.924C196.651 35.9516 196.434 35.2224 196.002 34.7362C195.57 34.232 194.958 33.9799 194.166 33.9799C193.373 33.9799 192.743 34.232 192.275 34.7362C191.825 35.2224 191.6 35.9516 191.6 36.924V45H187.494V30.5226H191.6V32.5754C191.834 32.2693 192.086 31.9811 192.356 31.711C192.644 31.4229 192.959 31.1708 193.301 30.9548C193.643 30.7387 194.022 30.5676 194.436 30.4416C194.85 30.3155 195.318 30.2525 195.84 30.2525C197.407 30.2525 198.613 30.7297 199.46 31.684C200.324 32.6384 200.756 33.9529 200.756 35.6275V45Z" fill="#9FAAB6"/>
<path d="M217.826 38.1665C217.826 38.3645 217.817 38.5356 217.799 38.6796C217.799 38.8237 217.79 38.9948 217.772 39.1928H207.698C207.896 40.1292 208.301 40.8405 208.913 41.3266C209.543 41.7948 210.318 42.0289 211.236 42.0289C211.92 42.0289 212.532 41.9119 213.073 41.6778C213.613 41.4437 214.171 41.0655 214.747 40.5433L217.097 42.6231C216.413 43.4694 215.585 44.1357 214.612 44.6219C213.64 45.09 212.496 45.3241 211.182 45.3241C210.102 45.3241 209.093 45.1441 208.157 44.7839C207.238 44.4238 206.437 43.9106 205.753 43.2444C205.087 42.5781 204.564 41.7948 204.186 40.8945C203.808 39.9761 203.619 38.9588 203.619 37.8423V37.7883C203.619 36.7619 203.79 35.7896 204.132 34.8712C204.492 33.9529 204.988 33.1516 205.618 32.4673C206.248 31.7831 206.995 31.2429 207.86 30.8467C208.742 30.4506 209.714 30.2525 210.777 30.2525C211.983 30.2525 213.028 30.4686 213.91 30.9007C214.792 31.3329 215.522 31.9181 216.098 32.6564C216.692 33.3767 217.124 34.214 217.394 35.1683C217.682 36.1047 217.826 37.0861 217.826 38.1124V38.1665ZM213.829 36.6269C213.703 35.7085 213.379 34.9703 212.857 34.4121C212.334 33.8358 211.641 33.5477 210.777 33.5477C209.913 33.5477 209.21 33.8268 208.67 34.385C208.148 34.9433 207.806 35.6905 207.644 36.6269H213.829Z" fill="#9FAAB6"/>
<path d="M231.501 40.5974C231.501 41.4077 231.357 42.1099 231.069 42.7041C230.799 43.2804 230.412 43.7575 229.908 44.1357C229.404 44.5138 228.809 44.8019 228.125 45C227.459 45.1801 226.739 45.2701 225.964 45.2701C224.938 45.2701 223.884 45.099 222.804 44.7569C221.742 44.3968 220.724 43.8386 219.752 43.0823L221.508 40.3813C222.3 40.9575 223.083 41.3897 223.857 41.6778C224.65 41.9659 225.388 42.1099 226.072 42.1099C226.667 42.1099 227.099 42.0109 227.369 41.8128C227.657 41.6147 227.801 41.3536 227.801 41.0295V40.9755C227.801 40.7594 227.72 40.5704 227.558 40.4083C227.396 40.2462 227.171 40.1112 226.883 40.0031C226.613 39.8771 226.297 39.76 225.937 39.652C225.577 39.544 225.199 39.4269 224.803 39.3009C224.299 39.1568 223.785 38.9858 223.263 38.7877C222.759 38.5716 222.3 38.3015 221.886 37.9774C221.472 37.6353 221.129 37.2211 220.859 36.7349C220.607 36.2487 220.481 35.6545 220.481 34.9523V34.8982C220.481 34.16 220.616 33.5117 220.886 32.9535C221.174 32.3773 221.553 31.8911 222.021 31.495C222.507 31.0988 223.065 30.8017 223.695 30.6036C224.344 30.4056 225.037 30.3065 225.775 30.3065C226.694 30.3065 227.621 30.4596 228.557 30.7657C229.512 31.0538 230.385 31.4589 231.177 31.9811L229.611 34.8172C228.89 34.403 228.188 34.0789 227.504 33.8448C226.82 33.5927 226.216 33.4667 225.694 33.4667C225.19 33.4667 224.812 33.5657 224.56 33.7638C224.308 33.9439 224.182 34.178 224.182 34.4661V34.5201C224.182 34.7182 224.263 34.8982 224.425 35.0603C224.587 35.2043 224.803 35.3484 225.073 35.4925C225.343 35.6185 225.649 35.7446 225.991 35.8706C226.351 35.9966 226.73 36.1227 227.126 36.2487C227.63 36.4108 228.143 36.6089 228.665 36.843C229.187 37.059 229.656 37.3291 230.07 37.6533C230.484 37.9774 230.826 38.3735 231.096 38.8417C231.366 39.3099 231.501 39.8771 231.501 40.5433V40.5974Z" fill="#9FAAB6"/>
<path d="M259.316 45H254.454L250.402 38.9498H247.134V45H242.975V26.093H251.618C253.869 26.093 255.615 26.6422 256.858 27.7406C258.118 28.839 258.749 30.3696 258.749 32.3323V32.3863C258.749 33.9169 258.37 35.1683 257.614 36.1407C256.876 37.0951 255.903 37.7973 254.697 38.2475L259.316 45ZM254.535 32.6024V32.5484C254.535 31.648 254.247 30.9728 253.671 30.5226C253.094 30.0724 252.293 29.8474 251.267 29.8474H247.134V35.2764H251.348C252.374 35.2764 253.157 35.0333 253.698 34.5471C254.256 34.0609 254.535 33.4127 254.535 32.6024Z" fill="#9FAAB6"/>
<path d="M274.513 45H270.543V43.4334C270.039 43.9916 269.435 44.4418 268.733 44.7839C268.031 45.108 267.175 45.2701 266.167 45.2701C265.483 45.2701 264.835 45.1801 264.222 45C263.628 44.8019 263.106 44.5138 262.656 44.1357C262.206 43.7575 261.846 43.2984 261.575 42.7582C261.323 42.2 261.197 41.5607 261.197 40.8404V40.7864C261.197 39.9941 261.341 39.3099 261.629 38.7337C261.918 38.1574 262.314 37.6803 262.818 37.3021C263.34 36.924 263.952 36.6449 264.655 36.4648C265.375 36.2667 266.167 36.1677 267.031 36.1677C267.77 36.1677 268.409 36.2217 268.949 36.3298C269.507 36.4378 270.048 36.5819 270.57 36.7619V36.5188C270.57 35.6545 270.309 34.9973 269.786 34.5471C269.264 34.0969 268.49 33.8718 267.464 33.8718C266.671 33.8718 265.969 33.9439 265.357 34.0879C264.763 34.214 264.132 34.403 263.466 34.6551L262.44 31.522C263.232 31.1798 264.06 30.9007 264.925 30.6847C265.789 30.4686 266.833 30.3605 268.058 30.3605C270.309 30.3605 271.947 30.9097 272.974 32.0081C274 33.1066 274.513 34.6371 274.513 36.5999V45ZM270.624 39.8951V39.1658C270.264 39.0038 269.858 38.8777 269.408 38.7877C268.976 38.6796 268.508 38.6256 268.004 38.6256C267.121 38.6256 266.428 38.7967 265.924 39.1388C265.42 39.4809 265.168 39.9761 265.168 40.6244V40.6784C265.168 41.2366 265.375 41.6688 265.789 41.9749C266.203 42.281 266.743 42.434 267.41 42.434C268.382 42.434 269.156 42.2 269.732 41.7318C270.327 41.2636 270.624 40.6514 270.624 39.8951Z" fill="#9FAAB6"/>
<path d="M282.34 45H278.234V30.5226H282.34V45ZM281.665 28.929H278.531L281.584 24.1482L285.122 25.6878L281.665 28.929Z" fill="#9FAAB6"/>
<path d="M298.945 42.6771C298.243 43.4514 297.442 44.0907 296.541 44.5949C295.641 45.081 294.471 45.3241 293.03 45.3241C291.95 45.3241 290.941 45.1261 290.005 44.7299C289.086 44.3338 288.294 43.8026 287.628 43.1363C286.962 42.4521 286.439 41.6598 286.061 40.7594C285.683 39.8411 285.494 38.8687 285.494 37.8423V37.7883C285.494 36.7619 285.683 35.7896 286.061 34.8712C286.439 33.9529 286.962 33.1516 287.628 32.4673C288.294 31.7831 289.086 31.2429 290.005 30.8467C290.941 30.4506 291.968 30.2525 293.084 30.2525C294.452 30.2525 295.587 30.4686 296.487 30.9007C297.388 31.3329 298.18 31.9271 298.864 32.6834L296.352 35.3844C295.884 34.8982 295.398 34.5111 294.894 34.223C294.407 33.9349 293.795 33.7908 293.057 33.7908C292.535 33.7908 292.058 33.8989 291.625 34.1149C291.211 34.313 290.842 34.5921 290.518 34.9523C290.212 35.3124 289.969 35.7356 289.789 36.2217C289.627 36.6899 289.546 37.1941 289.546 37.7343V37.7883C289.546 38.3465 289.627 38.8687 289.789 39.3549C289.969 39.8411 290.221 40.2642 290.545 40.6244C290.869 40.9845 291.256 41.2726 291.706 41.4887C292.157 41.6868 292.661 41.7858 293.219 41.7858C293.903 41.7858 294.497 41.6508 295.002 41.3807C295.524 41.0925 296.037 40.7144 296.541 40.2462L298.945 42.6771Z" fill="#9FAAB6"/>
<path d="M315.133 38.1665C315.133 38.3645 315.124 38.5356 315.106 38.6796C315.106 38.8237 315.097 38.9948 315.079 39.1928H305.004C305.202 40.1292 305.608 40.8405 306.22 41.3266C306.85 41.7948 307.624 42.0289 308.543 42.0289C309.227 42.0289 309.839 41.9119 310.379 41.6778C310.92 41.4437 311.478 41.0655 312.054 40.5433L314.404 42.6231C313.72 43.4694 312.891 44.1357 311.919 44.6219C310.947 45.09 309.803 45.3241 308.489 45.3241C307.408 45.3241 306.4 45.1441 305.463 44.7839C304.545 44.4238 303.744 43.9106 303.06 43.2444C302.393 42.5781 301.871 41.7948 301.493 40.8945C301.115 39.9761 300.926 38.9588 300.926 37.8423V37.7883C300.926 36.7619 301.097 35.7896 301.439 34.8712C301.799 33.9529 302.294 33.1516 302.924 32.4673C303.555 31.7831 304.302 31.2429 305.166 30.8467C306.049 30.4506 307.021 30.2525 308.083 30.2525C309.29 30.2525 310.334 30.4686 311.217 30.9007C312.099 31.3329 312.828 31.9181 313.404 32.6564C313.999 33.3767 314.431 34.214 314.701 35.1683C314.989 36.1047 315.133 37.0861 315.133 38.1124V38.1665ZM311.136 36.6269C311.01 35.7085 310.685 34.9703 310.163 34.4121C309.641 33.8358 308.948 33.5477 308.083 33.5477C307.219 33.5477 306.517 33.8268 305.977 34.385C305.454 34.9433 305.112 35.6905 304.95 36.6269H311.136Z" fill="#9FAAB6"/>
<path d="M328.806 40.5974C328.806 41.4077 328.662 42.1099 328.374 42.7041C328.104 43.2804 327.717 43.7575 327.212 44.1357C326.708 44.5138 326.114 44.8019 325.43 45C324.764 45.1801 324.043 45.2701 323.269 45.2701C322.243 45.2701 321.189 45.099 320.109 44.7569C319.046 44.3968 318.029 43.8386 317.057 43.0823L318.812 40.3813C319.605 40.9575 320.388 41.3897 321.162 41.6778C321.954 41.9659 322.693 42.1099 323.377 42.1099C323.971 42.1099 324.403 42.0109 324.673 41.8128C324.962 41.6147 325.106 41.3536 325.106 41.0295V40.9755C325.106 40.7594 325.025 40.5704 324.863 40.4083C324.7 40.2462 324.475 40.1112 324.187 40.0031C323.917 39.8771 323.602 39.76 323.242 39.652C322.882 39.544 322.504 39.4269 322.108 39.3009C321.603 39.1568 321.09 38.9858 320.568 38.7877C320.064 38.5716 319.605 38.3015 319.19 37.9774C318.776 37.6353 318.434 37.2211 318.164 36.7349C317.912 36.2487 317.786 35.6545 317.786 34.9523V34.8982C317.786 34.16 317.921 33.5117 318.191 32.9535C318.479 32.3773 318.857 31.8911 319.326 31.495C319.812 31.0988 320.37 30.8017 321 30.6036C321.648 30.4056 322.342 30.3065 323.08 30.3065C323.998 30.3065 324.926 30.4596 325.862 30.7657C326.816 31.0538 327.69 31.4589 328.482 31.9811L326.915 34.8172C326.195 34.403 325.493 34.0789 324.809 33.8448C324.124 33.5927 323.521 33.4667 322.999 33.4667C322.495 33.4667 322.117 33.5657 321.864 33.7638C321.612 33.9439 321.486 34.178 321.486 34.4661V34.5201C321.486 34.7182 321.567 34.8982 321.729 35.0603C321.891 35.2043 322.108 35.3484 322.378 35.4925C322.648 35.6185 322.954 35.7446 323.296 35.8706C323.656 35.9966 324.034 36.1227 324.43 36.2487C324.935 36.4108 325.448 36.6089 325.97 36.843C326.492 37.059 326.96 37.3291 327.375 37.6533C327.789 37.9774 328.131 38.3735 328.401 38.8417C328.671 39.3099 328.806 39.8771 328.806 40.5433V40.5974Z" fill="#9FAAB6"/>
<path d="M162.626 71H158.493V58.6564L153.172 66.7324H153.064L147.797 58.7374V71H143.719V52.093H148.202L153.172 60.0879L158.142 52.093H162.626V71Z" fill="#9FAAB6"/>
<path d="M179.187 71H175.217V69.4334C174.712 69.9916 174.109 70.4418 173.407 70.7839C172.705 71.108 171.849 71.2701 170.841 71.2701C170.157 71.2701 169.508 71.1801 168.896 71C168.302 70.8019 167.78 70.5138 167.33 70.1357C166.879 69.7575 166.519 69.2984 166.249 68.7582C165.997 68.2 165.871 67.5607 165.871 66.8404V66.7864C165.871 65.9941 166.015 65.3099 166.303 64.7337C166.591 64.1574 166.988 63.6803 167.492 63.3021C168.014 62.924 168.626 62.6449 169.328 62.4648C170.049 62.2667 170.841 62.1677 171.705 62.1677C172.444 62.1677 173.083 62.2217 173.623 62.3298C174.181 62.4378 174.721 62.5819 175.244 62.7619V62.5188C175.244 61.6545 174.982 60.9973 174.46 60.5471C173.938 60.0969 173.164 59.8718 172.137 59.8718C171.345 59.8718 170.643 59.9439 170.031 60.0879C169.436 60.214 168.806 60.403 168.14 60.6551L167.114 57.522C167.906 57.1798 168.734 56.9007 169.598 56.6847C170.463 56.4686 171.507 56.3605 172.732 56.3605C174.982 56.3605 176.621 56.9097 177.647 58.0081C178.674 59.1066 179.187 60.6371 179.187 62.5999V71ZM175.298 65.8951V65.1658C174.937 65.0038 174.532 64.8777 174.082 64.7877C173.65 64.6796 173.182 64.6256 172.678 64.6256C171.795 64.6256 171.102 64.7967 170.598 65.1388C170.094 65.4809 169.842 65.9761 169.842 66.6244V66.6784C169.842 67.2366 170.049 67.6688 170.463 67.9749C170.877 68.281 171.417 68.434 172.083 68.434C173.056 68.434 173.83 68.2 174.406 67.7318C175.001 67.2636 175.298 66.6514 175.298 65.8951Z" fill="#9FAAB6"/>
<path d="M197.279 75.3216H193.173V68.9202C192.669 69.6045 192.057 70.1717 191.337 70.6219C190.634 71.054 189.743 71.2701 188.663 71.2701C187.816 71.2701 186.997 71.108 186.205 70.7839C185.413 70.4598 184.71 69.9826 184.098 69.3524C183.486 68.7042 182.991 67.9209 182.612 67.0025C182.252 66.0662 182.072 64.9948 182.072 63.7883V63.7343C182.072 62.5278 182.252 61.4654 182.612 60.5471C182.991 59.6108 183.477 58.8275 184.071 58.1972C184.683 57.549 185.385 57.0628 186.178 56.7387C186.97 56.4146 187.798 56.2525 188.663 56.2525C189.761 56.2525 190.661 56.4686 191.364 56.9007C192.084 57.3329 192.687 57.8371 193.173 58.4133V56.5226H197.279V75.3216ZM193.227 63.7883V63.7343C193.227 63.1401 193.128 62.5999 192.93 62.1137C192.75 61.6095 192.498 61.1863 192.174 60.8442C191.868 60.4841 191.499 60.214 191.067 60.0339C190.652 59.8358 190.202 59.7368 189.716 59.7368C189.23 59.7368 188.771 59.8358 188.339 60.0339C187.924 60.214 187.555 60.4841 187.231 60.8442C186.907 61.1863 186.646 61.6005 186.448 62.0867C186.268 62.5729 186.178 63.1221 186.178 63.7343V63.7883C186.178 64.3825 186.268 64.9317 186.448 65.4359C186.646 65.9221 186.907 66.3453 187.231 66.7054C187.555 67.0475 187.924 67.3176 188.339 67.5157C188.771 67.6958 189.23 67.7858 189.716 67.7858C190.202 67.7858 190.652 67.6958 191.067 67.5157C191.499 67.3176 191.868 67.0475 192.174 66.7054C192.498 66.3453 192.75 65.9221 192.93 65.4359C193.128 64.9317 193.227 64.3825 193.227 63.7883Z" fill="#9FAAB6"/>
<path d="M214.1 71H209.994V68.9472C209.76 69.2533 209.499 69.5504 209.211 69.8386C208.941 70.1087 208.635 70.3517 208.293 70.5678C207.951 70.7839 207.572 70.955 207.158 71.081C206.744 71.2071 206.276 71.2701 205.754 71.2701C204.187 71.2701 202.972 70.7929 202.107 69.8386C201.261 68.8842 200.838 67.5697 200.838 65.8951V56.5226H204.943V64.5986C204.943 65.571 205.16 66.3092 205.592 66.8134C206.024 67.2996 206.636 67.5427 207.428 67.5427C208.221 67.5427 208.842 67.2996 209.292 66.8134C209.76 66.3092 209.994 65.571 209.994 64.5986V56.5226H214.1V71Z" fill="#9FAAB6"/>
<path d="M222.177 54.929H217.855V51.2827H222.177V54.929ZM222.069 71H217.964V56.5226H222.069V71Z" fill="#9FAAB6"/>
<path d="M230.219 71H226.113V51.2827H230.219V71Z" fill="#9FAAB6"/>
<path d="M238.478 54.929H234.156V51.2827H238.478V54.929ZM238.37 71H234.264V56.5226H238.37V71Z" fill="#9FAAB6"/>
<path d="M252.841 66.5974C252.841 67.4077 252.697 68.1099 252.409 68.7041C252.139 69.2804 251.752 69.7575 251.248 70.1357C250.743 70.5138 250.149 70.8019 249.465 71C248.799 71.1801 248.078 71.2701 247.304 71.2701C246.278 71.2701 245.224 71.099 244.144 70.7569C243.082 70.3968 242.064 69.8386 241.092 69.0823L242.847 66.3813C243.64 66.9575 244.423 67.3897 245.197 67.6778C245.99 67.9659 246.728 68.1099 247.412 68.1099C248.006 68.1099 248.439 68.0109 248.709 67.8128C248.997 67.6147 249.141 67.3536 249.141 67.0295V66.9755C249.141 66.7594 249.06 66.5704 248.898 66.4083C248.736 66.2462 248.511 66.1112 248.222 66.0031C247.952 65.8771 247.637 65.76 247.277 65.652C246.917 65.544 246.539 65.4269 246.143 65.3009C245.638 65.1568 245.125 64.9858 244.603 64.7877C244.099 64.5716 243.64 64.3015 243.226 63.9774C242.811 63.6353 242.469 63.2211 242.199 62.7349C241.947 62.2487 241.821 61.6545 241.821 60.9523V60.8982C241.821 60.16 241.956 59.5117 242.226 58.9535C242.514 58.3773 242.892 57.8911 243.361 57.495C243.847 57.0988 244.405 56.8017 245.035 56.6036C245.684 56.4056 246.377 56.3065 247.115 56.3065C248.033 56.3065 248.961 56.4596 249.897 56.7657C250.851 57.0538 251.725 57.4589 252.517 57.9811L250.95 60.8172C250.23 60.403 249.528 60.0789 248.844 59.8448C248.159 59.5927 247.556 59.4667 247.034 59.4667C246.53 59.4667 246.152 59.5657 245.9 59.7638C245.648 59.9439 245.521 60.178 245.521 60.4661V60.5201C245.521 60.7182 245.602 60.8982 245.765 61.0603C245.927 61.2043 246.143 61.3484 246.413 61.4925C246.683 61.6185 246.989 61.7445 247.331 61.8706C247.691 61.9966 248.069 62.1227 248.466 62.2487C248.97 62.4108 249.483 62.6089 250.005 62.843C250.527 63.059 250.995 63.3291 251.41 63.6533C251.824 63.9774 252.166 64.3735 252.436 64.8417C252.706 65.3099 252.841 65.8771 252.841 66.5433V66.5974Z" fill="#9FAAB6"/>
<path d="M269.045 71H264.94V62.924C264.94 61.9516 264.724 61.2224 264.291 60.7362C263.859 60.232 263.247 59.9799 262.455 59.9799C261.662 59.9799 261.032 60.232 260.564 60.7362C260.114 61.2224 259.889 61.9516 259.889 62.924V71H255.783V51.2827H259.889V58.5754C260.123 58.2693 260.375 57.9812 260.645 57.7111C260.933 57.4229 261.248 57.1709 261.59 56.9548C261.932 56.7387 262.311 56.5676 262.725 56.4416C263.139 56.3155 263.607 56.2525 264.129 56.2525C265.696 56.2525 266.902 56.7297 267.749 57.684C268.613 58.6384 269.045 59.9529 269.045 61.6275V71Z" fill="#9FAAB6"/>
<path d="M285.766 71H281.66V68.9472C281.426 69.2533 281.165 69.5504 280.877 69.8386C280.607 70.1087 280.301 70.3517 279.959 70.5678C279.617 70.7839 279.238 70.955 278.824 71.081C278.41 71.2071 277.942 71.2701 277.42 71.2701C275.853 71.2701 274.638 70.7929 273.773 69.8386C272.927 68.8842 272.504 67.5697 272.504 65.8951V56.5226H276.609V64.5986C276.609 65.571 276.826 66.3092 277.258 66.8134C277.69 67.2996 278.302 67.5427 279.094 67.5427C279.887 67.5427 280.508 67.2996 280.958 66.8134C281.426 66.3092 281.66 65.571 281.66 64.5986V56.5226H285.766V71Z" fill="#9FAAB6"/>
<path d="M301.892 71H297.922V69.4334C297.417 69.9916 296.814 70.4418 296.112 70.7839C295.41 71.108 294.554 71.2701 293.546 71.2701C292.862 71.2701 292.214 71.1801 291.601 71C291.007 70.8019 290.485 70.5138 290.035 70.1357C289.585 69.7575 289.224 69.2984 288.954 68.7582C288.702 68.2 288.576 67.5607 288.576 66.8404V66.7864C288.576 65.9941 288.72 65.3099 289.008 64.7337C289.296 64.1574 289.693 63.6803 290.197 63.3021C290.719 62.924 291.331 62.6449 292.033 62.4648C292.754 62.2667 293.546 62.1677 294.41 62.1677C295.149 62.1677 295.788 62.2217 296.328 62.3298C296.886 62.4378 297.426 62.5819 297.949 62.7619V62.5188C297.949 61.6545 297.688 60.9973 297.165 60.5471C296.643 60.0969 295.869 59.8718 294.843 59.8718C294.05 59.8718 293.348 59.9439 292.736 60.0879C292.141 60.214 291.511 60.403 290.845 60.6551L289.819 57.522C290.611 57.1798 291.439 56.9007 292.304 56.6847C293.168 56.4686 294.212 56.3605 295.437 56.3605C297.688 56.3605 299.326 56.9097 300.353 58.0081C301.379 59.1066 301.892 60.6371 301.892 62.5999V71ZM298.003 65.8951V65.1658C297.643 65.0038 297.237 64.8777 296.787 64.7877C296.355 64.6796 295.887 64.6256 295.383 64.6256C294.5 64.6256 293.807 64.7967 293.303 65.1388C292.799 65.4809 292.547 65.9761 292.547 66.6244V66.6784C292.547 67.2366 292.754 67.6688 293.168 67.9749C293.582 68.281 294.122 68.434 294.788 68.434C295.761 68.434 296.535 68.2 297.111 67.7318C297.706 67.2636 298.003 66.6514 298.003 65.8951Z" fill="#9FAAB6"/>
<path d="M313.556 70.4058C313.124 70.6579 312.647 70.8559 312.125 71C311.603 71.1621 311 71.2431 310.315 71.2431C309.685 71.2431 309.109 71.1711 308.587 71.027C308.082 70.901 307.641 70.6669 307.263 70.3247C306.903 69.9826 306.615 69.5415 306.399 69.0013C306.201 68.443 306.102 67.7408 306.102 66.8945V60.0339H304.373V56.5226H306.102V52.8222H310.207V56.5226H313.61V60.0339H310.207V66.2192C310.207 67.1556 310.648 67.6237 311.531 67.6237C312.251 67.6237 312.926 67.4527 313.556 67.1105V70.4058Z" fill="#9FAAB6"/>
<path d="M338.833 65.4089C338.833 66.3452 338.662 67.1825 338.32 67.9208C337.977 68.6411 337.5 69.2533 336.888 69.7575C336.276 70.2437 335.547 70.6218 334.7 70.8919C333.854 71.144 332.917 71.2701 331.891 71.2701C330.451 71.2701 329.037 71.027 327.651 70.5408C326.264 70.0366 325.004 69.2713 323.869 68.2449L326.327 65.3008C327.191 66.0031 328.074 66.5613 328.974 66.9755C329.892 67.3896 330.892 67.5967 331.972 67.5967C332.836 67.5967 333.503 67.4436 333.971 67.1375C334.457 66.8134 334.7 66.3722 334.7 65.814V65.76C334.7 65.4899 334.646 65.2558 334.538 65.0578C334.448 64.8417 334.259 64.6436 333.971 64.4635C333.701 64.2835 333.314 64.1034 332.809 63.9233C332.323 63.7433 331.684 63.5542 330.892 63.3561C329.937 63.122 329.073 62.8609 328.299 62.5728C327.525 62.2847 326.867 61.9336 326.327 61.5194C325.787 61.0873 325.364 60.5561 325.058 59.9258C324.769 59.2956 324.625 58.5123 324.625 57.576V57.5219C324.625 56.6576 324.787 55.8833 325.112 55.1991C325.436 54.4968 325.886 53.8936 326.462 53.3894C327.056 52.8852 327.759 52.4981 328.569 52.228C329.379 51.9579 330.271 51.8228 331.243 51.8228C332.629 51.8228 333.899 52.0299 335.051 52.444C336.222 52.8582 337.293 53.4524 338.266 54.2267L336.105 57.3599C335.258 56.7837 334.43 56.3335 333.62 56.0094C332.809 55.6672 331.999 55.4962 331.189 55.4962C330.379 55.4962 329.766 55.6582 329.352 55.9824C328.956 56.2885 328.758 56.6756 328.758 57.1438V57.1978C328.758 57.5039 328.812 57.774 328.92 58.0081C329.046 58.2242 329.262 58.4223 329.568 58.6023C329.874 58.7824 330.289 58.9535 330.811 59.1155C331.351 59.2776 332.026 59.4667 332.836 59.6827C333.791 59.9348 334.637 60.223 335.375 60.5471C336.132 60.8532 336.762 61.2313 337.266 61.6815C337.788 62.1137 338.175 62.6268 338.428 63.2211C338.698 63.8153 338.833 64.5266 338.833 65.3549V65.4089Z" fill="#9FAAB6"/>
<path d="M359.783 52.093L352.139 71.1351H348.466L340.822 52.093H345.414L350.357 65.4089L355.3 52.093H359.783Z" fill="#9FAAB6"/>
<path d="M66.0018 14.382C69.6571 16.3823 70.2843 19.1885 69.2669 21.5424C66.388 20.7688 65.3245 18.4628 66.0018 14.382Z" fill="#9FAAB6"/>
<path d="M59.8759 3.21265C62.923 5.42193 63.2902 7.33006 62.5821 10.3125C60.1214 9.91464 57.8904 7.39292 59.8759 3.21265Z" fill="#9FAAB6"/>
<path d="M95.6033 9.15723C96.7545 16.0663 93.7232 20.1091 87.6411 19.8541C87.0397 14.5199 89.1423 10.6896 95.6033 9.15723ZM87.9174 17.3984C87.9924 17.4404 88.068 17.4829 88.143 17.525C88.7715 16.4384 89.3996 15.3519 90.0281 14.2649C89.9535 14.2233 89.8789 14.1821 89.8038 14.1405C89.1749 15.2262 88.5464 16.3127 87.9174 17.3984Z" fill="#9FAAB6"/>
<path d="M102.835 29.0868C100.691 31.2143 98.6411 32.7878 95.9128 32.8818C94.5509 32.9289 93.1288 32.7019 91.8157 32.3184C90.2643 31.8649 90.1807 31.3092 91.1049 29.9283C92.6142 27.6734 95.5601 26.528 98.3405 27.3026C99.8195 27.715 101.214 28.4312 102.835 29.0868Z" fill="#9FAAB6"/>
<path d="M102.482 39.705C99.3035 40.8779 96.2007 41.407 93.1821 39.8072C92.0512 39.2081 91.0998 38.1686 90.2471 37.1756C89.4987 36.3043 89.6642 35.7789 90.7105 35.1689C92.1566 34.3261 93.7536 34.0123 95.428 34.1203C98.996 34.3514 100.834 36.7795 102.482 39.705Z" fill="#9FAAB6"/>
<path d="M56.0495 42.2227L56.0346 42.6351C53.2334 46.6942 49.173 46.6879 44.8828 46.4239C45.3739 44.4619 46.4147 42.9734 48.1153 42.0338C50.2799 40.8383 52.5249 40.7388 54.8942 41.8665C53.5418 42.4371 52.3015 42.9603 51.0612 43.4834C51.087 43.5549 51.1127 43.6268 51.1381 43.6987C52.6971 43.2302 54.2549 42.7617 56.0495 42.2227Z" fill="#9FAAB6"/>
<path d="M44.826 42.8997C43.8963 46.1354 41.9913 47.1455 38.8203 46.1259C40.1483 43.0905 41.6002 42.2956 44.826 42.8997Z" fill="#9FAAB6"/>
<path d="M43.7663 34.5142C40.8937 36.2695 38.8074 35.7265 37.1602 32.8312C40.1906 31.4924 41.798 31.8885 43.7663 34.5142Z" fill="#9FAAB6"/>
<path d="M41.0641 6.07751C44.3961 7.82785 45.0323 9.66409 44.7583 12.7171C42.2659 12.6755 39.6972 10.4988 41.0641 6.07751Z" fill="#9FAAB6"/>
<path d="M41.2048 22.7702C42.1263 23.8707 43.0483 24.9718 43.9711 26.0737C40.2729 28.0451 36.793 26.1903 35.2285 21.4553C39.5878 20.1485 42.8434 21.5439 43.9906 25.1581C43.0451 24.4165 42.0553 23.6406 41.0655 22.8642C41.1121 22.833 41.1587 22.8014 41.2048 22.7702Z" fill="#9FAAB6"/>
<path d="M25.9219 32.5731C27.5248 27.711 32.1215 25.2435 36.4257 26.9274C38.8909 27.8918 38.9058 28.5339 37.2984 30.3421C35.0303 32.8928 32.004 33.5525 28.7208 33.1889C27.8038 33.0872 26.9076 32.7956 25.9219 32.5731Z" fill="#9FAAB6"/>
<path d="M40.709 40.3504C42.3119 35.4882 46.9086 33.0208 51.2128 34.7046C53.678 35.6691 53.6929 36.3112 52.0855 38.1194C49.8174 40.6701 46.7911 41.3298 43.5079 40.9662C42.5909 40.8645 41.6947 40.5728 40.709 40.3504Z" fill="#9FAAB6"/>
<path d="M41.9818 15.9483C45.2288 16.3679 47.1392 18.3593 47.1437 21.2617C47.1446 22.0096 46.9032 22.1638 46.1901 22.0394C43.0263 21.4873 41.5355 19.3576 41.9818 15.9483Z" fill="#9FAAB6"/>
<path d="M50.974 6.21777C54.9911 7.93781 56.2481 9.59861 55.0368 14.2093C51.6559 12.265 50.3758 10.8868 50.974 6.21777Z" fill="#9FAAB6"/>
<path d="M50.2852 22.0168C54.7236 23.2254 56.242 25.1444 56.0521 28.9123C53.0492 29.7176 50.5705 26.7541 50.2852 22.0168Z" fill="#9FAAB6"/>
<path d="M57.4266 9.38379C64.5311 12.374 66.5238 19.0068 62.069 24.8356C57.3439 21.4245 55.5253 17.0114 57.4266 9.38379Z" fill="#9FAAB6"/>
<path d="M65.6255 31.8143C62.8207 32.0286 61.3236 30.1327 61.6469 26.7762C64.9916 27.7692 65.8344 29.1122 65.5889 31.8518L65.6255 31.8143Z" fill="#9FAAB6"/>
<path d="M76.5536 15.5653C77.1523 20.0716 76.7797 21.074 74.0577 22.384C72.5981 19.8401 73.3876 17.6231 76.5536 15.5653Z" fill="#9FAAB6"/>
<path d="M75.6411 28.982C74.0965 26.2034 75.1935 24.0014 77.2395 22.0146C78.639 24.8234 78.2867 27.2027 75.6411 28.982Z" fill="#9FAAB6"/>
<path d="M77.3117 32.2696C76.7392 30.7685 77.2185 29.0376 78.537 28.2196C79.3446 27.7186 80.248 27.3718 81.1085 26.9558L81.3802 27.1168C81.1975 28.1396 81.1627 29.2184 80.7992 30.1721C80.2109 31.7162 78.7391 32.0287 77.285 32.247L77.3117 32.2696Z" fill="#9FAAB6"/>
<path d="M72.0718 0C74.3964 2.51901 74.4163 4.25714 72.1595 7.6633C69.6075 5.00818 69.5817 2.74057 72.0718 0Z" fill="#9FAAB6"/>
<path d="M81.8141 3.47217C84.1454 6.98188 83.2908 10.0598 79.3371 12.6055C77.6058 9.0329 78.2275 6.59437 81.8141 3.47217Z" fill="#9FAAB6"/>
<path d="M91.6251 4.85266C92.4205 7.8356 91.6061 9.37115 88.233 11.2476C87.07 8.12272 88.4165 6.24352 91.6251 4.85266Z" fill="#9FAAB6"/>
<path d="M102.395 12.2062C101.033 12.6615 99.6718 13.1168 98.3086 13.5731C97.8257 9.40999 100.824 6.84938 105.804 7.12475C105.427 11.66 102.937 14.1799 99.1541 13.9262C100.19 13.3176 101.274 12.6801 102.359 12.0425C102.371 12.0972 102.383 12.1515 102.395 12.2062Z" fill="#9FAAB6"/>
<path d="M100.615 15.8C100.895 19.9998 98.3944 21.7655 95.582 21.4517C94.9503 18.5461 96.9574 16.3341 100.615 15.8Z" fill="#9FAAB6"/>
<path d="M98.4844 25.0604C99.4764 24.2601 100.452 23.4738 101.427 22.687C101.391 22.6296 101.356 22.5721 101.321 22.5147C100.38 23.0944 99.4398 23.6741 98.5784 24.2049C99.2721 21.0908 103.022 19.8225 107.225 21.3992C105.83 25.7703 101.612 27.4501 98.4844 25.0604Z" fill="#9FAAB6"/>
<path d="M99.5938 34.3722C100.712 31.775 103.663 31.1302 106.524 32.8181C105.17 35.4068 102.486 36.2862 99.7877 34.9175C100.307 34.4355 100.793 33.9843 101.279 33.5335L101.218 33.4222C100.707 33.7211 100.196 34.0204 99.5938 34.3722Z" fill="#9FAAB6"/>
<path d="M98.26 46.8041C94.3135 47.5538 88.4498 46.2855 87.1285 42.6365L87.0078 42.2639C88.8775 42.8906 90.3764 43.3934 91.8749 43.8958C91.9007 43.8379 91.926 43.7796 91.9513 43.7217C90.7481 43.1673 89.5449 42.6134 88.2865 42.0342C92.2742 40.2337 97.1987 41.7792 98.26 46.8041Z" fill="#9FAAB6"/>
<path d="M80.0883 24.558C76.4787 16.7608 80.649 11.5704 85.7716 10.1122C87.4618 15.3175 86.3757 21.4344 80.0883 24.558Z" fill="#9FAAB6"/>
<path d="M105.408 45.297C103.129 47.1305 99.7186 45.93 98.6465 42.8932C101.221 41.6376 103.813 42.5727 105.408 45.297ZM102.001 43.3305C101.246 42.863 100.536 42.6486 99.6688 42.8177C100.471 42.9941 101.187 43.1514 102.001 43.3305Z" fill="#9FAAB6"/>
<path d="M89.2583 30.9213C89.2574 33.1229 87.7834 33.7898 85.9883 33.5891C86.1615 31.7808 87.3705 30.7716 89.2583 30.9213Z" fill="#9FAAB6"/>
<path d="M88.6189 36.9288C88.7718 39.3673 87.3823 40.6451 84.9668 40.3643C85.3973 38.2107 86.2948 37.3538 88.6189 36.9288Z" fill="#9FAAB6"/>
<path d="M86.8867 26.9215C86.8777 22.9356 88.7944 21.1315 93.4133 20.7047C92.9101 25.1503 91.1177 26.8758 86.8867 26.9215Z" fill="#9FAAB6"/>
<path d="M97.768 23.3737C96.4753 24.813 94.951 25.1317 93.5801 24.2939C94.0675 22.2162 95.864 21.7957 97.768 23.3737Z" fill="#9FAAB6"/>
<path d="M63.9885 3.17596C69.1875 4.57632 72.1198 9.05999 71.0125 13.8046C68.4193 14.1758 66.007 12.9188 64.8096 10.5779C63.6146 8.24157 63.6526 5.7723 63.9885 3.17596Z" fill="#9FAAB6"/>
<path d="M72.722 11.2213C71.8145 8.04849 73.7932 5.85413 76.3515 5.21387C76.7463 8.60601 75.7768 10.2112 72.722 11.2213Z" fill="#9FAAB6"/>
<path d="M73.1148 15.8701C72.8494 13.073 73.7434 11.7161 76.5273 10.6896C77.1405 13.5772 76.1385 15.0987 73.1148 15.8701Z" fill="#9FAAB6"/>
<path d="M65.8528 22.7153C68.7299 24.9554 69.5054 27.3139 68.2009 29.8577C65.1361 28.2467 64.5849 25.5029 65.8528 22.7153Z" fill="#9FAAB6"/>
<path d="M55.6683 22.1158C49.8924 22.0946 45.8441 17.029 47.6021 12.0854C53.1579 13.1756 56.2733 17.0145 55.6683 22.1158ZM55.1926 20.3402C54.967 18.7716 54.1839 17.695 52.9463 16.693C53.7308 17.9668 54.4208 19.0868 55.1926 20.3402Z" fill="#9FAAB6"/>
<path d="M44.3965 23.6419C46.136 22.0679 48.1689 22.2854 49.3088 24.0575C49.7338 24.7181 49.5272 24.9799 48.8838 25.2123C47.2225 25.8123 45.7335 25.3154 44.3965 23.6419Z" fill="#9FAAB6"/>
<path d="M40.3672 29.3396C44.7853 25.9687 50.3478 26.9866 52.2935 31.5222C49.4657 33.8631 44.5194 34.3939 40.3672 29.3396Z" fill="#9FAAB6"/>
<path d="M32.7949 40.864C32.9993 37.8928 35.0494 36.3017 37.6525 36.918C38.6233 37.1477 38.6645 37.5691 38.2806 38.3482C37.2899 40.3598 35.4907 41.2162 32.7949 40.864Z" fill="#9FAAB6"/>
<path d="M57.4408 39.833C56.1648 39.8597 54.9543 38.8794 54.7698 37.6957C54.6826 37.135 54.8467 36.8718 55.4558 36.9202C56.6337 37.0133 57.7446 37.8625 58.0688 38.9558C58.2646 39.6156 58.1186 39.819 57.4408 39.833Z" fill="#9FAAB6"/>
</svg>
