<svg width="150" height="150" viewBox="0 0 150 150" fill="none" xmlns="http://www.w3.org/2000/svg">
<rect width="150" height="150" rx="75" fill="#FEFEFE" fill-opacity="0.996078"/>
<path d="M109.053 37.0407C109.032 36.9214 108.975 36.8119 108.891 36.7273C108.823 36.6295 108.732 36.5506 108.627 36.4975C98.2244 30.9679 86.6872 28.0825 74.9799 28.0825C63.2726 28.0825 51.7353 30.9679 41.3328 36.4975C41.2314 36.5561 41.1419 36.6341 41.0689 36.7273C40.9956 36.8199 40.9404 36.9264 40.9066 37.0407C36.5054 53.7882 37.8163 71.583 44.6204 87.4556C46.0984 90.9004 48.5141 93.8307 51.5753 95.8922C54.6365 97.9537 58.2122 99.0582 61.8701 99.0721H97.5466C98.1132 99.0553 98.6685 98.9052 99.1701 98.6333C99.6749 98.3426 100.101 97.9259 100.408 97.4215C105.855 88.5322 109.437 78.5692 110.926 68.1713C112.415 57.7734 111.777 47.17 109.053 37.0407ZM74.1478 81.8771C69.5529 81.7291 65.0703 80.3789 61.1226 77.9538C57.1748 75.5286 53.8919 72.1084 51.5834 68.0155C49.2748 63.9227 48.0167 59.292 47.9275 54.56C47.8384 49.828 48.9212 45.1505 51.0738 40.9686C51.1743 40.7568 51.32 40.5711 51.5 40.4254C51.6768 40.2785 51.8858 40.1781 52.1088 40.1329C58.4898 38.3573 65.0462 37.334 71.6517 37.0825C73.2774 40.5267 74.1239 44.3055 74.1275 48.1349C74.1331 52.0758 73.2362 55.9626 71.5096 59.4798C71.4598 59.643 71.4598 59.818 71.5096 59.9812C71.5254 60.1535 71.5969 60.3154 71.7126 60.4409C72.892 61.774 73.9326 63.2305 74.8175 64.7866C74.9635 65.047 75.1736 65.2633 75.4265 65.4136C75.6794 65.564 75.9663 65.6432 76.2584 65.6432C76.5439 65.6415 76.8239 65.5622 77.0701 65.4134C77.3296 65.2722 77.5418 65.0538 77.6789 64.7866C78.5186 63.2304 79.5114 61.7671 80.6418 60.42C80.7498 60.2893 80.8201 60.1301 80.8448 59.9603C80.8835 59.7956 80.8835 59.6237 80.8448 59.4589C79.2622 56.2084 78.3764 52.6459 78.2472 49.0124C78.124 45.3669 78.7751 41.7376 80.1548 38.3779C80.284 38.0426 80.5201 37.7626 80.8245 37.5839C81.1167 37.3804 81.4671 37.2847 81.8189 37.3123C87.2504 37.7445 92.6311 38.6957 97.8916 40.1538C98.1159 40.2067 98.3247 40.3141 98.5004 40.4672C98.6739 40.6113 98.8186 40.7887 98.9265 40.9895C101.138 45.317 102.215 50.1635 102.052 55.0505C101.787 62.431 98.6905 69.4022 93.4404 74.4352C88.1904 79.4682 81.2158 82.152 74.0464 81.898L74.1478 81.8771ZM77.2934 121.407C82.7736 117.881 87.7002 113.611 92.1078 108.746C92.2152 108.623 92.2857 108.47 92.3108 108.307C92.3618 108.151 92.3618 107.982 92.3108 107.826C92.2558 107.668 92.1479 107.534 92.0064 107.45C91.8759 107.352 91.7211 107.294 91.5599 107.283H59.0898C58.9286 107.294 58.7738 107.352 58.6434 107.45C58.5018 107.534 58.394 107.668 58.339 107.826C58.2985 107.984 58.2985 108.149 58.339 108.307C58.3802 108.469 58.4566 108.619 58.5622 108.746C63.057 113.646 68.1691 117.904 73.7622 121.407C74.294 121.741 74.9049 121.918 75.5278 121.918C76.1507 121.918 76.7616 121.741 77.2934 121.407Z" fill="#39A0ED"/>
<path d="M95.3963 51.1233C95.399 52.5381 94.989 53.921 94.2192 55.093C93.4512 56.2675 92.3643 57.1831 91.094 57.7255C89.8126 58.2815 88.3982 58.4271 87.0352 58.1434C85.6916 57.8567 84.4578 57.1744 83.4838 56.1794C82.5078 55.1824 81.8433 53.9078 81.5758 52.5193C81.3082 51.1307 81.4497 49.6915 81.9821 48.3864C82.4952 47.0818 83.3795 45.9675 84.5188 45.1897C85.6593 44.4019 87.0012 43.9802 88.3746 43.9779C88.8666 43.9692 89.3576 44.0254 89.8358 44.1451C89.3825 44.5086 89.0148 44.9728 88.7602 45.5031C88.5089 46.0373 88.3771 46.6228 88.3746 47.2163C88.3756 47.7339 88.4792 48.2458 88.679 48.7206C88.8676 49.189 89.1434 49.6149 89.4908 49.9742C89.8407 50.3458 90.2624 50.6376 90.7287 50.8308C91.1941 51.0202 91.6895 51.1194 92.1899 51.1233C92.7632 51.1213 93.3288 50.987 93.845 50.7303C94.3613 50.4736 94.8151 50.101 95.173 49.6399C95.2987 50.1248 95.3736 50.6221 95.3963 51.1233Z" fill="#39A0ED"/>
<path d="M68.4653 51.1213C68.4655 52.5326 68.0633 53.9129 67.3086 55.091C66.5353 56.2605 65.4499 57.1747 64.1833 57.7235C62.901 58.2757 61.4877 58.4212 60.1246 58.1414C58.781 57.8547 57.5472 57.1724 56.5732 56.1774C55.6053 55.1786 54.9483 53.9058 54.6858 52.5211C54.3974 51.1204 54.532 49.6623 55.0714 48.3425C55.5996 47.0411 56.4891 45.9292 57.6284 45.1459C58.7668 44.3535 60.1101 43.9313 61.4843 43.9341C61.9761 43.9276 62.4669 43.9837 62.9454 44.1012C62.4811 44.453 62.1111 44.9203 61.8698 45.4593C61.6094 45.9901 61.4771 46.5778 61.4843 47.1725C61.4844 47.6853 61.5831 48.193 61.7746 48.6663C61.9662 49.1396 62.2468 49.5693 62.6004 49.9304C62.9498 50.2963 63.3669 50.5865 63.827 50.7838C64.287 50.9812 64.7808 51.0817 65.2792 51.0795C65.8568 51.0869 66.4277 50.9507 66.9433 50.6825C67.4619 50.4356 67.9146 50.0628 68.2624 49.5961C68.3948 50.0931 68.463 50.6059 68.4653 51.1213Z" fill="#39A0ED"/>
<path d="M47.2586 99.8881C48.6589 101.977 50.1403 103.962 51.7232 105.884C51.8306 106.007 51.9011 106.16 51.9262 106.323C51.9758 106.479 51.9758 106.648 51.9262 106.804C51.8658 106.954 51.7587 107.079 51.6218 107.159C51.4896 107.251 51.3347 107.301 51.1753 107.305H35.2447C35.1116 107.307 34.9796 107.28 34.8573 107.226C34.735 107.172 34.625 107.092 34.5344 106.992C34.345 106.798 34.2359 106.536 34.23 106.26V100.201C34.2359 99.9264 34.345 99.6643 34.5344 99.4702C34.625 99.3698 34.735 99.2901 34.8573 99.2361C34.9796 99.1822 35.1116 99.1551 35.2447 99.1568H45.8583C46.1328 99.1545 46.404 99.219 46.6498 99.3448C46.8924 99.4726 47.1013 99.659 47.2586 99.8881Z" fill="#39A0ED"/>
<path d="M115.77 100.181V106.26C115.755 106.533 115.647 106.792 115.466 106.992C115.277 107.187 115.023 107.299 114.756 107.305H99.2512C99.0876 107.306 98.9267 107.263 98.7844 107.18C98.6565 107.08 98.5524 106.951 98.48 106.804C98.4396 106.646 98.4396 106.481 98.48 106.323C98.5014 106.163 98.5645 106.011 98.6627 105.884C100.198 103.972 101.634 101.978 102.965 99.9089C103.122 99.6798 103.331 99.4934 103.574 99.3657C103.808 99.2268 104.074 99.1546 104.345 99.1568H114.715C114.98 99.1551 115.235 99.2601 115.425 99.4493C115.619 99.6449 115.741 99.9032 115.77 100.181Z" fill="#39A0ED"/>
</svg>
