<svg width="95" height="41" viewBox="0 0 95 41" fill="none" xmlns="http://www.w3.org/2000/svg">
<path d="M89.7764 5.53001C89.7681 5.48302 89.7457 5.43986 89.7124 5.40652C89.6856 5.36798 89.6499 5.33687 89.6085 5.31595C85.5093 3.137 80.963 2 76.3497 2C71.7364 2 67.1901 3.137 63.0909 5.31595C63.051 5.33906 63.0157 5.36979 62.987 5.40652C62.958 5.44301 62.9363 5.48496 62.923 5.53001C61.1887 12.1294 61.7052 19.1416 64.3864 25.3962C64.9688 26.7536 65.9207 27.9083 67.127 28.7207C68.3333 29.533 69.7423 29.9683 71.1837 29.9737H85.2422C85.4655 29.9671 85.6843 29.908 85.882 29.8008C86.0809 29.6863 86.2486 29.5221 86.3698 29.3233C88.5161 25.8204 89.9278 21.8945 90.5145 17.7972C91.1011 13.6998 90.8497 9.5215 89.7764 5.53001ZM75.9818 23.2062C74.1712 23.1479 72.4448 22.6076 70.8892 21.652C69.3335 20.6963 68.0399 19.3486 67.1302 17.7358C66.2205 16.123 65.7247 14.2982 65.6896 12.4336C65.6545 10.5689 66.0811 8.72573 66.9294 7.07781C66.969 6.99436 67.0264 6.9212 67.0973 6.86376C67.167 6.80586 67.2494 6.7663 67.3372 6.74849C69.8517 6.04884 72.4353 5.64558 75.0382 5.54648C75.6788 6.9037 76.0124 8.39274 76.0138 9.90173C76.016 11.4547 75.6626 12.9862 74.9822 14.3722C74.9626 14.4365 74.9626 14.5055 74.9822 14.5698C74.9885 14.6377 75.0166 14.7015 75.0622 14.751C75.527 15.2763 75.937 15.8502 76.2857 16.4634C76.3433 16.566 76.426 16.6512 76.5257 16.7105C76.6254 16.7697 76.7384 16.8009 76.8535 16.801C76.966 16.8003 77.0763 16.769 77.1734 16.7104C77.2756 16.6547 77.3592 16.5687 77.4133 16.4634C77.7442 15.8502 78.1354 15.2736 78.5808 14.7427C78.6234 14.6912 78.6511 14.6285 78.6608 14.5616C78.6761 14.4967 78.6761 14.4289 78.6608 14.364C78.0372 13.0831 77.6881 11.6793 77.6372 10.2475C77.5887 8.81098 77.8452 7.38086 78.3889 6.05692C78.4398 5.92481 78.5329 5.81447 78.6528 5.74407C78.7679 5.66388 78.906 5.62616 79.0446 5.63704C81.185 5.80734 83.3053 6.18218 85.3782 6.75673C85.4666 6.77758 85.5488 6.81992 85.6181 6.88022C85.6864 6.93701 85.7435 7.00691 85.786 7.08605C86.6574 8.79134 87.0819 10.7011 87.0175 12.6268C86.9133 15.5352 85.693 18.2822 83.6242 20.2655C81.5554 22.2487 78.807 23.3063 75.9818 23.2062ZM77.2613 38.7748C79.4208 37.3856 81.3622 35.7028 83.0991 33.7856C83.1414 33.7371 83.1691 33.6771 83.179 33.6127C83.1991 33.5513 83.1991 33.4848 83.179 33.4234C83.1573 33.3609 83.1148 33.3084 83.0591 33.2752C83.0077 33.2365 82.9467 33.2136 82.8831 33.2093H70.0882C70.0246 33.2136 69.9636 33.2365 69.9122 33.2752C69.8565 33.3084 69.8139 33.3609 69.7923 33.4234C69.7763 33.4854 69.7763 33.5507 69.7923 33.6127C69.8085 33.6764 69.8386 33.7356 69.8802 33.7856C71.6514 35.7166 73.6659 37.3946 75.8699 38.7748C76.0794 38.9065 76.3201 38.9761 76.5656 38.9761C76.8111 38.9761 77.0518 38.9065 77.2613 38.7748Z" fill="#0B2540"/>
<path d="M73.7826 11.0785C73.7827 11.6346 73.6242 12.1785 73.3268 12.6428C73.0221 13.1036 72.5944 13.4639 72.0953 13.6801C71.5899 13.8977 71.033 13.9551 70.4959 13.8448C69.9664 13.7318 69.4803 13.463 69.0964 13.0709C68.7151 12.6773 68.4562 12.1758 68.3527 11.6301C68.2391 11.0782 68.2921 10.5036 68.5047 9.98353C68.7128 9.47071 69.0633 9.03253 69.5123 8.72388C69.9609 8.41162 70.4902 8.24526 71.0317 8.24637C71.2255 8.2438 71.4189 8.26593 71.6075 8.31223C71.4245 8.45086 71.2787 8.63498 71.1836 8.84738C71.081 9.05656 71.0289 9.28814 71.0317 9.52248C71.0317 9.72454 71.0706 9.9246 71.1461 10.1111C71.2216 10.2976 71.3322 10.4669 71.4715 10.6092C71.6092 10.7534 71.7735 10.8678 71.9548 10.9455C72.1361 11.0233 72.3307 11.0629 72.5271 11.0621C72.7547 11.065 72.9797 11.0113 73.1828 10.9056C73.3872 10.8083 73.5656 10.6614 73.7026 10.4775C73.7548 10.6734 73.7817 10.8754 73.7826 11.0785Z" fill="#0B2540"/>
<path d="M84.3946 11.0795C84.3957 11.6369 84.2341 12.1819 83.9308 12.6437C83.6282 13.1065 83.1998 13.4673 82.6993 13.6811C82.1943 13.9002 81.637 13.9575 81.0999 13.8457C80.5705 13.7328 80.0843 13.4639 79.7005 13.0718C79.3159 12.6789 79.054 12.1767 78.9486 11.6295C78.8431 11.0824 78.8989 10.5153 79.1087 10.0009C79.3109 9.48689 79.6594 9.0478 80.1083 8.7413C80.5577 8.43086 81.0865 8.26468 81.6277 8.26379C81.8216 8.26035 82.0151 8.28248 82.2035 8.32965C82.0249 8.4729 81.88 8.65584 81.7796 8.8648C81.6806 9.07531 81.6287 9.306 81.6277 9.5399C81.6281 9.74384 81.6689 9.94555 81.7477 10.1327C81.822 10.3172 81.9306 10.4851 82.0675 10.6267C82.2054 10.7731 82.3716 10.8881 82.5553 10.9642C82.7387 11.0388 82.9339 11.0779 83.1311 11.0795C83.357 11.0787 83.5799 11.0258 83.7833 10.9246C83.9868 10.8234 84.1656 10.6766 84.3067 10.4949C84.3562 10.686 84.3857 10.8819 84.3946 11.0795Z" fill="#0B2540"/>
<path d="M92.4233 30.4107V32.8065C92.4172 32.914 92.3748 33.016 92.3033 33.0947C92.229 33.1715 92.1287 33.2157 92.0234 33.2182H85.9138C85.8494 33.2186 85.786 33.2015 85.7299 33.1688C85.6795 33.1294 85.6385 33.0787 85.61 33.0206C85.594 32.9585 85.594 32.8933 85.61 32.8312C85.6184 32.7679 85.6433 32.7082 85.6819 32.6583C86.2871 31.9049 86.853 31.1189 87.3773 30.3037C87.4392 30.2134 87.5216 30.1399 87.6172 30.0896C87.7096 30.0349 87.8145 30.0064 87.9211 30.0073H92.0074C92.1118 30.0067 92.2122 30.048 92.2873 30.1226C92.3635 30.1996 92.4115 30.3014 92.4233 30.4107Z" fill="#0B2540"/>
<path d="M67.426 30.2955C67.9778 31.1188 68.5615 31.9009 69.1853 32.6583C69.2276 32.7068 69.2554 32.7669 69.2653 32.8312C69.2848 32.8927 69.2848 32.9591 69.2653 33.0206C69.2415 33.0796 69.1993 33.1289 69.1453 33.1605C69.0932 33.1967 69.0322 33.2167 68.9694 33.2182H62.6918C62.6394 33.2188 62.5874 33.2082 62.5392 33.1869C62.491 33.1656 62.4477 33.1342 62.4119 33.0947C62.3373 33.0182 62.2943 32.9149 62.292 32.8065V30.419C62.2943 30.3106 62.3373 30.2073 62.4119 30.1308C62.4477 30.0913 62.491 30.0598 62.5392 30.0386C62.5874 30.0173 62.6394 30.0066 62.6918 30.0073H66.8742C66.9824 30.0064 67.0892 30.0318 67.1861 30.0814C67.2817 30.1317 67.364 30.2052 67.426 30.2955Z" fill="#0B2540"/>
<path d="M58.9531 5.72888V32.7604C58.9492 32.9371 58.877 33.1054 58.7516 33.2296C58.6263 33.3539 58.4576 33.4244 58.2813 33.4263H55.5622C54.961 33.4266 54.3772 33.2236 53.9053 32.8502C53.801 32.7739 53.7013 32.6914 53.6068 32.6033C53.4368 32.4518 53.2908 32.2752 53.1739 32.0796L43.4712 16.8094V32.7455C43.4712 32.9208 43.4023 33.089 43.2793 33.2137C43.1564 33.3384 42.9893 33.4094 42.8144 33.4113H40.0115C39.6483 33.4113 39.2885 33.3395 38.953 33.1999C38.6175 33.0603 38.3127 32.8558 38.0562 32.5979C37.7997 32.3401 37.5964 32.034 37.4581 31.6973C37.3197 31.3606 37.249 30.9998 37.25 30.6356V5.75133C37.25 5.59784 37.3103 5.45053 37.4179 5.3413C37.5254 5.23207 37.6716 5.16972 37.8247 5.16775H42.9413C42.9833 5.16064 43.0262 5.16064 43.0682 5.16775C43.1631 5.18343 43.25 5.23091 43.3145 5.30242L43.3966 5.3922L43.4563 5.48947L52.8007 20.2584V5.75133C52.8007 5.59655 52.862 5.44812 52.9712 5.33868C53.0804 5.22924 53.2285 5.16775 53.3829 5.16775H58.3933C58.5412 5.16969 58.6824 5.22943 58.787 5.33425C58.8915 5.43906 58.9511 5.58066 58.9531 5.72888Z" fill="#0B2540"/>
<path d="M28.188 5.16241H32.8246C32.9375 5.16241 33.0457 5.20734 33.1255 5.28732C33.2052 5.3673 33.2501 5.47577 33.2501 5.58887V32.9197C33.2501 33.0546 33.1966 33.184 33.1014 33.2794C33.0062 33.3748 32.8771 33.4284 32.7425 33.4284L29.8374 33.4284C29.2832 33.4284 28.7516 33.2077 28.3597 32.8148C27.9678 32.422 27.7476 31.8891 27.7476 31.3335V5.61132C27.7466 5.55272 27.7573 5.49452 27.779 5.4401C27.8007 5.38567 27.8329 5.33612 27.8739 5.29434C27.9149 5.25255 27.9638 5.21937 28.0177 5.19672C28.0716 5.17407 28.1295 5.16241 28.188 5.16241Z" fill="#0B2540"/>
<path d="M23.7475 32.7551C23.7475 32.8431 23.7301 32.9303 23.6962 33.0116C23.6624 33.0929 23.6128 33.1666 23.5503 33.2286C23.4878 33.2905 23.4137 33.3394 23.3322 33.3724C23.2508 33.4054 23.1636 33.4219 23.0758 33.4209L20.7656 33.4596C20.0332 33.4596 19.3308 33.168 18.8129 32.6488C18.295 32.1297 18.0041 31.4256 18.0041 30.6914V16.8726L16.7054 18.9376L15.4665 20.8679C15.3823 20.9911 15.29 21.1085 15.1903 21.2195C15.0921 21.3332 14.982 21.436 14.8619 21.5263C14.7517 21.6212 14.6316 21.7039 14.5037 21.7732C14.383 21.8474 14.2555 21.9101 14.123 21.9602C14.0142 22.0064 13.9019 22.044 13.7872 22.0724C13.6892 22.0995 13.5895 22.1196 13.4886 22.1323C13.3346 22.1517 13 22.1624 13 22.1624C13 22.1624 13 22.1624 12.5557 22.1323C12.3752 22.1002 12.1996 22.0449 12.0333 21.9677L11.8541 21.8779L11.675 21.7732L11.4511 21.631C11.2066 21.4368 10.9949 21.2044 10.8242 20.9427L9.5852 18.9825L8.25669 16.8726V32.7938C8.25669 32.9704 8.1867 33.1397 8.06213 33.2646C7.93756 33.3895 7.7686 33.4596 7.59243 33.4596H4.76172C4.39879 33.4606 4.03925 33.3897 3.70376 33.2509C3.36828 33.1122 3.06346 32.9083 2.80683 32.651C2.5502 32.3938 2.34683 32.0882 2.2084 31.7519C2.06997 31.4156 1.99921 31.0552 2.0002 30.6914V5.79216C1.99818 5.71463 2.0118 5.63748 2.04025 5.56535C2.0687 5.49322 2.11138 5.42759 2.16575 5.37239C2.22011 5.3172 2.28503 5.27358 2.35662 5.24414C2.42821 5.21471 2.50499 5.20007 2.58235 5.20111H7.69692H7.8238C7.8699 5.20726 7.91362 5.22531 7.95068 5.25348C7.99456 5.2712 8.03498 5.29653 8.0701 5.3283L8.15966 5.42556C8.18292 5.45723 8.20059 5.49265 8.21191 5.5303L13.1304 13.2814L18.0937 5.47045C18.1119 5.43983 18.1345 5.41209 18.1608 5.38815C18.1847 5.36175 18.2124 5.33905 18.2429 5.32081C18.3057 5.26984 18.3763 5.22941 18.4519 5.20111H18.5788L23.1877 5.16241C23.2618 5.16241 23.3353 5.17717 23.4037 5.20583C23.4721 5.2345 23.5341 5.2765 23.5862 5.3294C23.6383 5.3823 23.6793 5.44505 23.707 5.51399C23.7347 5.58294 23.7485 5.65671 23.7475 5.73103V32.7551Z" fill="#0B2540"/>
</svg>
