<svg width="180" height="180" viewBox="0 0 180 180" fill="none" xmlns="http://www.w3.org/2000/svg">
<path d="M150.816 23.5994C150.777 23.3917 150.676 23.201 150.525 23.0536C150.403 22.8833 150.241 22.7459 150.053 22.6534C131.449 13.0245 110.816 8 89.8782 8C68.9407 8 48.3073 13.0245 29.7031 22.6534C29.5219 22.7555 29.3617 22.8914 29.2313 23.0536C29.1001 23.2149 29.0014 23.4003 28.941 23.5994C21.0698 52.7626 23.4142 83.7498 35.5827 111.389C38.2261 117.388 42.5463 122.491 48.021 126.081C53.4957 129.671 59.8906 131.594 66.4324 131.618H130.237C131.25 131.589 132.243 131.327 133.14 130.854C134.043 130.348 134.804 129.622 135.354 128.744C145.095 113.264 151.503 95.9152 154.165 77.8088C156.828 59.7024 155.687 41.2381 150.816 23.5994ZM88.2087 101.712C79.9911 101.454 72.1558 99.0666 65.0956 94.8435C58.0353 90.6204 52.1641 84.6646 48.0355 77.5375C43.9069 70.4104 41.6568 62.3467 41.4973 54.1066C41.3379 45.8665 43.2743 37.7215 47.1242 30.4392C47.304 30.0705 47.5645 29.7471 47.8863 29.4933C48.2026 29.2374 48.5764 29.0626 48.9751 28.9839C60.3872 25.8921 72.1127 24.1101 83.926 23.6721C86.8336 29.6698 88.3474 36.25 88.3539 42.9183C88.3638 49.7808 86.7598 56.549 83.672 62.6738C83.5828 62.958 83.5828 63.2628 83.672 63.547C83.7002 63.847 83.828 64.1288 84.0349 64.3474C86.1442 66.6688 88.0053 69.2051 89.5879 71.9149C89.849 72.3683 90.2246 72.7449 90.677 73.0067C91.1293 73.2686 91.6424 73.4064 92.1647 73.4065C92.6753 73.4034 93.1761 73.2654 93.6165 73.0063C94.0805 72.7604 94.46 72.3801 94.7053 71.9149C96.207 69.2049 97.9826 66.6569 100.004 64.311C100.197 64.0834 100.323 63.8061 100.367 63.5106C100.436 63.2237 100.436 62.9243 100.367 62.6374C97.5369 56.9772 95.9526 50.7736 95.7215 44.4464C95.5013 38.0982 96.6656 31.7784 99.1332 25.9278C99.3642 25.344 99.7866 24.8564 100.331 24.5453C100.853 24.191 101.48 24.0243 102.109 24.0723C111.823 24.8249 121.446 26.4814 130.854 29.0203C131.255 29.1124 131.628 29.2996 131.943 29.5661C132.253 29.817 132.512 30.1259 132.705 30.4756C136.66 38.0114 138.586 46.4508 138.294 54.9608C137.821 67.8128 132.283 79.9522 122.893 88.7164C113.504 97.4806 101.031 102.154 88.2087 101.712ZM93.8705 170.474C103.671 164.335 112.628 156.935 120.51 148.463C120.702 148.249 120.828 147.983 120.873 147.699C120.964 147.427 120.964 147.134 120.873 146.862C120.775 146.586 120.582 146.354 120.329 146.207C120.095 146.036 119.819 145.935 119.53 145.916H61.4602C61.1719 145.935 60.895 146.036 60.6618 146.207C60.4086 146.354 60.2157 146.586 60.1173 146.862C60.045 147.136 60.045 147.425 60.1173 147.699C60.1912 147.981 60.3277 148.242 60.5166 148.463C68.5551 156.996 77.6978 164.411 87.7006 170.51C88.6516 171.092 89.7441 171.4 90.8582 171.4C91.9723 171.4 93.0648 171.092 94.0157 170.51L93.8705 170.474Z" fill="#0B2540"/>
<path d="M126.39 48.1218C126.395 50.5854 125.661 52.9936 124.285 55.0344C122.911 57.0796 120.967 58.6739 118.696 59.6186C116.404 60.5867 113.874 60.8402 111.437 60.3462C109.034 59.847 106.827 58.6589 105.085 56.9263C103.34 55.19 102.152 52.9705 101.673 50.5526C101.195 48.1346 101.448 45.6285 102.4 43.3557C103.317 41.0841 104.899 39.1437 106.936 37.7893C108.976 36.4174 111.376 35.6831 113.832 35.6791C114.712 35.6639 115.59 35.7617 116.445 35.9702C115.635 36.6032 114.977 37.4116 114.522 38.335C114.072 39.2653 113.837 40.2847 113.832 41.3183C113.834 42.2196 114.019 43.1109 114.377 43.9379C114.714 44.7535 115.207 45.495 115.828 46.1208C116.454 46.7678 117.208 47.276 118.042 47.6125C118.875 47.9423 119.761 48.115 120.655 48.1218C121.681 48.1183 122.692 47.8845 123.616 47.4374C124.539 46.9904 125.351 46.3416 125.991 45.5387C126.215 46.3829 126.349 47.2489 126.39 48.1218Z" fill="#0B2540"/>
<path d="M78.2272 48.1196C78.2276 50.5772 77.5082 52.9807 76.1585 55.0322C74.7755 57.0687 72.8344 58.6608 70.5692 59.6164C68.2758 60.5779 65.7483 60.8313 63.3104 60.344C60.9075 59.8449 58.701 58.6568 56.959 56.9241C55.2282 55.1849 54.0531 52.9684 53.5837 50.5572C53.0679 48.118 53.3085 45.579 54.2733 43.2808C55.218 41.0146 56.8087 39.0783 58.8463 37.7143C60.8822 36.3344 63.2845 35.5993 65.7421 35.6042C66.6218 35.5928 67.4995 35.6906 68.3553 35.8952C67.525 36.5078 66.8632 37.3214 66.4317 38.2601C65.9659 39.1844 65.7293 40.2078 65.7421 41.2434C65.7423 42.1363 65.9188 43.0204 66.2614 43.8446C66.604 44.6688 67.1059 45.417 67.7383 46.0458C68.3632 46.683 69.109 47.1883 69.9318 47.532C70.7546 47.8756 71.6377 48.0507 72.5291 48.0469C73.5621 48.0597 74.583 47.8226 75.5052 47.3556C76.4327 46.9256 77.2422 46.2764 77.8643 45.4637C78.101 46.3292 78.223 47.2222 78.2272 48.1196Z" fill="#0B2540"/>
<path d="M162.828 133.548V144.136C162.8 144.611 162.608 145.061 162.284 145.409C161.946 145.749 161.491 145.944 161.013 145.955H133.285C132.992 145.957 132.704 145.881 132.45 145.736C132.221 145.563 132.035 145.339 131.906 145.082C131.833 144.807 131.833 144.519 131.906 144.245C131.944 143.965 132.057 143.701 132.232 143.481C134.979 140.151 137.547 136.678 139.927 133.075C140.208 132.676 140.581 132.352 141.015 132.13C141.435 131.888 141.911 131.762 142.395 131.766H160.941C161.414 131.763 161.87 131.946 162.211 132.275C162.557 132.616 162.775 133.065 162.828 133.548Z" fill="#0B2540"/>
<path d="M47.3006 133.039C49.8049 136.677 52.4543 140.134 55.2853 143.481C55.4773 143.695 55.6033 143.96 55.6482 144.245C55.7369 144.517 55.7369 144.81 55.6482 145.082C55.5402 145.343 55.3487 145.56 55.1038 145.7C54.8675 145.86 54.5903 145.948 54.3053 145.955H25.8147C25.5767 145.958 25.3407 145.911 25.1219 145.817C24.9032 145.723 24.7064 145.584 24.5444 145.409C24.2057 145.071 24.0107 144.615 24 144.136V133.585C24.0107 133.106 24.2057 132.65 24.5444 132.311C24.7064 132.137 24.9032 131.998 25.1219 131.904C25.3407 131.81 25.5767 131.763 25.8147 131.766H44.7964C45.2873 131.762 45.7722 131.874 46.2118 132.093C46.6457 132.316 47.0194 132.64 47.3006 133.039Z" fill="#0B2540"/>
</svg>
