<svg width="65" height="65" viewBox="0 0 65 65" fill="none" xmlns="http://www.w3.org/2000/svg">
<path d="M54.4613 8.52203C54.4475 8.44703 54.4109 8.37817 54.3564 8.32496C54.3124 8.26346 54.2538 8.21381 54.186 8.18044C47.4679 4.70332 40.0169 2.88892 32.4561 2.88892C24.8953 2.88892 17.4444 4.70332 10.7262 8.18044C10.6608 8.2173 10.603 8.26635 10.5559 8.32496C10.5085 8.38319 10.4728 8.45013 10.451 8.52203C7.60866 19.0532 8.45523 30.243 12.8494 40.224C13.804 42.3902 15.364 44.2328 17.341 45.5292C19.318 46.8255 21.6273 47.52 23.9896 47.5287H47.0301C47.396 47.5182 47.7547 47.4238 48.0786 47.2528C48.4046 47.07 48.6795 46.808 48.8781 46.4908C52.3957 40.901 54.7094 34.6361 55.6708 28.0977C56.6323 21.5592 56.2203 14.8915 54.4613 8.52203ZM31.9188 36.7162C28.9513 36.6231 26.0564 35.7741 23.5068 34.2491C20.9573 32.7241 18.8371 30.5734 17.3463 27.9997C15.8554 25.426 15.0428 22.5141 14.9853 19.5385C14.9277 16.5629 15.6269 13.6217 17.0172 10.992C17.0821 10.8588 17.1762 10.742 17.2924 10.6504C17.4066 10.558 17.5416 10.4949 17.6856 10.4664C21.8066 9.34995 26.0408 8.70644 30.3067 8.5483C31.3567 10.7141 31.9033 13.0903 31.9057 15.4983C31.9093 17.9764 31.33 20.4205 30.215 22.6322C30.1828 22.7349 30.1828 22.8449 30.215 22.9475C30.2252 23.0559 30.2713 23.1577 30.3461 23.2366C31.1077 24.0749 31.7798 24.9908 32.3513 25.9693C32.4456 26.133 32.5812 26.269 32.7446 26.3636C32.9079 26.4581 33.0932 26.5079 33.2818 26.5079C33.4662 26.5068 33.647 26.457 33.8061 26.3634C33.9736 26.2746 34.1106 26.1373 34.1992 25.9693C34.7415 24.9907 35.3827 24.0706 36.1127 23.2234C36.1825 23.1412 36.2279 23.0411 36.2438 22.9344C36.2688 22.8308 36.2688 22.7227 36.2438 22.6191C35.2217 20.5751 34.6497 18.3349 34.5662 16.0501C34.4867 13.7577 34.9071 11.4756 35.7982 9.36286C35.8816 9.15203 36.0341 8.97596 36.2307 8.86361C36.4194 8.73565 36.6457 8.67545 36.8729 8.69282C40.3807 8.96458 43.8556 9.56274 47.2529 10.4796C47.3978 10.5129 47.5326 10.5804 47.6461 10.6767C47.7581 10.7673 47.8516 10.8788 47.9213 11.0051C49.3495 13.7264 50.0452 16.7739 49.9397 19.847C49.7689 24.488 47.7689 28.8717 44.3783 32.0365C40.9877 35.2014 36.4834 36.889 31.8533 36.7293L31.9188 36.7162ZM33.8978 61.5601C37.437 59.3432 40.6712 56.671 43.5177 53.6116C43.587 53.5343 43.6325 53.4385 43.6487 53.3357C43.6817 53.2377 43.6817 53.1316 43.6487 53.0336C43.6132 52.9339 43.5436 52.8501 43.4521 52.7971C43.3679 52.7354 43.2679 52.6989 43.1638 52.692H22.1941C22.09 52.6989 21.99 52.7354 21.9057 52.7971C21.8143 52.8501 21.7447 52.9339 21.7091 53.0336C21.683 53.1326 21.683 53.2367 21.7091 53.3357C21.7358 53.4374 21.7851 53.5318 21.8533 53.6116C24.7561 56.693 28.0576 59.3707 31.6698 61.5733C32.0132 61.7833 32.4077 61.8945 32.81 61.8945C33.2123 61.8945 33.6068 61.7833 33.9502 61.5733L33.8978 61.5601Z" fill="#0B2540"/>
<path d="M45.641 17.3772C45.6427 18.2668 45.3779 19.1365 44.8808 19.8735C44.3848 20.612 43.6828 21.1877 42.8625 21.5288C42.0349 21.8784 41.1215 21.97 40.2413 21.7916C39.3735 21.6113 38.5767 21.1823 37.9477 20.5566C37.3173 19.9296 36.8882 19.1282 36.7154 18.255C36.5426 17.3819 36.634 16.4769 36.9779 15.6562C37.3092 14.8358 37.8803 14.1351 38.6161 13.646C39.3527 13.1507 40.2193 12.8855 41.1063 12.884C41.424 12.8785 41.7411 12.9139 42.0499 12.9891C41.7572 13.2177 41.5197 13.5097 41.3553 13.8431C41.193 14.179 41.1079 14.5472 41.1063 14.9204C41.1069 15.2459 41.1738 15.5677 41.3029 15.8664C41.4246 16.1609 41.6027 16.4287 41.8271 16.6546C42.0531 16.8883 42.3254 17.0718 42.6266 17.1933C42.9271 17.3124 43.247 17.3748 43.5702 17.3772C43.9405 17.376 44.3057 17.2915 44.6391 17.1301C44.9726 16.9687 45.2656 16.7344 45.4968 16.4444C45.578 16.7493 45.6263 17.062 45.641 17.3772Z" fill="#0B2540"/>
<path d="M28.2488 17.3764C28.2489 18.2639 27.9892 19.1318 27.5018 19.8726C27.0023 20.608 26.3014 21.1829 25.4834 21.528C24.6553 21.8752 23.7425 21.9667 22.8622 21.7908C21.9945 21.6105 21.1977 21.1815 20.5686 20.5558C19.9436 19.9278 19.5193 19.1274 19.3498 18.2567C19.1635 17.3758 19.2504 16.459 19.5988 15.6291C19.9399 14.8107 20.5144 14.1115 21.2501 13.619C21.9853 13.1206 22.8528 12.8552 23.7403 12.8569C24.058 12.8529 24.3749 12.8882 24.6839 12.9621C24.3841 13.1833 24.1451 13.4771 23.9893 13.816C23.8211 14.1498 23.7357 14.5194 23.7403 14.8933C23.7404 15.2158 23.8041 15.535 23.9278 15.8327C24.0515 16.1303 24.2328 16.4005 24.4611 16.6276C24.6868 16.8576 24.9561 17.0401 25.2533 17.1642C25.5504 17.2883 25.8693 17.3515 26.1911 17.3501C26.5642 17.3548 26.9328 17.2691 27.2658 17.1005C27.6008 16.9452 27.8931 16.7108 28.1177 16.4173C28.2032 16.7299 28.2473 17.0523 28.2488 17.3764Z" fill="#0B2540"/>
<path d="M17.5532 48.0419C18.4575 49.3557 19.4142 50.6038 20.4365 51.8125C20.5058 51.8899 20.5514 51.9857 20.5676 52.0884C20.5996 52.1866 20.5996 52.2925 20.5676 52.3906C20.5286 52.4849 20.4594 52.5634 20.371 52.614C20.2856 52.6717 20.1855 52.7036 20.0826 52.7059H9.79434C9.7084 52.707 9.62318 52.69 9.54418 52.656C9.46518 52.6221 9.39414 52.572 9.33563 52.5089C9.21334 52.3868 9.14289 52.222 9.13904 52.049V48.239C9.14289 48.066 9.21334 47.9013 9.33563 47.7792C9.39414 47.7161 9.46518 47.6659 9.54418 47.632C9.62318 47.598 9.7084 47.5811 9.79434 47.5821H16.6488C16.8261 47.5807 17.0012 47.6212 17.16 47.7004C17.3167 47.7807 17.4516 47.8979 17.5532 48.0419Z" fill="#0B2540"/>
<path d="M58.7992 48.2258V52.049C58.7893 52.2206 58.7198 52.3833 58.6026 52.5088C58.4809 52.6314 58.3165 52.702 58.1439 52.7059H48.1309C48.0253 52.7066 47.9213 52.6794 47.8295 52.6271C47.7468 52.5643 47.6796 52.4834 47.6329 52.3906C47.6068 52.2916 47.6068 52.1874 47.6329 52.0884C47.6466 51.9875 47.6874 51.8921 47.7508 51.8125C48.7426 50.6102 49.6701 49.3559 50.5293 48.0551C50.6309 47.911 50.7658 47.7938 50.9225 47.7135C51.0739 47.6261 51.2458 47.5807 51.4205 47.5821H58.1177C58.2887 47.5811 58.4533 47.6471 58.5764 47.766C58.7013 47.889 58.78 48.0514 58.7992 48.2258Z" fill="#0B2540"/>
</svg>
