<svg width="175" height="76" viewBox="0 0 175 76" fill="none" xmlns="http://www.w3.org/2000/svg">
<path d="M165.553 10.1977C165.537 10.111 165.496 10.0314 165.435 9.96992C165.385 9.89885 165.319 9.84149 165.243 9.80292C157.684 5.78481 149.3 3.68811 140.793 3.68811C132.286 3.68811 123.902 5.78481 116.343 9.80292C116.269 9.84552 116.204 9.9022 116.151 9.96992C116.098 10.0372 116.058 10.1146 116.033 10.1977C112.835 22.3673 113.788 35.2981 118.732 46.832C119.806 49.3352 121.561 51.4646 123.786 52.9626C126.01 54.4606 128.609 55.2632 131.267 55.2733H157.191C157.603 55.2611 158.007 55.152 158.371 54.9544C158.738 54.7432 159.047 54.4404 159.271 54.0739C163.228 47.6143 165.832 40.3747 166.914 32.819C167.995 25.2633 167.532 17.5582 165.553 10.1977ZM140.115 42.7936C136.776 42.686 133.592 41.6897 130.723 39.9275C127.855 38.1652 125.469 35.6799 123.792 32.7058C122.114 29.7316 121.2 26.3667 121.135 22.9282C121.07 19.4896 121.857 16.0907 123.421 13.0519C123.495 12.898 123.6 12.7631 123.731 12.6571C123.86 12.5504 124.011 12.4774 124.174 12.4446C128.81 11.1544 133.575 10.4108 138.375 10.228C139.556 12.7308 140.171 15.4767 140.174 18.2593C140.178 21.123 139.526 23.9474 138.271 26.5032C138.235 26.6218 138.235 26.749 138.271 26.8676C138.283 26.9928 138.335 27.1104 138.419 27.2016C139.276 28.1703 140.032 29.2287 140.675 30.3595C140.781 30.5487 140.934 30.7058 141.118 30.8151C141.301 30.9243 141.51 30.9819 141.722 30.9819C141.929 30.9806 142.133 30.923 142.312 30.8149C142.5 30.7123 142.655 30.5536 142.754 30.3595C143.364 29.2286 144.086 28.1653 144.907 27.1864C144.986 27.0914 145.037 26.9757 145.055 26.8524C145.083 26.7327 145.083 26.6078 145.055 26.488C143.905 24.126 143.261 21.5373 143.167 18.897C143.078 16.2479 143.551 13.6107 144.553 11.1693C144.647 10.9257 144.819 10.7222 145.04 10.5924C145.252 10.4445 145.507 10.375 145.763 10.395C149.709 10.7091 153.619 11.4003 157.442 12.4598C157.605 12.4982 157.757 12.5763 157.884 12.6875C158.01 12.7922 158.116 12.9211 158.194 13.0671C159.801 16.2117 160.584 19.7334 160.465 23.2846C160.273 28.6477 158.023 33.7134 154.208 37.3706C150.393 41.0279 145.324 42.9781 140.115 42.7936ZM142.474 71.5029C146.456 68.9411 150.036 65.8379 153.239 62.3026C153.317 62.2132 153.368 62.1024 153.387 61.9837C153.424 61.8705 153.424 61.7478 153.387 61.6345C153.347 61.5194 153.268 61.4225 153.165 61.3613C153.071 61.2899 152.958 61.2478 152.841 61.2398H129.246C129.129 61.2478 129.017 61.2899 128.922 61.3613C128.819 61.4225 128.741 61.5194 128.701 61.6345C128.671 61.749 128.671 61.8693 128.701 61.9837C128.731 62.1013 128.786 62.2103 128.863 62.3026C132.129 65.8634 135.844 68.9577 139.908 71.5029C140.295 71.7457 140.738 71.8741 141.191 71.8741C141.644 71.8741 142.088 71.7457 142.474 71.5029Z" fill="#0B2540"/>
<path d="M136.059 20.4294C136.059 21.4549 135.767 22.4579 135.219 23.314C134.657 24.1638 133.868 24.8282 132.948 25.2269C132.016 25.6282 130.989 25.7339 129.998 25.5306C129.022 25.3223 128.125 24.8265 127.418 24.1035C126.714 23.3777 126.237 22.4528 126.046 21.4466C125.836 20.4287 125.934 19.3692 126.326 18.4102C126.71 17.4645 127.356 16.6565 128.184 16.0873C129.012 15.5115 129.988 15.2047 130.986 15.2068C131.344 15.202 131.7 15.2428 132.048 15.3282C131.711 15.5839 131.442 15.9234 131.266 16.3151C131.077 16.7008 130.981 17.1279 130.986 17.56C130.986 17.9326 131.058 18.3015 131.197 18.6455C131.336 18.9894 131.54 19.3016 131.797 19.564C132.051 19.8299 132.354 20.0408 132.689 20.1842C133.023 20.3276 133.382 20.4006 133.744 20.399C134.164 20.4044 134.578 20.3054 134.953 20.1106C135.33 19.9311 135.659 19.6602 135.912 19.3211C136.008 19.6823 136.057 20.0549 136.059 20.4294Z" fill="#0B2540"/>
<path d="M155.628 20.4312C155.63 21.4592 155.332 22.4641 154.773 23.3158C154.215 24.1692 153.425 24.8345 152.502 25.2287C151.571 25.6327 150.543 25.7385 149.553 25.5323C148.576 25.324 147.68 24.8282 146.972 24.1052C146.263 23.3807 145.78 22.4545 145.585 21.4455C145.391 20.4365 145.494 19.3907 145.881 18.4423C146.254 17.4944 146.896 16.6846 147.724 16.1195C148.553 15.547 149.528 15.2405 150.526 15.2389C150.883 15.2325 151.24 15.2734 151.588 15.3603C151.258 15.6245 150.991 15.9618 150.806 16.3472C150.623 16.7354 150.528 17.1608 150.526 17.5921C150.527 17.9682 150.602 18.3401 150.747 18.6852C150.884 19.0256 151.085 19.335 151.337 19.5961C151.591 19.8661 151.898 20.0782 152.237 20.2186C152.575 20.3562 152.935 20.4283 153.298 20.4312C153.715 20.4297 154.126 20.3321 154.501 20.1456C154.876 19.959 155.206 19.6883 155.466 19.3532C155.557 19.7055 155.612 20.0669 155.628 20.4312Z" fill="#0B2540"/>
<path d="M170.434 56.0791V60.497C170.422 60.6953 170.344 60.8833 170.212 61.0284C170.075 61.1701 169.89 61.2517 169.696 61.2561H158.43C158.311 61.2569 158.194 61.2255 158.091 61.1651C157.998 61.0925 157.922 60.999 157.869 60.8918C157.84 60.7773 157.84 60.657 157.869 60.5426C157.885 60.4259 157.931 60.3158 158.002 60.2238C159.118 58.8343 160.162 57.3849 161.128 55.8817C161.243 55.7152 161.395 55.5798 161.571 55.487C161.741 55.386 161.935 55.3336 162.131 55.3351H169.667C169.859 55.3339 170.044 55.4102 170.183 55.5477C170.323 55.6898 170.412 55.8775 170.434 56.0791Z" fill="#0B2540"/>
<path d="M123.649 55.8665C124.667 57.3847 125.743 58.827 126.893 60.2238C126.971 60.3132 127.022 60.4239 127.041 60.5426C127.077 60.6561 127.077 60.7784 127.041 60.8918C126.997 61.0007 126.919 61.0915 126.82 61.1499C126.724 61.2166 126.611 61.2535 126.495 61.2562H114.919C114.822 61.2574 114.726 61.2377 114.638 61.1985C114.549 61.1593 114.469 61.1014 114.403 61.0284C114.265 60.8874 114.186 60.6969 114.182 60.4971V56.0943C114.186 55.8944 114.265 55.704 114.403 55.5629C114.469 55.49 114.549 55.432 114.638 55.3928C114.726 55.3536 114.822 55.3339 114.919 55.3352H122.631C122.831 55.3335 123.028 55.3803 123.207 55.4718C123.383 55.5646 123.535 55.7 123.649 55.8665Z" fill="#0B2540"/>
<path d="M108.713 10.5643V60.412C108.705 60.7378 108.572 61.0481 108.341 61.2772C108.11 61.5064 107.799 61.6364 107.474 61.6399H102.46C101.351 61.6405 100.274 61.2662 99.4042 60.5776C99.212 60.4368 99.0281 60.2848 98.8537 60.1223C98.5402 59.8429 98.271 59.5172 98.0554 59.1565L80.1632 30.9973V60.3844C80.1633 60.7077 80.0361 61.018 79.8093 61.2478C79.5826 61.4777 79.2745 61.6087 78.9521 61.6123H73.7833C73.1134 61.6123 72.4501 61.4798 71.8314 61.2224C71.2126 60.965 70.6506 60.5878 70.1776 60.1123C69.7045 59.6368 69.3297 59.0724 69.0746 58.4515C68.8195 57.8306 68.6891 57.1653 68.6909 56.4937V10.6057C68.6909 10.3227 68.8021 10.051 69.0005 9.84959C69.1988 9.64816 69.4684 9.53318 69.7507 9.52956H79.186C79.2635 9.51643 79.3426 9.51643 79.42 9.52956C79.5951 9.55847 79.7552 9.64602 79.8742 9.7779L80.0256 9.94346L80.1357 10.1228L97.3673 37.3576V10.6057C97.3673 10.3203 97.4804 10.0466 97.6817 9.84475C97.883 9.64294 98.1561 9.52956 98.4408 9.52956H107.68C107.953 9.53313 108.213 9.6433 108.406 9.83658C108.599 10.0299 108.709 10.291 108.713 10.5643Z" fill="#0B2540"/>
<path d="M51.9801 9.51971H60.5304C60.7384 9.51971 60.938 9.60257 61.0851 9.75005C61.2322 9.89753 61.3149 10.0976 61.3149 10.3061V60.7057C61.3149 60.9545 61.2163 61.1931 61.0408 61.3691C60.8652 61.545 60.6272 61.6438 60.379 61.6438L55.0218 61.6438C53.9998 61.6438 53.0195 61.2368 52.2968 60.5123C51.5741 59.7879 51.1681 58.8053 51.1681 57.7807V10.3475C51.1663 10.2395 51.1859 10.1321 51.2259 10.0318C51.2659 9.93142 51.3254 9.84004 51.401 9.76299C51.4766 9.68593 51.5667 9.62474 51.6662 9.58297C51.7656 9.5412 51.8723 9.5197 51.9801 9.51971Z" fill="#0B2540"/>
<path d="M43.7916 60.4021C43.7916 60.5645 43.7594 60.7253 43.697 60.8752C43.6346 61.0251 43.5431 61.1611 43.4279 61.2753C43.3127 61.3895 43.1761 61.4796 43.0258 61.5405C42.8756 61.6014 42.7149 61.6318 42.5529 61.63L38.2929 61.7014C36.9423 61.7014 35.647 61.1635 34.692 60.2062C33.737 59.2489 33.2005 57.9504 33.2005 56.5966V31.114L30.8056 34.9219L28.521 38.4814C28.3657 38.7086 28.1956 38.9253 28.0117 39.1299C27.8305 39.3395 27.6275 39.5292 27.4061 39.6956C27.2028 39.8706 26.9813 40.0232 26.7455 40.1509C26.5229 40.2878 26.2879 40.4033 26.0436 40.4958C25.8429 40.581 25.6358 40.6502 25.4242 40.7027C25.2436 40.7527 25.0596 40.7896 24.8737 40.8131C24.5896 40.849 23.9726 40.8687 23.9726 40.8687C23.9726 40.8687 23.9726 40.8687 23.1533 40.8131C22.8205 40.754 22.4966 40.6519 22.1899 40.5096L21.8596 40.344L21.5292 40.1509L21.1163 39.8887C20.6654 39.5306 20.2751 39.102 19.9602 38.6194L17.6755 35.0047L15.2257 31.114V60.4735C15.2257 60.7991 15.0966 61.1114 14.8669 61.3417C14.6372 61.572 14.3256 61.7014 14.0007 61.7014H8.78075C8.1115 61.7032 7.44848 61.5724 6.82982 61.3165C6.21117 61.0606 5.64906 60.6847 5.17583 60.2103C4.70259 59.7359 4.32756 59.1724 4.07229 58.5522C3.81701 57.9321 3.68653 57.2675 3.68835 56.5966V10.681C3.68463 10.538 3.70975 10.3958 3.76221 10.2627C3.81467 10.1297 3.89338 10.0087 3.99363 9.90693C4.09388 9.80514 4.2136 9.7247 4.34561 9.67043C4.47763 9.61615 4.61921 9.58916 4.76188 9.59106H14.1934H14.4274C14.5124 9.60241 14.593 9.63569 14.6614 9.68764C14.7423 9.72032 14.8168 9.76702 14.8816 9.82561L15.0467 10.005C15.0896 10.0634 15.1222 10.1287 15.1431 10.1981L24.2131 24.4915L33.3656 10.0877C33.3992 10.0313 33.4409 9.98013 33.4895 9.93598C33.5335 9.88729 33.5845 9.84544 33.6409 9.81181C33.7566 9.71781 33.8867 9.64326 34.0262 9.59106H34.2602L42.7593 9.51971C42.896 9.5197 43.0314 9.54692 43.1575 9.59978C43.2837 9.65264 43.3981 9.7301 43.4941 9.82765C43.5902 9.9252 43.6659 10.0409 43.717 10.168C43.768 10.2952 43.7934 10.4312 43.7916 10.5683V60.4021Z" fill="#0B2540"/>
</svg>
