<svg width="38" height="43" viewBox="0 0 38 43" fill="none" xmlns="http://www.w3.org/2000/svg">
<path d="M31.6321 6.53229C31.6235 6.48527 31.6005 6.44208 31.5664 6.40872C31.5388 6.37016 31.5021 6.33903 31.4595 6.3181C27.2469 4.13774 22.5747 3 17.8336 3C13.0925 3 8.42037 4.13774 4.20768 6.3181C4.16664 6.34121 4.13038 6.37197 4.10084 6.40872C4.07112 6.44523 4.04879 6.48721 4.0351 6.53229C2.25277 13.136 2.78362 20.1526 5.53904 26.4113C6.1376 27.7696 7.11586 28.9251 8.35554 29.738C9.59523 30.5508 11.0433 30.9863 12.5246 30.9918H26.9724C27.2018 30.9852 27.4267 30.926 27.6298 30.8188C27.8342 30.7042 28.0066 30.5399 28.1311 30.341C30.3369 26.8358 31.7877 22.9074 32.3906 18.8074C32.9935 14.7074 32.7351 10.5264 31.6321 6.53229ZM17.4556 24.2199C15.5948 24.1616 13.8206 23.6209 12.2219 22.6647C10.6232 21.7084 9.2937 20.3598 8.35882 18.7459C7.42394 17.1321 6.91444 15.3062 6.87834 13.4403C6.84223 11.5744 7.28072 9.73007 8.15246 8.08109C8.19319 7.99759 8.25218 7.92438 8.32505 7.8669C8.39667 7.80897 8.4813 7.76938 8.5716 7.75156C11.1557 7.05145 13.8108 6.64793 16.4858 6.54877C17.1442 7.90687 17.487 9.39687 17.4884 10.9068C17.4907 12.4608 17.1275 13.9933 16.4283 15.3802C16.4081 15.4446 16.4081 15.5136 16.4283 15.5779C16.4347 15.6459 16.4636 15.7097 16.5105 15.7592C16.9881 16.2848 17.4095 16.8592 17.7679 17.4728C17.827 17.5754 17.9121 17.6607 18.0145 17.72C18.1169 17.7793 18.2331 17.8105 18.3514 17.8105C18.467 17.8098 18.5804 17.7786 18.6801 17.7199C18.7852 17.6642 18.8711 17.5781 18.9266 17.4728C19.2667 16.8591 19.6687 16.2821 20.1265 15.751C20.1702 15.6994 20.1987 15.6366 20.2087 15.5697C20.2244 15.5047 20.2244 15.437 20.2087 15.372C19.5678 14.0903 19.2091 12.6856 19.1568 11.2528C19.1069 9.81538 19.3705 8.38433 19.9293 7.05954C19.9816 6.92734 20.0772 6.81694 20.2005 6.74649C20.3188 6.66625 20.4607 6.6285 20.6032 6.63939C22.8028 6.8098 24.9818 7.18488 27.1121 7.7598C27.2029 7.78066 27.2875 7.82304 27.3586 7.88338C27.4289 7.9402 27.4875 8.01015 27.5312 8.08933C28.4268 9.79572 28.863 11.7067 28.7968 13.6337C28.6897 16.5439 27.4356 19.2927 25.3095 21.2773C23.1834 23.2618 20.3589 24.3201 17.4556 24.2199ZM18.7376 39.7903C20.9569 38.4002 22.9849 36.7245 24.7699 34.8062C24.8133 34.7576 24.8419 34.6976 24.852 34.6331C24.8727 34.5717 24.8727 34.5051 24.852 34.4437C24.8298 34.3812 24.7861 34.3286 24.7288 34.2954C24.6759 34.2567 24.6132 34.2338 24.548 34.2295H11.3987C11.3334 34.2338 11.2707 34.2567 11.2179 34.2954C11.1606 34.3286 11.1169 34.3812 11.0946 34.4437C11.0782 34.5058 11.0782 34.5711 11.0946 34.6331C11.1113 34.6969 11.1422 34.7561 11.185 34.8062C13.0052 36.7384 15.0755 38.4174 17.3405 39.7986C17.5558 39.9303 17.8032 40 18.0555 40C18.3078 40 18.5552 39.9303 18.7705 39.7986L18.7376 39.7903Z" fill="#0B2540"/>
<path d="M26.1013 12.085C26.1024 12.6428 25.9364 13.1882 25.6246 13.6503C25.3136 14.1134 24.8734 14.4744 24.359 14.6883C23.8401 14.9075 23.2673 14.9649 22.7154 14.8531C22.1713 14.74 21.6716 14.471 21.2772 14.0787C20.8819 13.6855 20.6128 13.1829 20.5045 12.6354C20.3961 12.0879 20.4534 11.5204 20.669 11.0058C20.8768 10.4914 21.2349 10.052 21.6963 9.74532C22.1582 9.43468 22.7016 9.26839 23.2578 9.2675C23.457 9.26406 23.6559 9.28621 23.8495 9.3334C23.6659 9.47675 23.517 9.6598 23.4139 9.86889C23.3121 10.0795 23.2588 10.3104 23.2578 10.5444C23.2582 10.7485 23.3001 10.9503 23.3811 11.1376C23.4574 11.3223 23.5691 11.4902 23.7098 11.6319C23.8515 11.7784 24.0223 11.8935 24.2111 11.9697C24.3996 12.0443 24.6002 12.0834 24.8028 12.085C25.035 12.0842 25.264 12.0313 25.4731 11.93C25.6822 11.8288 25.866 11.6819 26.0109 11.5001C26.0618 11.6913 26.0921 11.8873 26.1013 12.085Z" fill="#0B2540"/>
<path d="M15.1954 12.0846C15.1955 12.6411 15.0326 13.1853 14.727 13.6499C14.4138 14.111 13.9743 14.4715 13.4614 14.6879C12.9421 14.9056 12.3697 14.963 11.8177 14.8527C11.2736 14.7396 10.774 14.4706 10.3795 14.0783C9.98757 13.6844 9.7215 13.1826 9.6152 12.6366C9.4984 12.0842 9.55289 11.5093 9.77135 10.9889C9.98526 10.4758 10.3455 10.0373 10.8069 9.72845C11.2679 9.41598 11.8118 9.24952 12.3683 9.25063C12.5675 9.24806 12.7663 9.2702 12.9601 9.31653C12.772 9.45525 12.6222 9.63948 12.5245 9.85202C12.419 10.0613 12.3654 10.2931 12.3683 10.5276C12.3684 10.7298 12.4083 10.9299 12.4859 11.1166C12.5635 11.3032 12.6772 11.4726 12.8203 11.615C12.9618 11.7593 13.1307 11.8737 13.317 11.9515C13.5034 12.0294 13.7033 12.069 13.9052 12.0681C14.1391 12.071 14.3702 12.0173 14.5791 11.9116C14.7891 11.8142 14.9724 11.6672 15.1132 11.4832C15.1669 11.6792 15.1945 11.8814 15.1954 12.0846Z" fill="#0B2540"/>
<path d="M34.53 31.4289V33.8262C34.5238 33.9338 34.4802 34.0358 34.4067 34.1146C34.3304 34.1914 34.2273 34.2357 34.1191 34.2381H27.8403C27.7741 34.2385 27.7089 34.2215 27.6513 34.1887C27.5995 34.1493 27.5573 34.0986 27.528 34.0404C27.5117 33.9783 27.5117 33.913 27.528 33.8509C27.5367 33.7876 27.5622 33.7279 27.602 33.6779C28.2239 32.924 28.8055 32.1375 29.3443 31.3218C29.408 31.2314 29.4926 31.1579 29.5908 31.1076C29.6858 31.0528 29.7936 31.0243 29.9031 31.0252H34.1027C34.2099 31.0246 34.3131 31.0659 34.3903 31.1405C34.4686 31.2177 34.5179 31.3195 34.53 31.4289Z" fill="#0B2540"/>
<path d="M8.44168 31.3135C9.00874 32.1374 9.60867 32.92 10.2497 33.6779C10.2932 33.7264 10.3217 33.7865 10.3319 33.8509C10.352 33.9125 10.352 33.9789 10.3319 34.0404C10.3074 34.0995 10.2641 34.1488 10.2086 34.1805C10.1551 34.2167 10.0923 34.2367 10.0278 34.2381H3.57644C3.52255 34.2388 3.46912 34.2282 3.41958 34.2069C3.37004 34.1856 3.32549 34.1542 3.2888 34.1146C3.21212 34.038 3.16794 33.9347 3.16553 33.8262V31.4371C3.16794 31.3287 3.21212 31.2253 3.2888 31.1488C3.32549 31.1092 3.37004 31.0778 3.41958 31.0565C3.46912 31.0352 3.52255 31.0245 3.57644 31.0252H7.87461C7.98578 31.0243 8.09559 31.0497 8.19513 31.0993C8.29338 31.1497 8.37799 31.2232 8.44168 31.3135Z" fill="#0B2540"/>
</svg>
