<svg width="242" height="106" viewBox="0 0 242 106" fill="none" xmlns="http://www.w3.org/2000/svg">
<path d="M230.09 14.173C230.069 14.0526 230.012 13.942 229.926 13.8565C229.858 13.7577 229.766 13.678 229.66 13.6244C219.154 8.03991 207.502 5.12585 195.679 5.12585C183.855 5.12585 172.203 8.03991 161.697 13.6244C161.595 13.6836 161.505 13.7624 161.431 13.8565C161.357 13.95 161.301 14.0575 161.267 14.173C156.822 31.0868 158.146 49.0584 165.018 65.0886C166.51 68.5677 168.95 71.5271 172.042 73.6091C175.133 75.6911 178.744 76.8065 182.439 76.8205H218.469C219.042 76.8036 219.603 76.652 220.109 76.3774C220.619 76.0838 221.049 75.663 221.359 75.1536C226.86 66.1759 230.478 56.114 231.982 45.6129C233.485 35.1117 232.841 24.4029 230.09 14.173ZM194.736 59.4759C190.095 59.3264 185.671 57.9417 181.684 55.4924C177.697 53.0432 174.381 49.589 172.05 45.4555C169.718 41.322 168.448 36.6453 168.358 31.8663C168.268 27.0873 169.361 22.3634 171.535 18.1399C171.637 17.9261 171.784 17.7385 171.965 17.5913C172.144 17.4429 172.355 17.3415 172.58 17.2959C179.025 15.5027 185.646 14.4692 192.317 14.2152C193.959 17.6937 194.814 21.51 194.818 25.3774C194.823 29.3575 193.918 33.2828 192.174 36.835C192.124 36.9998 192.124 37.1766 192.174 37.3414C192.19 37.5154 192.262 37.6789 192.379 37.8056C193.57 39.152 194.621 40.623 195.515 42.1945C195.662 42.4575 195.874 42.6759 196.13 42.8278C196.385 42.9796 196.675 43.0596 196.97 43.0597C197.258 43.0579 197.541 42.9778 197.79 42.8276C198.052 42.6849 198.266 42.4643 198.405 42.1945C199.253 40.6228 200.255 39.1451 201.397 37.7845C201.506 37.6525 201.577 37.4917 201.602 37.3203C201.641 37.1539 201.641 36.9803 201.602 36.8139C200.004 33.5312 199.109 29.9332 198.978 26.2636C198.854 22.5819 199.512 18.9166 200.905 15.5235C201.035 15.1849 201.274 14.9021 201.581 14.7216C201.876 14.5161 202.23 14.4194 202.586 14.4473C208.071 14.8838 213.505 15.8445 218.818 17.317C219.044 17.3704 219.255 17.479 219.433 17.6335C219.608 17.7791 219.754 17.9582 219.863 18.161C222.097 22.5316 223.184 27.4261 223.019 32.3617C222.752 39.8155 219.625 46.8559 214.323 51.9389C209.02 57.0219 201.976 59.7324 194.736 59.4759ZM198.015 99.377C203.55 95.8165 208.525 91.5036 212.977 86.5901C213.085 86.4658 213.156 86.3119 213.182 86.147C213.233 85.9895 213.233 85.8191 213.182 85.6617C213.126 85.5015 213.017 85.3669 212.874 85.2818C212.743 85.1827 212.586 85.1242 212.423 85.113H179.631C179.468 85.1242 179.312 85.1827 179.18 85.2818C179.037 85.3669 178.928 85.5015 178.872 85.6617C178.832 85.8207 178.832 85.9879 178.872 86.147C178.914 86.3103 178.991 86.4618 179.098 86.5901C183.637 91.539 188.8 95.8396 194.449 99.377C194.986 99.7144 195.603 99.893 196.232 99.893C196.861 99.893 197.478 99.7144 198.015 99.377Z" fill="#D2ECFF"/>
<path d="M189.099 28.3934C189.099 29.8187 188.693 31.2127 187.931 32.4025C187.15 33.5837 186.054 34.507 184.775 35.0612C183.48 35.6189 182.052 35.7658 180.676 35.4832C179.319 35.1937 178.073 34.5047 177.089 33.4998C176.112 32.4911 175.448 31.2056 175.183 29.8072C174.892 28.3925 175.027 26.92 175.572 25.5871C176.106 24.2728 177.004 23.1497 178.155 22.3587C179.304 21.5584 180.661 21.132 182.049 21.1349C182.546 21.1283 183.041 21.185 183.525 21.3037C183.056 21.6589 182.682 22.1308 182.438 22.6752C182.175 23.2113 182.042 23.8048 182.049 24.4054C182.049 24.9233 182.149 25.436 182.342 25.9141C182.536 26.3921 182.819 26.826 183.176 27.1907C183.529 27.5602 183.95 27.8533 184.415 28.0526C184.879 28.2519 185.378 28.3535 185.881 28.3512C186.465 28.3587 187.041 28.2212 187.562 27.9503C188.086 27.7009 188.543 27.3244 188.894 26.8531C189.028 27.3551 189.097 27.873 189.099 28.3934Z" fill="#D2ECFF"/>
<path d="M216.297 28.3959C216.3 29.8247 215.886 31.2214 215.108 32.405C214.333 33.5911 213.235 34.5158 211.952 35.0636C210.658 35.6251 209.23 35.7722 207.853 35.4857C206.496 35.1962 205.25 34.5071 204.266 33.5022C203.281 32.4952 202.61 31.208 202.339 29.8057C202.069 28.4033 202.212 26.9499 202.75 25.6317C203.268 24.3142 204.161 23.1888 205.312 22.4033C206.463 21.6077 207.819 21.1818 209.206 21.1795C209.703 21.1707 210.199 21.2274 210.681 21.3483C210.224 21.7154 209.852 22.1843 209.595 22.7198C209.341 23.2594 209.208 23.8506 209.206 24.4501C209.207 24.9728 209.311 25.4897 209.513 25.9693C209.704 26.4423 209.982 26.8724 210.333 27.2353C210.686 27.6106 211.112 27.9053 211.583 28.1005C212.053 28.2918 212.554 28.3919 213.059 28.3959C213.638 28.3939 214.209 28.2582 214.731 27.999C215.252 27.7397 215.71 27.3634 216.072 26.8977C216.199 27.3874 216.274 27.8896 216.297 28.3959Z" fill="#D2ECFF"/>
<path d="M236.874 77.9405V84.0807C236.858 84.3563 236.75 84.6176 236.567 84.8192C236.376 85.0161 236.119 85.1295 235.849 85.1357H220.191C220.026 85.1368 219.863 85.0931 219.719 85.0091C219.59 84.9083 219.485 84.7784 219.412 84.6293C219.371 84.4703 219.371 84.303 219.412 84.144C219.434 83.9819 219.497 83.8288 219.596 83.7009C221.147 81.7698 222.598 79.7554 223.941 77.6661C224.1 77.4348 224.311 77.2465 224.556 77.1175C224.793 76.9772 225.062 76.9044 225.335 76.9065H235.808C236.076 76.9049 236.333 77.0109 236.526 77.2019C236.721 77.3995 236.844 77.6603 236.874 77.9405Z" fill="#D2ECFF"/>
<path d="M171.851 77.6451C173.266 79.7551 174.762 81.7597 176.36 83.7009C176.469 83.8252 176.54 83.9791 176.565 84.144C176.615 84.3017 176.615 84.4717 176.565 84.6294C176.504 84.7807 176.396 84.9069 176.258 84.9881C176.124 85.0808 175.968 85.132 175.807 85.1358H159.718C159.584 85.1375 159.45 85.1102 159.327 85.0557C159.203 85.0012 159.092 84.9206 159.001 84.8193C158.81 84.6232 158.699 84.3586 158.693 84.0807V77.9616C158.699 77.6838 158.81 77.4191 159.001 77.2231C159.092 77.1217 159.203 77.0412 159.327 76.9867C159.45 76.9322 159.584 76.9049 159.718 76.9066H170.437C170.714 76.9043 170.988 76.9693 171.236 77.0965C171.482 77.2254 171.693 77.4137 171.851 77.6451Z" fill="#D2ECFF"/>
<path d="M151.092 14.6826V83.9625C151.082 84.4154 150.897 84.8465 150.576 85.165C150.255 85.4835 149.822 85.6643 149.371 85.6691H142.402C140.861 85.6699 139.365 85.1497 138.155 84.1926C137.888 83.997 137.632 83.7857 137.39 83.5599C136.954 83.1715 136.58 82.7189 136.281 82.2176L111.413 43.0811V83.9242C111.413 84.3735 111.237 84.8047 110.922 85.1242C110.606 85.4437 110.178 85.6257 109.73 85.6308H102.546C101.615 85.6308 100.694 85.4466 99.8336 85.0889C98.9736 84.7311 98.1926 84.2068 97.5351 83.546C96.8776 82.8851 96.3567 82.1007 96.0021 81.2377C95.6476 80.3747 95.4664 79.4501 95.4689 78.5168V14.7401C95.4689 14.3468 95.6234 13.9692 95.8991 13.6893C96.1748 13.4093 96.5494 13.2495 96.9418 13.2445H110.055C110.163 13.2262 110.273 13.2262 110.381 13.2445C110.624 13.2847 110.846 13.4063 111.012 13.5896L111.222 13.8197L111.375 14.069L135.324 51.9208V14.7401C135.324 14.3435 135.481 13.963 135.761 13.6826C136.041 13.4021 136.421 13.2445 136.816 13.2445H149.658C150.037 13.2494 150.399 13.4026 150.667 13.6712C150.935 13.9398 151.087 14.3027 151.092 14.6826Z" fill="#D2ECFF"/>
<path d="M72.2437 13.2308H84.1271C84.4163 13.2308 84.6936 13.346 84.8981 13.5509C85.1025 13.7559 85.2174 14.0339 85.2174 14.3238V84.3707C85.2174 84.7165 85.0804 85.0482 84.8364 85.2927C84.5925 85.5372 84.2616 85.6746 83.9167 85.6746L76.4711 85.6745C75.0506 85.6745 73.6883 85.1089 72.6838 84.102C71.6794 83.0951 71.1151 81.7295 71.1151 80.3055V14.3813C71.1125 14.2311 71.1399 14.082 71.1954 13.9425C71.251 13.803 71.3337 13.676 71.4388 13.5689C71.5439 13.4618 71.6691 13.3768 71.8073 13.3187C71.9455 13.2607 72.0938 13.2308 72.2437 13.2308Z" fill="#D2ECFF"/>
<path d="M60.8629 83.9488C60.863 84.1745 60.8183 84.398 60.7316 84.6063C60.6448 84.8146 60.5177 85.0036 60.3576 85.1623C60.1975 85.3211 60.0075 85.4464 59.7987 85.531C59.59 85.6156 59.3665 85.6579 59.1414 85.6554L53.2207 85.7545C51.3436 85.7545 49.5434 85.007 48.2161 83.6765C46.8888 82.346 46.1431 80.5414 46.1431 78.6597V43.2432L42.8147 48.5355L39.6394 53.4827C39.4236 53.7985 39.1871 54.0996 38.9316 54.384C38.6798 54.6754 38.3977 54.9389 38.09 55.1702C37.8074 55.4134 37.4996 55.6256 37.1718 55.8029C36.8625 55.9933 36.5358 56.1538 36.1962 56.2823C35.9173 56.4008 35.6295 56.497 35.3354 56.5699C35.0844 56.6395 34.8287 56.6907 34.5703 56.7233C34.1755 56.7732 33.3179 56.8006 33.3179 56.8006C33.3179 56.8006 33.3179 56.8006 32.1792 56.7233C31.7166 56.6411 31.2666 56.4994 30.8402 56.3015L30.3811 56.0714L29.9221 55.8029L29.3482 55.4386C28.7215 54.9409 28.179 54.3452 27.7414 53.6745L24.5661 48.6506L21.1612 43.2432V84.0479C21.1612 84.5005 20.9818 84.9346 20.6625 85.2547C20.3433 85.5747 19.9102 85.7545 19.4587 85.7545H12.2038C11.2737 85.7571 10.3522 85.5753 9.49236 85.2196C8.63252 84.864 7.8513 84.3415 7.19358 83.6821C6.53586 83.0228 6.01463 82.2397 5.65984 81.3778C5.30505 80.5158 5.12371 79.5921 5.12623 78.6597V14.8448C5.12106 14.6461 5.15598 14.4484 5.22889 14.2635C5.3018 14.0786 5.4112 13.9104 5.55052 13.769C5.68985 13.6275 5.85625 13.5157 6.03972 13.4403C6.2232 13.3648 6.41998 13.3273 6.61827 13.33H19.7265H20.0517C20.1699 13.3457 20.2819 13.392 20.3769 13.4642C20.4894 13.5096 20.593 13.5745 20.683 13.6559L20.9125 13.9052C20.9721 13.9864 21.0174 14.0772 21.0464 14.1737L33.6521 34.0391L46.3726 14.0203C46.4193 13.9418 46.4773 13.8707 46.5448 13.8093C46.606 13.7417 46.6769 13.6835 46.7552 13.6368C46.916 13.5061 47.0969 13.4025 47.2908 13.33H47.616L59.4283 13.2308C59.6183 13.2308 59.8065 13.2686 59.9818 13.3421C60.1571 13.4155 60.3161 13.5232 60.4496 13.6588C60.583 13.7944 60.6883 13.9552 60.7593 14.1319C60.8303 14.3086 60.8655 14.4976 60.8629 14.6881V83.9488Z" fill="#D2ECFF"/>
</svg>
