<svg width="67" height="29" viewBox="0 0 67 29" fill="none" xmlns="http://www.w3.org/2000/svg">
<path d="M63.109 3.87056C63.1031 3.83752 63.0874 3.80717 63.064 3.78373C63.0451 3.75663 63.02 3.73476 62.9909 3.72005C60.1086 2.1879 56.9118 1.38841 53.6679 1.38841C50.424 1.38841 47.2273 2.1879 44.3449 3.72005C44.3168 3.73629 44.292 3.75791 44.2718 3.78373C44.2515 3.80939 44.2362 3.83888 44.2268 3.87056C43.0073 8.51098 43.3706 13.4416 45.2558 17.8396C45.6654 18.7941 46.3347 19.606 47.1829 20.1773C48.0311 20.7485 49.0219 21.0545 50.0354 21.0583H59.9207C60.0777 21.0537 60.2316 21.0121 60.3706 20.9368C60.5105 20.8562 60.6284 20.7408 60.7136 20.601C62.2228 18.1379 63.2155 15.3774 63.628 12.4963C64.0405 9.61523 63.8637 6.67721 63.109 3.87056ZM53.4093 16.2997C52.1361 16.2587 50.9222 15.8788 49.8283 15.2068C48.7345 14.5349 47.8248 13.5872 47.1852 12.4531C46.5455 11.3191 46.1969 10.036 46.1722 8.72484C46.1475 7.41368 46.4475 6.11765 47.044 4.95891C47.0718 4.90023 47.1122 4.84878 47.1621 4.8084C47.2111 4.76769 47.269 4.73987 47.3308 4.72735C49.0988 4.23538 50.9155 3.95183 52.7457 3.88214C53.1962 4.83648 53.4307 5.88351 53.4318 6.94456C53.4333 8.03652 53.1848 9.11347 52.7064 10.088C52.6926 10.1333 52.6926 10.1818 52.7064 10.227C52.7107 10.2747 52.7305 10.3196 52.7626 10.3543C53.0894 10.7237 53.3777 11.1273 53.6229 11.5585C53.6634 11.6306 53.7216 11.6905 53.7917 11.7322C53.8618 11.7739 53.9412 11.7958 54.0222 11.7958C54.1013 11.7953 54.1789 11.7734 54.2471 11.7321C54.319 11.693 54.3778 11.6325 54.4158 11.5585C54.6484 11.1273 54.9235 10.7218 55.2367 10.3485C55.2667 10.3123 55.2861 10.2682 55.293 10.2212C55.3037 10.1755 55.3037 10.1279 55.293 10.0822C54.8545 9.1816 54.609 8.19449 54.5732 7.18771C54.5391 6.1776 54.7195 5.172 55.1018 4.24107C55.1376 4.14817 55.203 4.07058 55.2874 4.02108C55.3683 3.96469 55.4654 3.93817 55.5629 3.94582C57.0679 4.06557 58.5588 4.32914 60.0163 4.73314C60.0785 4.7478 60.1363 4.77757 60.185 4.81997C60.2331 4.85991 60.2732 4.90906 60.3031 4.9647C60.9159 6.16379 61.2143 7.50664 61.1691 8.86075C61.0958 10.9057 60.2377 12.8373 58.783 14.2319C57.3283 15.6264 55.3958 16.3701 53.4093 16.2997ZM54.3089 27.2469C55.8274 26.27 57.1925 25.0867 58.4138 23.7387C58.4435 23.7046 58.463 23.6624 58.47 23.6171C58.4841 23.5739 58.4841 23.5271 58.47 23.484C58.4548 23.44 58.4249 23.4031 58.3857 23.3798C58.3495 23.3526 58.3066 23.3365 58.2619 23.3334H49.2651C49.2204 23.3365 49.1775 23.3526 49.1414 23.3798C49.1022 23.4031 49.0723 23.44 49.057 23.484C49.0458 23.5276 49.0458 23.5735 49.057 23.6171C49.0685 23.6619 49.0896 23.7035 49.1189 23.7387C50.3643 25.0965 51.7808 26.2763 53.3305 27.2469C53.4779 27.3394 53.6471 27.3884 53.8197 27.3884C53.9923 27.3884 54.1616 27.3394 54.3089 27.2469Z" fill="#0B2540"/>
<path d="M51.8628 7.77203C51.8629 8.16307 51.7515 8.54553 51.5423 8.87196C51.3281 9.196 51.0273 9.44933 50.6764 9.60138C50.3211 9.75438 49.9295 9.7947 49.5518 9.71716C49.1795 9.63774 48.8376 9.44869 48.5677 9.17299C48.2996 8.89625 48.1175 8.54357 48.0448 8.1599C47.9649 7.77178 48.0022 7.36777 48.1516 7.00209C48.298 6.64149 48.5445 6.33339 48.8601 6.11636C49.1756 5.89678 49.5478 5.77981 49.9285 5.78059C50.0648 5.77879 50.2008 5.79434 50.3334 5.8269C50.2047 5.92438 50.1022 6.05384 50.0354 6.20319C49.9632 6.35028 49.9265 6.51312 49.9285 6.6779C49.9285 6.81998 49.9559 6.96065 50.009 7.0918C50.062 7.22295 50.1398 7.34199 50.2378 7.44206C50.3346 7.54344 50.4502 7.62384 50.5776 7.67853C50.7051 7.73321 50.8419 7.76107 50.98 7.76045C51.1401 7.7625 51.2982 7.72477 51.4411 7.65046C51.5848 7.58204 51.7102 7.47874 51.8066 7.34943C51.8433 7.48715 51.8622 7.62924 51.8628 7.77203Z" fill="#0B2540"/>
<path d="M59.3248 7.7727C59.3255 8.1647 59.2119 8.54789 58.9986 8.87263C58.7858 9.19805 58.4846 9.45174 58.1327 9.60205C57.7776 9.75609 57.3857 9.79644 57.0081 9.71783C56.6358 9.63841 56.2939 9.44936 56.024 9.17366C55.7536 8.89739 55.5695 8.54423 55.4953 8.15949C55.4212 7.77475 55.4604 7.37597 55.6079 7.01433C55.7501 6.65287 55.9951 6.34412 56.3108 6.12861C56.6268 5.91032 56.9986 5.79347 57.3792 5.79284C57.5155 5.79042 57.6516 5.80598 57.784 5.83915C57.6585 5.93988 57.5566 6.06851 57.486 6.21544C57.4164 6.36346 57.3799 6.52568 57.3792 6.69015C57.3795 6.83354 57.4082 6.97538 57.4635 7.10696C57.5158 7.23674 57.5922 7.35474 57.6885 7.4543C57.7854 7.55726 57.9023 7.63812 58.0315 7.69166C58.1604 7.74413 58.2977 7.77161 58.4363 7.7727C58.5952 7.77215 58.7519 7.73494 58.8949 7.66381C59.038 7.59268 59.1637 7.48944 59.2629 7.36168C59.2977 7.49602 59.3185 7.63381 59.3248 7.7727Z" fill="#0B2540"/>
<path d="M64.9702 21.3656V23.0502C64.9659 23.1258 64.9361 23.1975 64.8858 23.2528C64.8336 23.3069 64.763 23.338 64.689 23.3397H60.393C60.3477 23.34 60.3031 23.328 60.2637 23.3049C60.2282 23.2773 60.1994 23.2416 60.1793 23.2007C60.1681 23.1571 60.1681 23.1112 60.1793 23.0676C60.1853 23.0231 60.2027 22.9811 60.2299 22.946C60.6555 22.4162 61.0534 21.8635 61.422 21.2903C61.4656 21.2269 61.5235 21.1752 61.5907 21.1398C61.6557 21.1013 61.7294 21.0813 61.8044 21.0819H64.6778C64.7511 21.0815 64.8218 21.1106 64.8746 21.163C64.9282 21.2172 64.9619 21.2887 64.9702 21.3656Z" fill="#0B2540"/>
<path d="M47.3931 21.2846C47.7811 21.8635 48.1916 22.4134 48.6302 22.946C48.66 22.9801 48.6795 23.0223 48.6864 23.0676C48.7002 23.1109 48.7002 23.1575 48.6864 23.2007C48.6697 23.2423 48.64 23.2769 48.6021 23.2992C48.5655 23.3246 48.5225 23.3387 48.4784 23.3397H44.0643C44.0274 23.3401 43.9909 23.3327 43.957 23.3177C43.9231 23.3027 43.8926 23.2807 43.8675 23.2528C43.815 23.1991 43.7848 23.1264 43.7831 23.0502V21.3714C43.7848 21.2952 43.815 21.2226 43.8675 21.1688C43.8926 21.141 43.9231 21.1189 43.957 21.1039C43.9909 21.089 44.0274 21.0815 44.0643 21.0819H47.0052C47.0812 21.0813 47.1564 21.0992 47.2245 21.134C47.2917 21.1694 47.3496 21.2211 47.3931 21.2846Z" fill="#0B2540"/>
<path d="M41.4354 4.0104V23.0178C41.4326 23.1421 41.3818 23.2604 41.2937 23.3477C41.2056 23.4351 41.087 23.4847 40.963 23.486H39.0511C38.6283 23.4863 38.2178 23.3435 37.886 23.081C37.8127 23.0273 37.7426 22.9693 37.6761 22.9073C37.5565 22.8008 37.4539 22.6766 37.3717 22.5391L30.5492 11.8017V23.0073C30.5492 23.1306 30.5007 23.2489 30.4143 23.3365C30.3278 23.4242 30.2103 23.4741 30.0874 23.4755H28.1165C27.8611 23.4755 27.6081 23.425 27.3722 23.3268C27.1363 23.2287 26.922 23.0848 26.7416 22.9035C26.5612 22.7222 26.4183 22.507 26.321 22.2703C26.2237 22.0335 26.174 21.7798 26.1747 21.5237V4.02618C26.1747 3.91826 26.2171 3.81468 26.2927 3.73787C26.3684 3.66106 26.4712 3.61722 26.5788 3.61584H30.1766C30.2061 3.61083 30.2363 3.61083 30.2658 3.61584C30.3326 3.62686 30.3936 3.66025 30.439 3.71053L30.4967 3.77366L30.5387 3.84205L37.1093 14.227V4.02618C37.1093 3.91735 37.1524 3.81298 37.2292 3.73603C37.3059 3.65907 37.4101 3.61584 37.5186 3.61584H41.0418C41.1457 3.6172 41.2451 3.65921 41.3186 3.73291C41.3921 3.80661 41.434 3.90618 41.4354 4.0104Z" fill="#0B2540"/>
<path d="M19.8027 3.61209H23.063C23.1423 3.61209 23.2184 3.64368 23.2745 3.69991C23.3306 3.75615 23.3621 3.83242 23.3621 3.91195V23.1298C23.3621 23.2247 23.3245 23.3157 23.2576 23.3828C23.1907 23.4498 23.0999 23.4875 23.0052 23.4875L20.9625 23.4875C20.5728 23.4875 20.199 23.3323 19.9234 23.0561C19.6479 22.7798 19.493 22.4052 19.493 22.0145V3.92774C19.4923 3.88653 19.4998 3.84561 19.5151 3.80734C19.5303 3.76907 19.553 3.73423 19.5819 3.70485C19.6107 3.67547 19.645 3.65213 19.683 3.63621C19.7209 3.62028 19.7616 3.61208 19.8027 3.61209Z" fill="#0B2540"/>
<path d="M16.6803 23.014C16.6803 23.076 16.6681 23.1373 16.6443 23.1944C16.6205 23.2516 16.5856 23.3034 16.5417 23.347C16.4977 23.3905 16.4456 23.4249 16.3883 23.4481C16.3311 23.4714 16.2698 23.483 16.208 23.4823L14.5836 23.5095C14.0686 23.5095 13.5747 23.3044 13.2106 22.9393C12.8464 22.5743 12.6418 22.0792 12.6418 21.563V11.8462L11.7287 13.2982L10.8575 14.6555C10.7983 14.7421 10.7334 14.8247 10.6633 14.9027C10.5942 14.9827 10.5168 15.055 10.4324 15.1184C10.3549 15.1852 10.2704 15.2434 10.1805 15.292C10.0956 15.3443 10.006 15.3883 9.91283 15.4236C9.83631 15.4561 9.75734 15.4825 9.67667 15.5025C9.60779 15.5215 9.53764 15.5356 9.46675 15.5446C9.35842 15.5582 9.12315 15.5658 9.12315 15.5658C9.12315 15.5658 9.12315 15.5658 8.81074 15.5446C8.68382 15.522 8.56034 15.4831 8.44338 15.4288L8.31742 15.3657L8.19147 15.292L8.03403 15.1921C7.8621 15.0555 7.71324 14.8921 7.59319 14.7081L6.72201 13.3297L5.78786 11.8462V23.0412C5.78786 23.1654 5.73865 23.2845 5.65105 23.3723C5.56346 23.4601 5.44466 23.5095 5.32078 23.5095H3.33035C3.07515 23.5102 2.82234 23.4603 2.58644 23.3627C2.35054 23.2651 2.1362 23.1218 1.95576 22.9409C1.77531 22.76 1.6323 22.5451 1.53496 22.3087C1.43763 22.0722 1.38787 21.8188 1.38857 21.563V4.0549C1.38715 4.00038 1.39673 3.94613 1.41673 3.89541C1.43673 3.84469 1.46675 3.79854 1.50497 3.75973C1.5432 3.72092 1.58885 3.69025 1.63919 3.66955C1.68952 3.64886 1.74351 3.63857 1.79791 3.63929H5.39425H5.48347C5.51589 3.64362 5.54663 3.65631 5.57269 3.67612C5.60354 3.68858 5.63196 3.70639 5.65666 3.72873L5.71963 3.79712C5.73599 3.81938 5.74841 3.84429 5.75637 3.87077L9.21484 9.32099L12.7048 3.82868C12.7176 3.80715 12.7335 3.78765 12.752 3.77081C12.7688 3.75225 12.7883 3.73629 12.8098 3.72347C12.8539 3.68762 12.9035 3.6592 12.9567 3.63929H13.0459L16.2867 3.61209C16.3388 3.61208 16.3905 3.62246 16.4386 3.64262C16.4867 3.66277 16.5303 3.69231 16.5669 3.7295C16.6035 3.7667 16.6324 3.81082 16.6519 3.8593C16.6713 3.90778 16.681 3.95965 16.6803 4.01191V23.014Z" fill="#0B2540"/>
</svg>
